<?xml version="1.0" encoding="UTF-8" standalone="no"?>
<!-- Created with Inkscape (http://www.inkscape.org/) -->

<svg
   xmlns:dc="http://purl.org/dc/elements/1.1/"
   xmlns:cc="http://creativecommons.org/ns#"
   xmlns:rdf="http://www.w3.org/1999/02/22-rdf-syntax-ns#"
   xmlns:svg="http://www.w3.org/2000/svg"
   xmlns="http://www.w3.org/2000/svg"
   xmlns:xlink="http://www.w3.org/1999/xlink"
   xmlns:sodipodi="http://sodipodi.sourceforge.net/DTD/sodipodi-0.dtd"
   xmlns:inkscape="http://www.inkscape.org/namespaces/inkscape"
   width="50mm"
   height="50mm"
   viewBox="0 0 50 50"
   version="1.1"
   id="svg6800"
   inkscape:version="0.92.2 5c3e80d, 2017-08-06"
   sodipodi:docname="comillas.svg">
  <defs
     id="defs6794">
    <linearGradient
       inkscape:collect="always"
       xlink:href="#linearGradient5972"
       id="linearGradient5929-7"
       x1="717.57458"
       y1="291.4213"
       x2="738.06128"
       y2="291.4213"
       gradientUnits="userSpaceOnUse"
       gradientTransform="matrix(1.9115888,0,0,1.9115888,-1366.6999,-283.33011)" />
    <linearGradient
       inkscape:collect="always"
       id="linearGradient5972">
      <stop
         style="stop-color:#1f1b26;stop-opacity:1;"
         offset="0"
         id="stop5968" />
      <stop
         style="stop-color:#65303b;stop-opacity:1"
         offset="1"
         id="stop5970" />
    </linearGradient>
  </defs>
  <sodipodi:namedview
     id="base"
     pagecolor="#ffffff"
     bordercolor="#666666"
     borderopacity="1.0"
     inkscape:pageopacity="0.0"
     inkscape:pageshadow="2"
     inkscape:zoom="0.9899495"
     inkscape:cx="-72.282474"
     inkscape:cy="50.406724"
     inkscape:document-units="mm"
     inkscape:current-layer="layer1"
     showgrid="false"
     inkscape:window-width="2151"
     inkscape:window-height="1315"
     inkscape:window-x="1125"
     inkscape:window-y="125"
     inkscape:window-maximized="0" />
  <metadata
     id="metadata6797">
    <rdf:RDF>
      <cc:Work
         rdf:about="">
        <dc:format>image/svg+xml</dc:format>
        <dc:type
           rdf:resource="http://purl.org/dc/dcmitype/StillImage" />
        <dc:title></dc:title>
      </cc:Work>
    </rdf:RDF>
  </metadata>
  <g
     inkscape:label="Capa 1"
     inkscape:groupmode="layer"
     id="layer1"
     transform="translate(0,-247)">
    <path
       inkscape:connector-curvature="0"
       id="path5448-9"
       d="m 44.05938,254.77318 c 0.06079,0.0608 0.11049,5.1975 0.11049,11.41511 0,12.215 -0.06002,13.33243 -0.895713,16.64088 -0.548932,2.17351 -1.90704,4.88105 -3.136535,6.25302 -2.561319,2.85815 -6.071206,3.98881 -11.387277,3.6683 l -2.447541,-0.14739 v -3.75289 -3.75288 l 1.060626,-0.13248 c 1.79609,-0.22455 3.225137,-0.57401 4.164357,-1.01832 1.699001,-0.80379 3.066533,-2.53184 3.608583,-4.56002 0.2759,-1.03199 0.442629,-4.47281 0.269075,-5.54775 l -0.131899,-0.81583 -3.098437,-0.0816 -3.098399,-0.0816 v -9.05592 -9.05589 l 7.436176,-0.0424 c 4.089883,-0.0227 7.485877,0.006 7.54657,0.0681 z m -21.984953,0.11527 c 0.04779,0.12406 0.05716,5.65033 0.0195,12.28016 -0.07054,12.91229 -0.06327,12.79176 -0.949295,16.05186 -0.438633,1.61394 -1.737137,4.25451 -2.667317,5.42404 -1.417156,1.78189 -3.435813,3.06229 -5.908071,3.74738 -1.089491,0.3019 -1.704563,0.35454 -4.1407105,0.35441 -1.573658,-1e-4 -2.987106,-0.0484 -3.141008,-0.10743 -0.253171,-0.0973 -0.2798,-0.46566 -0.2798,-3.85805 v -3.75061 l 0.611881,-0.0921 c 2.855837,-0.42936 4.4743215,-1.11646 5.7116735,-2.42481 0.955795,-1.0106 1.38552,-1.78955 1.738227,-3.15059 0.323001,-1.2471 0.478547,-3.90272 0.309047,-5.27973 l -0.130753,-1.06059 -3.100196,-0.0816 -3.1002325,-0.0816 v -9.0559 -9.05592 l 7.4694945,-0.0424 c 6.240897,-0.0354 7.483774,-0.006 7.556185,0.18351 z"
       style="fill:url(#linearGradient5929-7);fill-opacity:1;stroke-width:1" />
  </g>
</svg>
