<?xml version="1.0" encoding="UTF-8" standalone="no"?>
<!-- Created with Inkscape (http://www.inkscape.org/) -->

<svg
   xmlns:dc="http://purl.org/dc/elements/1.1/"
   xmlns:cc="http://creativecommons.org/ns#"
   xmlns:rdf="http://www.w3.org/1999/02/22-rdf-syntax-ns#"
   xmlns:svg="http://www.w3.org/2000/svg"
   xmlns="http://www.w3.org/2000/svg"
   xmlns:xlink="http://www.w3.org/1999/xlink"
   xmlns:sodipodi="http://sodipodi.sourceforge.net/DTD/sodipodi-0.dtd"
   xmlns:inkscape="http://www.inkscape.org/namespaces/inkscape"
   width="50mm"
   height="50mm"
   viewBox="0 0 50 50"
   version="1.1"
   id="svg6800"
   inkscape:version="0.92.2 5c3e80d, 2017-08-06"
   sodipodi:docname="comillas.svg">
  <defs
     id="defs6794">
    <linearGradient
       inkscape:collect="always"
       xlink:href="#linearGradient5881"
       id="linearGradient5929"
       x1="717.57458"
       y1="291.4213"
       x2="738.06128"
       y2="291.4213"
       gradientUnits="userSpaceOnUse"
       gradientTransform="matrix(1.7239091,0,0,1.7239091,-1229.1414,-229.18158)" />
    <linearGradient
       inkscape:collect="always"
       id="linearGradient5881">
      <stop
         style="stop-color:#464038;stop-opacity:1;"
         offset="0"
         id="stop5877" />
      <stop
         style="stop-color:#927f4b;stop-opacity:1"
         offset="1"
         id="stop5879" />
    </linearGradient>
  </defs>
  <sodipodi:namedview
     id="base"
     pagecolor="#ffffff"
     bordercolor="#666666"
     borderopacity="1.0"
     inkscape:pageopacity="0.0"
     inkscape:pageshadow="2"
     inkscape:zoom="0.49497475"
     inkscape:cx="-934.50845"
     inkscape:cy="404.07669"
     inkscape:document-units="mm"
     inkscape:current-layer="layer1"
     showgrid="false"
     inkscape:window-width="2151"
     inkscape:window-height="1315"
     inkscape:window-x="429"
     inkscape:window-y="44"
     inkscape:window-maximized="0" />
  <metadata
     id="metadata6797">
    <rdf:RDF>
      <cc:Work
         rdf:about="">
        <dc:format>image/svg+xml</dc:format>
        <dc:type
           rdf:resource="http://purl.org/dc/dcmitype/StillImage" />
        <dc:title></dc:title>
      </cc:Work>
    </rdf:RDF>
  </metadata>
  <g
     inkscape:label="Capa 1"
     inkscape:groupmode="layer"
     id="layer1"
     transform="translate(0,-247)">
    <path
       inkscape:connector-curvature="0"
       id="path5448"
       d="m 43.109696,256.09077 c 0.05481,0.0548 0.09964,4.6872 0.09964,10.29437 0,11.01573 -0.05413,12.02346 -0.807771,15.00708 -0.495038,1.96012 -1.719806,4.40183 -2.828591,5.6391 -2.309848,2.57754 -5.475135,3.5972 -10.269275,3.30815 l -2.207241,-0.13292 v -3.38443 -3.38442 l 0.956494,-0.11947 c 1.61975,-0.20251 2.908493,-0.51766 3.755502,-0.91835 1.532193,-0.72487 2.76546,-2.28326 3.254292,-4.11231 0.248811,-0.93067 0.399171,-4.03367 0.242657,-5.00308 l -0.118949,-0.73573 -2.794233,-0.0736 -2.794199,-0.0737 v -8.16681 -8.16677 l 6.706093,-0.0383 c 3.688338,-0.0205 6.750915,0.006 6.805649,0.0613 z m -19.826473,0.10401 c 0.0431,0.11188 0.05155,5.09558 0.01758,11.07449 -0.06362,11.64456 -0.05707,11.53586 -0.856094,14.4759 -0.395568,1.45547 -1.566585,3.83679 -2.405439,4.89149 -1.27802,1.60695 -3.098485,2.76164 -5.328017,3.37947 -0.982525,0.27226 -1.537209,0.31974 -3.734176,0.31962 -1.4191567,-9e-5 -2.6938327,-0.0437 -2.8326242,-0.0969 -0.2283145,-0.0878 -0.2523284,-0.41993 -0.2523284,-3.47926 v -3.38237 l 0.5518055,-0.0831 c 2.5754521,-0.38721 4.0350341,-1.00686 5.1509021,-2.18675 0.861955,-0.91138 1.249489,-1.61385 1.567568,-2.84126 0.291289,-1.12466 0.431563,-3.51955 0.278705,-4.76137 l -0.117915,-0.95645 -2.795819,-0.0736 -2.7958527,-0.0736 v -8.16679 -8.16682 l 6.7361397,-0.0383 c 5.628167,-0.0319 6.749018,-0.006 6.81432,0.1655 z"
       style="fill:url(#linearGradient5929);fill-opacity:1;stroke-width:1" />
  </g>
</svg>
