<svg xmlns="http://www.w3.org/2000/svg" width="50mm" height="50mm" viewBox="0 0 50 50"><defs><filter color-interpolation-filters="sRGB"><feColorMatrix type="luminanceToAlpha" result="colormatrix1"/><feFlood flood-opacity="1" flood-color="#b31f55" result="flood1"/><feComposite in2="colormatrix1" operator="out" result="composite1"/><feFlood flood-opacity="1" flood-color="#ea3178" result="flood2"/><feComposite in2="colormatrix1" result="composite2" operator="in"/><feComposite in="composite2" in2="composite1" k2="1" k3="1" operator="arithmetic" result="composite3"/><feColorMatrix in="composite3" values="2 -1 0 0 0 0 2 -1 0 0 -1 0 2 0 0 0 0 0 1 0" result="colormatrix2"/><feComposite in="colormatrix2" in2="composite3" operator="arithmetic" result="composite4"/><feBlend in="composite4" in2="composite3" result="blend"/><feComposite in2="SourceGraphic" operator="in"/></filter></defs><g><g><path fill="#fff" d="M8.94 40.74c-.14-.03-.33-.07-.4-.1-.24-.1-.57-.4-.7-.67l-.14-.24v-7.4c0-7.9 0-8.04.3-10.14.64-4.76 2.2-8.28 4.78-10.77 1.56-1.5 3.2-2.44 5.26-2.97.92-.24 1.75-.34 2.82-.34h.98l.3.17c.33.2.6.64.67 1.03.06.35.06 5.87 0 6.22-.04.4-.33.83-.66 1.03-.22.14-.38.18-.94.25-.8.1-1.1.18-1.56.46-1.6.95-2.5 3.25-2.8 7.2-.07.8-.06.86.04.93.08.06.6.08 2.46.08 2.55 0 2.55 0 2.97.33.12.08.27.28.36.45l.15.3v13.09l-.16.3c-.18.35-.4.53-.75.7-.22.1-.63.1-6.47.1-3.43 0-6.35 0-6.5-.03zm20 0c-.66-.1-1.15-.65-1.22-1.35-.03-.2-.03-3.54 0-7.4.03-7.58.04-7.88.36-10.07.4-2.76 1.04-4.86 2.1-6.92 2.08-4 5.48-6.4 9.7-6.85.75-.1 1.75-.08 2.02 0 .3.1.66.4.82.7.13.24.13.27.15 3.47.02 3.58.02 3.55-.37 4-.25.3-.63.46-1.2.5-.9.08-1.54.34-2.14.9-.86.8-1.47 2.12-1.84 3.96-.3 1.46-.48 3.67-.32 3.78.04.02 1.12.05 2.38.05 1.58 0 2.37.03 2.52.07.3.1.66.4.82.7l.13.25v13.2l-.13.25c-.15.3-.5.6-.8.7-.2.08-1.28.1-6.46.1-3.42 0-6.35 0-6.5-.03z"/></g></g></svg>