<?xml version="1.0" encoding="UTF-8" standalone="no"?>
<!-- Created with Inkscape (http://www.inkscape.org/) -->

<svg
   xmlns:dc="http://purl.org/dc/elements/1.1/"
   xmlns:cc="http://creativecommons.org/ns#"
   xmlns:rdf="http://www.w3.org/1999/02/22-rdf-syntax-ns#"
   xmlns:svg="http://www.w3.org/2000/svg"
   xmlns="http://www.w3.org/2000/svg"
   xmlns:sodipodi="http://sodipodi.sourceforge.net/DTD/sodipodi-0.dtd"
   xmlns:inkscape="http://www.inkscape.org/namespaces/inkscape"
   width="50mm"
   height="50mm"
   viewBox="0 0 50 50"
   version="1.1"
   id="svg32352"
   inkscape:version="0.92.2 5c3e80d, 2017-08-06"
   sodipodi:docname="comillas.svg">
  <defs
     id="defs32346">
    <filter
       style="color-interpolation-filters:sRGB"
       inkscape:label="Duochrome"
       id="filter32145">
      <feColorMatrix
         type="luminanceToAlpha"
         result="colormatrix1"
         id="feColorMatrix32125" />
      <feFlood
         flood-opacity="1"
         flood-color="rgb(179,31,85)"
         result="flood1"
         id="feFlood32127" />
      <feComposite
         in2="colormatrix1"
         operator="out"
         result="composite1"
         id="feComposite32129" />
      <feFlood
         flood-opacity="1"
         flood-color="rgb(234,49,120)"
         result="flood2"
         id="feFlood32131" />
      <feComposite
         in2="colormatrix1"
         result="composite2"
         operator="in"
         id="feComposite32133" />
      <feComposite
         k4="0"
         k1="0"
         in="composite2"
         in2="composite1"
         k2="1"
         k3="1"
         operator="arithmetic"
         result="composite3"
         id="feComposite32135" />
      <feColorMatrix
         in="composite3"
         type="matrix"
         values="2 -1 0 0 0 0 2 -1 0 0 -1 0 2 0 0 0 0 0 1 0 "
         result="colormatrix2"
         id="feColorMatrix32137" />
      <feComposite
         k4="0"
         k3="0"
         k1="0"
         in="colormatrix2"
         in2="composite3"
         operator="arithmetic"
         k2="0"
         result="composite4"
         id="feComposite32139" />
      <feBlend
         in="composite4"
         in2="composite3"
         mode="normal"
         result="blend"
         id="feBlend32141" />
      <feComposite
         in2="SourceGraphic"
         operator="in"
         id="feComposite32143" />
    </filter>
  </defs>
  <sodipodi:namedview
     id="base"
     pagecolor="#ffffff"
     bordercolor="#666666"
     borderopacity="1.0"
     inkscape:pageopacity="0.0"
     inkscape:pageshadow="2"
     inkscape:zoom="0.98994949"
     inkscape:cx="-135.04143"
     inkscape:cy="236.90286"
     inkscape:document-units="mm"
     inkscape:current-layer="g32301"
     showgrid="false"
     inkscape:window-width="3200"
     inkscape:window-height="1663"
     inkscape:window-x="367"
     inkscape:window-y="32"
     inkscape:window-maximized="0" />
  <metadata
     id="metadata32349">
    <rdf:RDF>
      <cc:Work
         rdf:about="">
        <dc:format>image/svg+xml</dc:format>
        <dc:type
           rdf:resource="http://purl.org/dc/dcmitype/StillImage" />
        <dc:title></dc:title>
      </cc:Work>
    </rdf:RDF>
  </metadata>
  <g
     inkscape:label="Capa 1"
     inkscape:groupmode="layer"
     id="layer1"
     transform="translate(0,-247)">
    <g
       transform="translate(-4650.412,-405.37282)"
       id="g32301">
      <path
         style="fill:white;stroke-width:0.05769542"
         d="m 4659.3539,693.11278 c -0.1416,-0.026 -0.3283,-0.0728 -0.4119,-0.10549 -0.2312,-0.0902 -0.5607,-0.4035 -0.702,-0.66743 l -0.1272,-0.23613 v -7.41385 c 0,-7.8859 0,-8.02949 0.2905,-10.12554 0.648,-4.74722 2.2188,-8.27434 4.7925,-10.7621 1.5523,-1.50024 3.2104,-2.43631 5.2575,-2.96845 0.9209,-0.23931 1.7451,-0.3398 2.818,-0.34362 l 0.985,-0.003 0.2832,0.17514 c 0.3402,0.20954 0.626,0.64761 0.6803,1.04287 0.049,0.35101 0.049,5.86722 0,6.21824 -0.052,0.38743 -0.3401,0.83356 -0.6661,1.03451 -0.2255,0.13873 -0.3839,0.18006 -0.9454,0.24538 -0.7841,0.091 -1.0928,0.18266 -1.5607,0.46306 -1.5957,0.95608 -2.4876,3.2525 -2.7966,7.20151 -0.064,0.81021 -0.061,0.86515 0.038,0.93758 0.084,0.0613 0.589,0.0769 2.4616,0.0769 2.5494,0 2.5471,-2.1e-4 2.9705,0.32269 0.1069,0.08 0.263,0.28063 0.3491,0.44535 l 0.1561,0.29933 v 6.54844 6.54845 l -0.1705,0.30982 c -0.185,0.33186 -0.3911,0.51949 -0.7546,0.68362 -0.211,0.0962 -0.6174,0.10347 -6.4587,0.11127 -3.4272,0.006 -6.3483,-0.0116 -6.4908,-0.0376 z m 19.9983,-0.002 c -0.6586,-0.11243 -1.1453,-0.65101 -1.2202,-1.35053 -0.029,-0.19913 -0.029,-3.5264 0,-7.39434 0.032,-7.57512 0.04,-7.87379 0.359,-10.06164 0.4017,-2.7629 1.0407,-4.85837 2.1089,-6.91798 2.0766,-4.0034 5.4749,-6.40905 9.7018,-6.86806 0.7402,-0.0804 1.7364,-0.0775 2.0151,0.006 0.2895,0.0867 0.6543,0.40141 0.8161,0.7037 0.1272,0.23757 0.1301,0.26012 0.1446,3.46386 0.029,3.58493 0.029,3.55221 -0.3619,3.99961 -0.2543,0.29833 -0.637,0.45732 -1.2121,0.5055 -0.9058,0.076 -1.5327,0.34081 -2.1321,0.90153 -0.8633,0.80758 -1.4743,2.11938 -1.8414,3.9539 -0.293,1.46544 -0.4803,3.67417 -0.3199,3.77574 0.046,0.0289 1.117,0.0517 2.3824,0.0523 1.5771,6.6e-4 2.3716,0.0231 2.5245,0.0676 0.2896,0.0867 0.6547,0.40142 0.8162,0.7037 l 0.1301,0.23902 v 6.6061 6.60613 l -0.1301,0.23902 c -0.1532,0.28948 -0.5124,0.60619 -0.8081,0.71561 -0.182,0.0668 -1.2763,0.0821 -6.4491,0.0907 -3.4269,0.006 -6.3579,-0.0116 -6.5125,-0.0379 z"
         id="path32289"
         inkscape:connector-curvature="0" />
    </g>
  </g>
</svg>
