<svg xmlns="http://www.w3.org/2000/svg" width="512" height="512" viewBox="0 0 90 90" enable-background="new 0 0 90 90"><path fill="#fff" d="M70.94 65.83H66l.02-2.87c0-1.27 1.05-2.32 2.33-2.32h.3c1.3 0 2.35 1.05 2.35 2.32l-.06 2.87zM52.4 59.68c-1.24 0-2.27.85-2.27 1.88V75.5c0 1.04 1.03 1.88 2.28 1.88 1.27 0 2.3-.84 2.3-1.87V61.57c0-1.04-1.03-1.88-2.3-1.88zm30.1-7.8v26.54C82.5 84.8 76.98 90 70.23 90H19.77C13.02 90 7.5 84.8 7.5 78.42V51.88c0-6.37 5.52-11.58 12.27-11.58h50.46c6.75 0 12.27 5.2 12.27 11.58zM23.14 81.3V53.35h6.25V49.2l-16.7-.02v4.07l5.22.02V81.3h5.22zM41.9 57.5h-5.23v14.94c0 2.16.13 3.24 0 3.62-.43 1.16-2.34 2.4-3.08.13-.14-.4-.02-1.6-.03-3.66l-.02-15.03h-5.18v14.8c.02 2.27-.04 3.97.03 4.74.13 1.35.08 2.93 1.34 3.84 2.35 1.7 6.84-.25 7.97-2.67v3.1h4.2V57.5zm16.67 17.1V62.2c-.02-4.74-3.56-7.57-8.37-3.74l.02-9.24h-5.2l-.03 31.9 4.27-.06.4-2c5.47 5.03 8.9 1.6 8.9-4.43zm16.32-1.64l-3.92.02c0 .16 0 .33 0 .53v2.2c0 1.16-.97 2.1-2.15 2.1h-.76c-1.18 0-2.14-.94-2.14-2.1v-5.75h8.95v-3.37c0-2.46-.06-4.92-.26-6.33-.64-4.45-6.9-5.16-10.05-2.88-1 .7-1.75 1.66-2.2 2.94-.44 1.3-.66 3.05-.66 5.27v7.4c0 12.33 14.98 10.6 13.2 0zM54.82 32.73c.27.66.7 1.2 1.26 1.6.55.38 1.26.58 2.12.58.75 0 1.42-.2 2-.6.58-.43 1.06-1.05 1.46-1.88l-.1 2.04h5.82V9.74h-4.58v19.24c0 1.04-.86 1.9-1.9 1.9-1.05 0-1.9-.86-1.9-1.9V9.74h-4.8V26.4c0 2.14.05 3.55.12 4.27.06.7.22 1.4.5 2.06zm-17.6-13.96c0-2.37.2-4.23.58-5.56.4-1.32 1.12-2.4 2.15-3.2 1.02-.8 2.34-1.22 3.94-1.22 1.33 0 2.48.27 3.45.78.96.52 1.7 1.2 2.23 2.03.52.83.88 1.7 1.07 2.57.2.9.3 2.23.3 4.04v6.27c0 2.3-.1 3.98-.28 5.05-.18 1.07-.56 2.07-1.15 3-.58.92-1.32 1.62-2.23 2.06-.93.44-1.98.66-3.17.66-1.32 0-2.44-.18-3.36-.57-.92-.38-1.63-.95-2.14-1.7-.5-.77-.87-1.7-1.1-2.78-.2-1.1-.32-2.72-.32-4.9l.02-6.53zm4.54 9.82c0 1.4 1.04 2.53 2.3 2.53 1.28 0 2.32-1.14 2.32-2.54V15.42c0-1.4-1.05-2.54-2.32-2.54-1.27 0-2.3 1.13-2.3 2.53V28.6zm-16.1 6.63h5.5V16.29L37.65.02h-6L28.2 12.1 24.73 0h-5.94l6.9 16.28v18.95z" class="active-path"/></svg>