<svg xmlns="http://www.w3.org/2000/svg" width="512" height="512" viewBox="0 0 96.124 96.123" enable-background="new 0 0 96.124 96.123"><path fill="#FFFEFE" d="M72.1.02L59.6 0c-14 0-23.05 9.29-23.05 23.66v10.9H24.04c-1.1 0-1.96.88-1.96 1.96v15.8c0 1.1.87 1.97 1.96 1.97h12.53v39.86c0 1.1.88 1.96 1.96 1.96h16.35c1.1 0 1.96-.88 1.96-1.96V54.3H71.5c1.08 0 1.96-.9 1.96-1.97v-15.8c0-.53-.2-1.02-.57-1.4-.38-.36-.88-.57-1.4-.57H56.84v-9.24c0-4.45 1.06-6.7 6.85-6.7h8.4c1.07 0 1.95-.88 1.95-1.97V1.98C74.05.9 73.17.02 72.1.02z" class="active-path"/></svg>