<svg xmlns="http://www.w3.org/2000/svg" width="200" height="200" viewBox="0 0 52.916666 52.916666"><defs><clipPath><path d="M267.5 316.96h7.1v-17.63h-7.1z"/></clipPath><clipPath><path d="M279.4 316.96h7.1v-17.62h-7.1z"/></clipPath><clipPath id="a"><path d="M292.42 295.37h2.28v-7.2h-2.28z"/></clipPath><clipPath id="b"><path d="M297.66 303.9h2.28v-11.6h-2.28z"/></clipPath><clipPath id="c"><path d="M308.15 312.43h2.28v-15.97h-2.28z"/></clipPath><clipPath id="d"><path d="M313.4 320.95h2.28V300.6h-2.28z"/></clipPath></defs><g><g><path fill="#3eb496" d="M26.06 35.7h-1.34V16.4h1.34z"/><g><g><g clip-path="url(#a)" opacity=".7" transform="matrix(.59 0 0 -.59 -153.695 205.436)"><path fill="#3eb496" d="M294.7 288.16h-2.28v7.2h2.28z"/></g></g></g><g><g><g clip-path="url(#b)" opacity=".7" transform="matrix(.59 0 0 -.59 -153.695 205.436)"><path fill="#3eb496" d="M299.94 292.3h-2.28v11.6h2.28z"/></g></g></g><g><g><g clip-path="url(#c)" opacity=".7" transform="matrix(.59 0 0 -.59 -153.695 205.436)"><path fill="#3eb496" d="M310.43 296.46h-2.28v15.97h2.28z"/></g></g></g><g><g><g clip-path="url(#d)" opacity=".7" transform="matrix(.59 0 0 -.59 -153.695 205.436)"><path fill="#3eb496" d="M315.68 300.6h-2.28v20.35h2.28z"/></g></g></g></g></g></svg>