<svg xmlns="http://www.w3.org/2000/svg" width="200" height="200" viewBox="0 0 52.916666 52.916666"><defs><clipPath><path d="M267.5 316.96h7.1v-17.63h-7.1z"/></clipPath><clipPath><path d="M279.4 316.96h7.1v-17.62h-7.1z"/></clipPath><clipPath><path d="M292.42 295.37h2.28v-7.2h-2.28z"/></clipPath><clipPath><path d="M297.66 303.9h2.28v-11.6h-2.28z"/></clipPath><clipPath><path d="M308.15 312.43h2.28v-15.97h-2.28z"/></clipPath><clipPath><path d="M313.4 320.95h2.28V300.6h-2.28z"/></clipPath><clipPath><path d="M298.15 311.1h2.05v-11.44h-2.04z"/></clipPath><clipPath><path d="M298.15 314.5h2.05v-2.04h-2.04z"/></clipPath><clipPath><path d="M298.15 298.3h2.05v-2.05h-2.04z"/></clipPath><clipPath><path d="M288.74 314.5h2.05v-2.04h-2.06z"/></clipPath><clipPath><path d="M288.74 309.1h2.05v-2.04h-2.06z"/></clipPath><clipPath><path d="M288.74 303.7h2.05v-2.04h-2.06z"/></clipPath><clipPath><path d="M288.74 298.3h2.05v-2.05h-2.06z"/></clipPath><clipPath><path d="M0 612h612V0H0z"/></clipPath><clipPath><path d="M285.62 313.86h6.1v-16.52h-6.1z"/></clipPath><clipPath><path d="M281.36 313.82h6.1V297.3h-6.1z"/></clipPath><clipPath id="a"><path d="M299.97 316.3h2.23v-26.02h-2.23z"/></clipPath><clipPath id="b"><path d="M294.83 310.2h2.23v-19.92h-2.23z"/></clipPath><clipPath id="c"><path d="M310.24 316.3h2.23v-26.02h-2.23z"/></clipPath><clipPath id="d"><path d="M315.38 310.2h2.23v-19.92h-2.22z"/></clipPath></defs><g><g><path fill="#d84914" d="M26.16 35.57h-1.3v-18.9h1.3z"/><g><g><g clip-path="url(#a)" opacity=".7" transform="matrix(.588 0 0 -.588 -154.551 206.252)"><path fill="#d84914" d="M302.2 290.28h-2.23v26.02h2.23z"/></g></g></g><g><g><g clip-path="url(#b)" opacity=".7" transform="matrix(.588 0 0 -.588 -154.551 206.252)"><path fill="#d84914" d="M297.06 290.28h-2.23v19.92h2.23z"/></g></g></g><g><g><g clip-path="url(#c)" opacity=".7" transform="matrix(.588 0 0 -.588 -154.551 206.252)"><path fill="#d84914" d="M312.47 290.28h-2.23v26.02h2.23z"/></g></g></g><g><g><g clip-path="url(#d)" opacity=".7" transform="matrix(.588 0 0 -.588 -154.551 206.252)"><path fill="#d84914" d="M317.6 290.28h-2.22v19.92h2.23z"/></g></g></g></g></g></svg>