<?xml version="1.0" encoding="UTF-8" standalone="no"?>
<!-- Created with Inkscape (http://www.inkscape.org/) -->

<svg
   xmlns:dc="http://purl.org/dc/elements/1.1/"
   xmlns:cc="http://creativecommons.org/ns#"
   xmlns:rdf="http://www.w3.org/1999/02/22-rdf-syntax-ns#"
   xmlns:svg="http://www.w3.org/2000/svg"
   xmlns="http://www.w3.org/2000/svg"
   xmlns:sodipodi="http://sodipodi.sourceforge.net/DTD/sodipodi-0.dtd"
   xmlns:inkscape="http://www.inkscape.org/namespaces/inkscape"
   width="200"
   height="200"
   viewBox="0 0 52.916666 52.916666"
   version="1.1"
   id="svg10173"
   inkscape:version="0.92.2 5c3e80d, 2017-08-06"
   sodipodi:docname="ISO-MEDIA.svg">
  <defs
     id="defs10167">
    <clipPath
       id="clipPath14655-8"
       clipPathUnits="userSpaceOnUse">
      <path
         inkscape:connector-curvature="0"
         id="path14653-0"
         d="m 267.497,316.961 h 7.092 v -17.628 h -7.092 z" />
    </clipPath>
    <clipPath
       id="clipPath14671-6"
       clipPathUnits="userSpaceOnUse">
      <path
         inkscape:connector-curvature="0"
         id="path14669-57"
         d="m 279.404,316.957 h 7.093 v -17.62 h -7.093 z" />
    </clipPath>
    <clipPath
       clipPathUnits="userSpaceOnUse"
       id="clipPath34">
      <path
         d="M 0,612 H 612 V 0 H 0 Z"
         id="path32"
         inkscape:connector-curvature="0" />
    </clipPath>
    <clipPath
       clipPathUnits="userSpaceOnUse"
       id="clipPath46">
      <path
         d="m 342.606,311.64 h 6.479 v -11.28 h -6.479 z"
         id="path44"
         inkscape:connector-curvature="0" />
    </clipPath>
    <clipPath
       clipPathUnits="userSpaceOnUse"
       id="clipPath62">
      <path
         d="m 353.357,318.234 h 13.072 v -24.468 h -13.072 z"
         id="path60"
         inkscape:connector-curvature="0" />
    </clipPath>
  </defs>
  <sodipodi:namedview
     id="base"
     pagecolor="#ffffff"
     bordercolor="#666666"
     borderopacity="1.0"
     inkscape:pageopacity="0.0"
     inkscape:pageshadow="2"
     inkscape:zoom="0.98994949"
     inkscape:cx="-322.77901"
     inkscape:cy="234.39234"
     inkscape:document-units="mm"
     inkscape:current-layer="layer1"
     showgrid="false"
     units="px"
     inkscape:window-width="1748"
     inkscape:window-height="1535"
     inkscape:window-x="1133"
     inkscape:window-y="44"
     inkscape:window-maximized="0" />
  <metadata
     id="metadata10170">
    <rdf:RDF>
      <cc:Work
         rdf:about="">
        <dc:format>image/svg+xml</dc:format>
        <dc:type
           rdf:resource="http://purl.org/dc/dcmitype/StillImage" />
        <dc:title></dc:title>
      </cc:Work>
    </rdf:RDF>
  </metadata>
  <g
     inkscape:label="Capa 1"
     inkscape:groupmode="layer"
     id="layer1"
     transform="translate(0,-244.08333)">
    <g
       transform="matrix(0.35277777,0,0,-0.35277777,-160.42023,318.01547)"
       id="g28">
      <g
         id="g30"
         clip-path="url(#clipPath34)">
        <g
           id="g946"
           transform="matrix(2.0217948,0,0,2.0217948,-347.12468,-367.55478)">
          <g
             transform="translate(426.07653,249.21428)"
             id="g36">
            <path
               inkscape:connector-curvature="0"
               id="path38"
               style="fill:#e61766;fill-opacity:1;fill-rule:nonzero;stroke:none"
               d="M 0,0 7.519,7.519 C 7.678,7.677 7.765,7.888 7.765,8.112 7.765,8.335 7.678,8.546 7.519,8.705 7.36,8.863 7.15,8.95 6.926,8.95 6.702,8.95 6.491,8.863 6.333,8.705 L -1.778,0.593 C -1.937,0.435 -2.024,0.224 -2.024,0 c 0,-0.224 0.087,-0.435 0.246,-0.593 l 8.111,-8.111 c 0.158,-0.159 0.369,-0.246 0.593,-0.246 0.224,0 0.434,0.087 0.593,0.246 0.159,0.158 0.246,0.368 0.246,0.593 0,0.223 -0.087,0.434 -0.246,0.592 z" />
          </g>
          <g
             transform="translate(76.07143,-56.785716)"
             id="g40">
            <g
               id="g42" />
            <g
               id="g54">
              <g
                 style="opacity:0.69999701"
                 id="g52"
                 clip-path="url(#clipPath46)">
                <g
                   id="g50"
                   transform="translate(344.6301,306)">
                  <path
                     inkscape:connector-curvature="0"
                     id="path48"
                     style="fill:#e61766;fill-opacity:1;fill-rule:nonzero;stroke:none"
                     d="M 0,0 4.209,4.209 C 4.367,4.368 4.455,4.578 4.455,4.802 4.455,5.026 4.367,5.236 4.209,5.395 4.051,5.553 3.84,5.641 3.616,5.641 3.393,5.641 3.182,5.553 3.023,5.395 L -1.778,0.593 C -1.937,0.435 -2.024,0.224 -2.024,0 c 0,-0.224 0.087,-0.435 0.246,-0.593 l 4.801,-4.802 c 0.159,-0.158 0.37,-0.246 0.593,-0.246 0.224,0 0.435,0.088 0.593,0.246 0.158,0.159 0.246,0.369 0.246,0.593 0,0.224 -0.088,0.435 -0.246,0.593 z" />
                </g>
              </g>
            </g>
          </g>
          <g
             transform="translate(76.07143,-56.785716)"
             id="g56">
            <g
               id="g58" />
            <g
               id="g70">
              <g
                 style="opacity:0.69999701"
                 id="g68"
                 clip-path="url(#clipPath62)">
                <g
                   id="g66"
                   transform="translate(355.3801,306)">
                  <path
                     inkscape:connector-curvature="0"
                     id="path64"
                     style="fill:#e61766;fill-opacity:1;fill-rule:nonzero;stroke:none"
                     d="m 0,0 10.804,10.803 c 0.158,0.158 0.245,0.369 0.245,0.593 0,0.224 -0.087,0.435 -0.245,0.593 -0.159,0.158 -0.369,0.245 -0.593,0.245 -0.225,0 -0.435,-0.087 -0.593,-0.245 L -1.778,0.593 c -0.327,-0.327 -0.327,-0.859 0,-1.186 L 9.618,-11.988 c 0.158,-0.159 0.368,-0.246 0.593,-0.246 0.224,0 0.434,0.087 0.593,0.246 0.326,0.326 0.326,0.858 0,1.185 z" />
                </g>
              </g>
            </g>
          </g>
        </g>
      </g>
    </g>
  </g>
</svg>
