<?xml version="1.0" encoding="UTF-8" standalone="no"?>
<!-- Created with Inkscape (http://www.inkscape.org/) -->

<svg
   xmlns:dc="http://purl.org/dc/elements/1.1/"
   xmlns:cc="http://creativecommons.org/ns#"
   xmlns:rdf="http://www.w3.org/1999/02/22-rdf-syntax-ns#"
   xmlns:svg="http://www.w3.org/2000/svg"
   xmlns="http://www.w3.org/2000/svg"
   xmlns:sodipodi="http://sodipodi.sourceforge.net/DTD/sodipodi-0.dtd"
   xmlns:inkscape="http://www.inkscape.org/namespaces/inkscape"
   width="200"
   height="200"
   viewBox="0 0 52.916666 52.916666"
   version="1.1"
   id="svg10173"
   inkscape:version="0.92.2 5c3e80d, 2017-08-06"
   sodipodi:docname="ISO-HOLDING.svg">
  <defs
     id="defs10167">
    <clipPath
       id="clipPath14655-8"
       clipPathUnits="userSpaceOnUse">
      <path
         inkscape:connector-curvature="0"
         id="path14653-0"
         d="m 267.497,316.961 h 7.092 v -17.628 h -7.092 z" />
    </clipPath>
    <clipPath
       id="clipPath14671-6"
       clipPathUnits="userSpaceOnUse">
      <path
         inkscape:connector-curvature="0"
         id="path14669-57"
         d="m 279.404,316.957 h 7.093 v -17.62 h -7.093 z" />
    </clipPath>
  </defs>
  <sodipodi:namedview
     id="base"
     pagecolor="#ffffff"
     bordercolor="#666666"
     borderopacity="1.0"
     inkscape:pageopacity="0.0"
     inkscape:pageshadow="2"
     inkscape:zoom="0.7"
     inkscape:cx="-207.19934"
     inkscape:cy="318.46269"
     inkscape:document-units="mm"
     inkscape:current-layer="layer1"
     showgrid="false"
     units="px"
     inkscape:window-width="1748"
     inkscape:window-height="1535"
     inkscape:window-x="0"
     inkscape:window-y="1"
     inkscape:window-maximized="0" />
  <metadata
     id="metadata10170">
    <rdf:RDF>
      <cc:Work
         rdf:about="">
        <dc:format>image/svg+xml</dc:format>
        <dc:type
           rdf:resource="http://purl.org/dc/dcmitype/StillImage" />
        <dc:title></dc:title>
      </cc:Work>
    </rdf:RDF>
  </metadata>
  <g
     inkscape:label="Capa 1"
     inkscape:groupmode="layer"
     id="layer1"
     transform="translate(0,-244.08333)">
    <g
       id="g9922"
       transform="matrix(0.88111764,0,0,-0.88111764,-218.36457,541.29929)"
       inkscape:export-filename="/Users/alonso/Documents/Ariel/AIH/AIH GROUP/Website/Recursos/PRODUCTOS/ISO-HOLDING.PNG"
       inkscape:export-xdpi="200"
       inkscape:export-ydpi="200">
      <g
         transform="translate(276.9882,298.0508)"
         id="g9896">
        <path
           inkscape:connector-curvature="0"
           id="path9894"
           style="fill:#e3a900;fill-opacity:1;fill-rule:nonzero;stroke:none"
           d="m 0,0 v 0 c -0.388,0 -0.702,0.313 -0.702,0.701 v 18.79 c 0,0.387 0.314,0.701 0.702,0.701 0.387,0 0.701,-0.314 0.701,-0.701 V 0.701 C 0.701,0.313 0.387,0 0,0" />
      </g>
      <g
         id="g9908">
        <g
           id="g9898" />
        <g
           id="g9906">
          <g
             style="opacity:0.69999701"
             id="g9904"
             clip-path="url(#clipPath14655-8)">
            <g
               id="g9902"
               transform="translate(272.3417,304.71)">
              <path
                 inkscape:connector-curvature="0"
                 id="path9900"
                 style="fill:#e3a900;fill-opacity:1;fill-rule:nonzero;stroke:none"
                 d="m 0,0 c -0.818,-0.328 -1.542,-0.716 -2.164,-1.111 -0.76,1.132 -1.245,2.464 -1.357,3.899 h 2.997 C -0.467,1.775 -0.275,0.845 0,0 M -2.165,7.985 C -1.542,7.59 -0.818,7.201 0,6.874 -0.275,6.029 -0.467,5.099 -0.524,4.085 h -2.997 c 0.112,1.436 0.596,2.768 1.356,3.9 M 1.93,-2.361 1.943,-2.352 c 0.244,0.197 0.308,0.541 0.153,0.813 -0.137,0.236 -0.268,0.486 -0.391,0.747 0.022,0.006 0.042,0.012 0.063,0.017 0.33,0.088 0.534,0.42 0.465,0.755 C 2.159,0.346 1.792,0.574 1.432,0.478 1.362,0.459 1.294,0.44 1.226,0.42 0.993,1.14 0.83,1.93 0.774,2.788 H 1.47 c 0.358,0 0.648,0.291 0.648,0.649 0,0.358 -0.29,0.648 -0.648,0.648 H 0.774 C 0.83,4.943 0.993,5.733 1.226,6.453 1.294,6.434 1.362,6.415 1.432,6.396 1.792,6.299 2.159,6.528 2.233,6.894 2.302,7.229 2.098,7.56 1.768,7.648 1.747,7.654 1.727,7.66 1.705,7.666 1.827,7.924 1.957,8.172 2.092,8.407 2.249,8.682 2.185,9.031 1.937,9.229 1.628,9.479 1.168,9.393 0.97,9.048 0.795,8.743 0.627,8.42 0.472,8.081 c -0.685,0.274 -1.295,0.595 -1.827,0.925 0.792,0.853 1.764,1.538 2.856,1.993 0.299,0.124 0.458,0.454 0.367,0.765 L 1.861,11.789 C 1.755,12.154 1.354,12.348 1.003,12.202 -0.131,11.731 -1.173,11.038 -2.067,10.143 -2.193,10.018 -2.315,9.888 -2.434,9.757 -2.724,9.432 -2.99,9.091 -3.23,8.735 -4.162,7.358 -4.711,5.765 -4.823,4.085 -4.838,3.871 -4.845,3.655 -4.845,3.437 v 0 c 0,-0.218 0.007,-0.434 0.022,-0.649 0.069,-1.037 0.305,-2.041 0.695,-2.982 0.241,-0.583 0.542,-1.141 0.899,-1.667 H -3.23 c 0.01,-0.017 0.022,-0.033 0.033,-0.048 0.025,-0.037 0.05,-0.074 0.076,-0.111 0.034,-0.045 0.066,-0.092 0.1,-0.138 0.048,-0.065 0.096,-0.129 0.145,-0.193 0.015,-0.018 0.028,-0.037 0.043,-0.054 0.051,-0.066 0.104,-0.131 0.157,-0.196 0.036,-0.044 0.074,-0.087 0.111,-0.13 0.023,-0.029 0.047,-0.055 0.071,-0.082 0.02,-0.023 0.04,-0.047 0.06,-0.07 h 0.001 c 0.119,-0.132 0.24,-0.261 0.366,-0.387 0.894,-0.894 1.936,-1.587 3.07,-2.058 0.351,-0.146 0.752,0.048 0.858,0.413 l 0.007,0.024 c 0.091,0.312 -0.068,0.642 -0.367,0.766 -1.091,0.455 -2.063,1.14 -2.856,1.992 0.532,0.33 1.142,0.652 1.827,0.926 0.157,-0.343 0.326,-0.668 0.503,-0.976 0.195,-0.34 0.649,-0.425 0.955,-0.178" />
            </g>
          </g>
        </g>
      </g>
      <g
         id="g9920">
        <g
           id="g9910" />
        <g
           id="g9918">
          <g
             style="opacity:0.69999701"
             id="g9916"
             clip-path="url(#clipPath14671-6)">
            <g
               id="g9914"
               transform="translate(283.8163,303.5986)">
              <path
                 inkscape:connector-curvature="0"
                 id="path9912"
                 style="fill:#e3a900;fill-opacity:1;fill-rule:nonzero;stroke:none"
                 d="m 0,0 c -0.623,0.396 -1.346,0.783 -2.164,1.111 h -10e-4 c 0.275,0.845 0.467,1.775 0.525,2.788 H 1.357 C 1.244,2.464 0.76,1.133 0,0 m -2.165,7.985 h 10e-4 C -1.346,8.313 -0.622,8.701 0,9.096 0.76,7.964 1.244,6.632 1.357,5.197 H -1.64 C -1.698,6.21 -1.89,7.14 -2.165,7.985 M 2.658,5.197 C 2.546,6.876 1.997,8.47 1.065,9.847 0.825,10.202 0.56,10.543 0.269,10.868 0.15,11 0.028,11.129 -0.098,11.254 c -0.891,0.892 -1.928,1.584 -3.058,2.054 -0.358,0.149 -0.765,-0.048 -0.873,-0.42 -0.093,-0.319 0.069,-0.655 0.376,-0.783 1.086,-0.455 2.054,-1.137 2.844,-1.987 -0.532,-0.33 -1.143,-0.652 -1.827,-0.926 -0.156,0.341 -0.324,0.664 -0.5,0.969 -0.197,0.344 -0.655,0.43 -0.965,0.181 C -4.349,10.143 -4.413,9.793 -4.256,9.517 -4.121,9.282 -3.991,9.035 -3.87,8.777 -3.891,8.771 -3.911,8.766 -3.932,8.76 -4.263,8.671 -4.467,8.34 -4.398,8.005 c 0.074,-0.366 0.441,-0.594 0.801,-0.498 0.07,0.019 0.139,0.038 0.207,0.057 0.232,-0.72 0.395,-1.51 0.451,-2.367 h -0.695 c -0.358,0 -0.649,-0.291 -0.649,-0.649 0,-0.358 0.291,-0.649 0.649,-0.649 h 0.695 C -2.995,3.042 -3.158,2.251 -3.39,1.531 -3.459,1.551 -3.528,1.571 -3.599,1.589 -3.958,1.686 -4.324,1.458 -4.398,1.094 L -4.399,1.089 C -4.467,0.755 -4.264,0.425 -3.935,0.337 L -3.87,0.319 c -0.122,-0.257 -0.251,-0.505 -0.386,-0.739 -0.158,-0.276 -0.093,-0.626 0.155,-0.826 0.31,-0.248 0.768,-0.162 0.965,0.182 0.176,0.304 0.344,0.627 0.499,0.968 0.685,-0.274 1.295,-0.595 1.827,-0.925 -0.79,-0.85 -1.757,-1.533 -2.843,-1.988 -0.307,-0.128 -0.469,-0.464 -0.376,-0.782 0.108,-0.372 0.515,-0.569 0.873,-0.421 1.13,0.471 2.167,1.163 3.058,2.054 0.126,0.126 0.248,0.255 0.366,0.387 h 0.001 c 0.02,0.022 0.04,0.046 0.06,0.069 0.025,0.027 0.048,0.054 0.071,0.082 0.037,0.043 0.075,0.087 0.112,0.131 0.052,0.064 0.105,0.13 0.157,0.195 0.014,0.018 0.028,0.036 0.042,0.055 0.049,0.063 0.098,0.128 0.144,0.192 0.015,0.02 0.03,0.039 0.043,0.059 0.046,0.063 0.091,0.126 0.134,0.189 0.011,0.017 0.023,0.032 0.033,0.048 v 0.001 c 0.357,0.526 0.657,1.084 0.899,1.667 0.389,0.941 0.625,1.945 0.694,2.982 0.015,0.215 0.023,0.432 0.023,0.649 v 0 c 0,0.218 -0.008,0.434 -0.023,0.649" />
            </g>
          </g>
        </g>
      </g>
    </g>
  </g>
</svg>
