<?xml version="1.0" encoding="UTF-8" standalone="no"?>
<!-- Created with Inkscape (http://www.inkscape.org/) -->

<svg
   xmlns:dc="http://purl.org/dc/elements/1.1/"
   xmlns:cc="http://creativecommons.org/ns#"
   xmlns:rdf="http://www.w3.org/1999/02/22-rdf-syntax-ns#"
   xmlns:svg="http://www.w3.org/2000/svg"
   xmlns="http://www.w3.org/2000/svg"
   xmlns:sodipodi="http://sodipodi.sourceforge.net/DTD/sodipodi-0.dtd"
   xmlns:inkscape="http://www.inkscape.org/namespaces/inkscape"
   width="200"
   height="200"
   viewBox="0 0 52.916666 52.916666"
   version="1.1"
   id="svg10173"
   inkscape:version="0.92.2 5c3e80d, 2017-08-06"
   sodipodi:docname="ISO-ADVISORS.svg">
  <defs
     id="defs10167">
    <clipPath
       id="clipPath14655-8"
       clipPathUnits="userSpaceOnUse">
      <path
         inkscape:connector-curvature="0"
         id="path14653-0"
         d="m 267.497,316.961 h 7.092 v -17.628 h -7.092 z" />
    </clipPath>
    <clipPath
       id="clipPath14671-6"
       clipPathUnits="userSpaceOnUse">
      <path
         inkscape:connector-curvature="0"
         id="path14669-57"
         d="m 279.404,316.957 h 7.093 v -17.62 h -7.093 z" />
    </clipPath>
    <clipPath
       id="clipPath5809-6"
       clipPathUnits="userSpaceOnUse">
      <path
         inkscape:connector-curvature="0"
         id="path5807-3"
         d="m 292.419,295.369 h 2.279 v -7.211 h -2.279 z" />
    </clipPath>
    <clipPath
       id="clipPath5823-0"
       clipPathUnits="userSpaceOnUse">
      <path
         inkscape:connector-curvature="0"
         id="path5821-8"
         d="m 297.664,303.897 h 2.279 v -11.588 h -2.279 z" />
    </clipPath>
    <clipPath
       id="clipPath5837-4"
       clipPathUnits="userSpaceOnUse">
      <path
         inkscape:connector-curvature="0"
         id="path5835-0"
         d="m 308.154,312.426 h 2.279 v -15.967 h -2.279 z" />
    </clipPath>
    <clipPath
       id="clipPath5851-4"
       clipPathUnits="userSpaceOnUse">
      <path
         inkscape:connector-curvature="0"
         id="path5849-6"
         d="m 313.399,320.955 h 2.279 V 300.61 h -2.279 z" />
    </clipPath>
    <clipPath
       id="clipPath13903-5"
       clipPathUnits="userSpaceOnUse">
      <path
         inkscape:connector-curvature="0"
         id="path13901-9"
         d="m 298.155,311.102 h 2.045 v -11.443 h -2.045 z" />
    </clipPath>
    <clipPath
       id="clipPath13919-4"
       clipPathUnits="userSpaceOnUse">
      <path
         inkscape:connector-curvature="0"
         id="path13917-9"
         d="m 298.155,314.509 h 2.045 v -2.045 h -2.045 z" />
    </clipPath>
    <clipPath
       id="clipPath13935-1"
       clipPathUnits="userSpaceOnUse">
      <path
         inkscape:connector-curvature="0"
         id="path13933-1"
         d="m 298.155,298.296 h 2.045 v -2.044 h -2.045 z" />
    </clipPath>
    <clipPath
       id="clipPath13951-9"
       clipPathUnits="userSpaceOnUse">
      <path
         inkscape:connector-curvature="0"
         id="path13949-3"
         d="m 288.742,314.509 h 2.044 v -2.045 h -2.044 z" />
    </clipPath>
    <clipPath
       id="clipPath13967-7"
       clipPathUnits="userSpaceOnUse">
      <path
         inkscape:connector-curvature="0"
         id="path13965-1"
         d="m 288.742,309.105 h 2.044 v -2.045 h -2.044 z" />
    </clipPath>
    <clipPath
       id="clipPath13983-8"
       clipPathUnits="userSpaceOnUse">
      <path
         inkscape:connector-curvature="0"
         id="path13981-8"
         d="m 288.742,303.7 h 2.044 v -2.044 h -2.044 z" />
    </clipPath>
    <clipPath
       id="clipPath13999-1"
       clipPathUnits="userSpaceOnUse">
      <path
         inkscape:connector-curvature="0"
         id="path13997-4"
         d="m 288.742,298.296 h 2.044 v -2.044 h -2.044 z" />
    </clipPath>
  </defs>
  <sodipodi:namedview
     id="base"
     pagecolor="#ffffff"
     bordercolor="#666666"
     borderopacity="1.0"
     inkscape:pageopacity="0.0"
     inkscape:pageshadow="2"
     inkscape:zoom="0.7"
     inkscape:cx="-207.19934"
     inkscape:cy="318.46269"
     inkscape:document-units="mm"
     inkscape:current-layer="layer1"
     showgrid="false"
     units="px"
     inkscape:window-width="2009"
     inkscape:window-height="1542"
     inkscape:window-x="338"
     inkscape:window-y="0"
     inkscape:window-maximized="0" />
  <metadata
     id="metadata10170">
    <rdf:RDF>
      <cc:Work
         rdf:about="">
        <dc:format>image/svg+xml</dc:format>
        <dc:type
           rdf:resource="http://purl.org/dc/dcmitype/StillImage" />
        <dc:title></dc:title>
      </cc:Work>
    </rdf:RDF>
  </metadata>
  <g
     inkscape:label="Capa 1"
     inkscape:groupmode="layer"
     id="layer1"
     transform="translate(0,-244.08333)">
    <g
       id="g10056"
       transform="matrix(1.3532548,0,0,1.3532548,-1215.4248,627.89831)"
       inkscape:export-filename="/Users/alonso/Documents/Ariel/AIH/AIH GROUP/Website/Recursos/PRODUCTOS/ISO-ADVISORS.PNG"
       inkscape:export-xdpi="200"
       inkscape:export-ydpi="200">
      <g
         transform="matrix(0.53906531,0,0,-0.53906531,918.00331,-255.86003)"
         id="g9970">
        <path
           inkscape:connector-curvature="0"
           id="path9968"
           style="fill:#b61732;fill-opacity:1;fill-rule:nonzero;stroke:none"
           d="m 0,0 h -0.086 c -0.541,0 -0.979,0.438 -0.979,0.979 v 27.472 c 0,0.541 0.438,0.98 0.979,0.98 H 0 c 0.541,0 0.979,-0.439 0.979,-0.98 V 0.979 C 0.979,0.438 0.541,0 0,0" />
      </g>
      <g
         transform="matrix(0.53906531,0,0,-0.53906531,759.24105,-99.1726)"
         id="g9982">
        <g
           id="g9972" />
        <g
           id="g9980">
          <g
             style="opacity:0.69999701"
             id="g9978"
             clip-path="url(#clipPath13903-5)">
            <g
               id="g9976"
               transform="translate(299.2211,299.6582)">
              <path
                 inkscape:connector-curvature="0"
                 id="path9974"
                 style="fill:#b61732;fill-opacity:1;fill-rule:nonzero;stroke:none"
                 d="m 0,0 h -0.087 c -0.54,0 -0.978,0.438 -0.978,0.979 v 9.485 c 0,0.541 0.438,0.979 0.978,0.979 H 0 c 0.54,0 0.979,-0.438 0.979,-0.979 V 0.979 C 0.979,0.438 0.54,0 0,0" />
            </g>
          </g>
        </g>
      </g>
      <g
         transform="matrix(0.53906531,0,0,-0.53906531,759.24105,-99.1726)"
         id="g9994">
        <g
           id="g9984" />
        <g
           id="g9992">
          <g
             style="opacity:0.69999701"
             id="g9990"
             clip-path="url(#clipPath13919-4)">
            <g
               id="g9988"
               transform="translate(299.2211,312.4639)">
              <path
                 inkscape:connector-curvature="0"
                 id="path9986"
                 style="fill:#b61732;fill-opacity:1;fill-rule:nonzero;stroke:none"
                 d="m 0,0 h -0.087 c -0.54,0 -0.978,0.438 -0.978,0.979 v 0.086 c 0,0.541 0.438,0.98 0.978,0.98 H 0 c 0.54,0 0.979,-0.439 0.979,-0.98 V 0.979 C 0.979,0.438 0.54,0 0,0" />
            </g>
          </g>
        </g>
      </g>
      <g
         transform="matrix(0.53906531,0,0,-0.53906531,759.24105,-99.1726)"
         id="g10006">
        <g
           id="g9996" />
        <g
           id="g10004">
          <g
             style="opacity:0.69999701"
             id="g10002"
             clip-path="url(#clipPath13935-1)">
            <g
               id="g10000"
               transform="translate(299.2211,296.252)">
              <path
                 inkscape:connector-curvature="0"
                 id="path9998"
                 style="fill:#b61732;fill-opacity:1;fill-rule:nonzero;stroke:none"
                 d="m 0,0 h -0.087 c -0.54,0 -0.978,0.438 -0.978,0.979 v 0.086 c 0,0.54 0.438,0.979 0.978,0.979 H 0 c 0.54,0 0.979,-0.439 0.979,-0.979 V 0.979 C 0.979,0.438 0.54,0 0,0" />
            </g>
          </g>
        </g>
      </g>
      <g
         transform="matrix(0.53906531,0,0,-0.53906531,759.24105,-99.1726)"
         id="g10018">
        <g
           id="g10008" />
        <g
           id="g10016">
          <g
             style="opacity:0.69999701"
             id="g10014"
             clip-path="url(#clipPath13951-9)">
            <g
               id="g10012"
               transform="translate(289.807,312.4639)">
              <path
                 inkscape:connector-curvature="0"
                 id="path10010"
                 style="fill:#b61732;fill-opacity:1;fill-rule:nonzero;stroke:none"
                 d="m 0,0 h -0.086 c -0.541,0 -0.979,0.438 -0.979,0.979 v 0.086 c 0,0.541 0.438,0.98 0.979,0.98 H 0 c 0.541,0 0.979,-0.439 0.979,-0.98 V 0.979 C 0.979,0.438 0.541,0 0,0" />
            </g>
          </g>
        </g>
      </g>
      <g
         transform="matrix(0.53906531,0,0,-0.53906531,759.24105,-99.1726)"
         id="g10030">
        <g
           id="g10020" />
        <g
           id="g10028">
          <g
             style="opacity:0.69999701"
             id="g10026"
             clip-path="url(#clipPath13967-7)">
            <g
               id="g10024"
               transform="translate(289.807,307.0601)">
              <path
                 inkscape:connector-curvature="0"
                 id="path10022"
                 style="fill:#b61732;fill-opacity:1;fill-rule:nonzero;stroke:none"
                 d="m 0,0 h -0.086 c -0.541,0 -0.979,0.438 -0.979,0.979 v 0.086 c 0,0.541 0.438,0.979 0.979,0.979 H 0 c 0.541,0 0.979,-0.438 0.979,-0.979 V 0.979 C 0.979,0.438 0.541,0 0,0" />
            </g>
          </g>
        </g>
      </g>
      <g
         transform="matrix(0.53906531,0,0,-0.53906531,759.24105,-99.1726)"
         id="g10042">
        <g
           id="g10032" />
        <g
           id="g10040">
          <g
             style="opacity:0.69999701"
             id="g10038"
             clip-path="url(#clipPath13983-8)">
            <g
               id="g10036"
               transform="translate(289.807,301.6562)">
              <path
                 inkscape:connector-curvature="0"
                 id="path10034"
                 style="fill:#b61732;fill-opacity:1;fill-rule:nonzero;stroke:none"
                 d="m 0,0 h -0.086 c -0.541,0 -0.979,0.437 -0.979,0.979 v 0.085 c 0,0.541 0.438,0.98 0.979,0.98 H 0 c 0.541,0 0.979,-0.439 0.979,-0.98 V 0.979 C 0.979,0.437 0.541,0 0,0" />
            </g>
          </g>
        </g>
      </g>
      <g
         transform="matrix(0.53906531,0,0,-0.53906531,759.24105,-99.1726)"
         id="g10054">
        <g
           id="g10044" />
        <g
           id="g10052">
          <g
             style="opacity:0.69999701"
             id="g10050"
             clip-path="url(#clipPath13999-1)">
            <g
               id="g10048"
               transform="translate(289.807,296.252)">
              <path
                 inkscape:connector-curvature="0"
                 id="path10046"
                 style="fill:#b61732;fill-opacity:1;fill-rule:nonzero;stroke:none"
                 d="m 0,0 h -0.086 c -0.541,0 -0.979,0.438 -0.979,0.979 v 0.086 c 0,0.54 0.438,0.979 0.979,0.979 H 0 c 0.541,0 0.979,-0.439 0.979,-0.979 V 0.979 C 0.979,0.438 0.541,0 0,0" />
            </g>
          </g>
        </g>
      </g>
    </g>
  </g>
</svg>
