<svg xmlns="http://www.w3.org/2000/svg" width="200" height="200" viewBox="0 0 52.916666 52.916666" class="iconoservicio iconopersonnel"><defs><clipPath><path d="M267.5 316.96h7.1v-17.63h-7.1z"/></clipPath><clipPath><path d="M279.4 316.96h7.1v-17.62h-7.1z"/></clipPath><clipPath><path d="M292.42 295.37h2.28v-7.2h-2.28z"/></clipPath><clipPath><path d="M297.66 303.9h2.28v-11.6h-2.28z"/></clipPath><clipPath><path d="M308.15 312.43h2.28v-15.97h-2.28z"/></clipPath><clipPath><path d="M313.4 320.95h2.28V300.6h-2.28z"/></clipPath><clipPath><path d="M298.15 311.1h2.05v-11.44h-2.04z"/></clipPath><clipPath><path d="M298.15 314.5h2.05v-2.04h-2.04z"/></clipPath><clipPath><path d="M298.15 298.3h2.05v-2.05h-2.04z"/></clipPath><clipPath><path d="M288.74 314.5h2.05v-2.04h-2.06z"/></clipPath><clipPath><path d="M288.74 309.1h2.05v-2.04h-2.06z"/></clipPath><clipPath><path d="M288.74 303.7h2.05v-2.04h-2.06z"/></clipPath><clipPath><path d="M288.74 298.3h2.05v-2.05h-2.06z"/></clipPath><clipPath id="a"><path d="M0 612h612V0H0z"/></clipPath><clipPath id="b"><path d="M285.62 313.86h6.1v-16.52h-6.1z"/></clipPath><clipPath id="c"><path d="M281.36 313.82h6.1V297.3h-6.1z"/></clipPath></defs><g><g fill="#5595ba"><g><g clip-path="url(#a)" transform="matrix(1.164 0 0 -1.164 -307.166 382.854)"><g><path d="M286.6 301.04h-.1c-.5 0-.88.4-.88.88v7.37c0 .47.4.86.88.86h.1c.48 0 .87-.4.87-.87v-7.38c0-.5-.4-.88-.87-.88"/></g><g><g><g clip-path="url(#b)" opacity=".7"><g><path d="M289.88 313.86h-3.33c-.52 0-.93-.4-.93-.92 0-.5.4-.93.93-.93h2.9c.24 0 .43-.18.43-.42v-13.32c0-.5.42-.92.93-.92.52 0 .93.4.93.92V312c0 1.04-.83 1.86-1.85 1.86"/></g></g></g></g><g><g><g clip-path="url(#c)" opacity=".7"><g><path d="M283.2 299.66v13.23c0 .5-.4.92-.92.92-.5 0-.92-.42-.92-.93v-13.76c0-1.02.83-1.85 1.85-1.85h3.35c.5 0 .92.4.92.9 0 .53-.4.94-.92.94h-2.82c-.3 0-.52.23-.52.52"/></g></g></g></g></g></g></g></g></svg>