<svg xmlns="http://www.w3.org/2000/svg" width="200" height="200" viewBox="0 0 52.916666 52.916666"><defs><clipPath><path d="M267.5 316.96h7.1v-17.63h-7.1z"/></clipPath><clipPath><path d="M279.4 316.96h7.1v-17.62h-7.1z"/></clipPath><clipPath><path d="M292.42 295.37h2.28v-7.2h-2.28z"/></clipPath><clipPath><path d="M297.66 303.9h2.28v-11.6h-2.28z"/></clipPath><clipPath><path d="M308.15 312.43h2.28v-15.97h-2.28z"/></clipPath><clipPath><path d="M313.4 320.95h2.28V300.6h-2.28z"/></clipPath><clipPath id="a"><path d="M298.15 311.1h2.05v-11.44h-2.04z"/></clipPath><clipPath id="b"><path d="M298.15 314.5h2.05v-2.04h-2.04z"/></clipPath><clipPath id="c"><path d="M298.15 298.3h2.05v-2.05h-2.04z"/></clipPath><clipPath id="d"><path d="M288.74 314.5h2.05v-2.04h-2.06z"/></clipPath><clipPath id="e"><path d="M288.74 309.1h2.05v-2.04h-2.06z"/></clipPath><clipPath id="f"><path d="M288.74 303.7h2.05v-2.04h-2.06z"/></clipPath><clipPath id="g"><path d="M288.74 298.3h2.05v-2.05h-2.06z"/></clipPath></defs><g><g><g><path fill="#b61732" d="M26.63 37.64h-.06c-.4 0-.7-.32-.7-.72V16.9c0-.4.3-.72.7-.72h.06c.4 0 .72.32.72.72v20.02c0 .4-.32.72-.72.72"/></g><g><g><g clip-path="url(#a)" opacity=".7" transform="matrix(.729 0 0 -.729 -188.172 249.634)"><g><path fill="#b61732" d="M299.22 299.66h-.1c-.53 0-.96.44-.96.98v9.48c0 .54.43.98.97.98h.1c.53 0 .97-.44.97-.98v-9.48c0-.54-.44-.98-.98-.98"/></g></g></g></g><g><g><g clip-path="url(#b)" opacity=".7" transform="matrix(.729 0 0 -.729 -188.172 249.634)"><g><path fill="#b61732" d="M299.22 312.46h-.1c-.53 0-.96.44-.96.98v.1c0 .53.43.97.97.97h.1c.53 0 .97-.43.97-.97v-.1c0-.53-.44-.97-.98-.97"/></g></g></g></g><g><g><g clip-path="url(#c)" opacity=".7" transform="matrix(.729 0 0 -.729 -188.172 249.634)"><g><path fill="#b61732" d="M299.22 296.25h-.1c-.53 0-.96.44-.96.98v.1c0 .53.43.97.97.97h.1c.53 0 .97-.44.97-.98v-.1c0-.53-.44-.97-.98-.97"/></g></g></g></g><g><g><g clip-path="url(#d)" opacity=".7" transform="matrix(.729 0 0 -.729 -188.172 249.634)"><g><path fill="#b61732" d="M289.8 312.46h-.08c-.54 0-.98.44-.98.98v.1c0 .53.44.97.98.97h.1c.53 0 .97-.43.97-.97v-.1c0-.53-.45-.97-1-.97"/></g></g></g></g><g><g><g clip-path="url(#e)" opacity=".7" transform="matrix(.729 0 0 -.729 -188.172 249.634)"><g><path fill="#b61732" d="M289.8 307.06h-.08c-.54 0-.98.44-.98.98v.1c0 .53.44.96.98.96h.1c.53 0 .97-.43.97-.97v-.1c0-.53-.45-.97-1-.97"/></g></g></g></g><g><g><g clip-path="url(#f)" opacity=".7" transform="matrix(.729 0 0 -.729 -188.172 249.634)"><g><path fill="#b61732" d="M289.8 301.66h-.08c-.54 0-.98.43-.98.98v.08c0 .54.44.98.98.98h.1c.53 0 .97-.44.97-.98v-.08c0-.55-.45-.98-1-.98"/></g></g></g></g><g><g><g clip-path="url(#g)" opacity=".7" transform="matrix(.729 0 0 -.729 -188.172 249.634)"><g><path fill="#b61732" d="M289.8 296.25h-.08c-.54 0-.98.44-.98.98v.1c0 .53.44.97.98.97h.1c.53 0 .97-.44.97-.98v-.1c0-.53-.45-.97-1-.97"/></g></g></g></g></g></g></svg>