<svg xmlns="http://www.w3.org/2000/svg" width="200" height="200" viewBox="0 0 52.916666 52.916666"><defs><clipPath id="a"><path d="M267.5 316.96h7.1v-17.63h-7.1z"/></clipPath><clipPath id="b"><path d="M279.4 316.96h7.1v-17.62h-7.1z"/></clipPath></defs><g><g><g><path fill="#e3a900" d="M25.66 34.63c-.34 0-.62-.27-.62-.6V17.45c0-.34.28-.62.62-.62.34 0 .62.28.62.62v16.56c0 .34-.28.6-.62.6"/></g><g><g><g clip-path="url(#a)" opacity=".7" transform="matrix(.881 0 0 -.881 -218.365 297.216)"><g><path fill="#e3a900" d="M272.34 304.7c-.82-.32-1.54-.7-2.16-1.1-.76 1.13-1.25 2.46-1.36 3.9h3c.05-1.02.25-1.95.52-2.8m-2.16 8c.62-.4 1.34-.8 2.16-1.12-.27-.84-.47-1.77-.52-2.78h-3c.1 1.43.6 2.76 1.36 3.9m4.1-10.35c.25.2.3.55.16.82-.14.24-.27.5-.4.75.03 0 .05 0 .07 0 .34.1.54.43.47.77-.07.36-.44.58-.8.5-.07-.03-.13-.05-.2-.07-.24.72-.4 1.5-.45 2.37h.7c.35 0 .64.3.64.65 0 .36-.3.65-.65.65h-.68c.05.85.2 1.64.45 2.36.07-.02.13-.04.2-.05.36-.1.73.14.8.5.07.34-.13.67-.46.76 0 0-.03 0-.05.02.12.25.25.5.38.74.16.27.1.62-.15.82-.3.25-.77.16-.97-.18-.16-.3-.33-.63-.5-.97-.67.26-1.28.6-1.8.92.78.85 1.75 1.53 2.84 2 .3.1.46.44.37.75v.03c-.1.36-.5.56-.86.4-1.13-.46-2.17-1.15-3.07-2.05-.12-.12-.24-.25-.36-.38-.28-.33-.55-.67-.8-1.03-.92-1.37-1.47-2.97-1.58-4.65-.02-.22-.02-.44-.02-.65 0-.22 0-.44.02-.65.07-1.04.3-2.04.7-2.98.23-.6.54-1.15.9-1.67 0-.02 0-.03.02-.05.03-.04.05-.07.08-.1.03-.06.07-.1.1-.15.05-.06.1-.13.15-.2 0 0 .02-.03.04-.05.06-.06.1-.13.17-.2.03-.04.07-.08.1-.12.03-.03.05-.06.08-.08.02-.03.04-.05.06-.07.13-.13.25-.26.37-.4.9-.88 1.94-1.58 3.07-2.05.36-.14.76.05.86.42v.02c.1.3-.06.64-.36.77-1.1.44-2.06 1.13-2.85 1.98.52.33 1.13.65 1.8.92.17-.34.34-.66.52-.97.2-.34.65-.43.95-.18"/></g></g></g></g><g><g><g clip-path="url(#b)" opacity=".7" transform="matrix(.881 0 0 -.881 -218.365 297.216)"><g><path fill="#e3a900" d="M283.82 303.6c-.63.4-1.35.78-2.17 1.1.28.85.47 1.78.53 2.8h3c-.12-1.44-.6-2.77-1.36-3.9m-2.17 7.98c.82.33 1.54.72 2.17 1.1.76-1.12 1.24-2.45 1.35-3.88h-3c-.05 1-.24 1.94-.52 2.78m4.82-2.78c-.1 1.67-.66 3.27-1.6 4.65-.23.35-.5.7-.78 1.02-.13.13-.26.26-.38.38-.9.9-1.93 1.6-3.06 2.06-.36.16-.76-.04-.87-.4-.1-.33.06-.67.36-.8 1.1-.45 2.06-1.13 2.85-1.98-.52-.33-1.14-.66-1.82-.93-.16.33-.32.65-.5.96-.2.34-.65.43-.96.18-.25-.2-.32-.55-.16-.82.14-.24.27-.5.4-.74-.03 0-.05-.02-.08-.02-.33-.1-.53-.42-.46-.76.07-.36.44-.6.8-.5.07.02.14.04.2.06.24-.72.4-1.5.46-2.36h-.7c-.36 0-.65-.3-.65-.65 0-.36.3-.65.65-.65h.7c-.06-.86-.22-1.65-.45-2.37-.07.02-.14.04-.2.06-.37.08-.74-.14-.8-.5-.08-.35.12-.68.45-.76l.07-.02c-.13-.26-.25-.5-.4-.74-.15-.28-.08-.63.17-.83.3-.25.76-.16.96.18.18.3.34.63.5.97.68-.27 1.3-.6 1.83-.92-.78-.85-1.75-1.54-2.84-2-.3-.12-.47-.45-.37-.77.1-.36.5-.56.86-.4 1.13.46 2.17 1.15 3.06 2.04.12.13.25.26.36.4.03 0 .05.03.07.06.02.02.04.05.07.08.03.04.07.1.1.13.06.07.1.14.17.2 0 .02 0 .04.03.06.05.06.1.13.14.2.02 0 .03.03.04.05.06.07.1.14.15.2 0 .02.02.03.03.05.36.52.66 1.08.9 1.67.4.94.63 1.94.7 2.98 0 .2.02.43.02.65 0 .2 0 .43-.03.65"/></g></g></g></g></g></g></svg>