<svg xmlns="http://www.w3.org/2000/svg" width="200" height="200" viewBox="0 0 52.916666 52.916666" class="iconoservicio iconomedia"><defs><clipPath><path d="M267.5 316.96h7.1v-17.63h-7.1z"/></clipPath><clipPath><path d="M279.4 316.96h7.1v-17.62h-7.1z"/></clipPath><clipPath id="a"><path d="M0 612h612V0H0z"/></clipPath><clipPath id="b"><path d="M342.6 311.64h6.48v-11.28h-6.47z"/></clipPath><clipPath id="c"><path d="M353.36 318.23h13.07v-24.46h-13.07z"/></clipPath></defs><g><g><g clip-path="url(#a)" transform="matrix(.353 0 0 -.353 -160.42 73.932)"><g><g><path fill="#e61766" d="M514.32 136.3l15.2 15.2c.32.33.5.75.5 1.2 0 .46-.18.9-.5 1.2-.32.33-.75.5-1.2.5-.45 0-.88-.17-1.2-.5l-16.4-16.4c-.32-.32-.5-.74-.5-1.2 0-.45.18-.87.5-1.2l16.4-16.4c.32-.32.75-.5 1.2-.5.45 0 .88.18 1.2.5.32.32.5.75.5 1.2 0 .46-.18.88-.5 1.2z"/></g><g><g><g clip-path="url(#b)" opacity=".7" transform="matrix(2.022 0 0 2.022 -193.309 -482.376)"><g><path fill="#e61766" d="M344.63 306l4.2 4.2c.17.17.26.38.26.6 0 .23-.1.44-.26.6-.16.15-.37.24-.6.24-.22 0-.43-.1-.6-.24l-4.8-4.8c-.15-.17-.23-.38-.23-.6 0-.22.1-.43.25-.6l4.8-4.8c.16-.15.37-.24.6-.24.22 0 .43.1.6.24.15.16.24.37.24.6 0 .22-.1.43-.26.6z"/></g></g></g></g><g><g><g clip-path="url(#c)" opacity=".7" transform="matrix(2.022 0 0 2.022 -193.309 -482.376)"><g><path fill="#e61766" d="M355.38 306l10.8 10.8c.16.16.25.37.25.6 0 .22-.1.43-.25.6-.15.15-.36.23-.6.23-.2 0-.42-.08-.58-.24l-11.4-11.4c-.32-.33-.32-.87 0-1.2L365 294c.16-.15.37-.23.6-.23.22 0 .43.08.58.24.33.34.33.87 0 1.2z"/></g></g></g></g></g></g></g></g></svg>