<svg xmlns="http://www.w3.org/2000/svg" width="210mm" height="100mm" viewBox="0 0 210 100"><g><path fill="#0b0b0b" d="M66.55 57.4c-1.7-.2-3.23-.92-4.43-2.1-.4-.4-.62-.7-.93-1.15-.56-.82-.93-1.74-1.1-2.72-.05-.2-.07-.37-.06-.38 0 0 .12 0 .24.03.13.02.27.04.32.03.06 0 .1 0 .13.03 0 .02.05.15.08.3.08.38.24.87.4 1.28.82 1.9 2.47 3.3 4.43 3.82.65.16.95.2 1.67.2.8 0 1.24-.06 1.96-.27 2.42-.73 4.27-2.88 4.64-5.4.02-.14.04-.25.05-.25 0 0 .12.05.24.1.1.07.25.13.3.15.1.04.1.04.08.18-.04.3-.17.83-.3 1.2-.85 2.6-3.1 4.5-5.87 4.94-.33.05-1.5.08-1.85.04zm-.37-3.03c-.22-.05-.38-.17-.5-.38-.07-.17-.07-.6.02-.76.15-.28.42-.44.75-.43.47 0 .75.3.76.76 0 .23-.05.4-.2.56-.15.2-.53.3-.82.25zm.45-.4c.16-.1.2-.46.1-.65-.16-.27-.53-.23-.66.07-.1.2 0 .52.17.6.1.05.3.04.4-.03zm-2.64.36c-.06-.05-.06-1.43 0-1.48 0-.02.08-.03.16-.03.07 0 .15 0 .17.03.02.02.03.13.03.3v.25h.3c.36 0 .34.02.35-.35l.02-.22h.1c.08 0 .16 0 .2 0l.07.02v1.48h-.08c-.04.02-.12.03-.2.02h-.1v-.24c-.02-.4 0-.37-.35-.37h-.3v.27c0 .18-.02.3-.04.3-.05.06-.3.06-.34 0zm3.7 0c0-.02 0-.3 0-.6l-.02-.55h-.16c-.1 0-.18-.03-.2-.05-.05-.04-.05-.27 0-.3.1-.03 1.1-.02 1.13.02.05.05.04.24 0 .28-.02.02-.1.04-.2.04h-.16l-.02.6-.02.58h-.17c-.13.02-.18 0-.2-.02zm1 0c0-.02 0-.37 0-.77v-.73h.91V53.12l-.25.02h-.27v.27l.25.03h.25v.28l-.25.02-.25.02V54.03h.27l.26.03V54.35h-.44c-.34 0-.45 0-.46-.02zm1.28 0c-.02-.02-.03-.23-.03-.74 0-.52 0-.72.03-.75.05-.05.3-.04.34 0 0 .02.03.3.04.6V54h.23c.12.02.22.03.23.05.04.06.03.24 0 .28-.06.05-.8.05-.85 0zm.18-2.57c-.27-.05-.52-.23-.63-.45-.1-.17-.1-.5-.02-1.03.05-.3.07-.5.05-.6-.02-.2-.12-.42-.23-.56-.1-.1-.3-.23-.33-.2-.02.02-.13.4-.25.87l-.22.84-.48.02c-.36 0-.47 0-.47-.03 0-.04.83-3.25.9-3.47 0-.05 0-.05-.1-.04-.3.05-.45.07-.5.05-.05-.02-.05-.1.03-.37l.07-.23.2-.04c.25-.04.4-.12.6-.32l.14-.16.62.02c.67.02.85.05 1.1.2.44.23.67.78.54 1.28-.07.28-.18.46-.44.72-.2.2-.28.26-.5.36l-.25.12.12.14c.28.36.35.63.33 1.38l-.02.55.1.1c.08.08.1.1.24.08.1 0 .18 0 .22 0 .05-.02.06 0 .12.25l.07.28-.07.08c-.14.15-.62.25-.92.18zm-.5-3.63c.17-.04.35-.2.45-.4.1-.14.1-.2.1-.43 0-.23 0-.28-.06-.35-.1-.14-.2-.2-.4-.2-.14-.02-.17 0-.2.03 0 .03-.1.35-.2.7-.13.56-.16.67-.12.7.04.02.26 0 .44-.04zm5.5 3.55c-.15-.15-.12-.4.06-.5.04-.03.04 0-.03.05-.15.14-.14.3 0 .43.05.06.08.1.06.1 0 0-.06-.04-.1-.08zm.45-.04c.1-.13.1-.3-.04-.4-.05-.06-.07-.1-.04-.1.07 0 .2.18.2.3 0 .1-.08.25-.14.28-.04 0-.02-.02.03-.08zm2.35 0c-.2-.06-.37-.2-.47-.37l-.08-.16.02-.45c0-.3 0-.5-.02-.57-.03-.12-.25-.36-.33-.36-.06 0-.1.06-.18.4-.05.18-.1.36-.1.4l-.04.1h-.45c-.24 0-.45 0-.46-.02-.02-.03 1.15-4.48 1.2-4.53 0-.03.14-.04.44-.04.36 0 .43 0 .44.05 0 .02-.08.4-.2.85-.2.76-.2.9-.2.9.02 0 .1-.06.2-.1.45-.3 1.03-.18 1.24.23.08.15.1.2.07.4 0 .3-.1.48-.36.7-.2.2-.42.33-.64.4-.07.02-.13.04-.13.06 0 0 .04.07.1.13.14.2.2.4.2.75.02.18.03.36.04.4.02.1.17.15.33.1.07 0 .14 0 .14 0 .02 0 .05.13.1.28.04.25.04.27 0 .32-.13.13-.6.2-.85.14zm-.33-2.6c.3-.1.52-.32.56-.55 0-.1 0-.13-.04-.2-.18-.22-.63.05-.87.53-.13.26-.12.32.06.3.07-.02.2-.05.3-.1zm-2.2 2.55c0-.03-.04-.04-.08-.03-.07.02-.07 0-.07-.13 0-.17.04-.2.17-.15.05.02.06.04.05.08-.03.02-.04.1-.04.14 0 .1 0 .1-.03.07zm0-.23c0-.03-.02-.05-.03-.05-.05 0-.07.05-.05.07.03.03.07 0 .07-.03zM59 50.67c-.27-.08-.5-.3-.63-.57-.07-.14-.08-.2-.1-.5 0-.62.2-1.2.62-1.6.23-.25.4-.36.66-.42.28-.06.53 0 .73.2.1.08.1.08.16-.06l.03-.1h.43c.42 0 .45 0 .45.04 0 .03-.12.5-.26 1.06-.15.56-.27 1.04-.27 1.08 0 .07.08.12.2.12.07 0 .1.02.1.05 0 .06-.12.5-.15.57-.04.06-.3.14-.46.14-.23 0-.45-.13-.56-.33l-.04-.08-.14.13c-.08.08-.2.16-.27.2-.15.06-.4.1-.53.06zm.76-.87c.4-.4.54-1.32.2-1.48-.07-.04-.1-.04-.2 0-.3.12-.55.6-.55 1.12 0 .35.1.48.3.48.1 0 .15-.02.26-.12zm4.54.84c-.4-.1-.67-.47-.7-.96-.03-.65.24-1.35.67-1.75.44-.42 1.02-.5 1.35-.18.06.05.08.06.1.03.02-.02.13-.4.25-.86.12-.45.23-.83.24-.85.03-.03.16-.04.46-.04.3 0 .42 0 .44.04.02.02-.15.73-.56 2.3l-.6 2.24-.38.02h-.4l.03-.1c0-.08 0-.13 0-.14-.02 0-.07.02-.13.07-.2.18-.52.26-.77.2zm.74-.8c.24-.15.44-.62.44-1.03 0-.27-.05-.4-.2-.48-.2-.1-.5.15-.63.5-.16.45-.15.93.03 1.06.07.06.24.05.36-.03zm6.67.8c-.4-.07-.72-.4-.83-.84-.1-.38-.02-.9.2-1.36.14-.25.5-.6.72-.72.7-.35 1.42-.13 1.7.54.08.22.1.7.03 1-.14.63-.64 1.2-1.18 1.34-.22.06-.5.08-.64.05zm.47-.73c.28-.14.5-.65.5-1.12 0-.4-.13-.6-.38-.53-.13.04-.3.2-.38.36-.17.34-.24.88-.15 1.13.08.2.22.27.4.18zm2.5.74c-.2-.05-.44-.2-.56-.32-.23-.28-.35-.7-.3-1.1.15-1.03 1-1.8 1.83-1.64.28.05.52.15.52.24 0 .1-.12.53-.15.56-.02.02-.08 0-.17-.05-.3-.17-.54-.13-.8.12-.2.2-.27.4-.32.74-.05.4.06.68.33.75.13.03.38.02.48-.03.04-.02.07-.02.1-.02 0 0-.02.16-.06.34-.08.3-.1.3-.18.36-.14.07-.5.1-.7.04zm-19.9-.07c0-.03.2-.8.44-1.72.25-.92.45-1.7.45-1.72 0-.05-.04-.06-.18-.02-.2.07-.36.07-.42.04-.04-.04-.04-.06 0-.27.1-.32.1-.33.27-.35.24-.03.4-.13.6-.3l.16-.2h.4c.3 0 .37.02.4.06 0 .02-.1.4-.2.85-.12.45-.22.84-.22.86 0 .04.04.04.4.04.27 0 .4 0 .42-.03 0 0 .13-.4.25-.87s.24-.86.26-.87c.05-.04.85-.03.88 0 .02.03-.14.67-.5 2.03-.28 1.1-.55 2.1-.58 2.25l-.07.26-.47.02c-.44 0-.48 0-.48-.05 0-.03.1-.47.25-.98.14-.53.24-.96.23-.97-.02-.04-.8-.03-.82 0 0 .03-.13.44-.25.93-.14.48-.25.92-.27.97l-.03.1h-.47c-.43 0-.46 0-.46-.06zm6.57.03s.16-.7.37-1.5l.4-1.47h.43c.24-.02.45 0 .46 0 0 .02 0 .08-.02.14 0 .06-.02.12 0 .12 0 0 .07-.04.14-.1.23-.2.4-.26.6-.23.1.02.1.06 0 .52l-.1.34h-.2c-.25-.02-.33.02-.48.17-.16.17-.26.43-.45 1.15-.1.37-.2.73-.22.78l-.03.1h-.45c-.25 0-.45-.02-.46-.03zm12.42-2.75c-.02-.05-.12-.17-.2-.28-.13-.12-.23-.28-.33-.47-.63-1.25-1.7-2.3-3-2.94-1-.48-2.02-.7-3.13-.66-.57.02-.93.06-1.43.2-1.72.43-3.2 1.56-4.12 3.12l-.2.34H61c-.34 0-.38 0-.38-.03 0-.08.3-.65.53-1 .4-.6.98-1.26 1.53-1.7 1.07-.88 2.42-1.44 3.8-1.6.56-.07 1.52-.05 2.02.04 1.53.27 2.85.94 3.93 1.98.74.7 1.38 1.66 1.72 2.55l.06.18-.16.17c-.1.1-.18.18-.2.18-.02 0-.05-.04-.08-.08z"/><g><path d="M22.08 45.08c-.7 0-1.44.17-2.16.52-2 1-3.04 3.37-2.38 5.5.3.97.43 1.15 2.43 3.14 1.6 1.6 1.9 1.87 2.07 1.87.18 0 .47-.26 2.07-1.86 1.53-1.53 1.9-1.95 2.1-2.3.33-.7.5-1.35.5-2.16 0-1.32-.44-2.36-1.37-3.28-.94-.94-2.07-1.42-3.25-1.42zm1.44 1.43c.06 0 .1.4.12 1.63l.03 1.64.6.04c.56.04.6.05.6.22.02.1-.06.3-.18.5-.22.32-.23.33-.56.33-.2 0-.37.04-.42.1-.06.05-.08.4-.08 1.14v1.06l-.26.28c-.23.26-.28.28-.63.28-.24 0-.4-.03-.4-.1-.03-.04-.05-.67-.06-1.4l-.03-1.33h-1.1l-.04.45c-.04.4-.08.5-.28.75-.24.3-.25.3-.66.27h-.42l-.02-2.13-.02-2.12.23-.28c.3-.36 1.03-.85 1.1-.74.02 0 .05.6.07 1.34l.04 1.33h1.12l.04-1.15.04-1.15.2-.27c.2-.24.78-.66.98-.7zm15.16 1.94c-.3 0-.6.16-.77.47-.08.2-.1.43-.1.94 0 .78.12 1.2.4 1.34.27.15.77.13 1.03-.03.23-.14.42-.55.35-.74-.06-.15-.58-.12-.67.05-.1.2-.3.18-.37-.02-.02-.1-.04-.34-.04-.55 0-.7.2-.96.44-.58.13.2.46.23.6.06.07-.08.07-.15 0-.35-.15-.37-.5-.56-.86-.56zm1.9.02c-.32.02-.6.2-.78.53-.1.18-.13.36-.1.97.02.8.1 1.03.47 1.23.1.06.32.08.54.07.66-.05.86-.4.86-1.42 0-.8-.13-1.14-.5-1.3-.16-.06-.32-.1-.47-.1zm6.15 0c-.2 0-.4.04-.5.12-.37.24-.44.44-.44 1.24 0 .84.08 1.14.4 1.33.3.2.8.18 1.05 0 .32-.26.4-.5.4-1.26 0-.8-.1-1.1-.4-1.3-.13-.1-.33-.13-.52-.13zm-11.18.03c-.14 0-.3.03-.32.1-.03.07.08.52.24 1 .17.52.3 1.02.3 1.2 0 .18.03.36.08.4.05.05.15.1.24.1.25 0 .36-.2.36-.6 0-.24.1-.65.28-1.2.16-.46.27-.87.25-.92-.03-.05-.15-.1-.3-.1-.26 0-.4.16-.48.55-.06.3-.15.3-.25-.07-.05-.16-.12-.33-.16-.38-.03-.06-.14-.1-.25-.1zm-1.47 0c-.25 0-.48.02-.54.08-.05.05-.08.44-.08 1.28 0 1 .02 1.23.1 1.32.14.13.4.14.52.02.04-.04.08-.23.08-.4 0-.36.06-.42.38-.42.25 0 .58-.32.67-.64.14-.5-.05-.98-.46-1.15-.14-.07-.4-.1-.66-.1zm-3.6 0c-.1 0-.23 0-.28.05-.08.05-.65 2.27-.65 2.53 0 .07.04.14.1.16.26.1.6-.02.6-.24 0-.1.05-.13.24-.13.2 0 .24.02.24.14 0 .1.07.18.17.23.24.1.54.02.54-.15 0-.25-.58-2.48-.66-2.53-.05-.04-.17-.05-.3-.05zm11.6 0c-.3 0-.3.2-.3 1.4 0 1.1 0 1.25.12 1.3.35.22.56.03.6-.5v-.43l.23.47c.23.48.37.6.7.52l.16-.05-.03-1.33-.02-1.34H43l-.03.43c0 .24-.04.44-.07.44-.03 0-.15-.2-.26-.44-.18-.4-.23-.43-.44-.45-.05 0-.1 0-.13 0zm-14.03 0c-.04 0-.08 0-.12 0l-.23.03-.02 1.28c0 .9 0 1.32.06 1.4.1.1.35.1.5 0 .08-.06.12-.22.14-.54 0-.4.03-.46.16-.46.12 0 .14.06.17.5.04.45.06.48.24.55.13.04.24.04.32 0 .1-.08.1-.24.1-1.4v-1.32l-.22-.03c-.35-.03-.43.08-.43.6 0 .42 0 .44-.16.44-.17 0-.18-.02-.18-.45 0-.45-.06-.6-.3-.6zm3.56.03v1.28c-.02.9 0 1.32.05 1.4.1.1.3.1.5 0 .1-.04.12-.13.12-.4 0-.32.02-.35.2-.4.63-.12.85-.37.85-.98 0-.33-.03-.4-.24-.63l-.24-.27h-.6zm12.37 0l-.02 1.32c0 1 0 1.34.07 1.38.05.04.3.05.56.03.87-.05 1.06-.33 1.02-1.52-.02-.75-.02-.76-.25-.98-.22-.23-.25-.23-.8-.23zm-3.34.6c.06 0 .12.04.16.13.07.14.1 1.04.02 1.22-.06.17-.35.14-.4-.05-.07-.25-.05-.93.02-1.13.05-.12.12-.18.2-.17zm6.08 0c.17-.02.24.2.24.7 0 .3-.02.6-.04.65-.04.1-.24.15-.33.06-.03-.02-.05-.34-.05-.7 0-.52.02-.66.1-.7.04 0 .06 0 .1 0zm-12.4.06c.18 0 .28.2.2.4-.03.08-.12.15-.2.15-.12 0-.14-.05-.14-.28 0-.23.02-.28.14-.28zm-1.92 0c.02 0 .03 0 .05 0 .13.02.16.07.16.27s-.04.25-.17.27c-.14.02-.16 0-.16-.27 0-.23.02-.28.1-.27zm12.36.03c.13 0 .14.04.14.66 0 .56 0 .65-.12.67-.17.04-.2-.1-.18-.76.02-.52.03-.57.16-.57zM37.3 51.9c-.17 0-.28.2-.28.5 0 .36-.08.3-.2-.12-.13-.45-.3-.37-.44.2-.15.52-.12.7.07.53.16-.14.27-.14.32 0 .06.16.4.13.44-.04.03-.08.15-.2.26-.25l.2-.1-.03.2c-.05.26.07.38.2.2.1-.13.2-.14.3 0 .13.14.4.13.46 0 .03-.12.04-.12.17 0 .18.16.3.08.2-.14-.05-.1-.05-.2 0-.3.04-.08.08-.22.08-.3 0-.13.02-.14.1-.07.06.04.1.23.12.46.03.5.15.48.2-.06.05-.6.2-.64.2-.07 0 .3.04.44.12.5.08.08.1.07.13-.06.06-.2.4-.2.47 0 .02.08.07.12.14.1.06-.03.16-.02.23.02.16.08.3.1.44 0 .13-.07.04-.2-.13-.2-.18 0-.17-.2 0-.25.08-.03.14-.08.14-.12 0-.04-.05-.1-.13-.1-.18-.05-.17-.2 0-.26.1-.02.15-.08.13-.13-.04-.12-.32-.16-.43-.06-.05.04-.16.05-.24.03-.1-.02-.17 0-.23.15-.1.23-.2.23-.27.02-.05-.14-.13-.18-.46-.22-.24-.03-.42-.02-.48.03-.07.05-.16.05-.3 0-.3-.12-.44 0-.46.4l-.02.34-.1-.35c-.13-.38-.3-.5-.4-.25-.04.15-.04.15-.2-.03-.12-.13-.24-.2-.33-.2zm5.75.02c-.05 0-.1.02-.15.06-.05.03-.17.03-.28 0-.3-.13-.73 0-.78.22l-.05.17-.1-.2c-.05-.1-.14-.18-.2-.17-.1.02-.1.12-.1.54 0 .55.1.72.22.37l.06-.18.1.2c.18.38.34.2.34-.42 0-.2.03-.38.07-.38.07 0 .12.2.15.63.03.47.15.38.18-.12 0-.32.04-.44.12-.44.06 0 .1.04.1.1 0 .04.1.17.2.28.15.13.2.22.15.27-.05.05-.1.04-.15 0-.13-.14-.2-.12-.2.04 0 .06.06.16.12.2.18.1.28.1.44-.07.2-.18.2-.23-.06-.5-.26-.3-.26-.35-.04-.3.2.06.23-.04.07-.2-.08-.08-.15-.12-.22-.1zm-8.1.06c-.6 0-.6 0-.65.44-.02.22-.07.4-.1.4-.04 0-.1-.18-.1-.4-.04-.38-.06-.4-.24-.42-.1 0-.24 0-.3.06-.08.07-.12.07-.2 0-.03-.04-.15-.08-.26-.08-.2 0-.2.02-.2.37 0 .7-.25.74-.3.05-.02-.52-.15-.48-.17.06-.02.4-.03.44-.18.42-.13-.02-.15-.07-.17-.46-.02-.3-.05-.44-.1-.42-.12.04-.16.94-.05 1.07.1.12.23.13.42.03.1-.05.18-.05.28 0 .1.06.18.06.3-.02.13-.08.18-.1.25-.03.06.07.1.06.18-.05.1-.12.1-.12.23 0 .08.07.14.1.17.04.03-.05.1-.04.22.04.13.1.2.1.34.03.1-.03.17-.1.17-.15 0-.05.06-.03.14.04.13.1.14.1.2 0 .07-.13.08-.13.22 0 .18.15.26.1.17-.12-.08-.17 0-.48.13-.48.03 0 .07.07.1.16.08.5.1.55.2.52.03 0 .1-.15.1-.3.04-.15.1-.36.14-.47.1-.26-.02-.42-.18-.2-.1.12-.1.12-.17 0-.07-.1-.12-.12-.6-.12zm2.43.2c.03 0 .06.08.06.15 0 .15-.1.2-.17.07-.05-.08 0-.2.1-.2zm1.32 0c.04 0 .07.08.07.15 0 .08-.03.14-.07.14-.04 0-.07-.06-.07-.14 0-.07.03-.14.07-.14zm-3.78.02c.03 0 .06.02.1.05.06.06.06.1 0 .17-.07.06-.1.05-.13-.04-.05-.1-.03-.18.02-.18zm-1.15.03c.03 0 .04.08.04.26 0 .17 0 .32 0 .32-.14 0-.17-.38-.06-.56 0 0 .02-.02.03-.03zm-.6.03c.12 0 .16.27.08.42-.1.2-.14.18-.14-.14 0-.15.04-.28.08-.28zm-3.65.14c-1.74 0-2.08.03-1.95.17.03.03.9.04 1.93.03 1.44-.02 1.9-.04 1.92-.1.02-.08-.4-.1-1.9-.1zm16.2 0c-1.66 0-1.92.02-1.92.1 0 .1.26.1 1.92.1s1.92 0 1.92-.1c0-.08-.26-.1-1.92-.1z"/></g><path d="M127.38 54.36c-.05 0-.15 0-.2-.02-.3 0-.66-.3-.82-.7-.12-.3-.16-.7-.12-1.14.02-.24.1-.6.12-.66.04-.07.96-.04 1.03.03 0 0 0 .06-.02.12-.13.56-.13.88-.02 1.16.1.3.47.5.8.43.13-.05.33-.15.45-.25.16-.12.3-.3.32-.38.06-.24.5-2.23.5-2.24 0 0-.08-.02-.16-.04-.2-.05-.53-.05-.7 0-.3.07-.63.3-.8.54-.08.1-.1.12-.15.12-.04 0-.03.02.13.13.24.15.42.32.6.53.08.12.12.18.12.22 0 .06 0 .07-.06.07-.04 0-.12-.04-.2-.1-.4-.27-.78-.4-1.23-.46-.2-.02-.25-.02-.66.03-.1 0-.1 0-.1-.04 0-.03.05-.1.13-.2.07-.07.18-.2.25-.3.1-.13.13-.16.17-.16.07 0 .4.1.5.14.06.02.1.04.12.03 0 0-.18-.08-.37-.14-.1-.03-.2-.05-.2-.06 0 0-.02-.03-.02-.06 0-.12.37-.5.68-.7.14-.1.15-.1.35-.12.13 0 .3-.03.38-.05.16-.04.4-.13.43-.16.02 0-.04 0-.12.04-.26.1-.42.13-.78.12-.23 0-.35-.02-.45-.04l-.13-.04v-.07c0-.04.02-.27.02-.5 0-.53 0-.52.2-.35.56.42 1.24.44 1.82.05.08-.05.16-.1.2-.1.16 0-.12.45-.43.68-.07.05-.12.1-.13.1 0 0 .15 0 .35 0 .4 0 .6.04.95.13.3.08.46.15.47.2 0 .03-.15.73-.35 1.57-.2.84-.37 1.62-.4 1.74-.02.16-.06.62-.06.77 0 .03-.04.03-.48.03h-.48V54l-.13.1c-.07.04-.2.1-.3.15-.13.07-.18.08-.34.1-.4.03-.55.03-.65 0zm9.48 0c-.05 0-.14 0-.2-.02-.17 0-.34-.1-.53-.28-.25-.26-.37-.54-.4-1-.07-.73.1-1.46.5-2.04.14-.22.5-.58.7-.72.3-.2.63-.33.98-.4.24-.05.76-.06 1.05-.03.38.04.62.1.93.2.17.06.18.07.18.13 0 .03-.16.74-.35 1.58-.2.83-.36 1.6-.38 1.73-.02.12-.05.35-.05.5l-.02.3h-.96V54l-.08.05c-.25.18-.47.27-.7.3-.38.02-.56.03-.66 0zm.8-.78c.24-.06.5-.24.66-.45l.08-.1.25-1.13c.14-.62.25-1.14.25-1.15 0-.04-.3-.1-.5-.1-.26 0-.4.04-.65.16-.28.15-.56.44-.72.77-.24.48-.33 1.18-.2 1.54.13.4.47.58.84.48zm-15.43.7c-.02-.02-.02-.06 0-.1 0-.05 0-.14 0-.2 0-.1.2-1.05.6-2.94l.6-2.82h.08c.05-.02.27-.03.5-.03.4 0 .44 0 .63.04.2.06.45.14.6.22.05.03.08.05.08.08 0 .05 0 .05-.28.05-.23 0-.32 0-.47.04-.1.02-.2.04-.2.05 0 0-.57 2.7-.57 2.72 0 0 .1.02.2.03.36.06.66.02.96-.13.2-.1.26-.1.27-.04.02.1.42-.45.55-.74.17-.36.26-.92.2-1.25 0-.16-.1-.4-.18-.47-.07-.08-.26-.23-.4-.3-.48-.3-1.1-.44-1.56-.4-.08.02-.2.03-.24.03-.08 0-.08 0-.08-.05s.05-.08.36-.18c.4-.12.76-.2 1.2-.2 1-.06 1.65.3 1.9 1 .07.23.1.38.1.73 0 .36-.04.57-.14.93-.07.26-.24.63-.4.86-.4.6-1.04.98-1.8 1.1-.2.03-.78.03-.97 0-.08 0-.14-.02-.15-.02 0 0-.1.45-.2 1l-.2.98h-.47c-.35 0-.45 0-.47-.03zm1.6-2.14c.16-.05.53-.18.52-.2 0 0-.1.03-.2.07-.1.05-.26.1-.35.1-.1.03-.2.05-.2.06 0 .03.08.02.23-.02zm6.27 2.12c0-.05.88-4.27.9-4.28 0 0 .9-.1.97-.1.04 0 .05.02.05.05 0 .03-.9 4.25-.92 4.34 0 .03-.05.03-.5.03h-.5zm1.45-.02c0-.05.86-4.22.88-4.26 0 0 .92-.1.97-.1.05 0 .06.02.05.07 0 .04 0 .1 0 .14l-.03.06.16-.07c.4-.2.7-.26 1.1-.24.3 0 .43.04.6.13.24.1.38.26.48.52.05.1.05.14.05.5 0 .3 0 .43-.02.55-.02.1-.16.74-.3 1.44-.15.7-.28 1.3-.28 1.3s-.22 0-.5 0c-.47 0-.5 0-.5-.03 0-.02.1-.6.26-1.3.3-1.47.34-1.66.3-1.84-.04-.3-.17-.42-.46-.47-.2-.03-.4.02-.64.13-.18.07-.4.22-.43.27 0 0-.16.74-.35 1.63l-.35 1.6h-.98v-.06zm8.03.03c0-.03.9-4.28.9-4.3 0 0 .92-.08.98-.08.05 0 .05 0 .04.1 0 .06-.02.12-.03.14 0 .02.03 0 .13-.04.32-.16.7-.25 1.05-.25.6 0 1 .22 1.16.67.05.1.06.18.07.4 0 .38 0 .43-.34 2.04l-.28 1.34h-1v-.04c0-.03.1-.6.25-1.26.14-.67.27-1.3.3-1.4.08-.5 0-.8-.3-.9-.3-.12-.75 0-1.12.28l-.1.07-.35 1.62-.35 1.62h-.5c-.47 0-.5 0-.5-.03zm4.05-.03c0-.07.88-4.23.9-4.25 0-.03.85-.1.96-.1.04 0 .04 0 .04.06 0 .04-.2 1-.45 2.15-.25 1.16-.46 2.12-.47 2.15v.05h-1zm-12.43-4.47c-.14-.38-.4-1.14-.4-1.23-.07-.28 0-.64.14-.9.13-.22.43-.43.7-.5.15-.04.52-.04.67 0 .4.1.7.4.83.8.05.2.05.54 0 .73-.1.28-.3.54-.55.67-.14.08-1.23.45-1.3.45-.04 0-.08-.02-.08-.03zm.94-.77c.3-.08.5-.3.56-.6.06-.27-.1-.6-.37-.76-.12-.08-.3-.12-.4-.1-.27.02-.5.2-.63.44-.05.12-.06.15-.06.3 0 .14 0 .2.05.28.1.2.27.37.5.44.12.04.2.04.34 0zm12.3-.06c-.16-.47-.3-.9-.32-1-.04-.17-.04-.56 0-.75.12-.6.53-1.07 1.07-1.28.13-.05.14-.05.66-.05h.53l.15.06c.4.16.74.48.92.9.05.1.07.17.1.35.03.44 0 .9-.07 1.1-.16.4-.55.77-.96.93-.4.16-1.68.6-1.74.6h-.06l-.3-.86zm1.67-.27c.22-.06.37-.15.55-.32.32-.32.43-.72.3-1.12-.14-.38-.47-.7-.87-.78-.6-.14-1.22.3-1.34.94-.07.35.06.7.37 1 .3.25.67.35 1 .27zm-2.72.82c-.26-.05-.4-.22-.38-.5.02-.16.08-.27.2-.34.1-.04.13-.04.32-.04.34 0 .5.07.56.27.05.12.04.33-.04.43-.08.12-.22.18-.4.18-.1 0-.2 0-.26 0zm-1.4-.22c-.24-.04-.35-.15-.37-.36 0-.2.06-.33.2-.4.08-.04.12-.05.32-.04.36.02.5.12.5.38.03.22-.07.38-.27.43-.1.02-.18.02-.36-.02zm-1.43-.3c-.16-.05-.23-.1-.28-.2-.03-.05-.04-.1-.03-.2 0-.14.04-.2.15-.28.06-.04.08-.04.27-.04.18 0 .23.02.3.06.16.07.2.13.2.32 0 .14-.02.18-.06.23 0 .04-.06.08-.1.1-.1.05-.3.05-.45 0zm-13.45-.08c0-.02-.05-.16-.1-.32-.1-.25-.1-.3-.1-.45 0-.1 0-.2 0-.22.03-.03.03-.04-.02-.04-.08 0-.2-.04-.23-.08-.02-.02-.04-.04-.05-.04-.02 0-.08-.03-.16-.08-.45-.27-.95-.3-1.42-.06-.2.1-.25.1-.25.03 0-.06.1-.15.33-.26.23-.1.37-.15.66-.16.23 0 .4.02.6.08.03 0 0-.02-.07-.05-.28-.13-.65-.17-.94-.1-.2.06-.47.2-.62.33-.15.14-.23.17-.23.07 0-.05.04-.1.15-.2.13-.15.14-.16.1-.16-.05 0-.06 0-.06-.06 0-.03.02-.07.1-.16.22-.2.43-.32.72-.4.15-.03.2-.03.48-.03.27.02.33.03.47.08.08.03.2.07.23.1l.07.03-.05-.03c-.08-.07-.35-.2-.5-.23-.2-.06-.53-.05-.72 0-.15.06-.34.15-.44.2-.03.03-.07.05-.1.05-.05 0-.05-.02-.05-.07s.03-.07.13-.15c.16-.12.34-.2.53-.27.13-.03.2-.04.48-.04.32 0 .33 0 .52.07.2.07.3.13.48.25.06.05.1.1.1.08 0 0-.05-.06-.13-.13-.16-.14-.42-.28-.62-.33-.13-.03-.14-.04-.14-.08s0-.05.12-.05c.46 0 .94.27 1.23.7.08.12.1.12.03 0-.07-.15-.2-.33-.34-.44-.12-.1-.4-.3-.45-.3-.02 0-.04 0-.05 0-.03-.03-.03-.04 0-.07.02 0 .04-.02.05-.02.02 0 .1.02.17.03.13.02.18.03.3.1.34.2.6.52.7.9.06.17.1.46.05.46 0 0-.02.02-.02.05 0 .07-.1.18-.15.18-.03 0-.02.02.05.08.3.26.28.8-.03 1.02-.08.05-.7.28-.77.28-.02 0-.04-.02-.05-.04zm.57-.46c.14-.07.23-.24.2-.36-.05-.16-.2-.3-.35-.3-.12 0-.28.13-.33.27-.04.1-.02.2.07.3.12.13.25.16.4.1zm-.65-.73s0-.02 0-.02c-.02 0-.03.02-.03.03 0 .03 0 .04 0 .04s.02 0 .02-.03zm.17-.13s-.02 0-.04 0c0 0-.03 0-.03 0 0 .02.02.03.03.02.02-.02.03-.02.03-.03zm.55-.07c0-.02-.08-.02-.3-.02-.08 0-.14 0-.14 0 0 .03.1.03.23.03.12 0 .22 0 .22 0zm-2.58-.55c.23-.1.44-.13.74-.12.2 0 .3.02.42.06.1.02.16.04.16.04 0-.04-.4-.16-.58-.18-.3-.04-.8.12-1.03.34-.07.06-.06.06.04 0 .08-.05.2-.12.27-.15zm14 1.67c-.23-.07-.3-.13-.3-.35 0-.13 0-.14.1-.2.08-.1.2-.13.38-.1.18.05.24.07.3.13.05.05.06.08.06.2.02.16 0 .24-.1.3s-.3.06-.44.02zm-1.42-.37c-.08-.02-.14-.05-.17-.1-.05-.05-.06-.07-.06-.2 0-.12 0-.13.06-.2.08-.07.2-.08.4-.05.2.04.28.1.3.25.03.28-.17.4-.53.3zm-4.36-.22c-.05-.04-.06-.17-.02-.22.05-.05.38-.1.43-.03.02 0 .03.07.03.12 0 .13-.02.14-.24.16-.15 0-.18 0-.2-.03zm3.07-.04s-.07-.02-.12-.03c-.07 0-.1-.03-.15-.07-.05-.05-.06-.07-.06-.17s0-.13.05-.17c.05-.06.12-.08.3-.06.2 0 .25.04.3.1.02.08.02.24-.02.3-.05.08-.22.12-.3.1zm-1.63-.08c-.08-.03-.1-.07-.1-.2.02-.15.06-.17.3-.2.18 0 .18 0 .23.05.05.04.05.07.05.16 0 .16-.04.2-.26.2-.1 0-.2 0-.22 0z"/><g><path d="M166.6 59.34c0-.03 0-.3 0-.6 0-.43.02-.52.07-.52s.06.1.07.6c0 .5 0 .58-.05.58s-.08-.03-.1-.06zm.52 0c0-.02.1-.15.2-.28.1-.13.17-.25.17-.27 0-.04-.08-.15-.17-.26-.3-.34-.16-.5.14-.16.1.1.18.2.2.2.04 0 .1-.08.17-.17.12-.17.25-.24.32-.17.03.03 0 .13-.14.3-.22.28-.22.28.03.58.08.1.15.2.15.24 0 .12-.17.05-.33-.13-.1-.1-.18-.17-.22-.17-.03 0-.12.08-.2.18-.1.14-.16.2-.23.2-.05 0-.1-.03-.1-.05zm1.76 0c0-.02-.03-.24-.03-.48v-.43l-.17-.02c-.18 0-.27-.08-.18-.16.04-.03.2-.04.5-.03.38.02.4.03.4.1s-.02.1-.15.1l-.17.03-.02.47c-.02.4-.03.48-.1.5-.03 0-.07-.02-.08-.05zm.64-.04c0-.05.1-.3.22-.6.28-.64.3-.64.6 0 .24.56.26.66.16.7-.05 0-.1-.06-.18-.17-.1-.14-.12-.16-.24-.16-.2 0-.27.03-.34.2-.07.15-.23.2-.22.03zm.62-.48c0-.08-.06-.17-.1-.17-.04 0-.07.02-.07.04 0 0 0 .06-.02.1-.02.04 0 .06.08.06.06 0 .1-.02.1-.04zm.76.5c-.04-.1-.02-1.02.03-1.07.03-.03.15-.05.27-.05.2 0 .24.02.34.12.07.07.12.16.12.2 0 .15-.12.34-.22.36-.06 0-.15.03-.2.04-.1.02-.1.05-.1.18 0 .22-.05.3-.14.3-.04 0-.08-.03-.1-.07zm.5-.7c.04-.1-.04-.2-.16-.2-.1-.02-.1 0-.1.13s0 .14.1.14.15-.03.16-.07zm.35.68c0-.12.42-1.07.48-1.1.02 0 .07.02.1.06.1.08.5 1.05.47 1.1-.05.07-.14.04-.2-.08-.12-.16-.2-.2-.33-.2-.17 0-.26.05-.3.2-.07.15-.23.17-.22.02zm.6-.48c0-.08-.04-.17-.1-.17-.04 0-.1.1-.1.17 0 .02.05.04.1.04.07 0 .1-.02.1-.04zm-12.95-1.98l-.3-.02.02-.2c.03-.3.02-1.32-.02-1.44l-.03-.12h.48c.43 0 .52 0 .7.1.5.23.62.94.24 1.38-.23.26-.53.34-1.1.3zm.74-.2c.5-.3.4-1.14-.14-1.38-.12-.05-.25-.07-.38-.07h-.2v.7c0 .48 0 .72.03.76.08.1.52.07.7-.03zm1.55.2c-.03 0-.12 0-.2-.02-.34-.06-.6-.46-.55-.83.05-.44.36-.7.8-.7.3 0 .5.08.64.25.38.47.1 1.2-.5 1.3-.1 0-.2 0-.2 0zm.38-.2c.14-.1.2-.27.2-.55 0-.43-.2-.67-.54-.67-.35 0-.52.2-.52.6 0 .27.07.42.25.57.15.13.46.15.6.05zm6.1.2c-.22-.03-.28-.05-.4-.17-.42-.36-.34-1.04.13-1.28.27-.14.72-.1.93.05.08.06.18.17.2.23.1.15.1.54.02.7-.08.2-.33.4-.5.44-.1 0-.2.03-.23.03s-.1 0-.14 0zm.46-.2c.14-.1.22-.3.22-.56 0-.3-.1-.48-.34-.6-.17-.08-.2-.1-.35-.05-.2.05-.32.17-.4.4-.08.27.05.67.28.8.16.1.44.1.6 0zm4.86.2c-.32-.06-.5-.2-.62-.47-.16-.4.03-.88.4-1.02.17-.06.75-.06.86 0 .1.05.1.22.04.27-.02 0-.08-.02-.12-.07-.06-.07-.13-.1-.33-.1-.33-.03-.48.03-.58.24-.24.46.1 1 .63 1 .14 0 .22 0 .28-.07.04-.05.1-.07.12-.06.04.03 0 .17-.06.22-.06.05-.43.08-.62.04zm4.47 0c-.47-.1-.74-.53-.6-.98.1-.4.35-.55.85-.55.38 0 .5.05.5.2 0 .13-.04.15-.15.05-.08-.07-.16-.1-.38-.1-.25-.02-.3 0-.4.07-.35.27-.3.86.1 1.1.24.12.52.13.67 0 .1-.06.1-.07.13-.02.1.22-.26.33-.73.24zm1.55 0c-.36-.1-.6-.38-.6-.75 0-.25.06-.4.2-.56.18-.18.3-.23.6-.23.53 0 .84.3.8.8-.03.5-.5.86-1 .74zm.58-.26c.26-.26.24-.78-.04-1.02-.12-.1-.18-.13-.35-.13-.25 0-.38.08-.47.32-.18.48.1.96.56.96.14 0 .2 0 .3-.12zm-17.17-.4c0-.38 0-.72-.02-.77 0-.07 0-.07.35-.07.32 0 .37 0 .46.1.15.13.16.36.03.58l-.1.17.12.14c.2.26.35.4.42.4.08 0 .12-.07.38-.75.22-.6.28-.7.34-.62 0 .02.13.3.26.62s.27.64.3.7c.1.16.07.2-.12.18-.07 0-.1-.07-.17-.22-.1-.28-.13-.3-.36-.3-.18 0-.2 0-.24.1-.03.08-.06.2-.07.27l-.04.15h-.25c-.28.02-.4-.04-.65-.4-.12-.17-.17-.2-.26-.2-.1.02-.12.03-.12.24 0 .13 0 .26.02.3.02.04-.02.06-.12.07h-.15v-.66zm2.02-.04c.02-.02 0-.12-.04-.2-.04-.14-.07-.17-.1-.13-.08.06-.13.27-.1.33.04.06.22.06.25 0zm-1.4-.15c.15-.23-.02-.6-.26-.56-.1 0-.12.03-.13.27-.02.3.03.4.2.4.08 0 .14-.04.2-.1zm2.32.1v-.77h.27c.74-.05 1.1.16 1.14.65.02.3-.1.55-.3.72-.15.1-.18.12-.64.13h-.48zm.9.53c.3-.17.36-.63.13-.92-.12-.16-.4-.28-.6-.26h-.15v.6c-.02.3 0 .6 0 .62.03.1.47.07.63-.03zm3.55-.68v-.9h.33c.52 0 .68.15.63.56-.03.2-.22.4-.36.4-.1 0-.1 0 .02-.12.15-.17.17-.3.08-.48-.08-.16-.24-.25-.37-.2-.06.02-.07.1-.05.83v.8h-.28zm1.05.84c0-.03.03-.1.06-.16.03-.07.16-.37.27-.67.12-.3.24-.58.26-.6.07-.1.12-.02.36.58.12.3.25.6.3.67.1.2.1.22-.06.22-.13 0-.15-.02-.25-.26l-.1-.26h-.2c-.24-.03-.28 0-.35.3-.04.2-.06.22-.16.22-.07 0-.13-.02-.13-.05zm.73-.68c.03-.08-.1-.38-.14-.33-.06.05-.13.3-.1.34.03.06.22.04.24-.02zm2.53.7s0-.35 0-.76v-.73h.26V56c0 .4 0 .72.02.75.02.05 0 .07-.13.08-.1 0-.17 0-.17 0zm.85-.67c0-.38 0-.72-.02-.76-.02-.06.04-.07.37-.07.38 0 .4 0 .4.1.02.08 0 .1-.07.07-.37-.12-.46-.06-.44.25v.2h.25c.22.02.24.03.22.1 0 .07-.04.1-.08.1-.4-.12-.46-.03-.36.58 0 .07-.02.1-.14.1h-.14zm1.22.68s0-.35 0-.77l-.02-.76.13.02h.15v.76l.02.76h-.14c-.07 0-.13 0-.13 0zm-17.56-3.44c-.12-.04-.22-.07-.23-.07-.1 0-.43-.3-.52-.45l-.1-.2V50.26h.44l.02 1.18c.02 1.16.03 1.18.12 1.32.15.2.38.3.75.3.4 0 .62-.1.76-.33.1-.15.1-.2.12-1.3l.02-1.17h.45v1.2c0 1.15 0 1.2-.1 1.37-.1.23-.36.44-.64.54-.26.1-.74.12-1.06.03zm7.83 0c-.26-.1-.35-.15-.56-.35-.22-.22-.23-.3-.06-.4.18-.1.25-.08.4.08.2.2.42.3.68.3.4 0 .7-.23.66-.5-.03-.16-.3-.4-.82-.7-.56-.34-.73-.5-.8-.72-.08-.25-.02-.44.2-.65.2-.2.42-.28.83-.28.35 0 .65.12.92.36.2.17.18.22-.08.34l-.14.07-.24-.17c-.28-.2-.5-.24-.75-.14-.26.1-.32.3-.14.5.06.07.32.25.57.4.98.54 1.24 1.04.8 1.53-.2.24-.52.37-.93.38-.22 0-.42 0-.53-.05zm3.88-.02c-.63-.16-1.1-.52-1.32-1-.15-.32-.16-.82-.02-1.14.13-.27.56-.7.85-.82.92-.42 2.16-.32 2.84.23.08.07.16.16.16.2 0 .04-.25.2-.33.2-.03 0-.14-.06-.25-.14-.3-.2-.62-.3-1.06-.33-1.18-.06-2 .68-1.74 1.57.03.1.13.25.23.36.36.4.8.56 1.44.55.48 0 .77-.1 1.13-.32.24-.16.32-.17.5-.02.08.07.1.1.06.16-.07.1-.55.38-.84.47-.4.13-1.24.15-1.65.05zm-15.14-.02c-.25-.1-.35-.15-.56-.35-.22-.2-.24-.3-.07-.4.18-.1.24-.07.42.1.2.23.36.3.6.3.6 0 .9-.37.58-.7-.06-.1-.37-.3-.68-.5-.6-.37-.78-.54-.83-.8-.1-.56.56-1 1.3-.85.33.07.8.36.8.5 0 .07-.25.24-.33.24-.02 0-.13-.08-.24-.16-.18-.14-.22-.16-.5-.17-.24 0-.3 0-.4.07-.08.07-.1.13-.1.23 0 .2.13.32.65.62.68.37.92.6 1 .9.07.35-.16.72-.56.9-.27.1-.84.14-1.1.06zm6.4-.04c0-.03 0-.73 0-1.56 0-1.37 0-1.5.08-1.52.06 0 .34.22 1.7 1.44.8.7.86.75.9.7 0 0 .03-.5.04-1.08v-1.05h.47v1.55c0 1.46-.02 1.55-.1 1.56-.03 0-.2-.1-.4-.3-.8-.7-2.1-1.84-2.13-1.84-.08 0-.1.18-.1 1.08.02.5.02.96.02 1-.02.06-.06.07-.25.07-.14 0-.23-.02-.24-.05zm11.96 0c0-.03.16-.3.35-.62.2-.32.35-.6.34-.63 0-.04-.1-.06-.26-.07h-.24l.2-.08c.12-.04.3-.1.38-.1.16-.06.2-.1.64-.82.38-.64.48-.77.55-.76.07 0 .25.26.65.92.3.5.58.93.62.96.03.03.1.05.17.05.1 0 .1 0 .03.06-.04.03-.07.08-.07.1 0 .04.12.26.27.5.15.25.27.47.27.5 0 .02-.1.04-.25.04h-.25l-.2-.3c-.1-.18-.26-.4-.32-.53-.07-.1-.17-.2-.2-.22-.06 0-.33-.06-.6-.1-.3-.05-.57-.1-.63-.1-.14-.04-.13-.05-.57.65l-.36.58h-.26c-.18.02-.24 0-.24-.03zm2.43-1.44c0-.06-.4-.73-.47-.77-.05-.02-.08 0-.28.33-.18.28-.17.3.13.37.15.02.32.06.4.08.16.05.2.05.2 0zm2.4 1.43c-.02-.07-.02-2.92 0-3 .03-.06.13-.07.74-.07 1.23 0 1.6.12 1.78.6.1.2.08.4-.03.6-.2.36-.53.5-1.4.52-.7.03-.64-.03-.6.76 0 .3 0 .57 0 .6-.04.1-.45.1-.5 0zm1.74-1.8c.2-.1.3-.23.3-.4 0-.35-.2-.45-.97-.45h-.55v.9h.54c.37 0 .58-.02.68-.05zm1.66 1.84c-.04-.04-.04-3 0-3.06.03-.04.3-.05 1.2-.04h1.14l.02.17c0 .12 0 .17-.07.2-.05.02-.46.04-.92.04-.47 0-.86.02-.88.03-.04.02-.05.64 0 .74 0 .06.1.07.57.07.3 0 .6.02.64.04.1.06.12.26.04.33-.04.04-.23.05-.62.05-.43 0-.57.02-.6.06-.04.04-.05.22-.05.53l.02.47.88.02c.58 0 .9.03.94.06.03.03.04.1.04.2l-.02.13h-1.15c-.65.02-1.2 0-1.2 0zm2.76-2.68c0-.02-.02-.07-.02-.12 0-.07.02-.1.08-.1s.08.03.08.12c0 .12-.07.17-.14.1zm-17.32-1.98c-.1-.12.1-.9.28-1.16.1-.14.3-.26.4-.26.12 0 .23.15.27.35.06.4-.18.83-.6 1.04-.24.12-.3.13-.36.04zm3.6-.18c-.35-.1-.5-.2-.62-.38-.1-.14-.1-.22-.1-.4v-.24h-.14c-.1 0-.14.02-.15.07 0 .05-.07.1-.14.13s-.16.1-.2.13c-.08.1-.3.1-.34.04 0-.02-.08-.03-.14-.02-.1.02-.14 0-.24-.1-.07-.06-.16-.13-.2-.16-.08-.07-.08-.13 0-.16.05-.02.1 0 .14.06.05.06.1.08.14.07.04-.02.1 0 .15.08l.1.12.13-.1c.08-.03.17-.07.2-.07s.08-.04.1-.1c.05-.1.07-.1.22-.05.07.02.1 0 .1-.06.03-.2.27-.2.32 0 .02.06.04.07.08.04.04-.02.14-.04.23-.04.14 0 .2.03.35.2.3.3.52.85.4.98-.05.08-.07.07-.38-.02zm-1.72-.06c-.12-.12-.13-.28-.02-.4.16-.15.3-.07.3.2 0 .1-.04.2-.08.24-.08.08-.08.08-.2-.04zm-.1-.96c-.24-.06-.28-.64-.06-.78.14-.1.37-.14.5-.1.1.03.13.02.16-.1.07-.22.3-.55.44-.6l.1-.04-.07-.13c-.12-.2-.12-.35 0-.47.13-.12.23-.13.5-.04.23.07.36.2.36.3 0 .14-.2.54-.3.56-.03.02-.14 0-.22-.03-.14-.06-.15-.06-.12 0 0 .04.04.17.05.3.02.2 0 .23-.13.44-.1.16-.18.2-.25.2-.12 0-.24-.08-.24-.17 0-.03-.03-.07-.06-.1-.04-.04-.05 0-.05.13 0 .4-.33.7-.64.62zm-.77-.1c-.04-.18 0-.26.1-.26s.1 0 .1.16c0 .14 0 .17-.08.18-.07 0-.1 0-.12-.1zm1.94-.22c-.1-.06-.04-.2.08-.2.1 0 .15.06.12.15-.04.1-.13.12-.2.06zm-2.23-.05c-.1-.07-.1-.2 0-.24.08-.03.26.05.26.13 0 .05-.1.18-.16.18-.02 0-.07-.03-.1-.07zm.45-.1c-.08-.04-.3-.5-.3-.63 0-.1.13-.22.25-.22.04 0 .14.05.2.1.1.07.2.16.23.2.13.1.12.2-.03.42-.13.2-.2.22-.35.14zm2.03-.1c-.06-.05-.03-.17.06-.22.12-.06.18 0 .16.13 0 .1-.15.17-.2.1zm-2.8-.18c0-.03-.04-.1-.04-.16s-.02-.14-.05-.18c-.07-.1-.08-.26-.03-.3.06-.03.22.1.22.2 0 .03.03.1.07.1.1.06.15.22.1.32-.05.08-.17.1-.24.02zm2.98-.17c0-.05.06-.1.1-.13.08-.03.1-.07.07-.2 0-.12 0-.15.1-.2.08-.07.1-.1.07-.2-.03-.14.04-.25.15-.25.14 0 .17.2.04.32-.06.05-.08.1-.06.16.03.1-.07.3-.16.3-.04 0-.07.03-.07.1 0 .1-.07.18-.17.18-.06 0-.08-.02-.07-.1zm-1.53-.17c-.13-.06-.32-.34-.35-.5-.04-.2 0-.3.13-.35.13-.06.1-.1-.12-.17-.1-.02-.2-.1-.23-.15-.08-.1-.08-.1.03-.43.08-.26.14-.37.28-.5.22-.24.4-.27.64-.14.23.13.35.32.4.6.02.3-.07.5-.32.63l-.2.1.13.03c.26.06.28.2.1.6-.17.32-.3.4-.5.28zm-1.27-.3c-.05-.03-.1-.1-.1-.12 0-.03-.03-.1-.08-.15-.1-.14-.1-.26.03-.42l.1-.14h-.12c-.06 0-.14-.03-.17-.06-.08-.1-.1-.45-.05-.56.06-.12.28-.25.44-.25.1 0 .12 0 .14-.2 0-.1.03-.23.03-.27 0-.06 0-.1-.07-.1-.08 0-.1 0-.1.1 0 .08-.02.1-.12.13-.08 0-.13.06-.16.14-.05.13-.2.17-.24.06-.03-.1.06-.23.15-.23.05 0 .1-.05.13-.1.03-.08.1-.13.15-.14.06 0 .1-.04.1-.07 0-.1.17-.24.25-.24.04 0 .1-.02.12-.06.07-.08.2-.08.24 0 .05.12-.07.3-.18.28-.06 0-.1 0-.08.03 0 .04.08.07.15.07.18.02.33.13.33.26 0 .14-.24.36-.42.4l-.12.03.1.1c.04.04.08.12.08.16 0 .1-.12.26-.28.36l-.15.08.14.06c.17.08.28.17.36.32.07.15 0 .3-.18.46-.18.14-.3.16-.42.08zm-.5-.14c-.12-.2 0-.37.17-.22.06.07.08.12.06.2-.04.12-.17.14-.23.02zm-.16-.38c-.08-.07-.07-.32.02-.35.08-.03.17.1.16.27-.02.13-.1.18-.2.1zm3.96-.16c-.07-.07-.06-.2 0-.3.06-.07.08-.08.13-.03.08.06.1.18.03.3-.06.1-.1.1-.17.03zm-4-.38c-.07-.06-.07-.13 0-.2.06-.04.08-.04.13 0 .1.08.08.16 0 .2-.06.04-.1.03-.14 0zm3.2 0c-.2-.02-.32-.14-.32-.27 0-.1.25-.42.34-.42.1 0 .32.13.43.25.15.15.17.15.3 0 .1-.13.2-.08.17.13 0 .13-.03.15-.12.14-.08 0-.12.03-.17.1-.06.12-.1.13-.27.13-.1 0-.27-.02-.35-.04zm-3.13-.42c-.04-.05-.04-.1 0-.17.06-.14.17-.13.17.02s-.1.24-.17.15zm3.7-.2c-.04-.02-.07-.1-.08-.16-.02-.08-.06-.1-.15-.13-.1 0-.13-.04-.15-.14-.02-.1-.05-.12-.13-.12-.15 0-.17 0-.16.13.02.2-.05.32-.2.32-.5 0-.7-.54-.23-.64.1-.03.1-.04.07-.13-.04-.08-.1-.1-.2-.12-.14 0-.18-.02-.2-.08 0-.05.04-.12.08-.16.1-.08.1-.08.2.03.1.07.13.08.2.05.04-.03.08 0 .18.08.07.07.17.14.23.15.07.02.13.07.16.15.03.08.07.12.13.12.1 0 .18.08.18.17 0 .04.05.12.1.18.1.07.1.13.1.2 0 .14-.08.18-.14.1zm-.77-.8c0-.06-.04-.07-.12 0-.05.02-.05.03 0 .07.08.04.13.02.13-.06zm1.37.77c-.37-.2-.5-.56-.26-.8.3-.34.8-.23 1.25.26.2.2.27.4.2.47-.06.06-.53.15-.8.15-.14 0-.28-.02-.4-.08zm-5.4 0c-.1-.03-.23-.06-.3-.1-.15-.02-.17-.04-.17-.15 0-.28.6-.73 1.03-.77.23-.02.25-.02.4.13.2.18.25.34.17.5-.2.37-.65.52-1.14.4zm2.82-.46c-.1-.05-.08-.22.05-.35.1-.1.12-.13.1-.3-.02-.2-.02-.2.08-.2s.28.1.28.18c0 .03-.04.1-.08.13l-.1.08.1.08c.12.14.1.26-.05.36-.15.1-.27.1-.38.03zm-.27-.5c-.06-.05-.06-.16 0-.22.08-.06.27 0 .3.1.06.15-.18.25-.3.13zm.44-.55c-.22-.17-.4-.84-.35-1.26.05-.43.34-.75.73-.8.18-.03.2-.02.34.1.23.25.28.74.1 1.1-.1.16-.54.82-.6.88-.1.06-.1.06-.23-.03zm.58-1.4c0-.02-.02-.05-.04-.05-.05 0-.1.06-.06.1.05.04.1.03.1-.04z"/><path d="M166.63 58.8c0-.3 0-.56.03-.56.04 0 .1 1 .07 1.07-.08.14-.1 0-.1-.5zm.53.53c0-.02.1-.13.2-.25.1-.13.18-.26.18-.3 0-.02-.08-.14-.17-.25-.16-.18-.2-.3-.13-.3.02 0 .12.1.23.22l.2.22.2-.22c.1-.1.2-.2.2-.2.08 0 .04.1-.12.3-.1.1-.17.22-.17.24 0 .02.1.14.2.27.1.12.17.24.17.25 0 .1-.12 0-.3-.18l-.2-.22-.2.22c-.16.2-.3.27-.3.2zm1.74-.42c0-.23-.02-.45-.03-.48-.02-.03-.1-.06-.2-.06s-.16-.03-.16-.06c0-.02.2-.04.45-.05.37 0 .44 0 .44.05 0 .04-.06.06-.18.07h-.18v.5c-.02.4-.03.48-.08.48s-.06-.08-.06-.44zm.66.4c0-.07.37-.95.43-1 .03-.05.05-.05.1 0 .03.04.45 1 .45 1.04 0 0-.02 0-.05 0-.03 0-.1-.05-.14-.14-.07-.13-.1-.16-.24-.17-.25-.02-.33.02-.4.18-.08.15-.16.2-.16.1zm.62-.46c0-.1-.1-.27-.15-.27-.05 0-.14.17-.14.27 0 .04.03.06.13.06s.15-.02.15-.06zm.77.5c-.04-.05-.04-.94 0-1.03 0-.04.08-.06.24-.06.24 0 .37.08.4.27.03.16-.1.36-.24.36-.23 0-.27.04-.28.26 0 .2-.06.28-.13.2zm.46-.65c.07-.08.07-.23 0-.3-.04-.02-.1-.04-.18-.03-.1 0-.12.03-.13.2-.02.16-.02.17.12.17.08 0 .16-.03.2-.05zm.4.6c0-.08.36-.95.42-1 .04-.05.06-.05.1 0 .03.04.46 1 .46 1.04 0 0-.03 0-.07 0-.02 0-.07-.04-.1-.1-.05-.16-.14-.22-.35-.2-.2 0-.23 0-.3.18-.08.14-.16.18-.16.08zm.6-.46c0-.1-.1-.27-.14-.27-.05 0-.14.17-.14.27 0 .04.04.06.14.06s.15-.02.15-.06zm1.08-2.05c-.5-.1-.76-.6-.53-1.08.06-.1.15-.2.24-.26l.13-.08-.1.12c-.3.3-.26.78.05 1.08.18.17.55.23.74.13.05 0 .1-.02.1 0 .1.08-.35.15-.64.1zm-14.3-.85v-.85h.2v.77c-.02.68 0 .78.05.85.07.07.06.08-.1.08h-.16v-.85zm2.16.77c-.4-.22-.48-.83-.14-1.17.17-.16.24-.13.1.04-.27.3-.14.9.24 1.1.14.1.15.1.05.1-.07 0-.18-.04-.26-.08zm1.63-.64c0-.7 0-.73.1-.73.07 0 .08.02.06.33-.02.23 0 .35.03.4.04.04.04.07 0 .12-.03.03-.04.15-.03.32 0 .23 0 .26-.07.27-.08 0-.1-.02-.1-.72zm.9.64c-.12-.1-.42-.5-.42-.53 0-.04.04-.08.1-.1.05-.05.08-.13.1-.26 0-.16 0-.2-.1-.32l-.1-.13h.1c.05 0 .12.03.16.07.1.1.1.38 0 .5-.05.07-.1.15-.1.18 0 .04.12.2.24.33.13.15.23.28.23.3 0 .04-.12 0-.2-.06zm.4.03c.22-.53.5-1.23.5-1.3.03-.03.06-.06.08-.06.02 0 .13.23.25.52.2.46.3.74.36.84 0 .02-.02.04-.07.04-.07 0-.12-.07-.2-.27-.08-.15-.16-.27-.18-.27-.03 0-.04-.04-.03-.1.02-.12-.1-.46-.2-.46-.05 0-.2.38-.16.47 0 .03-.02.1-.06.13-.04.05-.1.17-.12.28-.03.13-.07.2-.12.2-.05.02-.07 0-.06-.03zm1.65 0s0-.32 0-.7c0-.68 0-.68.1-.7h.1l-.02.64c0 .56 0 .65.06.72.07.07.06.08-.08.08-.1 0-.16-.02-.16-.04zm2 0c-.3-.15-.47-.6-.34-.93.04-.12.28-.4.33-.4.03 0 0 .08-.05.16-.26.37-.14.9.24 1.14.1.06.1.08.03.07-.04 0-.13-.03-.2-.06zm2.46.04c0-.02 0-.4 0-.86l-.02-.84h.1c.1 0 .1 0 .08.78 0 .42 0 .8.02.83 0 .05-.03.08-.08.1-.05 0-.1 0-.1 0zm1.08-.04c0-.02.1-.27.2-.57.12-.3.24-.6.26-.68.02-.07.06-.13.1-.12 0 0 .14.28.27.6.12.3.24.6.27.64.07.1.05.16-.05.15-.06-.02-.1-.1-.16-.23-.05-.1-.1-.24-.14-.27-.03-.03-.06-.13-.07-.22-.03-.18-.12-.37-.18-.4-.07 0-.2.4-.16.5.02.05.02.08 0 .08-.07 0-.22.32-.22.44 0 .06-.03.1-.06.1-.04 0-.06-.02-.06-.04zm3.23-.7c-.03-.7-.02-.7.06-.7s.08.04.1.72c0 .7 0 .72-.08.72s-.08-.04-.1-.73zm.82 0v-.7h.12c.1 0 .15.05.07.1-.05.03-.04.4 0 .52.04.06.04.1 0 .14-.03.04-.04.16-.02.37.02.28.02.3-.07.3-.08 0-.08 0-.08-.73zm1.22.72c0-.02 0-.34 0-.72 0-.66 0-.7.08-.7s.08 0 .08.7 0 .74-.08.74c-.04 0-.08 0-.08-.02zm1.05-.04c-.46-.2-.58-.8-.24-1.18.07-.07.14-.13.17-.13.04 0 .03.03 0 .08-.1.12-.2.37-.2.52 0 .2.13.46.3.6.18.13.6.2.7.1.08-.07.13-.04.1.03-.05.06-.7.05-.84 0zm1.5-.02c-.2-.13-.3-.32-.32-.6-.02-.25.08-.5.24-.62.14-.1.2-.08.1.03-.3.3-.22.94.16 1.16.15.08.16.1.07.1-.06 0-.16-.04-.24-.08zm-19.1-.07c.2-.15.3-.35.3-.66 0-.37-.17-.62-.52-.8-.17-.08-.1-.12.12-.06.64.18.78 1.13.22 1.5-.2.15-.32.15-.12 0zm6.67 0c.16-.16.2-.3.2-.54 0-.24-.12-.47-.32-.58-.2-.1-.2-.15-.02-.12.18.03.37.18.45.35.15.3.02.76-.24.92-.2.12-.22.1-.07-.03zm-4.7 0c.02-.06.06-.1.08-.12.02 0 .06-.12.08-.24.07-.38-.03-.66-.32-.86-.16-.1-.06-.12.15-.02.47.22.5.96.06 1.25-.08.06-.08.06-.04-.03zm6.52.05c0-.02.04-.1.1-.18.08-.12.1-.2.1-.4 0-.3-.07-.47-.28-.64-.13-.12-.14-.13-.05-.1.2.05.34.16.42.3.1.2.08.63-.05.82-.1.12-.26.25-.26.2zm11.5-.13c.23-.37.14-.9-.2-1.14l-.14-.1.12.04c.27.06.48.3.5.6.03.25-.04.46-.2.62-.17.16-.22.15-.1-.03zm-4.24-.52c-.1-.03-.1-.03.05-.03.1 0 .16 0 .16.03 0 .05-.06.05-.2 0zm-4.9-.25c.1-.18.06-.4-.1-.56l-.14-.15.12.02c.2.05.3.18.3.36s-.08.4-.17.42c-.06.02-.06 0 0-.1zm2.92-.35l-.14-.1h.12c.14 0 .26.1.2.16-.02.03-.1 0-.18-.05zm4.5 0c-.14-.1-.14-.1-.05-.1.13 0 .27.1.25.16 0 .03-.08 0-.2-.05zm-2.38-.04c-.08-.04-.08-.05 0-.05.07 0 .1.03.1.06 0 .1 0 .1-.1 0zm-8.34-6.76c-.04-.1.1-.76.22-.98.18-.34.5-.46.62-.2.08.15.06.5-.03.66-.1.2-.37.45-.56.53-.17.07-.2.07-.24 0zm3.6-.18c-.35-.1-.53-.2-.64-.43-.12-.24-.12-.42 0-.54.18-.18.37-.15.57.05.17.2.45.7.45.85 0 .13-.07.14-.38.06zm-1.76-.08c-.07-.13-.05-.24.05-.3.14-.1.2-.05.2.17-.02.16-.04.2-.1.2-.07 0-.12-.02-.15-.07zm2.45-4.02c-.2-.1-.4-.34-.4-.5 0-.32.35-.52.7-.4.38.1.92.62.82.78-.1.14-.87.22-1.12.12zm-5.6-.07c-.22-.07-.26-.1-.27-.18 0-.1.04-.16.2-.3.37-.4.9-.55 1.13-.35.18.13.25.33.2.48-.15.38-.6.5-1.24.34zm3.15-1.5c-.23-.22-.38-.9-.3-1.28.03-.12.1-.28.14-.35.1-.15.44-.35.62-.35s.34.2.4.45.03.44-.08.7c-.1.2-.58.88-.64.9-.03 0-.1-.02-.14-.07zm.6-1.33c.03-.08-.1-.14-.15-.08-.07.05 0 .17.07.16.04 0 .08-.05.1-.1z"/></g><g><g style="line-height:1.25;-inkscape-font-specification:'Raleway Light'" font-weight="bold" font-size="25.983" font-family="Raleway" letter-spacing="1.588" word-spacing="0"><path d="M87.24 57.35q-.34.4-.8.4-.27 0-.5-.14-.26-.1-.44-.34-.18-.22-.28-.52-.1-.3-.1-.65 0-.34.1-.63.1-.3.3-.5.17-.23.42-.36.25-.12.55-.12.4 0 .67.2.28.18.43.5l-.4.35q-.12-.24-.3-.37-.2-.12-.43-.12-.18 0-.33.08-.15.1-.26.24-.1.15-.16.34-.06.2-.06.4 0 .24.07.44.06.2.17.34.1.14.27.23.15.1.33.1.4 0 .74-.45v-.23h-.57v-.45h1.02v1.65h-.46z" style="-inkscape-font-specification:'Raleway Bold'"/><path d="M88.4 57.72v-3.2h.55v2.65h1.44v.55z" style="-inkscape-font-specification:'Raleway Bold'"/><path d="M92 57.74q-.32 0-.57-.14-.25-.14-.43-.36-.18-.23-.28-.53-.1-.28-.1-.6 0-.3.1-.6t.3-.52q.18-.23.43-.36.26-.14.56-.14.3 0 .56.15.26.14.44.37.17.23.27.52.1.3.1.6 0 .32-.1.62-.1.28-.3.5-.17.23-.42.37-.26.14-.56.14zm-.83-1.63q0 .22.06.4.06.2.16.36.1.15.25.24.15.1.35.1.2 0 .35-.1.15-.1.26-.25.1-.16.16-.35.06-.2.06-.4t-.06-.4q-.06-.2-.16-.33-.1-.15-.26-.24-.15-.1-.34-.1-.2 0-.36.1-.15.1-.25.25-.12.15-.17.34-.06.2-.06.4z" style="-inkscape-font-specification:'Raleway Bold'"/><path d="M96.3 56.9q0 .2-.06.35-.07.15-.2.25-.12.1-.3.16-.15.06-.34.06h-1.36v-3.2h1.5q.15 0 .27.06.13.07.22.2.08.1.12.25.05.15.05.3 0 .23-.1.44-.12.2-.3.3.23.08.37.3.14.2.14.52zm-.54-.13q0-.08-.03-.16-.02-.07-.07-.13-.04-.06-.1-.1-.06-.03-.13-.03h-.84v.85h.8q.08 0 .14-.04.07-.04.1-.1.06-.05.1-.13.02-.07.02-.16zm-1.17-1.73v.8h.72q.14 0 .23-.1.1-.1.1-.3 0-.18-.1-.3-.08-.1-.2-.1z" style="-inkscape-font-specification:'Raleway Bold'"/><path d="M97.72 54.5h.5l1.06 3.22h-.56l-.27-.8h-.98l-.26.8h-.56zm.63 1.98l-.4-1.26-.4 1.26z" style="-inkscape-font-specification:'Raleway Bold'"/><path d="M99.83 57.72v-3.2h.55v2.65h1.44v.55z" style="-inkscape-font-specification:'Raleway Bold'"/><path d="M105.5 55.05h-.9v2.67h-.56v-2.67h-.9v-.54h2.35z" style="-inkscape-font-specification:'Raleway Bold'"/><path d="M108.04 57.17v.55h-1.96v-3.2H108v.53h-1.37v.78h1.2v.5h-1.2v.84z" style="-inkscape-font-specification:'Raleway Bold'"/><path d="M108.72 57.72v-3.2h1.25q.2 0 .35.08.17.1.3.25.1.14.18.34.06.18.06.37 0 .32-.14.57-.13.26-.37.37l.65 1.22h-.62l-.57-1.08h-.53v1.08zm.55-1.63h.68q.08 0 .14-.05.06-.04.1-.1.06-.08.08-.17.03-.1.03-.2 0-.12-.02-.2-.03-.1-.1-.18-.04-.07-.1-.1-.08-.05-.15-.05h-.66z" style="-inkscape-font-specification:'Raleway Bold'"/><path d="M111.6 57.72v-3.2h1.25q.2 0 .36.08.17.1.3.25.1.14.18.34.07.18.07.37 0 .32-.14.57-.13.26-.36.37l.64 1.22h-.6l-.6-1.08h-.53v1.08zm.55-1.63h.7q.06 0 .13-.05.06-.04.1-.1.06-.08.1-.17 0-.1 0-.2 0-.12-.02-.2-.03-.1-.1-.18-.04-.07-.1-.1-.08-.05-.15-.05h-.65z" style="-inkscape-font-specification:'Raleway Bold'"/><path d="M115.24 54.5h.48l1.08 3.22h-.57l-.26-.8h-1l-.24.8h-.57zm.63 1.98l-.4-1.26-.4 1.26z" style="-inkscape-font-specification:'Raleway Bold'"/></g><g><path d="M100.58 41.5c-1.18 0-1.48.07-2.4.5-2.42 1.14-3.74 3.53-3.34 6 .1.54.25 1.07.37 1.2.2.17.23.02.23-.96 0-1.4.5-2.58 1.46-3.45 1.07-.98 1.7-1.2 3.28-1.22 1.26 0 1.54.05 2.24.42 1.55.82 2.47 2.17 2.6 3.8.1 1.46-.14 2.12-1.35 3.8-.25.33-.25.34.04.24.53-.18 1.68-1.38 2.07-2.15 1.47-2.88.25-6.27-2.76-7.7-.93-.43-1.23-.5-2.42-.5zm-1.95 2.95c-.14 0-.5.16-1 .52-1.1.74-1.67 1.86-1.67 3.3 0 1.22.14 1.72.74 2.58.4.6 1.34 1.3 1.9 1.45.6.15.8.1.47-.1-.84-.5-1.97-1.8-2.16-2.5-.5-1.83-.08-3.32 1.27-4.57.48-.44.6-.67.46-.68z"/></g></g></g></svg>