<?xml version="1.0" encoding="UTF-8" standalone="no"?>
<!-- Created with Inkscape (http://www.inkscape.org/) -->

<svg
   xmlns:dc="http://purl.org/dc/elements/1.1/"
   xmlns:cc="http://creativecommons.org/ns#"
   xmlns:rdf="http://www.w3.org/1999/02/22-rdf-syntax-ns#"
   xmlns:svg="http://www.w3.org/2000/svg"
   xmlns="http://www.w3.org/2000/svg"
   xmlns:sodipodi="http://sodipodi.sourceforge.net/DTD/sodipodi-0.dtd"
   xmlns:inkscape="http://www.inkscape.org/namespaces/inkscape"
   width="210mm"
   height="100mm"
   viewBox="0 0 210 100"
   version="1.1"
   id="svg2743"
   inkscape:version="0.92.2 5c3e80d, 2017-08-06"
   sodipodi:docname="LOGOS-CLIENTES.svg">
  <defs
     id="defs2737" />
  <sodipodi:namedview
     id="base"
     pagecolor="#ffffff"
     bordercolor="#666666"
     borderopacity="1.0"
     inkscape:pageopacity="0.0"
     inkscape:pageshadow="2"
     inkscape:zoom="0.35"
     inkscape:cx="1134.2857"
     inkscape:cy="-462.85714"
     inkscape:document-units="mm"
     inkscape:current-layer="layer1"
     showgrid="false"
     inkscape:window-width="2174"
     inkscape:window-height="1387"
     inkscape:window-x="838"
     inkscape:window-y="68"
     inkscape:window-maximized="0" />
  <metadata
     id="metadata2740">
    <rdf:RDF>
      <cc:Work
         rdf:about="">
        <dc:format>image/svg+xml</dc:format>
        <dc:type
           rdf:resource="http://purl.org/dc/dcmitype/StillImage" />
        <dc:title></dc:title>
      </cc:Work>
    </rdf:RDF>
  </metadata>
  <g
     inkscape:label="Capa 1"
     inkscape:groupmode="layer"
     id="layer1"
     transform="translate(0,-197)">
    <path
       style="fill:#0b0b0b;stroke-width:0.0292444"
       d="m 66.546471,254.40681 c -1.699337,-0.19287 -3.230205,-0.92622 -4.422876,-2.11875 -0.394059,-0.394 -0.624122,-0.67462 -0.936145,-1.14186 -0.547532,-0.81988 -0.920339,-1.74095 -1.097914,-2.71254 -0.03723,-0.20368 -0.05959,-0.37844 -0.04969,-0.38834 0.0099,-0.01 0.1188,0.004 0.242004,0.0318 0.123201,0.0274 0.268207,0.0426 0.322233,0.0339 0.05882,-0.009 0.108953,-0.002 0.12496,0.0184 0.0147,0.019 0.0497,0.15285 0.07777,0.29763 0.07427,0.38305 0.228755,0.87164 0.406545,1.28582 0.80586,1.87729 2.459284,3.2996 4.420262,3.80241 0.649233,0.16647 0.948452,0.20311 1.666929,0.2041 0.810258,0.002 1.237153,-0.0585 1.959587,-0.27378 2.422076,-0.72173 4.272563,-2.87945 4.636268,-5.40604 0.01911,-0.1327 0.04406,-0.24127 0.05547,-0.24127 0.0114,0 0.118458,0.0495 0.237901,0.10998 0.119444,0.0605 0.261516,0.12572 0.315718,0.14501 0.0978,0.0348 0.09839,0.0361 0.07857,0.17514 -0.04331,0.30376 -0.172746,0.83121 -0.292752,1.19295 -0.865214,2.608 -3.114332,4.49926 -5.879467,4.94401 -0.341964,0.055 -1.515798,0.081 -1.865365,0.0413 z m -0.362286,-3.04068 c -0.227345,-0.0472 -0.382006,-0.16574 -0.49594,-0.38009 -0.0821,-0.15444 -0.07699,-0.58649 0.0088,-0.74573 0.15001,-0.27842 0.424039,-0.43601 0.755396,-0.43443 0.470145,0.002 0.750861,0.28282 0.753776,0.75335 0.0014,0.22953 -0.05844,0.40285 -0.194849,0.56423 -0.161412,0.19095 -0.540594,0.30219 -0.827203,0.24267 z m 0.4473,-0.39436 c 0.15678,-0.10272 0.212541,-0.46501 0.09998,-0.64962 -0.163017,-0.26736 -0.535842,-0.22756 -0.662954,0.0708 -0.0919,0.21568 -0.0036,0.53054 0.170942,0.60913 0.114016,0.0514 0.287955,0.0379 0.392029,-0.0303 z m -2.644327,0.35936 c -0.04987,-0.0499 -0.04987,-1.42988 0,-1.47978 0.01931,-0.0194 0.09563,-0.0351 0.169617,-0.0351 0.07399,0 0.150316,0.0158 0.169619,0.0351 0.02198,0.022 0.03509,0.13127 0.03509,0.29245 v 0.25735 h 0.30651 c 0.354515,0 0.331458,0.0235 0.344089,-0.35092 l 0.0074,-0.21935 0.11419,-0.009 c 0.06281,-0.005 0.145055,-0.002 0.182778,0.008 l 0.06859,0.0172 v 0.74461 0.74462 l -0.06859,0.0172 c -0.03772,0.009 -0.119972,0.013 -0.182778,0.008 l -0.11419,-0.009 -0.0074,-0.23398 c -0.01231,-0.39088 0.01154,-0.36555 -0.344125,-0.36555 h -0.306509 v 0.27198 c 0,0.17254 -0.01283,0.2848 -0.03509,0.30707 -0.0455,0.0455 -0.293737,0.0455 -0.339236,0 z m 3.722667,0 c -0.0077,-0.0209 -0.01745,-0.28806 -0.02158,-0.59367 l -0.0075,-0.55564 -0.159957,-0.009 c -0.08798,-0.005 -0.176807,-0.023 -0.1974,-0.0401 -0.05547,-0.046 -0.04866,-0.27654 0.0088,-0.29859 0.09133,-0.035 1.080629,-0.0198 1.117668,0.0174 0.04659,0.0466 0.04496,0.24202 -0.0024,0.28126 -0.02059,0.0172 -0.109423,0.0352 -0.1974,0.0401 l -0.159957,0.009 -0.01462,0.58488 -0.01462,0.5849 -0.168511,0.009 c -0.11813,0.006 -0.172712,-0.003 -0.182569,-0.0292 z m 0.993305,-0.002 c -0.008,-0.0208 -0.01101,-0.36662 -0.0067,-0.76843 l 0.0078,-0.73059 h 0.453288 0.453288 v 0.14622 0.14624 l -0.2632,0.0146 -0.2632,0.0146 v 0.13161 0.1316 l 0.248579,0.0146 0.248578,0.0146 v 0.13162 0.13159 l -0.248578,0.0146 -0.248579,0.0146 v 0.14622 0.14622 l 0.2632,0.0146 0.2632,0.0146 v 0.14624 0.14621 l -0.446601,0.008 c -0.34434,0.006 -0.449926,-0.002 -0.461125,-0.0298 z m 1.27913,0.002 c -0.02535,-0.0254 -0.03509,-0.23071 -0.03509,-0.73989 0,-0.50918 0.0097,-0.71454 0.03509,-0.73989 0.04657,-0.0466 0.305689,-0.0454 0.336047,0.002 0.013,0.0201 0.03024,0.2866 0.03828,0.59219 l 0.01462,0.55565 0.21848,0.009 c 0.129264,0.005 0.227603,0.0231 0.24082,0.0439 0.03491,0.0549 0.02706,0.23894 -0.01186,0.27787 -0.04872,0.0487 -0.787667,0.0487 -0.836391,0 z m 0.179672,-2.56702 c -0.268968,-0.0573 -0.518509,-0.23661 -0.631798,-0.45392 -0.09293,-0.17829 -0.09992,-0.50663 -0.02215,-1.04122 0.04135,-0.28423 0.05812,-0.49909 0.04606,-0.59002 -0.02781,-0.20961 -0.120111,-0.43384 -0.232781,-0.56547 -0.104882,-0.12252 -0.293704,-0.24192 -0.328138,-0.2075 -0.01128,0.0113 -0.120381,0.39895 -0.242423,0.86143 l -0.22189,0.84091 -0.475221,0.008 c -0.35902,0.006 -0.475223,-0.002 -0.475223,-0.0277 0,-0.0283 0.83391,-3.24286 0.89678,-3.45692 0.01419,-0.0483 0.0043,-0.0528 -0.08207,-0.0369 -0.302827,0.0556 -0.465787,0.0747 -0.506118,0.0592 -0.06056,-0.0232 -0.05619,-0.0982 0.02188,-0.37509 l 0.06549,-0.23236 0.199147,-0.0367 c 0.243427,-0.0449 0.3983,-0.13268 0.587526,-0.33291 l 0.144457,-0.15285 0.615897,0.0154 c 0.665608,0.0168 0.846262,0.0477 1.106167,0.1891 0.434758,0.23662 0.664713,0.79032 0.536338,1.29142 -0.07189,0.28059 -0.181618,0.46042 -0.441038,0.72269 -0.192036,0.19418 -0.281226,0.25943 -0.491263,0.35945 l -0.256631,0.12218 0.114628,0.13774 c 0.294479,0.35381 0.3615,0.62998 0.335529,1.38258 l -0.01873,0.54296 0.08975,0.10041 c 0.0827,0.0925 0.101999,0.1 0.245632,0.0951 0.08573,-0.003 0.182199,-0.009 0.214369,-0.0146 0.05127,-0.008 0.06677,0.0246 0.125579,0.26526 l 0.06709,0.27457 -0.0646,0.0688 c -0.143581,0.15283 -0.624655,0.25035 -0.922242,0.18696 z m -0.501127,-3.62916 c 0.172864,-0.0456 0.348712,-0.19977 0.446903,-0.39178 0.07913,-0.15473 0.08804,-0.19951 0.08804,-0.44258 0,-0.22753 -0.0096,-0.28324 -0.0603,-0.35118 -0.10728,-0.1437 -0.205761,-0.19676 -0.389797,-0.21008 -0.146952,-0.0107 -0.17725,-0.004 -0.200854,0.042 -0.01529,0.03 -0.104254,0.34848 -0.197704,0.70778 -0.142067,0.54627 -0.163127,0.65786 -0.128537,0.6811 0.044,0.0295 0.262775,0.0121 0.442249,-0.0352 z m 5.489617,3.54304 c -0.144259,-0.14426 -0.107837,-0.40918 0.06929,-0.50398 0.04501,-0.0241 0.03587,-0.006 -0.03074,0.0605 -0.1353,0.13531 -0.133614,0.29129 0.0046,0.42954 0.05469,0.0547 0.08657,0.0994 0.07086,0.0994 -0.01571,0 -0.06704,-0.0385 -0.114053,-0.0855 z m 0.4559,-0.0373 c 0.106086,-0.12608 0.08862,-0.29346 -0.04289,-0.41096 -0.05271,-0.0471 -0.07271,-0.0804 -0.04827,-0.0804 0.07501,0 0.193151,0.1722 0.193151,0.28152 0,0.11908 -0.06548,0.25933 -0.133218,0.28534 -0.03076,0.0119 -0.0197,-0.015 0.03122,-0.0755 z m 2.344228,-0.005 c -0.214857,-0.0605 -0.372994,-0.18524 -0.468405,-0.3695 l -0.08319,-0.16068 0.01753,-0.45327 c 0.01152,-0.29816 0.0063,-0.49331 -0.01522,-0.57018 -0.03552,-0.12673 -0.249957,-0.36565 -0.328207,-0.36565 -0.06526,0 -0.09253,0.0624 -0.179725,0.41128 -0.04196,0.16787 -0.08989,0.34798 -0.106519,0.40025 l -0.03024,0.0951 H 76.30728 c -0.247112,0 -0.455944,-0.0107 -0.464072,-0.0239 -0.01915,-0.031 1.147321,-4.48274 1.187227,-4.53092 0.02166,-0.0262 0.150204,-0.0365 0.451662,-0.0365 0.358308,0 0.424052,0.007 0.439235,0.0465 0.0098,0.0256 -0.07655,0.41052 -0.191926,0.85542 -0.196957,0.75939 -0.224313,0.88197 -0.196862,0.88197 0.0061,0 0.08581,-0.045 0.177144,-0.1 0.463007,-0.27882 1.042877,-0.16499 1.254365,0.24621 0.07431,0.14447 0.08151,0.18356 0.07082,0.38424 -0.01603,0.30099 -0.11051,0.49094 -0.360549,0.72483 -0.192841,0.18039 -0.421818,0.31589 -0.648399,0.38369 -0.06836,0.0205 -0.124288,0.049 -0.124288,0.0635 0,0.0144 0.0399,0.076 0.08867,0.13667 0.150562,0.18736 0.210585,0.38805 0.223968,0.74894 0.0066,0.17692 0.01834,0.35217 0.02615,0.38942 0.02111,0.10055 0.173133,0.15521 0.332239,0.11946 0.06946,-0.0156 0.132489,-0.0222 0.140067,-0.0146 0.0076,0.008 0.04015,0.13377 0.07237,0.2804 0.05531,0.2517 0.05579,0.26971 0.0086,0.32182 -0.119285,0.13181 -0.58855,0.20724 -0.84321,0.13554 z m -0.333894,-2.59174 c 0.306586,-0.1147 0.521461,-0.32717 0.562875,-0.55659 0.01447,-0.0801 0.0046,-0.12092 -0.04402,-0.18279 -0.178822,-0.22732 -0.630329,0.0441 -0.865772,0.5205 -0.131878,0.26684 -0.121189,0.32142 0.05813,0.29684 0.06981,-0.009 0.199769,-0.0446 0.288791,-0.078 z m -2.187628,2.54172 c -0.01075,-0.0174 -0.051,-0.0237 -0.08946,-0.014 -0.06682,0.0168 -0.06992,0.0111 -0.06992,-0.13013 0,-0.1667 0.04261,-0.20506 0.165576,-0.14902 0.05567,0.0254 0.06834,0.0463 0.0509,0.0843 -0.01277,0.0278 -0.02294,0.0933 -0.02261,0.14552 5.93e-4,0.10272 -0.0044,0.11207 -0.03449,0.0634 z m -0.01316,-0.21694 c 0,-0.0241 -0.01239,-0.0439 -0.02752,-0.0439 -0.03688,0 -0.06329,0.0457 -0.03993,0.069 0.03294,0.0329 0.06744,0.0201 0.06744,-0.0252 z m -16.420733,-0.7136 c -0.263739,-0.0681 -0.491232,-0.27028 -0.6248,-0.55514 -0.06576,-0.14027 -0.07849,-0.21182 -0.08676,-0.48795 -0.01885,-0.62917 0.197321,-1.20911 0.604082,-1.62056 0.237792,-0.24058 0.416124,-0.34903 0.67366,-0.40972 0.279671,-0.0659 0.53135,-0.002 0.727443,0.18374 0.103527,0.0983 0.122474,0.093 0.167574,-0.0465 l 0.03026,-0.0936 0.445976,-0.008 c 0.419045,-0.008 0.445978,-0.005 0.445978,0.0466 0,0.0301 -0.11832,0.50748 -0.262933,1.06088 -0.144613,0.5534 -0.263052,1.03532 -0.263198,1.07093 -3.95e-4,0.0767 0.07825,0.12533 0.20252,0.12533 0.0623,0 0.08966,0.0142 0.08966,0.0463 0,0.0656 -0.115713,0.51084 -0.148853,0.57275 -0.03401,0.0636 -0.285434,0.14132 -0.456905,0.14132 -0.225192,0 -0.451663,-0.13545 -0.553907,-0.33123 l -0.04316,-0.0827 -0.145279,0.1359 c -0.0799,0.0747 -0.200779,0.16015 -0.268611,0.18983 -0.145041,0.0634 -0.408476,0.094 -0.532752,0.0619 z m 0.763737,-0.85733 c 0.415541,-0.38304 0.545744,-1.31956 0.205879,-1.48085 -0.07165,-0.034 -0.10086,-0.0327 -0.210659,0.009 -0.3056,0.11669 -0.539624,0.59814 -0.539624,1.11014 0,0.35591 0.07831,0.482 0.300408,0.48378 0.08963,0.002 0.135387,-0.0222 0.243996,-0.12232 z m 4.542676,0.84461 c -0.411222,-0.11361 -0.670127,-0.47308 -0.694817,-0.96476 -0.03272,-0.65154 0.229411,-1.34772 0.658635,-1.74921 0.444421,-0.41571 1.022971,-0.49319 1.356412,-0.18167 0.05977,0.0559 0.08216,0.0629 0.105356,0.0332 0.0162,-0.0207 0.125166,-0.40616 0.242146,-0.85652 0.116978,-0.45037 0.225809,-0.8353 0.241847,-0.85542 0.02088,-0.0262 0.147583,-0.0365 0.446042,-0.0365 0.298663,0 0.42504,0.0105 0.445654,0.0365 0.01985,0.0252 -0.154267,0.73459 -0.561694,2.28838 l -0.590466,2.25183 -0.389136,0.008 -0.389136,0.008 0.01555,-0.116 c 0.0086,-0.0638 0.0084,-0.12313 -1.98e-4,-0.13183 -0.0087,-0.009 -0.06259,0.0253 -0.119772,0.0755 -0.20683,0.18161 -0.517877,0.25876 -0.76639,0.19013 z m 0.736184,-0.79272 c 0.240067,-0.16311 0.44113,-0.6315 0.446434,-1.03997 0.0037,-0.28195 -0.05292,-0.42246 -0.198409,-0.49277 -0.194598,-0.094 -0.496011,0.1511 -0.631664,0.51366 -0.163054,0.4358 -0.153357,0.92245 0.021,1.05384 0.07905,0.0596 0.247584,0.0434 0.36264,-0.0348 z m 6.667948,0.80163 c -0.411124,-0.0855 -0.726184,-0.40331 -0.840003,-0.84728 -0.09724,-0.37932 -0.01162,-0.91758 0.216306,-1.35987 0.132558,-0.25723 0.478986,-0.61148 0.707577,-0.72352 0.721418,-0.35366 1.429523,-0.13006 1.698957,0.53646 0.09012,0.22293 0.110274,0.69914 0.04248,1.00387 -0.139872,0.62869 -0.636031,1.19104 -1.185792,1.344 -0.214087,0.0595 -0.482498,0.079 -0.639525,0.0463 z m 0.461169,-0.74343 c 0.280025,-0.14481 0.510476,-0.65351 0.510727,-1.12741 1.97e-4,-0.40523 -0.139665,-0.59404 -0.39013,-0.52659 -0.118637,0.0319 -0.283118,0.1903 -0.367845,0.35413 -0.170791,0.33027 -0.241618,0.8731 -0.146441,1.12231 0.07958,0.20837 0.215519,0.26969 0.393689,0.17756 z m 2.503285,0.73434 c -0.208374,-0.0527 -0.442919,-0.18839 -0.562459,-0.32549 -0.240434,-0.27576 -0.355999,-0.70191 -0.299622,-1.10491 0.143584,-1.02633 0.981166,-1.77897 1.819724,-1.63519 0.285835,0.049 0.519201,0.15671 0.519201,0.23959 0,0.0889 -0.116042,0.53487 -0.147579,0.56722 -0.01599,0.0164 -0.08185,-0.003 -0.167685,-0.0499 -0.310252,-0.16886 -0.541614,-0.13381 -0.796012,0.12058 -0.191264,0.19128 -0.277647,0.38516 -0.329205,0.73891 -0.06026,0.41343 0.05693,0.68394 0.327901,0.7569 0.129513,0.0349 0.380498,0.0172 0.477118,-0.0336 0.02848,-0.015 0.06318,-0.0202 0.07711,-0.0115 0.01393,0.009 -0.0099,0.15726 -0.0529,0.33035 -0.07476,0.30069 -0.08273,0.31686 -0.179468,0.36363 -0.137847,0.0666 -0.502964,0.0898 -0.686122,0.0435 z m -19.900815,-0.073 c 0,-0.0295 0.197402,-0.80507 0.438667,-1.72346 0.241266,-0.91838 0.438666,-1.6904 0.438666,-1.71562 0,-0.0526 -0.03224,-0.0561 -0.175467,-0.019 -0.208079,0.0539 -0.365637,0.0634 -0.416703,0.0252 -0.04682,-0.0351 -0.04619,-0.0516 0.01022,-0.27014 0.08217,-0.3184 0.0882,-0.32652 0.259099,-0.34919 0.235144,-0.0312 0.409226,-0.12282 0.592486,-0.31186 l 0.168285,-0.17358 h 0.381473 c 0.323978,0 0.384199,0.007 0.399572,0.0472 0.01,0.0259 -0.07639,0.41088 -0.191873,0.8554 -0.115484,0.44451 -0.209583,0.83125 -0.209106,0.85939 7.9e-4,0.0462 0.03932,0.0512 0.392084,0.0512 0.277381,0 0.400001,-0.0107 0.421403,-0.0366 0.0166,-0.0201 0.129268,-0.41691 0.250372,-0.8818 0.121105,-0.46489 0.237443,-0.85621 0.25853,-0.86957 0.06469,-0.041 0.86019,-0.0309 0.893176,0.0113 0.01956,0.0251 -0.135649,0.66154 -0.49388,2.02518 -0.287329,1.09374 -0.552691,2.10707 -0.589696,2.25182 l -0.06728,0.26321 -0.473433,0.008 c -0.437095,0.008 -0.473389,0.004 -0.472893,-0.0439 3.95e-4,-0.0285 0.111789,-0.47159 0.24776,-0.98452 0.135971,-0.51295 0.240231,-0.94395 0.23169,-0.95776 -0.02583,-0.0418 -0.789935,-0.0312 -0.822176,0.0115 -0.01522,0.0201 -0.129444,0.43136 -0.253843,0.91387 -0.1244,0.48254 -0.239602,0.9201 -0.256008,0.97239 l -0.02983,0.095 h -0.465643 c -0.432218,0 -0.465643,-0.004 -0.465643,-0.0537 z m 6.569902,0.0317 c -0.0075,-0.0121 0.160015,-0.68652 0.372141,-1.49878 l 0.385683,-1.47685 0.43539,-0.008 c 0.239466,-0.004 0.446024,0.003 0.459017,0.0156 0.013,0.013 0.0098,0.0738 -0.0072,0.13514 -0.01693,0.0613 -0.02402,0.11832 -0.01575,0.1266 0.0083,0.008 0.07833,-0.0375 0.155666,-0.10183 0.228261,-0.18974 0.402957,-0.25694 0.581028,-0.22353 0.127484,0.0239 0.127614,0.056 0.0021,0.52414 l -0.09406,0.35092 -0.206752,-0.0101 c -0.234186,-0.0115 -0.321005,0.0211 -0.468908,0.17582 -0.156533,0.16379 -0.256534,0.41875 -0.445476,1.13572 -0.09961,0.37798 -0.194542,0.73001 -0.210964,0.78228 l -0.02986,0.0951 h -0.449294 c -0.24711,0 -0.455386,-0.01 -0.462834,-0.0219 z m 12.424646,-2.75569 c -0.02478,-0.0479 -0.122131,-0.16965 -0.216328,-0.27051 -0.113826,-0.12187 -0.22054,-0.28147 -0.318174,-0.47582 -0.627027,-1.24824 -1.709346,-2.30755 -3.00438,-2.9405 -0.986379,-0.48208 -2.016646,-0.70019 -3.128632,-0.6623 -0.56366,0.0192 -0.922114,0.0686 -1.428201,0.197 -1.713492,0.43461 -3.207376,1.57126 -4.114213,3.13036 l -0.194228,0.33393 -0.370755,0.008 c -0.324732,0.007 -0.370756,0.002 -0.370756,-0.0389 0,-0.0766 0.303197,-0.64616 0.528494,-0.99283 0.400985,-0.617 0.982353,-1.26674 1.530166,-1.71009 1.074069,-0.86927 2.427502,-1.43715 3.808668,-1.59805 0.551647,-0.0643 1.514962,-0.0426 2.014037,0.0454 1.527271,0.26911 2.851509,0.93454 3.929747,1.97471 0.739235,0.71311 1.376127,1.65943 1.716124,2.54987 l 0.06864,0.17977 -0.16983,0.17848 c -0.09341,0.0982 -0.184567,0.17847 -0.202575,0.17847 -0.018,0 -0.05302,-0.0392 -0.0778,-0.0871 z"
       id="path4481"
       inkscape:connector-curvature="0" />
    <g
       id="g4485"
       transform="matrix(0.19761522,0,0,0.19761522,41.616384,-1.725131)"
       style="fill:#000000">
      <path
         style="fill:#000000;stroke-width:0.35277778"
         d="m -98.680329,1231.3266 c -3.585631,-3e-4 -7.266161,0.8726 -10.889261,2.6438 -10.16816,4.9709 -15.37036,16.9987 -12.0375,27.8314 1.49247,4.8509 2.19679,5.7584 12.27366,15.8099 8.07312,8.0528 9.587859,9.4133 10.477401,9.4133 0.891227,0 2.382999,-1.3487 10.435539,-9.4366 7.705912,-7.7398 9.591917,-9.8282 10.489282,-11.6137 1.746376,-3.4751 2.523359,-6.8255 2.523359,-10.8831 0,-6.6781 -2.165212,-11.9302 -6.845059,-16.6047 -4.739595,-4.7341 -10.45137,-7.1598 -16.427421,-7.1603 z m 7.262089,7.2099 c 0.323605,-0.064 0.472718,1.9581 0.605647,8.2057 l 0.176217,8.2905 2.998783,0.1762 c 2.881517,0.1695 3.002616,0.2108 3.100586,1.0583 0.05986,0.5179 -0.337265,1.574 -0.962215,2.558 -1.029105,1.6199 -1.1209,1.6764 -2.765723,1.6764 -0.935605,0 -1.891585,0.1899 -2.124417,0.4227 -0.292362,0.2924 -0.423231,2.0929 -0.423231,5.8198 v 5.3966 l -1.27589,1.4118 c -1.189589,1.3164 -1.404601,1.4123 -3.185853,1.4123 -1.206227,0 -1.97046,-0.1629 -2.073258,-0.4413 -0.08954,-0.2426 -0.203325,-3.4572 -0.253215,-7.1438 l -0.09095,-6.7024 h -2.822051 -2.82257 l -0.19998,2.328 c -0.16997,1.9753 -0.38417,2.5515 -1.41129,3.7967 -1.19822,1.4527 -1.23268,1.4666 -3.32744,1.3756 l -2.11667,-0.092 -0.0935,-10.6851 -0.093,-10.6867 1.15135,-1.4392 c 1.44707,-1.8082 5.19577,-4.2955 5.63015,-3.7357 0.0376,0.048 0.15671,3.1043 0.26458,6.7908 l 0.19585,6.703 h 2.82257 2.822051 l 0.176217,-5.8209 0.176733,-5.8208 1.058333,-1.3384 c 0.977158,-1.2359 3.85741,-3.3188 4.862236,-3.5161 z m 76.613409,9.7855 c -1.558097,0.011 -3.103766,0.7858 -3.893817,2.3673 -0.460214,0.9212 -0.616664,2.1058 -0.617016,4.6669 -6.33e-4,3.9527 0.626377,6.0101 2.070674,6.7949 1.34185,0.7291 3.893444,0.657 5.212601,-0.1473 1.147564,-0.6998 2.1238527,-2.7836 1.754931,-3.745 -0.317863,-0.8284 -2.927686,-0.6813 -3.394625,0.1912 -0.511138,0.9553 -1.628302,0.9034 -1.893941,-0.088 -0.116996,-0.4366 -0.214757,-1.6962 -0.217559,-2.7993 -0.0084,-3.4908 1.016826,-4.8245 2.255679,-2.9337 0.665144,1.0151 2.323293,1.2057 3.03444,0.3488 0.355812,-0.4287 0.346726,-0.7833 -0.04548,-1.8138 -0.717928,-1.8863 -2.500045,-2.8547 -4.26589,-2.8422 z m 9.6118178,0.1111 c -1.675204,0.06 -3.1289995,0.9788 -4.0002724,2.6339 -0.5241422,0.9958 -0.6171459,1.8768 -0.5245153,4.9827 0.1211924,4.0638 0.5688648,5.2072 2.4298249,6.2078 0.4992158,0.2683 1.6072246,0.4021 2.6944081,0.3241 3.2987879,-0.2353 4.32738474,-1.9303 4.32738474,-7.1329 0,-4.0347 -0.67694439,-5.7807 -2.53937824,-6.5526 -0.8189727,-0.3395 -1.6259968,-0.4901 -2.3874518,-0.463 z m 31.0172282,0.014 c -0.983271,-0.013 -1.960475,0.1829 -2.584339,0.5917 -1.820161,1.1926 -2.163175,2.1789 -2.163175,6.2203 0,4.2769 0.46042,5.7663 2.088761,6.7593 v 5e-4 c 1.503572,0.9165 4.066847,0.8819 5.279263,-0.072 1.615847,-1.271 1.980758,-2.4343 1.980758,-6.3128 0,-4.0383 -0.450503,-5.5237 -1.980239,-6.5278 -0.648124,-0.4254 -1.637758,-0.6465 -2.621029,-0.6594 z m -56.451335,0.121 c -0.724959,-0.013 -1.484038,0.1939 -1.636075,0.5901 -0.1236,0.3221 0.437131,2.5904 1.245917,5.041 0.849459,2.5739 1.470195,5.1277 1.470195,6.0467 0,0.875 0.190915,1.7815 0.423749,2.0143 0.232833,0.2328 0.776824,0.4233 1.209227,0.4233 1.304505,0 1.894975,-0.92 1.894975,-2.9523 0,-1.2165 0.481603,-3.2764 1.415934,-6.0575 0.77874,-2.318 1.339469,-4.4143 1.245917,-4.6581 -0.09355,-0.2438 -0.72695,-0.4434 -1.407665,-0.4434 -1.379273,0 -2.071325,0.762 -2.482535,2.7342 -0.325805,1.5627 -0.776409,1.4396 -1.288809,-0.3524 -0.235786,-0.8246 -0.57893,-1.698 -0.762746,-1.9405 -0.221001,-0.2916 -0.764228,-0.4352 -1.328084,-0.4454 z m -7.435721,0.016 c -1.259969,-0.012 -2.41351,0.1227 -2.70216,0.4113 -0.296495,0.2964 -0.423749,2.2441 -0.423749,6.5009 0,5.055 0.09342,6.1716 0.55449,6.6327 0.657948,0.6579 1.956594,0.7249 2.550232,0.1313 0.232833,-0.2328 0.42323,-1.1685 0.42323,-2.079 0,-1.7486 0.312407,-2.0841 1.941999,-2.0841 1.246418,0 2.930059,-1.6163 3.364653,-3.2303 0.675945,-2.5102 -0.321611,-4.9583 -2.368849,-5.8136 -0.71375,-0.2984 -2.079876,-0.4571 -3.339846,-0.4692 z m -18.123442,0.01 c -0.602673,0 -1.205611,0.089 -1.474845,0.2599 -0.4034,0.2565 -3.283003,11.4711 -3.283003,12.7858 0,0.3491 0.198265,0.7149 0.440798,0.8129 v 0 c 1.371547,0.5534 3.087151,-0.108 3.087151,-1.1901 0,-0.557 0.242384,-0.693 1.234551,-0.693 1.003903,0 1.234548,0.1334 1.234548,0.7132 0,0.4125 0.361125,0.8777 0.856279,1.1033 1.156571,0.527 2.671673,0.1161 2.671673,-0.7246 0,-1.3003 -2.895579,-12.5612 -3.295407,-12.8157 -0.26675,-0.1687 -0.869072,-0.2515 -1.471745,-0.2496 z m 58.4625816,0 c -1.42412772,0.01 -1.48414844,0.9631 -1.48414844,7.059 0,5.6177 0.0655876,6.328 0.61701624,6.6492 1.7844426,1.0393 2.8549653,0.1004 2.9853493,-2.6179 l 0.1018011,-2.1162 1.1079427,2.3451 c 1.1621928,2.4598 1.9113923,3.0183 3.5108964,2.6169 l 0.8640313,-0.217 -0.095602,-6.782 -0.095602,-6.7826 H 8.3767012 6.9654163 l -0.1049019,2.2051 c -0.057764,1.2125 -0.2275708,2.2045 -0.3777536,2.2045 -0.1501854,0 -0.7382192,-0.992 -1.3063802,-2.2045 -0.9314921,-1.9883 -1.1478286,-2.2159 -2.2024498,-2.3172 -0.2629271,-0.025 -0.4941861,-0.044 -0.6976322,-0.042 z m -70.7972286,0.015 c -0.180732,0 -0.380643,0.01 -0.60203,0.027 l -1.169956,0.1121 -0.09612,6.4802 c -0.0666,4.481 0.02858,6.631 0.307994,6.9676 v 5e-4 c 0.503412,0.6066 1.757833,0.6294 2.530594,0.046 0.416107,-0.3142 0.61297,-1.1006 0.684712,-2.7342 0.0889,-2.0243 0.18329,-2.2934 0.806151,-2.2934 0.621332,0 0.726787,0.2942 0.882118,2.4629 0.165746,2.314 0.236218,2.4835 1.165305,2.8086 0.669824,0.2341 1.18188,0.2239 1.5875,-0.032 0.528682,-0.3335 0.598411,-1.1575 0.598411,-7.042 v -6.6642 l -1.169438,-0.1121 c -1.771107,-0.17 -2.181778,0.3905 -2.181778,2.9776 0,2.1649 -0.03357,2.25 -0.882118,2.25 -0.848534,0 -0.881599,-0.085 -0.881599,-2.25 0,-2.2637 -0.314632,-2.9762 -1.579748,-3.005 z m 17.983914,0.1395 -0.09663,6.4802 c -0.0666,4.481 0.02858,6.631 0.307991,6.9676 0.479438,0.5777 1.510356,0.6285 2.457731,0.1214 0.533429,-0.2854 0.68213,-0.7455 0.68213,-2.1094 0,-1.6206 0.06884,-1.7588 0.969965,-1.941 3.190708,-0.645 4.321701,-1.9507 4.321701,-4.9899 0,-1.6635 -0.146214,-2.0533 -1.206645,-3.2111 l -1.207161,-1.3178 h -3.114538 z m 62.441666,0 -0.09612,6.6771 c -0.07343,5.0964 0.0097,6.75 0.352433,6.9857 0.246946,0.1719 1.515414,0.2427 2.81895,0.1617 4.384662,-0.2717 5.341681,-1.7012 5.156274,-7.7044 -0.116535,-3.7733 -0.130193,-3.8278 -1.270206,-4.9677 -1.114909,-1.1144 -1.247786,-1.1524 -4.057118,-1.1524 z m -16.8604695,3.0283 c 0.2860569,0.02 0.5725398,0.2345 0.796335,0.6526 0.3929988,0.7343 0.503928,5.2495 0.1514104,6.1681 -0.3332215,0.8684 -1.7820851,0.7005 -2.0329498,-0.2356 -0.3325998,-1.2411 -0.2589371,-4.7092 0.1214411,-5.7097 0.2292588,-0.6031 0.5959766,-0.9007 0.9637633,-0.8754 z m 30.6622105,10e-4 c 0.842671,-0.063 1.191143,1.0031 1.191143,3.5114 0,1.5126 -0.09616,3.0014 -0.213942,3.3083 -0.215768,0.5623 -1.231519,0.7585 -1.667597,0.3225 -0.129352,-0.1294 -0.235127,-1.7218 -0.235127,-3.5388 0,-2.6235 0.110027,-3.3457 0.533818,-3.5083 0.140975,-0.054 0.271325,-0.086 0.391705,-0.095 z m -62.674208,0.3219 c 0.902514,0 1.423455,1.0153 1.040762,2.0289 -0.175371,0.4644 -0.597506,0.7932 -1.016992,0.7932 -0.601224,0 -0.716751,-0.2274 -0.716751,-1.4108 0,-1.1675 0.119496,-1.4113 0.692981,-1.4113 z m -9.662978,0.039 c 0.07048,0 0.149564,0.012 0.238747,0.025 0.650486,0.092 0.79375,0.3358 0.79375,1.3477 0,1.0119 -0.143264,1.2552 -0.79375,1.3472 -0.713462,0.1013 -0.79375,-0.035 -0.79375,-1.3472 0,-1.1483 0.06167,-1.3964 0.555003,-1.3725 z m 62.415829,0.138 c 0.655974,0 0.705382,0.2347 0.705382,3.346 0,2.909 -0.0805,3.3625 -0.618048,3.466 -0.868825,0.1673 -1.014053,-0.4557 -0.89607,-3.8432 0.09402,-2.6995 0.167259,-2.9688 0.808736,-2.9688 z m -37.635946,13.5542 c -0.797468,0.016 -1.346171,0.888 -1.346171,2.4619 0,1.8257 -0.394513,1.5919 -1.019575,-0.6041 -0.638532,-2.2434 -1.458666,-1.8783 -2.239139,0.9963 -0.726652,2.6768 -0.598197,3.5781 0.383439,2.6897 0.79412,-0.7187 1.328613,-0.7348 1.592149,-0.048 0.313698,0.8175 2.017519,0.6726 2.243275,-0.1907 0.103513,-0.3959 0.667054,-0.9674 1.252638,-1.2702 l 1.065051,-0.5509 -0.216009,1.0805 c -0.251303,1.2566 0.360141,1.8592 0.999422,0.985 0.529127,-0.7238 1.013849,-0.74 1.583367,-0.054 0.584755,0.7046 1.985515,0.6747 2.26291,-0.048 0.202956,-0.5284 0.277685,-0.5259 0.897104,0.035 0.907142,0.821 1.518819,0.4267 1.02371,-0.6599 -0.268206,-0.5887 -0.264266,-1.0329 0.01343,-1.5518 0.213987,-0.3998 0.389123,-1.074 0.389123,-1.4986 0,-0.635 0.0906,-0.6967 0.512114,-0.3468 0.302713,0.2512 0.555554,1.2091 0.617532,2.3404 0.142278,2.5967 0.769435,2.4286 0.987021,-0.2645 0.240493,-2.9767 1.058333,-3.2631 1.058333,-0.3706 0,1.4694 0.1645126,2.2398 0.5467376,2.557 0.4620392,0.3834 0.5780643,0.3349 0.7467229,-0.3101 0.2712059,-1.0376 2.0690152,-1.0809 2.3368106,-0.057 0.1198192,0.4576 0.3748114,0.6341 0.7250192,0.4997 0.2972117,-0.1141 0.8279262,-0.04 1.1792558,0.1643 v 5e-4 c 0.7832566,0.4553 1.5406211,0.4816 2.1833284,0.074 0.6306053,-0.3993 0.197321,-1.0924 -0.6831621,-1.0924 -0.9000093,0 -0.8841713,-0.9479 0.020672,-1.235 0.3880565,-0.1233 0.7053818,-0.387 0.7053818,-0.5861 0,-0.1991 -0.3173253,-0.4447 -0.7053818,-0.5462 -0.9272243,-0.2425 -0.9042902,-1.0266 0.037206,-1.2728 0.4084955,-0.1068 0.6737694,-0.403 0.5896293,-0.6583 -0.1956911,-0.5939 -1.5895055,-0.8062 -2.1636937,-0.3297 -0.2419482,0.201 -0.7846404,0.2749 -1.205611,0.1648 -0.585589,-0.1531 -0.8640683,0.016 -1.1849391,0.7204 -0.5208905,1.1428 -0.9347597,1.1682 -1.3477213,0.082 -0.264541,-0.6958 -0.655357,-0.8805 -2.3027036,-1.0863 -1.243298,-0.1553 -2.152412,-0.1085 -2.43396,0.1251 -0.317185,0.2632 -0.770221,0.2514 -1.540473,-0.039 -1.502048,-0.567 -2.140352,0.031 -2.276348,2.1311 l -0.106453,1.6475 -0.540019,-1.7612 c -0.583208,-1.9024 -1.525678,-2.5075 -1.928564,-1.2381 -0.233476,0.7356 -0.246957,0.7334 -1.071769,-0.1566 -0.592971,-0.6398 -1.161211,-0.9382 -1.639694,-0.9286 z m 29.0757444,0.057 c -0.2305659,0.021 -0.4714161,0.116 -0.7369043,0.2843 -0.2740131,0.1733 -0.8842084,0.1493 -1.4304036,-0.057 -1.4857333,-0.5608 -3.6549568,0.081 -3.9336107,1.1643 l -0.22427667,0.8717 -0.46973859,-0.9839 c -0.27357652,-0.5734 -0.70059285,-0.9389 -1.02370995,-0.8769 -0.44455559,0.086 -0.55448729,0.6242 -0.55448729,2.7182 0,2.776 0.54095385,3.6643 1.15341664,1.8944 l 0.34158237,-0.9875 0.45578447,0.9699 c 0.93426222,1.9892 1.75338312,1.0281 1.75338312,-2.0572 0,-1.0513 0.1559005,-1.9115 0.3462311,-1.9115 0.413647,0 0.669036,1.0204 0.7953005,3.175 0.1383453,2.3606 0.7829338,1.9203 0.9038219,-0.6175 0.078322,-1.6443 0.2354554,-2.2051 0.6175322,-2.2051 0.2817813,0 0.5121143,0.2089 0.5121143,0.4636 0,0.2547 0.4775544,0.9201 1.0609156,1.4789 0.7117557,0.682 0.9436735,1.1333 0.7053845,1.3715 -0.2382838,0.2385 -0.4941755,0.2159 -0.7782481,-0.068 -0.6179105,-0.6179 -0.988052,-0.5184 -0.988052,0.2651 0,0.3784 0.2779845,0.8497 0.6175322,1.0475 0.9162626,0.5337 1.4206061,0.4594 2.2045162,-0.3245 0.9297829,-0.9298 0.8976863,-1.1683 -0.3524329,-2.5921 -1.2880816,-1.4674 -1.3195935,-1.7204 -0.1767337,-1.4335 1.009306,0.2533 1.1590575,-0.2331 0.3276309,-1.0645 -0.387612,-0.3877 -0.7422701,-0.5598 -1.1265482,-0.5251 z m -40.8285154,0.2956 c -3.136987,0 -3.159061,0.017 -3.351733,2.2402 -0.09701,1.1193 -0.335138,2.035 -0.529167,2.035 -0.194027,0 -0.432155,-0.9157 -0.529167,-2.035 -0.166312,-1.919 -0.233053,-2.042 -1.167886,-2.1492 -0.545309,-0.062 -1.226588,0.082 -1.514118,0.3204 -0.395981,0.3281 -0.621887,0.3341 -0.931212,0.025 -0.22461,-0.2246 -0.852501,-0.4083 -1.39578,-0.4083 -0.955736,0 -0.98802,0.06 -0.993219,1.8521 -0.01019,3.4935 -1.280666,3.7216 -1.473814,0.2646 -0.148225,-2.6531 -0.789922,-2.453 -0.91984,0.2868 -0.09802,2.0677 -0.161015,2.2192 -0.8816,2.1167 -0.692885,-0.099 -0.787836,-0.35 -0.882115,-2.3389 -0.07301,-1.5401 -0.236474,-2.1858 -0.529167,-2.0888 -0.579263,0.1914 -0.765307,4.7512 -0.22066,5.4074 0.48962,0.59 1.177841,0.6331 2.113566,0.1323 0.476933,-0.2553 0.901607,-0.2474 1.411285,0.025 0.562665,0.301 0.914373,0.2687 1.539957,-0.1411 0.625348,-0.4098 0.907978,-0.4356 1.235067,-0.1132 0.327562,0.3228 0.537392,0.2636 0.923457,-0.2594 0.475361,-0.6438 0.533079,-0.6471 1.176157,-0.065 0.436671,0.3952 0.757468,0.4804 0.905886,0.2403 0.151902,-0.2458 0.527592,-0.1766 1.107943,0.2036 0.700733,0.4592 1.053285,0.4952 1.74563,0.1798 0.477123,-0.2174 0.86713,-0.5821 0.86713,-0.8103 0,-0.2503 0.267716,-0.1728 0.673862,0.1949 0.63894,0.5783 0.691901,0.5766 1.029393,-0.026 0.341175,-0.6096 0.386085,-0.6083 1.092441,0.031 0.892598,0.8077 1.327785,0.5015 0.837676,-0.5896 -0.36808,-0.8194 0.05868,-2.3849 0.650089,-2.3849 0.159187,0 0.362077,0.3572 0.450617,0.7937 0.498623,2.4588 0.618686,2.7727 1.011825,2.6423 0.235381,-0.078 0.523354,-0.7642 0.640271,-1.5245 0.116919,-0.7603 0.400611,-1.8445 0.630451,-2.4097 0.552781,-1.3592 -0.09366,-2.1536 -0.886766,-1.0893 -0.490242,0.6575 -0.549236,0.6638 -0.872816,0.093 -0.333682,-0.5887 -0.623901,-0.6506 -2.963643,-0.6506 z m 12.191505,1.0863 c 0.182576,0 0.331761,0.3172 0.331761,0.7053 0,0.744 -0.512902,0.9495 -0.881599,0.353 -0.257247,-0.4163 0.07629,-1.0583 0.549838,-1.0583 z m 6.681761,0 c 0.19403,0 0.352952,0.3172 0.352952,0.7053 0,0.3881 -0.158922,0.7059 -0.352952,0.7059 -0.194027,0 -0.352433,-0.3178 -0.352433,-0.7059 0,-0.3881 0.158406,-0.7053 0.352433,-0.7053 z m -19.067568,0.04 c 0.123865,0 0.278601,0.079 0.447001,0.2476 0.318187,0.3182 0.319526,0.5155 0.0057,0.8294 -0.313836,0.3138 -0.466897,0.2681 -0.643372,-0.1917 -0.205478,-0.5355 -0.08182,-0.8906 0.190688,-0.8853 z m -5.821352,0.1598 c 0.13157,-0.016 0.186211,0.3902 0.189138,1.2991 0.003,0.9217 -0.04747,1.6759 -0.112139,1.6759 -0.634693,0 -0.797324,-1.9526 -0.235127,-2.8226 0.06183,-0.096 0.114274,-0.1473 0.158128,-0.1524 z m -3.003949,0.1524 c 0.549008,0 0.792882,1.3386 0.383439,2.1037 -0.558718,1.0439 -0.712618,0.8943 -0.712618,-0.6924 0,-0.7761 0.148228,-1.4113 0.329179,-1.4113 z m -18.446935,0.7059 c -8.829249,0 -10.5464,0.1459 -9.854179,0.8382 0.12713,0.1274 4.515046,0.1894 9.750825,0.1374 7.234287,-0.071 9.555006,-0.1996 9.666594,-0.5348 0.115096,-0.3459 -1.952138,-0.4408 -9.56324,-0.4408 z m 81.793971,0 c -8.388274,0 -9.701216,0.072 -9.701216,0.5292 0,0.4572 1.312942,0.5291 9.701216,0.5291 8.388273,0 9.701733,-0.071 9.701733,-0.5291 0,-0.4571 -1.31346,-0.5292 -9.701733,-0.5292 z"
         id="path4483"
         inkscape:connector-curvature="0" />
    </g>
    <path
       style="fill:#000000;stroke-width:0.01987956"
       d="m 127.38195,251.36281 c -0.0547,-0.009 -0.1486,-0.0176 -0.20874,-0.0186 -0.2965,-0.005 -0.64857,-0.30986 -0.81202,-0.70367 -0.119,-0.28672 -0.16486,-0.70665 -0.12467,-1.14174 0.0224,-0.24249 0.0908,-0.61128 0.12307,-0.66349 0.0386,-0.0625 0.96273,-0.0341 1.02841,0.0316 0.006,0.007 7.9e-4,0.063 -0.0129,0.12546 -0.12254,0.56269 -0.12788,0.88408 -0.0194,1.16754 0.11858,0.30986 0.47617,0.50198 0.79451,0.42688 0.14121,-0.0333 0.34157,-0.13643 0.46431,-0.23895 0.14228,-0.11885 0.2863,-0.29546 0.30726,-0.37678 0.0615,-0.23858 0.50004,-2.23123 0.49267,-2.2386 -0.005,-0.005 -0.0751,-0.0235 -0.15598,-0.0412 -0.1987,-0.0434 -0.52876,-0.0437 -0.69365,0 -0.30377,0.0795 -0.63106,0.29899 -0.81506,0.54652 -0.066,0.0888 -0.10384,0.12203 -0.14441,0.12677 -0.0495,0.006 -0.0366,0.0186 0.12922,0.12849 0.23313,0.15454 0.41964,0.32561 0.5828,0.53457 0.0949,0.12153 0.12818,0.18016 0.12818,0.22589 0,0.0537 -0.007,0.0618 -0.0533,0.0618 -0.0313,0 -0.11141,-0.04 -0.19383,-0.0968 -0.39094,-0.2692 -0.77729,-0.41342 -1.23106,-0.45958 -0.19891,-0.0202 -0.24659,-0.018 -0.65391,0.0312 -0.10905,0.0132 -0.1143,0.0116 -0.1143,-0.0305 0,-0.0268 0.0514,-0.10021 0.13087,-0.1866 0.072,-0.0783 0.18484,-0.21618 0.25081,-0.30639 0.0977,-0.13359 0.12964,-0.16398 0.17229,-0.16394 0.0704,6e-5 0.38674,0.0861 0.50743,0.13804 0.0535,0.023 0.10072,0.0383 0.10497,0.0341 0.0129,-0.0128 -0.17186,-0.0857 -0.36125,-0.14234 -0.0984,-0.0294 -0.1901,-0.0568 -0.20377,-0.0609 -0.0137,-0.004 -0.0249,-0.034 -0.0249,-0.0664 0,-0.12302 0.37087,-0.50961 0.68859,-0.7178 0.14014,-0.0918 0.14444,-0.0931 0.34789,-0.10547 0.1133,-0.007 0.27756,-0.0301 0.36503,-0.0517 0.15935,-0.0393 0.40175,-0.12922 0.43541,-0.16147 0.01,-0.009 -0.0507,0.009 -0.13451,0.042 -0.26005,0.10098 -0.41643,0.12361 -0.77685,0.11234 -0.22942,-0.007 -0.35558,-0.0205 -0.44845,-0.0475 l -0.12921,-0.0375 0.006,-0.0691 c 0.003,-0.038 0.008,-0.2681 0.009,-0.51137 0.004,-0.51698 -0.005,-0.5035 0.20623,-0.34189 0.55357,0.42428 1.23825,0.44625 1.8103,0.0581 0.0802,-0.0544 0.16789,-0.0989 0.19489,-0.0989 0.1661,0 -0.10942,0.44179 -0.42195,0.67658 -0.0635,0.0477 -0.12156,0.0916 -0.12911,0.0977 -0.008,0.006 0.149,0.0119 0.34789,0.013 0.38963,0.002 0.61357,0.0305 0.958,0.12092 0.29548,0.0776 0.45589,0.1464 0.46341,0.19892 0.003,0.0237 -0.15185,0.73033 -0.34498,1.57023 -0.19314,0.83993 -0.36827,1.62104 -0.38918,1.73585 -0.031,0.17019 -0.0762,0.6285 -0.077,0.78029 -1.2e-4,0.0322 -0.0362,0.0348 -0.47645,0.0348 h -0.47627 l -0.006,-0.14865 -0.006,-0.14864 -0.12126,0.0845 c -0.0667,0.0465 -0.19597,0.11953 -0.28727,0.16238 -0.14161,0.0664 -0.19389,0.08 -0.35584,0.0925 -0.38957,0.0299 -0.55037,0.0343 -0.64708,0.018 z m 9.48255,0 c -0.0547,-0.009 -0.14941,-0.0176 -0.21053,-0.0186 -0.16783,-0.003 -0.32953,-0.0913 -0.52609,-0.28844 -0.25244,-0.2532 -0.36826,-0.53526 -0.40474,-0.98558 -0.0598,-0.7379 0.11728,-1.4689 0.49598,-2.04775 0.14843,-0.2269 0.50046,-0.58599 0.70771,-0.72191 0.29711,-0.19485 0.63585,-0.33306 0.985,-0.40187 0.22781,-0.0449 0.74858,-0.0599 1.04111,-0.03 0.37255,0.038 0.61259,0.091 0.92828,0.20491 0.16522,0.0596 0.17395,0.0657 0.17395,0.12144 0,0.0323 -0.15745,0.74384 -0.34989,1.58125 -0.19244,0.83742 -0.36697,1.61652 -0.38784,1.73131 -0.0209,0.11481 -0.0437,0.34069 -0.0507,0.50196 l -0.0128,0.29322 h -0.48403 -0.48403 v -0.15145 -0.15145 l -0.0646,0.0482 c -0.24747,0.18469 -0.46797,0.27654 -0.7107,0.29606 -0.37461,0.0301 -0.54843,0.0352 -0.64608,0.0186 z m 0.80252,-0.78471 c 0.23555,-0.0627 0.49138,-0.23935 0.65112,-0.44967 l 0.082,-0.10788 0.25123,-1.12319 c 0.13818,-0.61776 0.25114,-1.13378 0.25103,-1.1467 -4e-4,-0.0405 -0.29273,-0.0932 -0.51708,-0.0931 -0.24896,6e-5 -0.39865,0.0356 -0.63239,0.15031 -0.28001,0.13736 -0.56022,0.43189 -0.72449,0.76151 -0.23721,0.47596 -0.33082,1.18247 -0.20405,1.54002 0.13344,0.37633 0.47534,0.56652 0.84267,0.46874 z m -15.43732,0.69659 c -0.0162,-0.0186 -0.0179,-0.0499 -0.005,-0.10363 0.01,-0.0423 0.018,-0.1307 0.0182,-0.19629 2e-4,-0.0799 0.19825,-1.04831 0.60065,-2.93701 l 0.60033,-2.81776 0.0708,-0.015 c 0.0389,-0.008 0.25862,-0.0148 0.48823,-0.0146 0.385,0 0.4338,0.005 0.62741,0.0534 0.2073,0.0522 0.44559,0.13818 0.59694,0.21536 0.056,0.0286 0.0778,0.0523 0.0778,0.0849 0,0.045 -0.002,0.0452 -0.28328,0.0454 -0.22808,0 -0.32009,0.009 -0.47214,0.0462 -0.10387,0.0253 -0.19075,0.0476 -0.19307,0.0495 -0.0108,0.009 -0.58099,2.72307 -0.57361,2.73047 0.005,0.005 0.0963,0.0218 0.20366,0.0382 0.35678,0.0545 0.65553,0.0128 0.9537,-0.13319 0.18602,-0.091 0.25936,-0.101 0.26893,-0.0365 0.0133,0.0898 0.408,-0.45125 0.54247,-0.74374 0.16653,-0.36225 0.26096,-0.92063 0.211,-1.24776 -0.0226,-0.14824 -0.12089,-0.38464 -0.19428,-0.46746 -0.0685,-0.0773 -0.26308,-0.22517 -0.40673,-0.30907 -0.46791,-0.27327 -1.0808,-0.42193 -1.54761,-0.37543 -0.0929,0.009 -0.207,0.0174 -0.25347,0.0182 -0.0775,0.002 -0.0845,-0.003 -0.0845,-0.0491 0,-0.0587 0.0568,-0.0875 0.36861,-0.18742 0.39142,-0.12538 0.75692,-0.18941 1.20188,-0.21056 0.99469,-0.0473 1.64671,0.30113 1.88985,1.00976 0.0782,0.22797 0.0978,0.3742 0.0979,0.73226 2e-4,0.35365 -0.0302,0.56641 -0.13166,0.92294 -0.0747,0.26257 -0.24517,0.63 -0.39845,0.85898 -0.39534,0.59053 -1.04396,0.98598 -1.80558,1.10081 -0.192,0.0289 -0.78145,0.0295 -0.97335,0.002 -0.0761,-0.0115 -0.14008,-0.0188 -0.14213,-0.0166 -0.002,0.002 -0.0961,0.44912 -0.20906,0.99307 l -0.20532,0.98901 -0.45767,-0.002 c -0.35641,-0.002 -0.46282,-0.007 -0.48098,-0.0274 z m 1.60415,-2.13948 c 0.15905,-0.0433 0.52351,-0.17781 0.51222,-0.1891 -0.004,-0.004 -0.0885,0.0239 -0.18834,0.0614 -0.0998,0.0375 -0.26283,0.084 -0.36218,0.10326 -0.0994,0.0194 -0.18068,0.0418 -0.18071,0.05 -1.1e-4,0.0245 0.0617,0.0172 0.21901,-0.0255 z m 6.26166,2.12138 c 0,-0.0429 0.88822,-4.26793 0.89964,-4.27938 0.007,-0.007 0.90032,-0.0877 0.97156,-0.0877 0.0438,0 0.0571,0.009 0.0571,0.0396 0,0.035 -0.90042,4.25124 -0.92662,4.3389 -0.01,0.0319 -0.0512,0.0348 -0.50604,0.0348 h -0.49565 z m 1.45041,-0.0184 c -6e-4,-0.0444 0.8649,-4.21685 0.8841,-4.26236 0.002,-0.005 0.91746,-0.0863 0.97354,-0.0863 0.045,0 0.0515,0.008 0.0511,0.0646 -2e-4,0.0356 -0.008,0.097 -0.0172,0.13663 l -0.0167,0.072 0.16134,-0.0756 c 0.38615,-0.1809 0.70429,-0.24736 1.10562,-0.231 0.29162,0.0119 0.42039,0.0397 0.60542,0.13082 0.22252,0.10956 0.36953,0.27499 0.4698,0.52872 0.0439,0.11114 0.0471,0.14577 0.0471,0.50695 -6e-5,0.28687 -0.009,0.43003 -0.0338,0.55073 -0.0185,0.0897 -0.15475,0.73584 -0.30268,1.43589 -0.14793,0.70003 -0.26897,1.27745 -0.26897,1.28314 0,0.006 -0.22811,0.0103 -0.50692,0.0103 -0.46958,0 -0.50693,-0.003 -0.50684,-0.0348 6e-5,-0.0192 0.12089,-0.6026 0.26853,-1.29661 0.31262,-1.46951 0.34427,-1.65789 0.30984,-1.84474 -0.053,-0.28753 -0.18417,-0.41586 -0.47406,-0.46372 -0.18312,-0.0303 -0.40815,0.0128 -0.63973,0.1228 -0.17515,0.0831 -0.40734,0.2371 -0.42353,0.28095 -0.005,0.014 -0.16474,0.74793 -0.35456,1.63082 l -0.34512,1.60528 h -0.49273 -0.49272 l -7.9e-4,-0.0646 z m 8.03205,0.0302 c -8e-5,-0.0302 0.89382,-4.28276 0.90242,-4.29313 0.005,-0.006 0.9197,-0.0857 0.97969,-0.0857 0.051,0 0.0516,0.002 0.0391,0.10764 -0.007,0.0592 -0.0184,0.12256 -0.0254,0.1408 -0.01,0.0248 0.0233,0.015 0.12995,-0.0387 0.3181,-0.16019 0.69269,-0.24949 1.04652,-0.24949 0.61152,0 0.98872,0.21799 1.15647,0.66838 0.0432,0.1159 0.0523,0.17915 0.0598,0.41507 0.0117,0.36667 0.004,0.41511 -0.33516,2.02275 l -0.2839,1.34682 h -0.50282 -0.50282 v -0.0441 c 0,-0.0243 0.11584,-0.5901 0.25742,-1.25739 0.14158,-0.66729 0.2721,-1.2929 0.29003,-1.39026 0.0916,-0.49734 -0.003,-0.79902 -0.28453,-0.90836 -0.30683,-0.11912 -0.75661,-0.009 -1.12731,0.27496 l -0.099,0.076 -0.34875,1.61964 -0.34875,1.61963 -0.50148,0.005 c -0.46817,0.005 -0.50148,0.003 -0.50156,-0.0298 z m 4.05552,-0.0287 c 0,-0.0685 0.87372,-4.23195 0.89286,-4.25459 0.0105,-0.0125 0.85191,-0.0956 0.96757,-0.0956 0.0415,0 0.048,0.009 0.048,0.0687 0,0.0378 -0.20181,1.00618 -0.44846,2.15195 -0.24665,1.1458 -0.45352,2.10785 -0.45971,2.13792 l -0.0113,0.0547 h -0.4945 -0.49451 z m -12.43505,-4.47438 c -0.13714,-0.37551 -0.39141,-1.13947 -0.409,-1.22891 -0.055,-0.2796 0.006,-0.63699 0.15104,-0.88567 0.13289,-0.22777 0.42483,-0.44311 0.69673,-0.51394 0.15403,-0.0401 0.5198,-0.0401 0.67383,0 0.38735,0.1009 0.69794,0.41011 0.81818,0.81451 0.0532,0.17876 0.0496,0.53297 -0.007,0.71567 -0.0867,0.27901 -0.29766,0.54277 -0.53756,0.67228 -0.14228,0.0768 -1.2303,0.4509 -1.3114,0.4509 -0.036,0 -0.0696,-0.0111 -0.0746,-0.0248 z m 0.94602,-0.76216 c 0.28557,-0.0835 0.49766,-0.3153 0.55987,-0.61186 0.0555,-0.26476 -0.11019,-0.60336 -0.36977,-0.7555 -0.12334,-0.0723 -0.30182,-0.11849 -0.4087,-0.10584 -0.26112,0.0309 -0.50275,0.20473 -0.62232,0.4476 -0.058,0.11771 -0.065,0.15022 -0.065,0.30134 0,0.14189 0.009,0.18771 0.0529,0.28221 0.0968,0.20649 0.27872,0.36725 0.4938,0.43636 0.13768,0.0442 0.22277,0.0456 0.35919,0.006 z m 12.29903,-0.0632 c -0.16132,-0.46724 -0.30654,-0.91215 -0.3227,-0.98869 -0.0391,-0.1853 -0.0384,-0.56773 0.002,-0.76123 0.11893,-0.57718 0.52427,-1.0571 1.07174,-1.26895 0.13868,-0.0537 0.14096,-0.0538 0.66597,-0.0541 h 0.52681 l 0.15903,0.0629 c 0.40326,0.15935 0.74148,0.48447 0.9281,0.89211 0.0491,0.10717 0.0665,0.18125 0.0833,0.35419 0.0427,0.43959 0.0165,0.89966 -0.0627,1.10012 -0.15856,0.40143 -0.54169,0.77645 -0.95444,0.93421 -0.40033,0.15303 -1.68023,0.5798 -1.73803,0.57952 h -0.0652 l -0.29331,-0.84955 z m 1.6658,-0.27346 c 0.21535,-0.055 0.36415,-0.14234 0.53806,-0.31587 0.3251,-0.32442 0.42859,-0.72017 0.29316,-1.12111 -0.12969,-0.38394 -0.46184,-0.6857 -0.85689,-0.7785 -0.58889,-0.13831 -1.22696,0.30841 -1.34777,0.94363 -0.0667,0.35088 0.0681,0.71213 0.37094,0.99396 0.27906,0.25971 0.66005,0.36532 1.0025,0.27789 z m -2.72722,0.82538 c -0.26587,-0.0389 -0.40163,-0.21506 -0.37938,-0.49224 0.0127,-0.15776 0.0818,-0.26771 0.21148,-0.33614 0.0767,-0.0405 0.11554,-0.0463 0.31061,-0.0463 0.33395,0 0.48202,0.0719 0.55805,0.27098 0.0506,0.13258 0.0322,0.33783 -0.0396,0.44148 -0.0857,0.12366 -0.22012,0.18275 -0.40867,0.17963 -0.0826,-0.002 -0.19622,-0.009 -0.25249,-0.0174 z m -1.39427,-0.20961 c -0.25044,-0.0458 -0.35697,-0.14888 -0.37652,-0.36444 -0.0175,-0.19329 0.0481,-0.32591 0.19944,-0.40314 0.0731,-0.0373 0.10594,-0.0407 0.30432,-0.032 0.36361,0.016 0.49796,0.11412 0.51922,0.37898 0.0174,0.21697 -0.0874,0.37593 -0.28301,0.42936 -0.0987,0.027 -0.17828,0.025 -0.36345,-0.009 z m -1.43631,-0.30455 c -0.16619,-0.0459 -0.23032,-0.0888 -0.2809,-0.18795 -0.0319,-0.0626 -0.039,-0.10683 -0.0327,-0.20548 0.009,-0.13969 0.0453,-0.20512 0.15707,-0.28211 0.063,-0.0434 0.0826,-0.0461 0.27833,-0.0384 0.17258,0.007 0.22801,0.017 0.3071,0.0566 0.14783,0.074 0.1781,0.12896 0.1781,0.32314 0,0.13837 -0.007,0.1722 -0.0463,0.22745 -0.0255,0.0357 -0.0746,0.0796 -0.10918,0.0974 -0.0922,0.0477 -0.29735,0.0519 -0.45152,0.009 z m -13.44778,-0.0772 c -0.008,-0.0192 -0.0579,-0.16284 -0.11146,-0.31937 -0.0861,-0.25176 -0.0974,-0.30373 -0.0974,-0.45096 0,-0.0915 0.009,-0.18933 0.0194,-0.21737 0.018,-0.0473 0.0153,-0.051 -0.0368,-0.051 -0.081,0 -0.18611,-0.0383 -0.22434,-0.0817 -0.0182,-0.0207 -0.0432,-0.0375 -0.0558,-0.0375 -0.0125,0 -0.082,-0.0357 -0.15443,-0.0794 -0.4578,-0.27611 -0.95513,-0.29686 -1.42411,-0.0594 -0.18521,0.0938 -0.25108,0.10189 -0.25108,0.0309 0,-0.0662 0.10859,-0.15258 0.32801,-0.26083 0.23918,-0.118 0.37014,-0.14987 0.66743,-0.16246 0.23114,-0.01 0.40566,0.009 0.60973,0.0648 0.0192,0.005 -0.0188,-0.0166 -0.0844,-0.0488 -0.26675,-0.13053 -0.64201,-0.16916 -0.9244,-0.0952 -0.20847,0.0546 -0.47227,0.19534 -0.62007,0.33076 -0.15305,0.14025 -0.23475,0.16213 -0.23475,0.0629 0,-0.044 0.0334,-0.0934 0.14112,-0.20873 0.13053,-0.13977 0.13724,-0.15111 0.0895,-0.15111 -0.0435,0 -0.0517,-0.009 -0.0517,-0.0566 0,-0.0431 0.0273,-0.0825 0.11431,-0.16505 0.21589,-0.20481 0.43216,-0.32403 0.71982,-0.39677 0.14489,-0.0366 0.20734,-0.041 0.47641,-0.0333 0.27105,0.008 0.32947,0.0156 0.46868,0.0632 0.0875,0.0299 0.19035,0.0718 0.22862,0.0932 l 0.0696,0.039 -0.0497,-0.0431 c -0.0724,-0.0628 -0.34755,-0.19014 -0.49699,-0.23012 -0.19857,-0.0531 -0.52653,-0.0481 -0.71496,0.0109 -0.152,0.0476 -0.34719,0.13798 -0.44112,0.20428 -0.029,0.0205 -0.076,0.0373 -0.10437,0.0373 -0.0437,0 -0.0516,-0.009 -0.0516,-0.058 0,-0.0479 0.0216,-0.0742 0.12424,-0.15136 0.15454,-0.11616 0.33973,-0.21036 0.53264,-0.27095 0.13095,-0.0411 0.18651,-0.0465 0.47625,-0.0458 0.3179,0.002 0.33384,0.003 0.51687,0.0658 0.21051,0.0725 0.31377,0.12736 0.48208,0.25599 0.0629,0.0481 0.11431,0.0828 0.11431,0.0773 0,-0.006 -0.0649,-0.0648 -0.14413,-0.13163 -0.17093,-0.14408 -0.42757,-0.27785 -0.62675,-0.32666 -0.12837,-0.0314 -0.14358,-0.0402 -0.14358,-0.0827 0,-0.0448 0.007,-0.0476 0.11798,-0.0476 0.4595,0 0.94476,0.26949 1.23191,0.68417 0.0903,0.1304 0.10298,0.1323 0.0393,0.006 -0.0718,-0.14246 -0.20769,-0.31997 -0.33565,-0.43842 -0.11236,-0.10403 -0.39866,-0.29093 -0.44676,-0.29165 -0.0112,0 -0.0329,-0.008 -0.0484,-0.018 -0.0237,-0.015 -0.023,-0.0228 0.005,-0.0507 0.0181,-0.018 0.0417,-0.0274 0.0525,-0.0208 0.0108,0.007 0.087,0.0198 0.16928,0.0289 0.12231,0.0136 0.17469,0.0316 0.28674,0.0982 0.35301,0.20971 0.59555,0.5169 0.71609,0.90695 0.0511,0.16527 0.0789,0.44729 0.044,0.44729 -0.0125,0 -0.0228,0.0262 -0.0228,0.0581 0,0.071 -0.0871,0.18044 -0.14372,0.18044 -0.0328,0 -0.023,0.0156 0.0504,0.0802 0.29502,0.25967 0.27547,0.79896 -0.0367,1.01377 -0.0813,0.0559 -0.69237,0.27768 -0.76517,0.27768 -0.0191,0 -0.0412,-0.0156 -0.0489,-0.0348 z m 0.56613,-0.46203 c 0.13857,-0.0707 0.23254,-0.2416 0.19836,-0.3608 -0.0457,-0.1595 -0.20412,-0.2954 -0.34422,-0.2954 -0.12628,0 -0.28486,0.12891 -0.33115,0.26917 -0.0332,0.10063 -0.0107,0.18793 0.0738,0.28674 0.12057,0.14086 0.25709,0.17481 0.40317,0.10029 z m -0.64848,-0.72578 c 0.006,-0.0164 0.003,-0.0298 -0.008,-0.0298 -0.0106,0 -0.0192,0.0134 -0.0192,0.0298 0,0.0164 0.004,0.0298 0.008,0.0298 0.004,0 0.013,-0.0134 0.0192,-0.0298 z m 0.17173,-0.14127 c 0,-0.004 -0.0134,-0.008 -0.0298,-0.008 -0.0164,0 -0.0298,0.009 -0.0298,0.0192 0,0.0105 0.0134,0.014 0.0298,0.008 0.0164,-0.006 0.0298,-0.015 0.0298,-0.0192 z m 0.55663,-0.0724 c 0,-0.0156 -0.0763,-0.0215 -0.30306,-0.0236 -0.0769,-0.002 -0.13413,0.007 -0.13419,0.0186 -6e-5,0.0121 0.086,0.0199 0.21857,0.0199 0.12027,0 0.21868,-0.007 0.21868,-0.015 z m -2.57778,-0.54892 c 0.23079,-0.096 0.43594,-0.12854 0.7373,-0.11708 0.20472,0.008 0.29283,0.0206 0.41412,0.06 0.0847,0.0276 0.15407,0.047 0.15407,0.0432 0,-0.0352 -0.39476,-0.15708 -0.57812,-0.17847 -0.3042,-0.0355 -0.78536,0.12543 -1.02914,0.34415 -0.0667,0.0599 -0.0632,0.0587 0.0433,-0.0136 0.0637,-0.0433 0.18004,-0.10549 0.25843,-0.1381 z m 13.99135,1.6691 c -0.22593,-0.0667 -0.28027,-0.1339 -0.28073,-0.34723 -1.9e-4,-0.13165 0.002,-0.1392 0.0751,-0.21186 0.0919,-0.0919 0.20399,-0.11515 0.38781,-0.0803 0.18882,0.0358 0.24103,0.0567 0.30357,0.12201 0.0509,0.0531 0.0583,0.0769 0.064,0.2033 0.007,0.15798 -0.0263,0.23939 -0.124,0.30342 -0.0765,0.0501 -0.27517,0.0551 -0.42565,0.0107 z m -1.41695,-0.37331 c -0.0726,-0.0192 -0.13219,-0.0504 -0.16897,-0.0888 -0.0513,-0.0536 -0.0568,-0.0726 -0.0568,-0.19681 0,-0.12776 0.004,-0.1419 0.0628,-0.20024 0.0772,-0.0772 0.20213,-0.0948 0.4096,-0.0577 0.1869,0.0334 0.26924,0.10519 0.2859,0.24925 0.0318,0.27514 -0.17347,0.38861 -0.53244,0.29431 z m -4.35679,-0.21396 c -0.0401,-0.0401 -0.045,-0.16701 -0.008,-0.2171 0.047,-0.0643 0.3749,-0.1014 0.42787,-0.0484 0.0131,0.013 0.0239,0.071 0.0239,0.12853 0,0.13084 -0.0246,0.14679 -0.2477,0.16072 -0.13481,0.008 -0.16747,0.005 -0.19562,-0.0237 z m 3.07736,-0.0409 c -0.0109,-0.004 -0.0638,-0.0126 -0.11754,-0.02 -0.0694,-0.009 -0.11396,-0.0295 -0.15407,-0.0696 -0.0493,-0.0493 -0.0564,-0.0713 -0.0564,-0.17449 0,-0.0997 0.008,-0.12592 0.05,-0.16809 0.063,-0.063 0.13593,-0.0776 0.315,-0.0631 0.1811,0.0146 0.24606,0.0399 0.28205,0.10946 0.039,0.0754 0.0371,0.23609 -0.004,0.29405 -0.0531,0.0758 -0.22013,0.12442 -0.31548,0.0918 z m -1.63082,-0.0674 c -0.0729,-0.0316 -0.0911,-0.0729 -0.0848,-0.19224 0.008,-0.15655 0.0468,-0.18345 0.28736,-0.20037 0.17727,-0.0125 0.18328,-0.0115 0.23359,0.0389 0.0428,0.0428 0.0516,0.07 0.0516,0.1584 0,0.15709 -0.0395,0.18673 -0.26837,0.20141 -0.0984,0.006 -0.19712,0.004 -0.21937,-0.006 z"
       id="path4487"
       inkscape:connector-curvature="0" />
    <g
       id="g4493"
       transform="matrix(0.15600885,0,0,0.15600885,53.988109,-4.237321)"
       style="fill:#000000">
      <path
         style="fill:#000000;stroke-width:0.26458332"
         d="m 721.89886,1670.3803 c -0.0728,-0.1896 -0.0988,-1.8862 -0.0578,-3.7703 0.0616,-2.8355 0.1428,-3.4256 0.47131,-3.4256 0.33078,0 0.40911,0.6279 0.47029,3.7703 0.0637,3.2697 0.0186,3.7703 -0.33903,3.7703 -0.22685,0 -0.47197,-0.1551 -0.54473,-0.3447 z m 3.32389,0.031 c 0,-0.1729 0.53578,-0.9963 1.19063,-1.8298 0.65484,-0.8335 1.19062,-1.6316 1.19062,-1.7736 0,-0.1419 -0.47625,-0.8344 -1.05833,-1.5388 -1.84947,-2.2381 -1.05083,-3.1718 0.87747,-1.0259 0.58843,0.6549 1.21084,1.1907 1.38313,1.1907 0.1723,0 0.64074,-0.4726 1.04099,-1.0502 0.77174,-1.1136 1.60049,-1.5619 2.05222,-1.1102 0.18822,0.1882 -0.10786,0.7807 -0.94992,1.9009 -1.36352,1.8139 -1.36463,1.7948 0.21494,3.6854 0.51558,0.6171 0.93742,1.2894 0.93742,1.4939 0,0.7528 -1.04256,0.3387 -2.06139,-0.8188 -0.57642,-0.6548 -1.21162,-1.1869 -1.41155,-1.1824 -0.19994,0 -0.76438,0.5402 -1.25432,1.1906 -0.61793,0.8202 -1.08395,1.1824 -1.52135,1.1824 -0.34681,0 -0.63056,-0.1414 -0.63056,-0.3142 z m 11.24796,0 c -0.0701,-0.1927 -0.15907,-1.6005 -0.19763,-3.1284 l -0.0701,-2.7782 -0.97205,-0.081 c -1.16296,-0.097 -1.73231,-0.622 -1.1754,-1.0842 0.24563,-0.2038 1.30626,-0.2834 3.11212,-0.2335 2.53787,0.07 2.7395,0.1147 2.7395,0.6049 0,0.4189 -0.22049,0.5567 -1.05834,0.6614 l -1.05833,0.1323 -0.13229,3.0398 c -0.11423,2.6248 -0.19562,3.0519 -0.59611,3.1284 -0.25511,0.049 -0.52121,-0.069 -0.59135,-0.2616 z m 4.11549,-0.2842 c 0.01,-0.3274 0.63512,-2.024 1.38984,-3.7703 1.81973,-4.2104 1.95843,-4.2111 3.82469,-0.021 1.56413,3.5122 1.73042,4.1873 1.06559,4.326 -0.29308,0.061 -0.68496,-0.2799 -1.1278,-0.9814 -0.57682,-0.9137 -0.81388,-1.075 -1.57974,-1.075 -1.32021,0 -1.71512,0.2265 -2.13135,1.2227 -0.448,1.0722 -1.47039,1.284 -1.44123,0.2986 z m 3.95113,-3.0872 c 0,-0.5428 -0.34309,-1.08 -0.68976,-1.08 -0.20271,0 -0.36857,0.1094 -0.36857,0.243 0,0.1336 -0.0723,0.4313 -0.1606,0.6614 -0.12114,0.3157 0.009,0.4186 0.52917,0.4186 0.37937,0 0.68976,-0.1094 0.68976,-0.243 z m 4.9231,3.264 c -0.30799,-0.8026 -0.17679,-6.6032 0.1569,-6.9369 0.17463,-0.1746 0.95769,-0.3175 1.74015,-0.3175 1.21961,0 1.53301,0.1104 2.19604,0.7734 0.42537,0.4254 0.7734,1.0266 0.7734,1.3361 0,0.9386 -0.75714,2.1066 -1.46002,2.2523 -0.36116,0.075 -0.95431,0.1979 -1.31811,0.2735 -0.56898,0.1181 -0.66146,0.2815 -0.66146,1.169 0,1.3569 -0.21736,1.8686 -0.79375,1.8686 -0.2599,0 -0.54482,-0.1883 -0.63315,-0.4185 z m 3.19711,-4.5122 c 0.24135,-0.629 -0.26205,-1.2743 -1.06929,-1.3707 -0.6428,-0.077 -0.70092,-0.01 -0.70092,0.8599 0,0.8742 0.059,0.9436 0.80206,0.9436 0.49848,0 0.86492,-0.1638 0.96815,-0.4328 z m 2.21243,4.3354 c 0.0185,-0.7935 2.6821,-6.8827 3.06426,-7.0051 0.16501,-0.053 0.47908,0.083 0.69794,0.3018 0.54166,0.5417 3.14476,6.7525 2.95727,7.0559 -0.28516,0.4614 -0.90201,0.24 -1.35093,-0.4849 -0.64669,-1.0442 -1.14588,-1.389 -2.01081,-1.389 -1.08136,0 -1.68629,0.397 -2.00711,1.3173 -0.3461,0.9928 -1.37264,1.1479 -1.35062,0.204 z m 3.95486,-3.0872 c 0,-0.5271 -0.33859,-1.08 -0.66146,-1.08 -0.32286,0 -0.66145,0.5529 -0.66145,1.08 0,0.1336 0.29765,0.243 0.66145,0.243 0.36381,0 0.66146,-0.1094 0.66146,-0.243 z m -83.07507,-12.7042 -1.98029,-0.1497 0.12821,-1.1906 c 0.21335,-1.9815 0.14369,-8.5494 -0.0989,-9.3266 l -0.22713,-0.7276 h 3.13754 c 2.75347,0 3.3045,0.08 4.5015,0.6377 3.15845,1.4706 3.9413,6.0152 1.52286,8.8406 -1.42,1.659 -3.35183,2.1883 -6.98377,1.9137 z m 4.69468,-1.3389 c 3.15165,-1.9216 2.60532,-7.2261 -0.90414,-8.7785 -0.75342,-0.3332 -1.5948,-0.4839 -2.40995,-0.4315 l -1.25239,0.08 -0.0727,4.463 c -0.05,3.0668 0.0222,4.5773 0.23083,4.8286 0.48441,0.5837 3.35853,0.4781 4.40833,-0.162 z m 9.96934,1.4259 c -0.13657,-0.034 -0.69735,-0.1363 -1.24616,-0.2281 -2.16648,-0.3626 -3.8664,-2.927 -3.53639,-5.3347 0.36952,-2.6959 2.31821,-4.3312 5.16129,-4.3312 1.97921,0 3.13091,0.4419 4.07469,1.5635 2.50231,2.9739 0.7386,7.6414 -3.10804,8.2251 -0.60339,0.092 -1.20881,0.139 -1.34539,0.1054 z m 2.47245,-1.3111 c 0.93496,-0.6549 1.38027,-1.8021 1.38027,-3.5558 0,-2.7057 -1.30586,-4.2775 -3.55373,-4.2775 -2.22465,0 -3.3228,1.2644 -3.32445,3.8276 -10e-4,1.7527 0.42003,2.735 1.59731,3.7256 0.97117,0.8172 2.93266,0.958 3.9006,0.2801 z m 39.0834,1.2762 c -1.41072,-0.2403 -1.77589,-0.3995 -2.62381,-1.144 -2.59644,-2.2797 -2.09168,-6.6577 0.9463,-8.2075 1.64287,-0.8382 4.52441,-0.657 5.86956,0.369 0.53233,0.406 1.14635,1.0834 1.36447,1.5052 0.49363,0.9545 0.51486,3.4376 0.0391,4.5761 -0.504,1.2063 -2.08509,2.5102 -3.2749,2.7009 -0.54882,0.088 -1.17644,0.1893 -1.39472,0.2252 -0.21828,0.036 -0.635,0.025 -0.92604,-0.025 z m 2.95582,-1.3142 c 0.91156,-0.5973 1.4098,-1.8624 1.4098,-3.5796 0,-1.9237 -0.66017,-3.0934 -2.17713,-3.8574 -1.04961,-0.5287 -1.35543,-0.5741 -2.24808,-0.3337 -1.23961,0.3337 -2.00983,1.1179 -2.45134,2.4956 -0.58142,1.8143 0.2373,4.3376 1.696,5.2271 1.02059,0.6224 2.85844,0.6457 3.77075,0.048 z m 31.17542,1.2739 c -2.03719,-0.3732 -3.23992,-1.2868 -3.95865,-3.007 -1.04672,-2.5051 0.20765,-5.6281 2.62918,-6.5457 0.99847,-0.3784 4.72146,-0.381 5.42625,0 0.56297,0.3013 0.73453,1.4342 0.26146,1.7266 -0.14959,0.092 -0.48907,-0.1 -0.7544,-0.4277 -0.38003,-0.4693 -0.82786,-0.6207 -2.10989,-0.7134 -2.10258,-0.1521 -3.09289,0.2593 -3.75685,1.5608 -1.54743,3.0332 0.62854,6.571 4.04884,6.5829 0.91556,0 1.40306,-0.142 1.79559,-0.5345 0.29635,-0.2964 0.64236,-0.4748 0.76891,-0.3966 0.28689,0.1773 0.0631,1.0955 -0.35075,1.4389 -0.43852,0.3639 -2.74935,0.5485 -3.99969,0.3195 z m 28.68218,-0.011 c -3.00872,-0.5879 -4.75211,-3.3655 -3.95962,-6.3086 0.66153,-2.4567 2.31866,-3.4989 5.56347,-3.4989 2.43353,0 3.18377,0.2724 3.18377,1.1558 0,0.9178 -0.29058,1.0287 -0.98545,0.3759 -0.48912,-0.4595 -1.01954,-0.6118 -2.40088,-0.6892 -1.53025,-0.086 -1.87708,-0.017 -2.53272,0.4995 -2.22078,1.7508 -1.82386,5.4923 0.74218,6.9961 1.43863,0.8431 3.22378,0.8892 4.21586,0.1088 0.58735,-0.462 0.72192,-0.4863 0.84981,-0.153 0.52388,1.3652 -1.71944,2.0913 -4.67642,1.5136 z m 9.90472,0 c -2.31185,-0.5823 -3.79419,-2.4613 -3.79419,-4.8095 0,-1.5623 0.35195,-2.5309 1.27361,-3.505 1.0876,-1.1495 1.97833,-1.4977 3.83101,-1.4977 3.38857,0 5.35597,1.9366 5.14999,5.0693 -0.21469,3.2653 -3.30866,5.5367 -6.46042,4.7428 z m 3.74916,-1.6922 c 1.65397,-1.654 1.49676,-4.9481 -0.31193,-6.5362 -0.74227,-0.6517 -1.13149,-0.7901 -2.22285,-0.7901 -1.6848,0 -2.48068,0.5244 -3.04715,2.0077 -1.1761,3.0796 0.60986,6.1909 3.55514,6.1934 0.95072,8e-4 1.30331,-0.1513 2.02679,-0.8748 z m -110.09136,-2.6172 c -7e-5,-2.3717 -0.0547,-4.5503 -0.12137,-4.8414 -0.11405,-0.4978 0.0147,-0.5291 2.1732,-0.5291 2.06434,0 2.36285,0.064 2.97656,0.6414 0.86878,0.817 0.91345,2.3145 0.11158,3.7412 l -0.57054,1.0152 0.67994,0.873 c 1.2365,1.5875 2.27782,2.5927 2.68588,2.5927 0.52814,0 0.77856,-0.5004 2.43539,-4.8664 1.44632,-3.8112 1.78009,-4.4167 2.19596,-3.9839 0.13282,0.1382 0.91753,1.9182 1.74379,3.9555 0.82626,2.0373 1.72814,4.0954 2.00417,4.5736 0.55457,0.9608 0.33179,1.2398 -0.85418,1.0697 -0.45632,-0.065 -0.72872,-0.4146 -1.09534,-1.4042 -0.67805,-1.8303 -0.86622,-1.9901 -2.34347,-1.9901 -1.16721,0 -1.32655,0.073 -1.59152,0.7276 -0.16196,0.4002 -0.36896,1.1443 -0.46001,1.6536 l -0.16555,0.9261 -1.61586,0.078 c -1.87021,0.09 -2.53017,-0.3196 -4.21722,-2.6178 -0.79685,-1.0855 -1.09859,-1.3108 -1.66742,-1.2448 -0.65707,0.076 -0.69399,0.159 -0.68481,1.5357 0.005,0.8004 0.0649,1.6338 0.13229,1.8521 0.0903,0.2925 -0.12394,0.4176 -0.81438,0.4757 l -0.93697,0.079 -1.2e-4,-4.3121 z m 12.97578,-0.1937 c 0.084,-0.1359 -0.0421,-0.7341 -0.28027,-1.3293 -0.33802,-0.8448 -0.50947,-1.0188 -0.78158,-0.7929 -0.4163,0.3455 -0.75518,1.7159 -0.51886,2.0983 0.20954,0.339 1.37505,0.3567 1.58071,0.024 z m -8.95737,-0.9486 c 0.93065,-1.4204 -0.18626,-3.693 -1.72692,-3.5138 -0.64306,0.075 -0.68655,0.1751 -0.76139,1.7561 -0.0904,1.9092 0.18506,2.4243 1.29629,2.4243 0.51519,0 0.89409,-0.2119 1.19202,-0.6666 z m 14.83321,0.6212 0.0442,-4.8494 1.67556,-0.084 c 4.73826,-0.2387 7.04276,1.1078 7.30483,4.2679 0.15234,1.8372 -0.56314,3.5266 -1.93817,4.5764 -0.9509,0.7261 -1.15823,0.7695 -4.06634,0.852 l -3.06434,0.087 z m 5.8299,3.4957 c 1.84149,-1.1229 2.23037,-4.034 0.79096,-5.9212 -0.81258,-1.0653 -2.58432,-1.8428 -3.91109,-1.7162 l -0.90192,0.086 -0.074,3.6914 c -0.0407,2.0303 -0.0146,3.846 0.0578,4.0349 0.21579,0.5624 3.02887,0.4405 4.03817,-0.1749 z m 22.70087,-4.3764 v -5.6885 l 2.11666,10e-4 c 3.32626,0 4.36737,0.9139 4.01778,3.5208 -0.16585,1.2367 -1.36958,2.5637 -2.32568,2.5637 -0.52538,0 -0.51962,-0.034 0.13655,-0.8142 0.96131,-1.1424 1.08787,-1.902 0.51277,-3.0776 -0.51185,-1.0463 -1.52939,-1.6158 -2.33479,-1.3068 -0.4095,0.1572 -0.44363,0.6603 -0.36169,5.3321 l 0.0905,5.1584 -0.92604,-2e-4 -0.92604,-10e-5 z m 6.74687,5.4108 c 0,-0.1527 0.16798,-0.6025 0.37328,-0.9995 0.20531,-0.397 0.98436,-2.3199 1.73123,-4.273 0.74687,-1.9532 1.4914,-3.712 1.65451,-3.9085 0.45891,-0.553 0.75865,-0.063 2.30626,3.7702 0.76377,1.8918 1.61655,3.8334 1.89504,4.3146 0.69233,1.1964 0.64413,1.374 -0.37299,1.374 -0.83005,0 -0.91729,-0.093 -1.55636,-1.6537 l -0.67701,-1.6536 -1.31142,-0.079 c -1.55705,-0.093 -1.80729,0.1317 -2.25822,2.03 -0.29134,1.2265 -0.39175,1.3558 -1.05318,1.3558 -0.40212,0 -0.73114,-0.125 -0.73114,-0.2778 z m 4.65497,-4.3216 c 0.19371,-0.5047 -0.64178,-2.4359 -0.92076,-2.1282 -0.35196,0.3882 -0.83228,2.0019 -0.67272,2.26 0.22971,0.3717 1.43865,0.2717 1.59348,-0.1318 z m 16.23719,4.483 c -0.005,-0.082 -0.0144,-2.2616 -0.0198,-4.8446 l -0.01,-4.6963 h 0.84929 0.84929 l 0.0305,4.3656 c 0.0167,2.4011 0.09,4.5442 0.16274,4.7625 0.0992,0.2975 -0.11607,0.4174 -0.8599,0.479 -0.5457,0.045 -0.99665,0.015 -1.00211,-0.066 z m 5.42465,-4.3028 c 0.005,-2.4444 -0.0503,-4.623 -0.12306,-4.8412 -0.1114,-0.3343 0.26459,-0.3969 2.38125,-0.3969 2.44882,0 2.51585,0.016 2.60293,0.6322 0.0785,0.555 0.0138,0.6082 -0.52916,0.4355 -2.31049,-0.7352 -2.94389,-0.3701 -2.81671,1.6237 l 0.0815,1.2773 1.53797,0.08 c 1.41563,0.073 1.53088,0.1261 1.44892,0.6614 -0.0555,0.3628 -0.236,0.5408 -0.47963,0.4732 -2.57758,-0.716 -2.9371,-0.1264 -2.32491,3.8126 0.0674,0.4336 -0.0867,0.5434 -0.85304,0.6079 l -0.93528,0.079 z m 7.80723,4.353 c -0.004,-0.036 -0.0337,-2.2445 -0.0661,-4.9069 l -0.0589,-4.8408 0.87586,0.078 0.87587,0.078 0.0502,4.8287 0.0502,4.8288 -0.85989,-10e-5 c -0.47294,-10e-5 -0.86314,-0.03 -0.86711,-0.066 z M 674.02588,1632.222 c -0.72761,-0.2021 -1.3918,-0.3726 -1.476,-0.379 -0.64031,-0.049 -2.7632,-1.8723 -3.3583,-2.8847 l -0.72195,-1.2281 v -7.8052 -7.8052 h 1.4552 1.45521 l 0.13229,7.5407 c 0.13045,7.4356 0.14114,7.553 0.76758,8.4313 0.91899,1.2885 2.40518,1.8746 4.77129,1.8816 2.4302,0.01 3.95233,-0.6423 4.83605,-2.0635 0.58351,-0.9384 0.61005,-1.24 0.73758,-8.3817 l 0.1323,-7.4084 h 1.4552 1.45521 v 7.6729 c 0,7.3756 -0.0223,7.7147 -0.57615,8.7493 -0.81068,1.5146 -2.40683,2.8653 -4.16166,3.5219 -1.76929,0.662 -4.83623,0.7322 -6.90385,0.1581 z m 50.23517,0.021 c -1.67464,-0.5515 -2.23973,-0.8994 -3.60236,-2.2181 -1.45518,-1.4082 -1.56369,-1.9899 -0.47616,-2.5522 1.16261,-0.6012 1.65688,-0.5011 2.63241,0.5331 1.25472,1.3303 2.65581,1.9736 4.29811,1.9736 2.61949,0 4.59698,-1.5438 4.25683,-3.3232 -0.18041,-0.9437 -1.95692,-2.4367 -5.28464,-4.4411 -3.57666,-2.1544 -4.6664,-3.1335 -5.10068,-4.583 -0.50673,-1.6913 -0.15174,-2.9354 1.21065,-4.2429 1.40582,-1.3491 2.76804,-1.798 5.40879,-1.7826 2.29064,0.013 4.1806,0.7431 5.9481,2.2966 1.19429,1.0497 1.10941,1.3927 -0.53812,2.1745 l -0.91567,0.4345 -1.47925,-1.0593 c -1.8198,-1.3031 -3.22522,-1.5777 -4.81635,-0.9411 -1.77555,0.7105 -2.12308,1.8863 -0.96448,3.2632 0.3706,0.4404 2.00712,1.5509 3.63671,2.4677 6.28945,3.5384 7.95512,6.7072 5.18444,9.8628 -1.34156,1.5279 -3.38229,2.3496 -6.03399,2.4294 -1.38677,0.042 -2.69611,-0.072 -3.36434,-0.2919 z m 24.86916,-0.1047 c -4.02761,-1.0255 -7.10937,-3.3153 -8.49352,-6.3108 -0.97441,-2.1087 -1.02016,-5.3627 -0.10413,-7.4055 0.77931,-1.7379 3.48679,-4.3749 5.3792,-5.2391 5.89165,-2.6906 13.81285,-2.0469 18.20047,1.4791 0.58443,0.4696 1.0626,1.0028 1.0626,1.1849 0,0.3498 -1.57302,1.4325 -2.08114,1.4325 -0.16438,0 -0.88859,-0.4237 -1.60935,-0.9415 -1.87389,-1.3462 -3.96104,-2.0126 -6.79363,-2.1689 -7.57701,-0.4182 -12.87043,4.3489 -11.16176,10.052 0.173,0.5774 0.82966,1.6227 1.45926,2.323 2.24091,2.4924 4.99312,3.5416 9.20641,3.5096 3.05402,-0.023 4.94953,-0.5699 7.2383,-2.0877 1.52682,-1.0125 2.04492,-1.0311 3.21275,-0.1151 0.52003,0.408 0.60292,0.6136 0.38768,0.9619 -0.43744,0.7078 -3.53367,2.4577 -5.41072,3.058 -2.4821,0.7938 -7.88469,0.9316 -10.49242,0.2676 z m -97.06475,-0.1309 c -1.64327,-0.5405 -2.28281,-0.9356 -3.63802,-2.2471 -1.45518,-1.4082 -1.56369,-1.9898 -0.47616,-2.5522 1.16409,-0.602 1.56273,-0.5066 2.67611,0.6407 1.36389,1.4054 2.3749,1.8832 4.02407,1.9016 3.66484,0.041 5.59549,-2.3887 3.65456,-4.5993 -0.424,-0.4829 -2.40603,-1.8861 -4.40453,-3.1181 -3.81102,-2.3494 -4.98164,-3.4904 -5.29505,-5.161 -0.66792,-3.5603 3.59193,-6.3582 8.24669,-5.4165 2.21731,0.4487 5.1342,2.3099 5.1342,3.2761 0,0.3767 -1.52276,1.4895 -2.03832,1.4895 -0.14085,0 -0.82722,-0.445 -1.52528,-0.9889 -1.14797,-0.8943 -1.44906,-0.9978 -3.15227,-1.0832 -1.61716,-0.081 -1.98583,-0.014 -2.61069,0.4788 -0.53489,0.4215 -0.7276,0.8081 -0.7276,1.4598 0,1.207 0.88969,2.0287 4.2632,3.9372 4.29924,2.4323 5.87942,3.9122 6.34225,5.9399 0.49022,2.1477 -0.99242,4.5066 -3.53006,5.6162 -1.69438,0.7409 -5.31185,0.9632 -6.9431,0.4265 z m 40.99874,-0.2432 c -0.07,-0.1826 -0.0961,-4.6756 -0.0578,-9.9845 0.0631,-8.7663 0.11002,-9.6604 0.51061,-9.7374 0.41994,-0.081 2.21034,1.424 10.95514,9.2076 5.11556,4.5533 5.44974,4.8217 5.69721,4.5742 0.12509,-0.1251 0.2593,-3.2597 0.29825,-6.9658 l 0.0708,-6.7383 h 1.4552 1.45521 v 9.9183 c 0,9.3304 -0.0281,9.9236 -0.47494,10.0097 -0.29839,0.057 -1.2819,-0.637 -2.64583,-1.8683 -5.08039,-4.5864 -13.45006,-11.842 -13.6603,-11.842 -0.48967,0 -0.57988,1.1333 -0.54734,6.8763 0.0186,3.2758 0.0257,6.1644 0.016,6.419 -0.0147,0.3831 -0.27062,0.4631 -1.48128,0.4631 -0.92946,0 -1.50999,-0.1211 -1.59087,-0.3319 z m 76.60855,0.012 c 0,-0.1895 1.02036,-1.9926 2.26747,-4.0069 1.2471,-2.0142 2.20569,-3.8232 2.13019,-4.0199 -0.0881,-0.2296 -0.68702,-0.3863 -1.67216,-0.4375 l -1.53488,-0.08 1.32292,-0.4315 c 0.72761,-0.2374 1.8024,-0.5616 2.38844,-0.7206 1.02178,-0.2771 1.18885,-0.4908 4.0696,-5.2047 2.48431,-4.0652 3.09843,-4.9018 3.54939,-4.8357 0.39515,0.058 1.51816,1.683 4.07803,5.9009 1.94299,3.2014 3.7288,5.9696 3.96846,6.1515 0.23967,0.1819 0.74043,0.3345 1.1128,0.3392 0.61934,0.01 0.63757,0.038 0.21401,0.3599 -0.25466,0.1933 -0.46302,0.5115 -0.46302,0.7071 0,0.1956 0.77391,1.6254 1.71979,3.1773 0.94589,1.5519 1.71979,2.9563 1.71979,3.1209 0,0.1891 -0.58007,0.2993 -1.5761,0.2993 h -1.5761 l -1.26817,-1.9871 c -0.69749,-1.0929 -1.62536,-2.5829 -2.06192,-3.311 -0.43656,-0.7281 -1.03187,-1.3743 -1.32292,-1.4359 -0.29104,-0.062 -2.01744,-0.3587 -3.83645,-0.6602 -1.81901,-0.3015 -3.61973,-0.6176 -4.0016,-0.7025 -0.86974,-0.1934 -0.82127,-0.2504 -3.62106,4.2602 l -2.29922,3.7042 -1.65364,0.079 c -1.22251,0.058 -1.65365,-0.011 -1.65365,-0.2659 z m 15.61042,-9.2349 c 0,-0.3922 -2.59093,-4.668 -2.97087,-4.9028 -0.30796,-0.1903 -0.47788,8e-4 -1.79802,2.0218 -1.15988,1.7756 -1.07299,2.0118 0.86628,2.3547 0.90951,0.1608 2.01084,0.4009 2.4474,0.5335 1.10465,0.3358 1.45521,0.334 1.45521,-0.01 z m 15.52335,9.18 c -0.20352,-0.5304 -0.22556,-18.7718 -0.0233,-19.2988 0.14602,-0.3805 0.73648,-0.4349 4.70275,-0.4332 7.8306,0 10.15132,0.7695 11.40229,3.7635 0.56785,1.359 0.5121,2.5339 -0.18581,3.9154 -1.16632,2.3087 -3.34278,3.1325 -8.8683,3.3566 -4.50286,0.1826 -4.19252,-0.2002 -3.93662,4.856 0.094,1.858 0.0987,3.5664 0.0104,3.7965 -0.21576,0.5622 -2.888,0.6001 -3.10142,0.044 z m 11.0383,-11.635 c 1.28514,-0.537 2.01335,-1.4331 2.01335,-2.4777 0,-2.296 -1.4083,-2.9615 -6.28386,-2.9696 l -3.50573,-0.01 v 2.9104 2.9104 h 3.44808 c 2.34491,0 3.72966,-0.1176 4.32816,-0.3677 z m 10.66044,11.837 c -0.25605,-0.256 -0.21709,-19.204 0.0403,-19.6095 0.16505,-0.26 1.8668,-0.3192 7.60272,-0.2646 l 7.39008,0.07 0.0811,0.9749 c 0.0603,0.7253 -0.0413,1.0399 -0.39688,1.2288 -0.26288,0.1397 -2.90937,0.2721 -5.88108,0.2943 -2.97171,0.022 -5.50179,0.1013 -5.62239,0.1759 -0.25161,0.1555 -0.30051,4.0826 -0.0587,4.7128 0.13544,0.353 0.71851,0.4185 3.72156,0.4185 1.95853,0 3.79126,0.1233 4.07274,0.2739 0.58002,0.3104 0.69737,1.5514 0.19427,2.0545 -0.21599,0.216 -1.47447,0.3175 -3.93636,0.3175 -2.77059,0 -3.69055,0.086 -3.92476,0.3686 -0.20248,0.2439 -0.28053,1.3845 -0.23083,3.3734 l 0.0751,3.0048 5.74211,0.1323 c 3.72558,0.086 5.84622,0.2367 6.03855,0.4294 0.16303,0.1634 0.25799,0.6992 0.211,1.1906 l -0.0854,0.8936 -7.42634,0.07 c -4.08449,0.039 -7.50754,-0.011 -7.60677,-0.1103 z m 17.72305,-17.2019 c -0.097,-0.097 -0.1764,-0.4542 -0.1764,-0.7938 0,-0.441 0.15119,-0.6173 0.52917,-0.6173 0.41159,0 0.52917,0.1763 0.52917,0.7937 0,0.7464 -0.44286,1.0564 -0.88194,0.6174 z m -111.04502,-12.6658 c -0.65054,-0.7839 0.54879,-5.8451 1.76888,-7.4649 0.65678,-0.8719 1.86793,-1.6534 2.56251,-1.6534 0.77353,0 1.5,0.9304 1.73654,2.224 0.47378,2.591 -1.03989,5.2752 -3.73105,6.6162 -1.59716,0.7959 -1.87924,0.8295 -2.33688,0.2781 z m 23.15925,-1.1508 c -2.30246,-0.6693 -3.21753,-1.2285 -4.03602,-2.4664 -0.58392,-0.8831 -0.72475,-1.3956 -0.71765,-2.612 l 0.009,-1.5132 h -0.84479 c -0.60364,0 -0.88183,0.1416 -0.97458,0.4963 -0.0714,0.273 -0.46911,0.6426 -0.88383,0.8214 -0.41473,0.1788 -0.96704,0.5388 -1.22737,0.8001 -0.50347,0.5053 -1.90283,0.6468 -2.16715,0.2192 -0.087,-0.1408 -0.49469,-0.1886 -0.906,-0.1064 -0.58011,0.116 -0.93059,-0.019 -1.56273,-0.604 -0.44819,-0.4144 -1.00002,-0.907 -1.22628,-1.0947 -0.53023,-0.4397 -0.52304,-0.8232 0.0193,-1.0313 0.27209,-0.1044 0.5928,0.049 0.87077,0.4181 0.27188,0.3604 0.60065,0.5217 0.86033,0.422 0.2672,-0.1025 0.61698,0.089 0.96026,0.5252 l 0.53997,0.6865 0.88095,-0.5371 c 0.48452,-0.2954 1.06107,-0.5376 1.28123,-0.5381 0.22015,-5e-4 0.52217,-0.2689 0.67114,-0.5963 0.28006,-0.6155 0.38718,-0.6431 1.35606,-0.3497 0.45657,0.1383 0.59318,0.055 0.66146,-0.4055 0.19315,-1.3014 1.74565,-1.3175 2.06442,-0.021 0.10455,0.425 0.23517,0.5006 0.53518,0.3097 0.21828,-0.1389 0.86525,-0.2544 1.4377,-0.2567 0.90055,0 1.20738,0.1688 2.27656,1.278 1.88878,1.9596 3.3363,5.4145 2.62675,6.2695 -0.39111,0.4712 -0.5132,0.4657 -2.50455,-0.1132 z m -11.12452,-0.4148 c -0.78661,-0.7866 -0.83537,-1.8105 -0.12027,-2.5256 1.02717,-1.0272 1.85208,-0.4817 1.85208,1.2247 0,0.6643 -0.16889,1.2877 -0.41577,1.5345 -0.53569,0.5357 -0.54907,0.5334 -1.31604,-0.2336 z m -0.71918,-6.1389 c -1.4551,-0.4085 -1.67427,-4.1273 -0.29645,-5.0301 0.88563,-0.5803 2.39825,-0.8689 3.25935,-0.6219 0.67464,0.1934 0.76298,0.1367 1.00256,-0.6439 0.43866,-1.4293 1.97916,-3.5516 2.78082,-3.8311 l 0.73919,-0.2576 -0.53187,-0.8724 c -0.71804,-1.1777 -0.6784,-2.2071 0.11558,-3.0011 0.75985,-0.7598 1.42225,-0.8061 3.20603,-0.2237 1.38977,0.4536 2.22995,1.1895 2.22995,1.9529 0,0.8291 -1.33337,3.4099 -1.8458,3.5725 -0.27314,0.087 -0.93446,-0.025 -1.46961,-0.2489 -0.91044,-0.3804 -0.96051,-0.3769 -0.77864,0.054 0.10691,0.2535 0.25334,1.0889 0.32541,1.8563 0.11928,1.2701 0.0447,1.5254 -0.83099,2.8443 -0.7243,1.0909 -1.12014,1.4489 -1.60188,1.4489 -0.6934,0 -1.47141,-0.6224 -1.47141,-1.1771 0,-0.1901 -0.15975,-0.4782 -0.355,-0.6402 -0.28739,-0.2385 -0.35833,-0.075 -0.37246,0.8596 -0.0381,2.5221 -2.10884,4.5192 -4.10478,3.959 z m -4.83913,-0.7142 c -0.27261,-1.0862 -0.0472,-1.6256 0.67916,-1.6256 0.59109,0 0.65784,0.1074 0.65784,1.0583 0,0.8911 -0.0926,1.0715 -0.58596,1.1417 -0.43807,0.062 -0.62763,-0.083 -0.75104,-0.5744 z m 12.46081,-1.32 c -0.59511,-0.4352 -0.25202,-1.2316 0.53055,-1.2316 0.71273,0 0.98072,0.3103 0.76146,0.8817 -0.21863,0.5697 -0.78252,0.7224 -1.29201,0.3499 z m -14.27991,-0.3245 c -0.53385,-0.5339 -0.53495,-1.4072 -0.002,-1.6117 0.55598,-0.2133 1.70292,0.3337 1.70292,0.8123 0,0.418 -0.69423,1.2152 -1.05833,1.2152 -0.12474,0 -0.41389,-0.1871 -0.64256,-0.4158 z m 2.93393,-0.677 c -0.57488,-0.3342 -2.02628,-3.2833 -2.02658,-4.1178 -2.3e-4,-0.6458 0.90561,-1.404 1.67738,-1.404 0.27583,0 0.88719,0.3274 1.35857,0.7276 0.47138,0.4002 1.11218,0.9348 1.42399,1.188 0.77508,0.6295 0.71192,1.3502 -0.23953,2.7331 -0.81702,1.1875 -1.31326,1.385 -2.19383,0.8731 z m 12.97743,-0.66 c -0.37375,-0.3737 -0.17502,-1.1457 0.37002,-1.4374 0.69518,-0.3721 1.10827,-0.018 0.98618,0.8445 -0.0872,0.6164 -0.95389,0.9953 -1.3562,0.5929 z m -17.86172,-1.2106 c -0.17462,-0.1746 -0.32129,-0.6211 -0.32591,-0.9922 -0.005,-0.371 -0.18323,-0.9058 -0.39688,-1.1882 -0.42367,-0.5602 -0.52006,-1.6228 -0.167,-1.841 0.36703,-0.2269 1.36604,0.6285 1.36604,1.1696 0,0.2777 0.22355,0.6245 0.49679,0.7708 0.57718,0.3089 0.84836,1.3662 0.50688,1.9764 -0.2792,0.4989 -1.03238,0.5522 -1.47992,0.1046 z m 19.04483,-1.0715 c 0.0465,-0.3275 0.33815,-0.7067 0.6481,-0.8428 0.46649,-0.2049 0.54137,-0.413 0.43475,-1.2079 -0.10926,-0.8146 -0.0252,-1.0282 0.554,-1.4077 0.56296,-0.3688 0.65502,-0.5863 0.52449,-1.2389 -0.17825,-0.8913 0.24684,-1.5866 0.97,-1.5866 0.90139,0 1.0509,1.3235 0.23535,2.0833 -0.38825,0.3617 -0.50057,0.6858 -0.37493,1.0816 0.21023,0.6624 -0.47351,1.8622 -1.06123,1.8622 -0.23138,0 -0.39078,0.2482 -0.39078,0.6085 0,0.7367 -0.4605,1.2436 -1.12965,1.2436 -0.36163,0 -0.47191,-0.1601 -0.4101,-0.5953 z m -9.82603,-1.0644 c -0.82954,-0.4198 -2.0613,-2.1935 -2.27666,-3.2783 -0.22744,-1.1456 0.0305,-1.8024 0.85549,-2.1783 0.80809,-0.3682 0.62134,-0.6288 -0.7688,-1.073 -0.54343,-0.1736 -1.2168,-0.6065 -1.49638,-0.9619 -0.5044,-0.6413 -0.5029,-0.6631 0.1943,-2.8251 0.54754,-1.698 0.94567,-2.4235 1.80378,-3.287 1.4508,-1.46 2.56201,-1.6868 4.10111,-0.8372 1.48479,0.8197 2.26058,2.0244 2.49091,3.8678 0.24213,1.938 -0.33349,3.096 -1.9934,4.0104 l -1.17939,0.6496 0.73328,0.1961 c 1.74528,0.4668 1.91027,1.4304 0.66992,3.9125 -1.00371,2.0086 -1.81151,2.4737 -3.13416,1.8044 z m -8.14724,-1.918 c -0.32742,-0.2316 -0.59531,-0.5769 -0.59531,-0.7673 0,-0.1904 -0.23812,-0.6489 -0.52917,-1.0189 -0.7081,-0.9002 -0.66662,-1.682 0.14576,-2.7471 l 0.67492,-0.8848 h -0.77481 c -0.42615,0 -0.91258,-0.166 -1.08095,-0.3689 -0.46831,-0.5643 -0.66579,-2.8937 -0.30281,-3.5719 0.43581,-0.8143 1.83819,-1.6133 2.83371,-1.6145 0.80057,0 0.83962,-0.052 0.96432,-1.2578 0.0715,-0.6912 0.17226,-1.4948 0.22397,-1.7858 0.0681,-0.3831 -0.0701,-0.5524 -0.50129,-0.6137 -0.48616,-0.069 -0.59532,0.041 -0.59532,0.6018 0,0.5481 -0.15693,0.7179 -0.77832,0.8421 -0.55018,0.1101 -0.85636,0.3796 -1.04457,0.9195 -0.28727,0.824 -1.25086,1.0709 -1.51308,0.3875 -0.21552,-0.5616 0.3727,-1.4758 0.9496,-1.4758 0.2907,0 0.65311,-0.3092 0.85306,-0.7277 0.19615,-0.4105 0.60598,-0.7644 0.94048,-0.8121 0.32606,-0.046 0.59283,-0.2502 0.59283,-0.4527 0,-0.4985 1.05213,-1.4471 1.605,-1.4471 0.24578,0 0.5951,-0.1786 0.77625,-0.3969 0.43875,-0.5287 1.29803,-0.505 1.50774,0.042 0.27494,0.7165 -0.50979,1.8248 -1.21981,1.7228 -0.38914,-0.056 -0.57215,0.029 -0.50401,0.2333 0.0588,0.1765 0.48846,0.351 0.95471,0.3876 1.23348,0.097 2.17179,0.7989 2.17179,1.6245 0,0.8856 -1.50829,2.3377 -2.66929,2.5699 l -0.85841,0.1717 0.57323,0.6101 c 0.31527,0.3356 0.57322,0.8151 0.57322,1.0655 0,0.7202 -0.75377,1.6837 -1.80015,2.3011 l -0.96301,0.5682 0.91069,0.3829 c 1.13037,0.4753 1.79216,1.0628 2.29728,2.0396 0.50265,0.9721 0.11731,1.9988 -1.09802,2.9258 -1.1715,0.8936 -1.99631,1.0596 -2.72023,0.5476 z m -3.23184,-0.9028 c -0.72196,-1.349 0.10725,-2.3997 1.10579,-1.4012 0.39397,0.394 0.4949,0.729 0.3698,1.2274 -0.20723,0.8257 -1.07219,0.9275 -1.47559,0.1738 z m -1.007,-2.4439 c -0.48833,-0.4883 -0.41198,-2.0548 0.10992,-2.255 0.60006,-0.2303 1.19429,0.6555 1.09787,1.6366 -0.0838,0.8531 -0.67197,1.1542 -1.20779,0.6184 z m 25.39228,-1.066 c -0.42501,-0.425 -0.40161,-1.3185 0.0507,-1.9371 0.31288,-0.4279 0.43223,-0.4505 0.79375,-0.1504 0.48824,0.4052 0.54808,1.1524 0.15162,1.8932 -0.31681,0.592 -0.55246,0.6379 -0.99611,0.1943 z m -25.67697,-2.3937 c -0.41573,-0.4157 -0.38305,-0.8635 0.0918,-1.2576 0.31663,-0.2628 0.47712,-0.2628 0.79375,0 0.53751,0.4461 0.49953,0.9848 -0.0918,1.3012 -0.33619,0.18 -0.58382,0.1664 -0.79375,-0.044 z m 20.53169,0.077 c -1.25609,-0.2437 -2.05174,-0.9572 -2.05012,-1.8383 10e-4,-0.7105 1.56328,-2.671 2.12807,-2.671 0.59775,0 2.04104,0.8314 2.77715,1.5997 0.92049,0.9608 1.04583,0.9645 1.83467,0.054 0.77525,-0.8949 1.27602,-0.5637 1.14947,0.7601 -0.0737,0.771 -0.17735,0.8878 -0.7559,0.8515 -0.48695,-0.031 -0.7914,0.1687 -1.11218,0.7276 -0.39614,0.6903 -0.57256,0.7665 -1.71076,0.7392 -0.69799,-0.017 -1.71517,-0.117 -2.2604,-0.2228 z m -20.04685,-2.7941 c -0.25939,-0.3125 -0.26893,-0.5608 -0.0408,-1.0616 0.41864,-0.9188 1.1029,-0.852 1.1029,0.1078 0,0.9917 -0.59057,1.522 -1.06213,0.9538 z m 23.62791,-1.2434 c -0.1473,-0.1867 -0.34222,-0.6517 -0.43316,-1.0333 -0.12025,-0.5047 -0.38425,-0.7377 -0.96803,-0.8544 -0.62834,-0.1257 -0.83742,-0.3342 -0.96255,-0.9598 -0.12401,-0.6201 -0.30074,-0.7993 -0.78824,-0.7993 -0.94826,0 -1.03071,0.073 -0.96009,0.8453 0.11785,1.2894 -0.35461,2.0651 -1.25774,2.0651 -3.20303,0 -4.48217,-3.3676 -1.54379,-4.0644 0.64145,-0.1521 0.67631,-0.2239 0.39687,-0.8171 -0.23817,-0.5056 -0.54185,-0.6678 -1.36468,-0.7287 -0.83466,-0.062 -1.07477,-0.1932 -1.13612,-0.6221 -0.0428,-0.299 0.16762,-0.7658 0.46758,-1.0373 0.53496,-0.4841 0.55917,-0.4804 1.26842,0.1964 0.56226,0.5364 0.82703,0.6312 1.19068,0.4262 0.36835,-0.2076 0.63284,-0.098 1.24565,0.5144 0.42791,0.4279 1.09304,0.8571 1.47808,0.9537 0.44676,0.1122 0.80685,0.4586 0.99517,0.9575 0.19665,0.521 0.47877,0.7819 0.84564,0.7819 0.67287,0 1.18553,0.4759 1.18553,1.1005 0,0.256 0.30726,0.7504 0.6828,1.0987 0.48941,0.4538 0.65802,0.8444 0.59531,1.3793 -0.0979,0.8351 -0.53178,1.1116 -0.93733,0.5974 z m -4.8387,-5.1176 c 0,-0.4437 -0.23798,-0.4775 -0.79375,-0.1126 -0.34538,0.2267 -0.34702,0.2926 -0.0126,0.5076 0.46112,0.2966 0.80639,0.1275 0.80639,-0.395 z m 8.78515,4.8765 c -2.41321,-1.1945 -3.19411,-3.5956 -1.69228,-5.2033 1.92432,-2.06 5.14166,-1.3598 8.05285,1.7525 1.28067,1.3691 1.78998,2.5298 1.31742,3.0024 -0.39938,0.3994 -3.40486,0.9915 -5.08605,1.002 -0.96649,0.01 -1.83698,-0.1799 -2.59194,-0.5536 z m -34.71431,-0.01 c -0.50933,-0.1413 -1.37253,-0.3733 -1.91823,-0.5155 -0.86707,-0.226 -0.99219,-0.3582 -0.99219,-1.0481 0,-1.8038 3.83564,-4.6885 6.56294,-4.9358 1.51336,-0.1373 1.59863,-0.1104 2.64203,0.8322 1.25469,1.1336 1.58135,2.1679 1.02341,3.2405 -1.2042,2.315 -4.17237,3.2993 -7.31796,2.4267 z m 18.1901,-2.8916 c -0.71092,-0.4141 -0.56672,-1.5217 0.30399,-2.3351 0.69043,-0.6449 0.75304,-0.8405 0.62705,-1.9582 -0.13235,-1.1742 -0.1053,-1.2418 0.49703,-1.2418 0.75328,0 1.81308,0.6808 1.81308,1.1647 0,0.1874 -0.23998,0.558 -0.53328,0.8234 l -0.53327,0.4826 0.53327,0.5677 c 0.79324,0.8443 0.67748,1.644 -0.32662,2.2562 -0.94751,0.5777 -1.67597,0.6513 -2.38125,0.2405 z m -1.73302,-3.2067 c -0.42511,-0.4251 -0.40171,-1.1354 0.0498,-1.51 0.44266,-0.3674 1.63192,0.081 1.87171,0.7062 0.34147,0.8899 -1.19336,1.5319 -1.92147,0.8038 z m 2.79765,-3.6416 c -1.36625,-1.0747 -2.54171,-5.349 -2.20723,-8.0261 0.3412,-2.7309 2.22748,-4.7808 4.70612,-5.1144 1.16777,-0.1571 1.30679,-0.1096 2.15221,0.7358 1.51798,1.518 1.81867,4.692 0.65729,6.9384 -0.5661,1.095 -3.46915,5.3293 -3.87714,5.6551 -0.54658,0.4364 -0.65461,0.4221 -1.43125,-0.1888 z m 3.76402,-8.8732 c 0,-0.2183 -0.11204,-0.3969 -0.24897,-0.3969 -0.33364,0 -0.57259,0.4132 -0.3612,0.6246 0.29797,0.2979 0.61017,0.1814 0.61017,-0.2277 z"
         id="path4489"
         inkscape:connector-curvature="0" />
      <path
         style="fill:#000000;stroke-width:0.26458332"
         d="m 722.04775,1666.8886 c 0,-1.9646 0.10166,-3.5719 0.22592,-3.5719 0.26331,0 0.67194,6.4967 0.43296,6.8833 -0.48885,0.791 -0.65888,-0.063 -0.65888,-3.3114 z m 3.43958,3.4002 c 0,-0.094 0.53578,-0.8225 1.19063,-1.6179 0.65484,-0.7954 1.19062,-1.6196 1.19062,-1.8314 0,-0.2118 -0.47625,-0.95 -1.05833,-1.6403 -1.01387,-1.2024 -1.31488,-1.8825 -0.83316,-1.8825 0.12385,0 0.79493,0.6185 1.4913,1.3745 l 1.26613,1.3745 1.22068,-1.3797 c 0.67137,-0.7589 1.30997,-1.3774 1.41911,-1.3745 0.43566,0.012 0.14757,0.6548 -0.85989,1.9201 -0.58209,0.7311 -1.05834,1.4633 -1.05834,1.6273 0,0.1639 0.53578,0.9512 1.19063,1.7495 0.65484,0.7983 1.19062,1.5416 1.19062,1.6517 0,0.5492 -0.78865,0.06 -1.91404,-1.1886 l -1.25259,-1.3892 -1.26095,1.3943 c -1.10789,1.2251 -1.92242,1.7387 -1.92242,1.2122 z m 11.10845,-2.6726 c -0.002,-1.5644 -0.0931,-2.9843 -0.20187,-3.1553 -0.1088,-0.1711 -0.67252,-0.3497 -1.25272,-0.3969 -0.58019,-0.047 -1.0549,-0.2049 -1.0549,-0.3504 0,-0.1553 1.17455,-0.2956 2.84427,-0.3397 2.3655,-0.062 2.84427,-0.01 2.84427,0.3155 0,0.2704 -0.34608,0.4157 -1.12448,0.472 l -1.12447,0.081 -0.0746,3.1089 c -0.0605,2.5233 -0.14771,3.1089 -0.46302,3.1089 -0.31724,0 -0.38922,-0.5216 -0.39253,-2.8443 z m 4.23739,2.5209 c 0,-0.4836 2.38958,-6.1056 2.76399,-6.503 0.26585,-0.2821 0.37711,-0.2802 0.6184,0.011 0.2607,0.3141 2.96761,6.4319 2.96761,6.7069 0,0.06 -0.14883,0.1085 -0.33073,0.1081 -0.1819,-2e-4 -0.56886,-0.4468 -0.8599,-0.9921 -0.45416,-0.851 -0.67561,-1.0035 -1.56228,-1.0761 -1.57092,-0.1285 -2.12644,0.1126 -2.61384,1.1347 -0.43576,0.9138 -0.98325,1.254 -0.98325,0.6109 z m 3.96875,-2.9715 c 0,-0.6284 -0.59008,-1.7322 -0.92605,-1.7322 -0.33596,0 -0.92604,1.1038 -0.92604,1.7322 0,0.263 0.29261,0.3844 0.92604,0.3844 0.63344,0 0.92605,-0.1214 0.92605,-0.3844 z m 4.9444,3.124 c -0.2244,-0.2244 -0.2431,-5.9764 -0.0213,-6.5544 0.11839,-0.3085 0.52784,-0.4185 1.55818,-0.4185 1.6305,0 2.43469,0.5199 2.66672,1.724 0.18814,0.9763 -0.69095,2.2429 -1.56044,2.2484 -1.47554,0.01 -1.73693,0.2472 -1.82,1.6567 -0.0736,1.249 -0.39435,1.7726 -0.82316,1.3438 z m 2.94018,-4.1154 c 0.43396,-0.434 0.39962,-1.4016 -0.0634,-1.7859 -0.20948,-0.1738 -0.71549,-0.2777 -1.12448,-0.2308 -0.66963,0.077 -0.75169,0.1971 -0.82496,1.2097 -0.0807,1.1158 -0.0745,1.1245 0.80698,1.1245 0.48859,0 1.03121,-0.1429 1.20584,-0.3175 z m 2.43417,3.949 c 0,-0.5 2.37641,-6.0892 2.75902,-6.4891 0.27009,-0.2822 0.37902,-0.2822 0.60713,0 0.26089,0.3229 2.98385,6.4414 2.98385,6.7048 0,0.067 -0.18479,0.1216 -0.41064,0.1216 -0.22585,0 -0.53603,-0.3598 -0.68929,-0.7994 -0.3398,-0.9747 -0.93049,-1.3186 -2.25612,-1.3133 -1.23165,0 -1.47516,0.1547 -2.03779,1.2528 -0.44412,0.8667 -0.95616,1.1466 -0.95616,0.5226 z m 3.96875,-2.9576 c 0,-0.6284 -0.59008,-1.7322 -0.92605,-1.7322 -0.33596,0 -0.92604,1.1038 -0.92604,1.7322 0,0.263 0.29261,0.3844 0.92604,0.3844 0.63344,0 0.92605,-0.1214 0.92605,-0.3844 z m 6.90584,-13.1236 c -3.3103,-0.6717 -4.90667,-3.8966 -3.40011,-6.8689 0.36242,-0.715 0.95758,-1.3757 1.52135,-1.6887 l 0.92604,-0.5143 -0.71077,0.7728 c -1.8126,1.9707 -1.65529,5.0375 0.35429,6.9067 1.1678,1.0862 3.53647,1.5121 4.76216,0.8561 0.29394,-0.1573 0.6056,-0.2149 0.69257,-0.1279 0.58385,0.5838 -2.28003,1.0427 -4.14553,0.6642 z m -91.7125,-5.4092 0.008,-5.4234 0.66146,-8e-4 0.66146,-8e-4 -0.0828,4.9221 c -0.0732,4.3545 -0.0304,4.9799 0.37174,5.4242 0.43909,0.4852 0.41917,0.5023 -0.58636,0.5023 h -1.0409 l 0.008,-5.4235 z m 13.8942,4.9336 c -2.6331,-1.3993 -3.10604,-5.3307 -0.89863,-7.4702 1.07341,-1.0404 1.50512,-0.8521 0.57654,0.2514 -1.71699,2.0406 -0.86033,5.8705 1.60428,7.1724 0.89159,0.471 0.91653,0.5139 0.30531,0.5246 -0.36608,0.01 -1.08045,-0.2088 -1.5875,-0.4782 z m 10.45517,-4.1302 c 0,-4.5261 0.0135,-4.6398 0.55155,-4.64 0.52325,-3e-4 0.54528,0.1082 0.42913,2.1145 -0.0847,1.4634 -0.0205,2.2377 0.20845,2.5136 0.26025,0.3136 0.26217,0.4814 0.009,0.7865 -0.20209,0.2435 -0.28798,1.0065 -0.23084,2.0505 0.082,1.497 0.0383,1.6703 -0.43815,1.7387 -0.51194,0.073 -0.52917,-0.075 -0.52917,-4.5638 z m 5.7603,4.1571 c -0.79422,-0.7127 -2.7176,-3.1502 -2.7176,-3.4441 0,-0.1439 0.24967,-0.4275 0.55482,-0.6301 0.38062,-0.2527 0.5972,-0.7443 0.68979,-1.5658 0.11547,-1.0245 0.0319,-1.3199 -0.57834,-2.0451 l -0.71331,-0.8477 h 0.64398 c 0.35418,0 0.84101,0.2177 1.08185,0.4838 0.61631,0.681 0.56711,2.4555 -0.0913,3.2925 -0.29104,0.37 -0.52916,0.8607 -0.52916,1.0905 0,0.2297 0.65484,1.1896 1.45521,2.1331 0.80036,0.9434 1.4552,1.7785 1.4552,1.8556 0,0.31 -0.76623,0.1124 -1.25115,-0.3227 z m 2.63714,0.1591 c 1.32203,-3.3699 3.07079,-7.8715 3.19675,-8.2289 0.0897,-0.2547 0.27298,-0.463 0.40721,-0.463 0.13424,0 0.86571,1.518 1.62551,3.3734 1.21737,2.9728 1.99265,4.7835 2.32233,5.4239 0.0562,0.1092 -0.14472,0.1985 -0.44644,0.1985 -0.41881,0 -0.73304,-0.4068 -1.32837,-1.7198 -0.42888,-0.9459 -0.90859,-1.7198 -1.06601,-1.7198 -0.15857,0 -0.22881,-0.2655 -0.1575,-0.5953 0.16819,-0.7779 -0.6899,-2.9766 -1.16166,-2.9766 -0.40583,0 -1.33527,2.445 -1.13527,2.9864 0.0692,0.1874 -0.0856,0.5742 -0.34402,0.8598 -0.2584,0.2855 -0.61327,1.0847 -0.78858,1.7761 -0.21175,0.8349 -0.47748,1.2881 -0.7915,1.3499 -0.31116,0.061 -0.42478,-0.029 -0.33245,-0.2646 z m 10.50792,0.1054 c -0.007,-0.1091 -0.012,-2.1629 -0.0115,-4.564 7.9e-4,-4.3526 0.003,-4.3659 0.60765,-4.4433 l 0.60681,-0.078 -0.0851,4.1369 c -0.0746,3.6233 -0.0284,4.1996 0.37174,4.6418 0.4416,0.4879 0.42456,0.5048 -0.51019,0.5048 -0.53187,0 -0.9726,-0.089 -0.97939,-0.1985 z m 12.84464,-0.1726 c -1.97661,-0.8725 -3.05397,-3.7173 -2.23274,-5.8955 0.28544,-0.7572 1.77108,-2.4647 2.14437,-2.4647 0.11259,0 -0.0832,0.4243 -0.43507,0.9428 -1.62002,2.3872 -0.89156,5.7943 1.5583,7.2882 0.65218,0.3977 0.71035,0.4964 0.28805,0.4889 -0.29104,-0.01 -0.88635,-0.167 -1.32291,-0.3597 z m 15.73422,0.3233 c -0.005,-0.046 -0.0344,-2.4955 -0.0661,-5.4423 l -0.0577,-5.3579 h 0.58921 c 0.58878,10e-5 0.5892,0 0.57588,4.9689 -0.007,2.7328 0.0252,5.141 0.0722,5.3515 0.0511,0.2286 -0.1542,0.4193 -0.50973,0.4736 -0.32743,0.05 -0.59913,0.053 -0.6038,0.01 z m 6.88765,-0.1728 c 0,-0.1213 0.60864,-1.7584 1.35254,-3.638 0.7439,-1.8796 1.4659,-3.8118 1.60446,-4.2937 0.13856,-0.482 0.39312,-0.8297 0.56569,-0.7727 0.17257,0.057 0.98756,1.7597 1.81108,3.7839 0.82353,2.0242 1.6272,3.8884 1.78594,4.1426 0.44236,0.7083 0.34591,1.0439 -0.27325,0.9507 -0.39694,-0.06 -0.71362,-0.4728 -1.07884,-1.4074 -0.28434,-0.7276 -0.67023,-1.5015 -0.85755,-1.7198 -0.18731,-0.2183 -0.40821,-0.8403 -0.49089,-1.3821 -0.17957,-1.177 -0.72953,-2.377 -1.1523,-2.5145 -0.40208,-0.1307 -1.2381,2.4091 -1.0196,3.0975 0.10103,0.3184 0.0502,0.5345 -0.12572,0.5345 -0.36692,0 -1.31413,2.0379 -1.322,2.8443 -0.003,0.3502 -0.16922,0.5953 -0.40269,0.5953 -0.21828,0 -0.39687,-0.099 -0.39687,-0.2206 z m 20.69571,-4.4294 c -0.0727,-4.5604 -0.0637,-4.6477 0.46902,-4.5637 0.5207,0.082 0.54558,0.2738 0.60324,4.6498 0.0581,4.4081 0.0421,4.5643 -0.46901,4.5638 -0.50626,-5e-4 -0.53238,-0.2018 -0.60325,-4.6499 z m 5.36575,0.02 v -4.6301 l 0.7276,-2e-4 c 0.72362,-3e-4 0.96819,0.3489 0.46302,0.6611 -0.3525,0.2179 -0.33901,2.6739 0.0184,3.3416 0.20674,0.3863 0.19658,0.6328 -0.0377,0.9151 -0.22032,0.2654 -0.27384,1.0052 -0.17105,2.3643 0.14369,1.8999 0.1269,1.978 -0.42532,1.9781 -0.56826,10e-5 -0.57491,-0.053 -0.57491,-4.6299 z m 7.79824,4.4975 c -0.004,-0.073 -0.0109,-2.1266 -0.0156,-4.5641 -0.008,-4.2736 0.0108,-4.4348 0.53613,-4.5163 0.53253,-0.083 0.54479,0.02 0.54479,4.5641 0,4.4722 -0.0201,4.6486 -0.52917,4.6486 -0.29104,0 -0.5323,-0.06 -0.53613,-0.1323 z m 6.75384,-0.2383 c -2.9043,-1.28 -3.66964,-5.1964 -1.47466,-7.5461 0.41851,-0.448 0.9102,-0.8146 1.09266,-0.8146 0.23006,0 0.20063,0.1449 -0.0961,0.4727 -0.64102,0.7084 -1.24247,2.309 -1.23591,3.2891 0.009,1.2967 0.87018,2.9514 1.97563,3.7946 1.13285,0.864 3.7843,1.2404 4.5079,0.6399 0.44312,-0.3678 0.80921,-0.1941 0.533,0.2528 -0.24902,0.4029 -4.34265,0.3347 -5.30255,-0.088 z m 9.7601,-0.1334 c -1.32844,-0.81 -2.04649,-2.0461 -2.1685,-3.7328 -0.12093,-1.6718 0.52793,-3.3349 1.59186,-4.0801 0.86934,-0.6089 1.17965,-0.5045 0.53758,0.1809 -1.91035,2.0394 -1.33257,6.0224 1.08371,7.4707 0.98036,0.5877 1.02875,0.6604 0.44004,0.6618 -0.3638,8e-4 -1.03191,-0.2244 -1.48469,-0.5005 z m -122.55084,-0.4535 c 1.30247,-0.9267 1.89232,-2.2375 1.89085,-4.2019 -0.002,-2.3239 -1.02494,-3.9018 -3.26782,-5.0395 -1.12768,-0.572 -0.69897,-0.7864 0.77756,-0.3888 4.08426,1.0998 4.97879,7.227 1.4092,9.6526 -1.30807,0.8889 -2.06125,0.8681 -0.80979,-0.022 z m 42.77521,-0.07 c 1.00297,-0.9369 1.35616,-1.8187 1.35616,-3.3857 0,-1.5706 -0.83406,-3.0364 -2.14786,-3.7748 -1.26776,-0.7126 -1.30109,-0.9217 -0.1162,-0.7295 1.18231,0.1919 2.40354,1.1078 2.91545,2.1866 0.91291,1.9238 0.13447,4.8789 -1.56129,5.927 -1.22693,0.7582 -1.40293,0.6701 -0.44626,-0.2236 z m -30.16907,0.043 c 0.16898,-0.3157 0.41765,-0.6423 0.5526,-0.7257 0.13495,-0.083 0.37067,-0.7746 0.52382,-1.5361 0.47102,-2.3418 -0.22698,-4.1498 -2.09225,-5.4193 -1.0505,-0.715 -0.42844,-0.8222 0.95671,-0.1649 2.97208,1.4103 3.20247,6.157 0.38843,8.0026 -0.61869,0.4058 -0.62793,0.4014 -0.32931,-0.1566 z m 41.84398,0.3436 c 0,-0.071 0.29765,-0.5685 0.66146,-1.1046 0.52044,-0.7669 0.66145,-1.3071 0.66145,-2.5338 0,-1.9783 -0.46223,-3.077 -1.75306,-4.1669 -0.8733,-0.7373 -0.92713,-0.838 -0.3636,-0.68 1.22362,0.3429 2.18579,1.0498 2.6977,1.9819 0.71883,1.3089 0.57591,4.0385 -0.27395,5.232 -0.54207,0.7613 -1.63,1.6098 -1.63,1.2714 z m 73.68073,-0.8316 c 1.57667,-2.3233 0.9806,-5.7576 -1.26012,-7.2602 l -0.85082,-0.5705 0.79375,0.1654 c 1.75715,0.366 3.05963,1.8904 3.24264,3.7951 0.15829,1.6473 -0.27855,2.9988 -1.29922,4.0195 -1.07853,1.0785 -1.40641,1.0004 -0.62623,-0.1493 z m -27.11407,-3.2905 c -0.59032,-0.1891 -0.55475,-0.2147 0.33073,-0.2382 0.5457,-0.014 0.99219,0.093 0.99219,0.2382 0,0.3029 -0.37715,0.3029 -1.32292,0 z m -31.32827,-1.6356 c 0.59741,-1.1552 0.3251,-2.4757 -0.74291,-3.6024 l -0.86944,-0.9172 0.79375,0.1868 c 1.26367,0.2974 1.98437,1.1412 1.98437,2.3235 0,1.1557 -0.56906,2.4437 -1.18395,2.6797 -0.3633,0.1394 -0.36123,0.063 0.0182,-0.6704 z m 18.65529,-2.2386 -0.89902,-0.6237 h 0.80048 c 0.85049,0 1.64718,0.6641 1.23771,1.0317 -0.13208,0.1186 -0.64471,-0.065 -1.13917,-0.408 z m 28.94486,0.022 c -0.97272,-0.5909 -1.00357,-0.643 -0.3813,-0.6443 0.79198,0 1.68978,0.5787 1.54218,0.9967 -0.0634,0.1797 -0.50644,0.045 -1.16088,-0.3524 z m -15.36141,-0.2403 c -0.50074,-0.3788 -0.4987,-0.3887 0.0817,-0.3969 0.35652,-0.01 0.59531,0.1508 0.59531,0.3884 0,0.4904 -0.0392,0.4909 -0.67703,0.01 z m -53.47037,-43.4093 c -0.25413,-0.6622 0.72662,-4.9166 1.44798,-6.2813 1.17111,-2.2155 3.25868,-2.9391 3.97073,-1.3763 0.47683,1.0465 0.37763,3.1895 -0.20006,4.3219 -0.61359,1.2028 -2.38915,2.8597 -3.61176,3.3706 -1.13199,0.473 -1.41438,0.4668 -1.60689,-0.035 z m 23.18975,-1.161 c -2.30747,-0.5717 -3.47527,-1.3402 -4.17968,-2.7507 -0.77387,-1.5495 -0.75191,-2.6796 0.068,-3.4995 1.04518,-1.0452 2.28907,-0.8937 3.57936,0.4358 1.15269,1.1878 2.91495,4.455 2.91495,5.4043 0,0.8311 -0.4033,0.9006 -2.38265,0.4101 z m -11.35778,-0.5162 c -0.4384,-0.8191 -0.33577,-1.5536 0.27706,-1.9828 0.91737,-0.6426 1.32972,-0.269 1.23953,1.1228 -0.0665,1.0262 -0.17236,1.2367 -0.65669,1.3057 -0.36449,0.052 -0.68158,-0.1125 -0.8599,-0.4457 z m 15.71989,-25.8021 c -1.25778,-0.5481 -2.50862,-2.1397 -2.50862,-3.1921 0,-2.0319 2.17614,-3.3262 4.4441,-2.6432 2.42753,0.7312 5.82799,4.057 5.187,5.0732 -0.5771,0.9148 -5.55054,1.447 -7.12248,0.7621 z m -35.84612,-0.3964 c -1.51597,-0.3961 -1.7294,-0.531 -1.80086,-1.1376 -0.0622,-0.5279 0.21886,-0.987 1.20751,-1.9724 2.43679,-2.4287 5.74767,-3.422 7.30614,-2.1919 1.06072,0.8372 1.56572,2.1273 1.20455,3.0773 -0.93456,2.4581 -3.86858,3.2825 -7.91734,2.2246 z m 20.09819,-9.5638 c -1.44034,-1.4403 -2.40384,-5.6872 -1.86272,-8.2103 0.16486,-0.7687 0.53915,-1.785 0.83176,-2.2585 0.60512,-0.9791 2.85515,-2.2211 4.02382,-2.2211 1.13417,0 2.17949,1.1884 2.54516,2.8934 0.34247,1.5969 0.18884,2.8222 -0.55478,4.4245 -0.63755,1.3737 -3.6727,5.7011 -4.09667,5.8408 -0.17281,0.057 -0.57176,-0.154 -0.88657,-0.4688 z m 3.92926,-8.5265 c 0.1053,-0.5468 -0.6585,-0.9152 -1.06162,-0.5121 -0.40312,0.4031 -0.0347,1.1669 0.5121,1.0616 0.25343,-0.049 0.50071,-0.2961 0.54952,-0.5495 z"
         id="path4491"
         inkscape:connector-curvature="0" />
    </g>
    <g
       id="g4523"
       transform="matrix(0.16330037,0,0,0.16330037,26.89331,6.169409)">
      <g
         id="g4517"
         style="font-style:normal;font-variant:normal;font-weight:300;font-stretch:normal;font-size:25.98288727px;line-height:1.25;font-family:Raleway;-inkscape-font-specification:'Raleway Light';letter-spacing:0px;word-spacing:0px;fill:#000000;fill-opacity:1;stroke:none;stroke-width:0.64957219"
         transform="scale(0.93646304,1.0678478)"
         aria-label="GLOBAL TERRA">
        <path
           id="path4495"
           style="font-style:normal;font-variant:normal;font-weight:bold;font-stretch:normal;font-family:Raleway;-inkscape-font-specification:'Raleway Bold';letter-spacing:1.58766401px;stroke-width:0.64957219"
           d="m 394.41949,1426.3529 q -2.20854,2.2085 -5.14461,2.2085 -1.8188,0 -3.42974,-0.7275 -1.58496,-0.7275 -2.78017,-2.0007 -1.16923,-1.2731 -1.87077,-2.988 -0.67555,-1.7409 -0.67555,-3.7415 0,-1.8968 0.67555,-3.5597 0.70154,-1.6889 1.89675,-2.9361 1.2212,-1.2731 2.85812,-2.0006 1.63692,-0.7535 3.55966,-0.7535 2.59828,0 4.44307,1.0912 1.87077,1.0913 2.80615,2.9361 l -2.67624,1.9747 q -0.70153,-1.3771 -1.9747,-2.1046 -1.24717,-0.7275 -2.7282,-0.7275 -1.16923,0 -2.15658,0.4936 -0.96136,0.4937 -1.6629,1.3512 -0.67556,0.8574 -1.0653,1.9747 -0.36376,1.1172 -0.36376,2.3644 0,1.2991 0.41572,2.4424 0.41573,1.1172 1.14325,1.9487 0.72752,0.8315 1.71487,1.3251 1.01333,0.4677 2.18256,0.4677 2.67624,0 4.83282,-2.5203 v -1.2992 h -3.71555 v -2.6242 h 6.6776 v 9.4837 h -2.96205 z"
           inkscape:connector-curvature="0" />
        <path
           id="path4497"
           style="font-style:normal;font-variant:normal;font-weight:bold;font-stretch:normal;font-family:Raleway;-inkscape-font-specification:'Raleway Bold';letter-spacing:1.58766401px;stroke-width:0.64957219"
           d="m 402.02504,1428.4315 v -18.4478 h 3.58563 v 15.3039 h 9.40581 v 3.1439 z"
           inkscape:connector-curvature="0" />
        <path
           id="path4499"
           style="font-style:normal;font-variant:normal;font-weight:bold;font-stretch:normal;font-family:Raleway;-inkscape-font-specification:'Raleway Bold';letter-spacing:1.58766401px;stroke-width:0.64957219"
           d="m 425.49191,1428.5614 q -2.02666,0 -3.68957,-0.7795 -1.63692,-0.8054 -2.83213,-2.1046 -1.16923,-1.3251 -1.8188,-3.014 -0.64958,-1.6889 -0.64958,-3.4557 0,-1.8448 0.67556,-3.5337 0.70154,-1.6889 1.89675,-2.988 1.2212,-1.2992 2.8841,-2.0527 1.66291,-0.7794 3.61162,-0.7794 2.00068,0 3.63761,0.8314 1.6629,0.8055 2.83213,2.1306 1.16923,1.3251 1.8188,3.014 0.64958,1.6889 0.64958,3.4298 0,1.8447 -0.67556,3.5336 -0.67555,1.6629 -1.87077,2.9621 -1.19521,1.2731 -2.85811,2.0526 -1.66291,0.7535 -3.61163,0.7535 z m -5.35247,-9.3538 q 0,1.1952 0.36376,2.3125 0.36376,1.1172 1.03931,1.9747 0.70154,0.8574 1.68889,1.3771 1.01334,0.5196 2.2865,0.5196 1.29914,0 2.28649,-0.5196 1.01333,-0.5457 1.68889,-1.4291 0.70154,-0.8834 1.03931,-1.9747 0.36376,-1.1173 0.36376,-2.2605 0,-1.1952 -0.38974,-2.3125 -0.36376,-1.1172 -1.0653,-1.9747 -0.67555,-0.8574 -1.68888,-1.3511 -0.98735,-0.5197 -2.23453,-0.5197 -1.29915,0 -2.31248,0.5457 -1.01333,0.5196 -1.68889,1.4031 -0.67555,0.8574 -1.03931,1.9747 -0.33778,1.0912 -0.33778,2.2345 z"
           inkscape:connector-curvature="0" />
        <path
           id="path4501"
           style="font-style:normal;font-variant:normal;font-weight:bold;font-stretch:normal;font-family:Raleway;-inkscape-font-specification:'Raleway Bold';letter-spacing:1.58766401px;stroke-width:0.64957219"
           d="m 453.70838,1423.6767 q 0,1.1692 -0.46769,2.0526 -0.46769,0.8834 -1.29914,1.481 -0.80547,0.5976 -1.89675,0.9094 -1.0653,0.3118 -2.2865,0.3118 h -8.91213 v -18.4478 h 9.8735 q 0.96137,0 1.74085,0.4157 0.77949,0.4157 1.32513,1.0913 0.54564,0.6495 0.83145,1.507 0.3118,0.8314 0.3118,1.6889 0,1.3511 -0.67556,2.5463 -0.67555,1.1692 -1.9747,1.7408 1.58496,0.4677 2.49436,1.6889 0.93538,1.1952 0.93538,3.0141 z m -3.61162,-0.6756 q 0,-0.4937 -0.18188,-0.9354 -0.15589,-0.4677 -0.44171,-0.8055 -0.28581,-0.3377 -0.67555,-0.5196 -0.38974,-0.2079 -0.85744,-0.2079 h -5.50837 v 4.8588 h 5.32649 q 0.49368,0 0.9094,-0.1819 0.44171,-0.1818 0.75351,-0.4936 0.31179,-0.3378 0.49367,-0.7795 0.18188,-0.4417 0.18188,-0.9354 z m -7.66495,-9.9515 v 4.651 h 4.78085 q 0.9094,0 1.53299,-0.6236 0.64957,-0.6236 0.64957,-1.7149 0,-1.0653 -0.5976,-1.6889 -0.57163,-0.6236 -1.42906,-0.6236 z"
           inkscape:connector-curvature="0" />
        <path
           id="path4503"
           style="font-style:normal;font-variant:normal;font-weight:bold;font-stretch:normal;font-family:Raleway;-inkscape-font-specification:'Raleway Bold';letter-spacing:1.58766401px;stroke-width:0.64957219"
           d="m 462.93664,1409.9837 h 3.16991 l 7.01538,18.4478 h -3.68957 l -1.71487,-4.599 h -6.44375 l -1.68889,4.599 h -3.68957 z m 4.13128,11.3285 -2.54632,-7.2492 -2.65026,7.2492 z"
           inkscape:connector-curvature="0" />
        <path
           id="path4505"
           style="font-style:normal;font-variant:normal;font-weight:bold;font-stretch:normal;font-family:Raleway;-inkscape-font-specification:'Raleway Bold';letter-spacing:1.58766401px;stroke-width:0.64957219"
           d="m 476.73301,1428.4315 v -18.4478 h 3.58564 v 15.3039 h 9.40581 v 3.1439 z"
           inkscape:connector-curvature="0" />
        <path
           id="path4507"
           style="font-style:normal;font-variant:normal;font-weight:bold;font-stretch:normal;font-family:Raleway;-inkscape-font-specification:'Raleway Bold';letter-spacing:1.58766401px;stroke-width:0.64957219"
           d="m 513.6999,1413.1276 h -5.89811 v 15.3039 h -3.55966 v -15.3039 h -5.89811 v -3.1439 h 15.35588 z"
           inkscape:connector-curvature="0" />
        <path
           id="path4509"
           style="font-style:normal;font-variant:normal;font-weight:bold;font-stretch:normal;font-family:Raleway;-inkscape-font-specification:'Raleway Bold';letter-spacing:1.58766401px;stroke-width:0.64957219"
           d="m 530.38728,1425.2876 v 3.1439 h -12.80956 v -18.4478 h 12.57571 v 3.1439 h -8.99007 v 4.4431 h 7.76888 v 2.9101 h -7.76888 v 4.8068 z"
           inkscape:connector-curvature="0" />
        <path
           id="path4511"
           style="font-style:normal;font-variant:normal;font-weight:bold;font-stretch:normal;font-family:Raleway;-inkscape-font-specification:'Raleway Bold';letter-spacing:1.58766401px;stroke-width:0.64957219"
           d="m 534.7957,1428.4315 v -18.4478 h 8.15863 q 1.27316,0 2.33846,0.5456 1.09128,0.5197 1.87077,1.4031 0.77949,0.8574 1.22119,1.9747 0.44171,1.0913 0.44171,2.2085 0,1.7928 -0.9094,3.2739 -0.88342,1.455 -2.41641,2.1046 l 4.20923,6.9374 h -4.02735 l -3.76751,-6.1839 h -3.53368 v 6.1839 z m 3.58564,-9.3278 h 4.49504 q 0.49368,0 0.9094,-0.2339 0.44171,-0.2338 0.75351,-0.6236 0.31179,-0.4157 0.49367,-0.9613 0.18188,-0.5457 0.18188,-1.1693 0,-0.6495 -0.20786,-1.1952 -0.20786,-0.5456 -0.57162,-0.9354 -0.33778,-0.4157 -0.80547,-0.6236 -0.44171,-0.2338 -0.90941,-0.2338 h -4.33914 z"
           inkscape:connector-curvature="0" />
        <path
           id="path4513"
           style="font-style:normal;font-variant:normal;font-weight:bold;font-stretch:normal;font-family:Raleway;-inkscape-font-specification:'Raleway Bold';letter-spacing:1.58766401px;stroke-width:0.64957219"
           d="m 553.63764,1428.4315 v -18.4478 h 8.15863 q 1.27316,0 2.33845,0.5456 1.09129,0.5197 1.87077,1.4031 0.77949,0.8574 1.2212,1.9747 0.44171,1.0913 0.44171,2.2085 0,1.7928 -0.9094,3.2739 -0.88342,1.455 -2.41641,2.1046 l 4.20923,6.9374 h -4.02735 l -3.76752,-6.1839 h -3.53367 v 6.1839 z m 3.58564,-9.3278 h 4.49504 q 0.49367,0 0.9094,-0.2339 0.44171,-0.2338 0.7535,-0.6236 0.3118,-0.4157 0.49368,-0.9613 0.18188,-0.5457 0.18188,-1.1693 0,-0.6495 -0.20787,-1.1952 -0.20786,-0.5456 -0.57162,-0.9354 -0.33778,-0.4157 -0.80547,-0.6236 -0.44171,-0.2338 -0.9094,-0.2338 h -4.33914 z"
           inkscape:connector-curvature="0" />
        <path
           id="path4515"
           style="font-style:normal;font-variant:normal;font-weight:bold;font-stretch:normal;font-family:Raleway;-inkscape-font-specification:'Raleway Bold';letter-spacing:1.58766401px;stroke-width:0.64957219"
           d="m 577.42361,1409.9837 h 3.16991 l 7.01538,18.4478 h -3.68957 l -1.71487,-4.599 h -6.44375 l -1.68889,4.599 h -3.68957 z m 4.13128,11.3285 -2.54632,-7.2492 -2.65026,7.2492 z"
           inkscape:connector-curvature="0" />
      </g>
      <g
         style="fill:#000000"
         transform="translate(-72.160772,-129.84527)"
         id="g4521">
        <path
           inkscape:connector-curvature="0"
           d="m 524.24598,1555.2129 c -7.2858,0 -9.1155,0.3795 -14.81667,3.0712 -14.75232,6.9652 -22.86611,21.6044 -20.41374,36.8324 0.52433,3.2556 1.55139,6.5175 2.28203,7.2481 1.11935,1.1193 1.32861,0.2013 1.32861,-5.8307 0,-8.5086 3.10549,-15.8466 8.94569,-21.1362 6.62821,-6.0032 10.44739,-7.4097 20.22928,-7.4517 7.69252,-0.033 9.41752,0.29 13.69115,2.5626 9.5386,5.0726 15.19635,13.3481 15.90601,23.2663 0.644,9.0009 -0.78576,13.0593 -8.20467,23.2916 -1.52533,2.1037 -1.51297,2.1869 0.2341,1.5731 3.17058,-1.1138 10.2176,-8.481 12.6447,-13.2189 8.99896,-17.5669 1.49987,-38.3984 -16.96072,-47.1139 -5.75368,-2.7163 -7.56711,-3.0939 -14.86577,-3.0939 z m -11.99928,18.0987 c -0.81494,-0.044 -2.96751,0.9799 -6.19029,3.1502 -6.72365,4.5277 -10.17046,11.421 -10.17046,20.3403 0,7.3952 0.87924,10.4524 4.53462,15.766 2.51674,3.6585 8.24767,8.0333 11.66336,8.9033 3.62048,0.9221 4.9384,0.6604 2.87166,-0.5705 -5.14999,-3.0673 -12.06027,-11.0815 -13.23174,-15.3453 -3.09755,-11.274 -0.57629,-20.4161 7.74785,-28.0944 2.90383,-2.6786 3.69864,-4.1 2.775,-4.1496 z"
           style="fill:#000000;stroke-width:0.97794074"
           id="path4519" />
      </g>
    </g>
  </g>
</svg>
