<svg xmlns="http://www.w3.org/2000/svg" width="210mm" height="210mm" viewBox="0 0 210 210"><defs id="defs2"><clipPath id="clipPath1112-6"><path id="path1110-7" d="M267.5 316.96h7.1v-17.63h-7.1z"/></clipPath><clipPath id="clipPath1128-0"><path id="path1126-7" d="M279.4 316.96h7.1v-17.62h-7.1z"/></clipPath><clipPath id="clipPath3252-2-6-8"><path id="path3250-4-7-1" d="M308.16 318.73H311v-25.46h-2.84z"/></clipPath><clipPath id="clipPath3268-8-1-1"><path id="path3266-0-7-4" d="M321.3 318.73h2.84v-25.46h-2.85z"/></clipPath><clipPath id="clipPath4787"><path id="rect4789" fill="url(#linearGradient4791)" d="M57.6 45.4h95v55h-95z"/></clipPath><clipPath id="clipPath6812"><path id="rect6814" fill="#f6df81" d="M68.23 175.7h51.04v16.36H68.23z"/></clipPath><clipPath id="clipPath6174"><path id="rect6176" fill="#fff" d="M117.38 11.2v-73.92h50.75V11.2z"/></clipPath><clipPath id="clipPath3874"><path id="rect3876" fill="#b3b3b3" d="M2022.16 351h71.63v38.48h-71.64z" opacity=".5"/></clipPath><clipPath id="clipPath3887"><path id="rect3889" d="M529.17-577.64h496.52V-320H529.16z"/></clipPath><filter id="filter4138" color-interpolation-filters="sRGB"><feColorMatrix id="feColorMatrix4118" type="luminanceToAlpha" result="colormatrix1"/><feFlood id="feFlood4120" flood-opacity="1" flood-color="#061320" result="flood1"/><feComposite id="feComposite4122" in2="colormatrix1" operator="out" result="composite1"/><feFlood id="feFlood4124" flood-opacity="1" flood-color="#0297f7" result="flood2"/><feComposite id="feComposite4126" in2="colormatrix1" result="composite2" operator="in"/><feComposite id="feComposite4128" in="composite2" in2="composite1" k2="1" k3="1" operator="arithmetic" result="composite3"/><feColorMatrix id="feColorMatrix4130" in="composite3" values="2 -1 0 0 0 0 2 -1 0 0 -1 0 2 0 0 0 0 0 1 0" result="colormatrix2"/><feComposite id="feComposite4132" in="colormatrix2" in2="composite3" operator="arithmetic" result="composite4"/><feBlend id="feBlend4134" in="composite4" in2="composite3" result="blend"/><feComposite id="feComposite4136" in2="SourceGraphic" operator="in"/></filter><filter id="filter4182" color-interpolation-filters="sRGB"><feColorMatrix id="feColorMatrix4162" type="luminanceToAlpha" result="colormatrix1"/><feFlood id="feFlood4164" flood-opacity="1" flood-color="#122b5a" result="flood1"/><feComposite id="feComposite4166" in2="colormatrix1" operator="out" result="composite1"/><feFlood id="feFlood4168" flood-opacity="1" flood-color="#01cdce" result="flood2"/><feComposite id="feComposite4170" in2="colormatrix1" result="composite2" operator="in"/><feComposite id="feComposite4172" in="composite2" in2="composite1" k2="1" k3="1" operator="arithmetic" result="composite3"/><feColorMatrix id="feColorMatrix4174" in="composite3" values="2 -1 0 0 0 0 2 -1 0 0 -1 0 2 0 0 0 0 0 1 0" result="colormatrix2"/><feComposite id="feComposite4176" in="colormatrix2" in2="composite3" operator="arithmetic" result="composite4"/><feBlend id="feBlend4178" in="composite4" in2="composite3" result="blend"/><feComposite id="feComposite4180" in2="SourceGraphic" operator="in"/></filter><filter id="filter4536" color-interpolation-filters="sRGB"><feColorMatrix id="feColorMatrix4516" type="luminanceToAlpha" result="colormatrix1"/><feFlood id="feFlood4518" flood-opacity="1" flood-color="#0f2347" result="flood1"/><feComposite id="feComposite4520" in2="colormatrix1" operator="out" result="composite1"/><feFlood id="feFlood4522" flood-opacity="1" flood-color="#0897ce" result="flood2"/><feComposite id="feComposite4524" in2="colormatrix1" result="composite2" operator="in"/><feComposite id="feComposite4526" in="composite2" in2="composite1" k2="1" k3="1" operator="arithmetic" result="composite3"/><feColorMatrix id="feColorMatrix4528" in="composite3" values="2 -1 0 0 0 0 2 -1 0 0 -1 0 2 0 0 0 0 0 1 0" result="colormatrix2"/><feComposite id="feComposite4530" in="colormatrix2" in2="composite3" operator="arithmetic" result="composite4"/><feBlend id="feBlend4532" in="composite4" in2="composite3" result="blend"/><feComposite id="feComposite4534" in2="SourceGraphic" operator="in"/></filter><clipPath id="clipPath4549"/><clipPath id="clipPath4578"><path id="rect4580" d="M-495.57 874.17l-106.63 45.66-49.4-115.35 106.64-45.66z" opacity=".373"/></clipPath><clipPath id="clipPath4582"><path id="rect4584" d="M-492.63 654.27l-106.63 45.66-38.08-88.94 106.63-45.67z" opacity=".373"/></clipPath><clipPath id="clipPath4668"/><clipPath id="clipPath3887-7"><path id="rect3889-9" d="M529.17-577.64h496.52V-320H529.16z"/></clipPath><filter id="filter4536-0" color-interpolation-filters="sRGB"><feColorMatrix id="feColorMatrix4516-2" type="luminanceToAlpha" result="colormatrix1"/><feFlood id="feFlood4518-3" flood-opacity="1" flood-color="#0f2347" result="flood1"/><feComposite id="feComposite4520-9" in2="colormatrix1" operator="out" result="composite1"/><feFlood id="feFlood4522-9" flood-opacity="1" flood-color="#0897ce" result="flood2"/><feComposite id="feComposite4524-7" in2="colormatrix1" result="composite2" operator="in"/><feComposite id="feComposite4526-0" in="composite2" in2="composite1" k2="1" k3="1" operator="arithmetic" result="composite3"/><feColorMatrix id="feColorMatrix4528-3" in="composite3" values="2 -1 0 0 0 0 2 -1 0 0 -1 0 2 0 0 0 0 0 1 0" result="colormatrix2"/><feComposite id="feComposite4530-9" in="colormatrix2" in2="composite3" operator="arithmetic" result="composite4"/><feBlend id="feBlend4532-8" in="composite4" in2="composite3" result="blend"/><feComposite id="feComposite4534-6" in2="SourceGraphic" operator="in"/></filter><clipPath id="clipPath5041"><path id="rect5043" d="M502.86-940.7h496.52v257.64H502.86z" opacity=".504"/></clipPath><clipPath id="clipPath4582-6"><path id="rect4584-2" d="M-492.63 654.27l-106.63 45.66-38.08-88.94 106.63-45.67z" opacity=".373"/></clipPath><clipPath id="clipPath5057"><path id="rect5055" d="M-492.63 654.27l-106.63 45.66-38.08-88.94 106.63-45.67z" opacity=".373"/></clipPath><clipPath id="clipPath4578-7"><path id="rect4580-0" d="M-495.57 874.17l-106.63 45.66-49.4-115.35 106.64-45.66z" opacity=".373"/></clipPath><filter id="filter5628" color-interpolation-filters="sRGB"><feGaussianBlur id="feGaussianBlur5626" stdDeviation="2.94 2.4" result="blur"/></filter><filter id="filter5792" color-interpolation-filters="sRGB"><feGaussianBlur id="feGaussianBlur5790" stdDeviation="2.94 2.4" result="blur"/></filter><clipPath id="clipPath5796"><path id="rect5798" d="M1047.1-920.82h496.52v257.65H1047.1z"/></clipPath><clipPath id="clipPath850"><path id="path848" d="M0 612h612V0H0z"/></clipPath><clipPath id="clipPath862"><path id="path860" d="M308.16 318.73H311v-25.46h-2.84z"/></clipPath><clipPath id="clipPath878"><path id="path876" d="M321.3 318.73h2.84v-25.46h-2.85z"/></clipPath><clipPath id="clipPath1020"><path id="path1018" d="M0 612h612V0H0z"/></clipPath><clipPath id="clipPath1112"><path id="path1110" d="M267.5 316.96h7.1v-17.63h-7.1z"/></clipPath><clipPath id="clipPath1128"><path id="path1126" d="M279.4 316.96h7.1v-17.62h-7.1z"/></clipPath><clipPath id="clipPath1987"><path id="rect1989" fill="#432c51" d="M-1260.5-223.2h21.32v-40.92h-21.3z" opacity=".066"/></clipPath><clipPath id="clipPath2257"><path id="rect2259" fill="#ffd465" d="M1256.42 2975.7h146.97v81.05H1256.4z" opacity=".061"/></clipPath><filter id="filter2459" color-interpolation-filters="sRGB"><feColorMatrix id="feColorMatrix2457" values="0.21 0.72 0.27 -0.09 0 0.21 0.72 0.27 -0.09 0 0.21 0.72 0.27 -0.09 0 0 0 0 1 0"/></filter><clipPath id="clipPath2461"><path id="rect2463" fill="#fff" d="M-3225.64 578.57h1984.5v1119h-1984.5z" opacity=".616"/></clipPath><filter id="filter3167" color-interpolation-filters="sRGB"><feColorMatrix id="feColorMatrix3165" values="0.21 0.72 0.27 -0.09 0 0.21 0.72 0.27 -0.09 0 0.21 0.72 0.27 -0.09 0 0 0 0 1 0"/></filter><clipPath id="clipPath3376"><path id="rect3378" fill="#432c51" d="M-7365.43 5599.7h154.3v87.87h-154.3z" opacity=".211"/></clipPath><filter id="filter3619" color-interpolation-filters="sRGB"><feColorMatrix id="feColorMatrix3599" result="colormatrix1" type="luminanceToAlpha"/><feFlood id="feFlood3601" result="flood1" flood-color="#e1a827" flood-opacity="1"/><feComposite id="feComposite3603" result="composite1" operator="out" in2="colormatrix1"/><feFlood id="feFlood3605" result="flood2" flood-color="#ffd465" flood-opacity="1"/><feComposite id="feComposite3607" operator="in" result="composite2" in2="colormatrix1"/><feComposite id="feComposite3609" result="composite3" operator="arithmetic" k3="1" k2="1" in2="composite1" in="composite2"/><feColorMatrix id="feColorMatrix3611" result="colormatrix2" values="2 -1 0 0 0 0 2 -1 0 0 -1 0 2 0 0 0 0 0 1 0" in="composite3"/><feComposite id="feComposite3613" result="composite4" operator="arithmetic" in2="composite3" in="colormatrix2"/><feBlend id="feBlend3615" result="blend" in2="composite3" in="composite4"/><feComposite id="feComposite3617" operator="in" in2="SourceGraphic"/></filter><clipPath id="clipPath3747"><path id="rect3749" fill="#fff" d="M-3195.06 593.66h1918.34v1081.7h-1918.34z" opacity=".616"/></clipPath><clipPath id="clipPath3753"><path id="rect3755" fill="#707070" d="M-5104.4-615.62h1839.05V-1652.6H-5104.4z" opacity=".865"/></clipPath><clipPath id="clipPath3786"><path id="rect3788" fill="#fff" stroke="#e1a827" stroke-width="4.535" d="M-1117.46 2494.15h596.65v113.9h-596.66z" opacity=".944" stroke-linecap="square"/></clipPath><style id="style4833">.cls-1{fill:#fff;}</style><style id="style4856">.cls-1{fill:#fff;}</style><style id="style4879">.cls-1{fill:#fff;}</style><style id="style4902">.cls-1{fill:#fff;}</style><clipPath id="clipPath1112-9"><path id="path1110-9" d="M267.5 316.96h7.1v-17.63h-7.1z"/></clipPath><clipPath id="clipPath1128-7"><path id="path1126-0" d="M279.4 316.96h7.1v-17.62h-7.1z"/></clipPath><clipPath id="clipPath1987-2"><path id="rect1989-3" fill="#432c51" d="M-1260.5-223.2h21.32v-40.92h-21.3z" opacity=".066"/></clipPath><filter id="filter3167-6" color-interpolation-filters="sRGB"><feColorMatrix id="feColorMatrix3165-5" values="0.21 0.72 0.27 -0.09 0 0.21 0.72 0.27 -0.09 0 0.21 0.72 0.27 -0.09 0 0 0 0 1 0"/></filter><clipPath id="clipPath1112-5"><path id="path1110-8" d="M267.5 316.96h7.1v-17.63h-7.1z"/></clipPath><clipPath id="clipPath1128-1"><path id="path1126-4" d="M279.4 316.96h7.1v-17.62h-7.1z"/></clipPath><clipPath id="clipPath1112-3"><path id="path1110-7-8" d="M267.5 316.96h7.1v-17.63h-7.1z"/></clipPath><clipPath id="clipPath1128-8"><path id="path1126-8" d="M279.4 316.96h7.1v-17.62h-7.1z"/></clipPath><clipPath id="clipPath3268"><path id="path3266" d="M321.3 318.73h2.84v-25.46h-2.85z"/></clipPath><clipPath id="clipPath3252"><path id="path3250" d="M308.16 318.73H311v-25.46h-2.84z"/></clipPath><clipPath id="clipPath12479"><path id="rect12481" fill="#f9f9f9" d="M1025.25-406.06H528.72v257.65h496.53z"/></clipPath><clipPath id="clipPath12505"/><clipPath id="clipPath13009"><path id="path13007" d="M0 612h612V0H0z"/></clipPath><clipPath id="clipPath13067"><path id="path13065" d="M285.62 313.86h6.1v-16.52h-6.1z"/></clipPath><clipPath id="clipPath13083"><path id="path13081" d="M281.36 313.82h6.1V297.3h-6.1z"/></clipPath><clipPath id="clipPath13331"><path id="path13329" d="M0 612h612V0H0z"/></clipPath><clipPath id="clipPath13339"><path id="path13337" d="M292.42 295.37h2.28v-7.2h-2.28z"/></clipPath><clipPath id="clipPath13353"><path id="path13351" d="M297.66 303.9h2.28v-11.6h-2.28z"/></clipPath><clipPath id="clipPath13367"><path id="path13365" d="M308.15 312.43h2.28v-15.97h-2.28z"/></clipPath><clipPath id="clipPath13381"><path id="path13379" d="M313.4 320.95h2.28V300.6h-2.28z"/></clipPath><clipPath id="clipPath13339-5"><path id="path13337-8" d="M292.42 295.37h2.28v-7.2h-2.28z"/></clipPath><clipPath id="clipPath13353-5"><path id="path13351-6" d="M297.66 303.9h2.28v-11.6h-2.28z"/></clipPath><clipPath id="clipPath13367-7"><path id="path13365-9" d="M308.15 312.43h2.28v-15.97h-2.28z"/></clipPath><clipPath id="clipPath13381-4"><path id="path13379-1" d="M313.4 320.95h2.28V300.6h-2.28z"/></clipPath><clipPath id="clipPath13865"><path id="path13863" d="M0 612h612V0H0z"/></clipPath><clipPath id="clipPath13903"><path id="path13901" d="M298.15 311.1h2.05v-11.44h-2.04z"/></clipPath><clipPath id="clipPath13919"><path id="path13917" d="M298.15 314.5h2.05v-2.04h-2.04z"/></clipPath><clipPath id="clipPath13935"><path id="path13933" d="M298.15 298.3h2.05v-2.05h-2.04z"/></clipPath><clipPath id="clipPath13951"><path id="path13949" d="M288.74 314.5h2.05v-2.04h-2.06z"/></clipPath><clipPath id="clipPath13967"><path id="path13965" d="M288.74 309.1h2.05v-2.04h-2.06z"/></clipPath><clipPath id="clipPath13983"><path id="path13981" d="M288.74 303.7h2.05v-2.04h-2.06z"/></clipPath><clipPath id="clipPath13999"><path id="path13997" d="M288.74 298.3h2.05v-2.05h-2.06z"/></clipPath><clipPath id="clipPath13999-1"><path id="path13997-4" d="M288.74 298.3h2.05v-2.05h-2.06z"/></clipPath><clipPath id="clipPath13983-8"><path id="path13981-8" d="M288.74 303.7h2.05v-2.04h-2.06z"/></clipPath><clipPath id="clipPath13967-7"><path id="path13965-1" d="M288.74 309.1h2.05v-2.04h-2.06z"/></clipPath><clipPath id="clipPath13951-9"><path id="path13949-3" d="M288.74 314.5h2.05v-2.04h-2.06z"/></clipPath><clipPath id="clipPath13935-1"><path id="path13933-1" d="M298.15 298.3h2.05v-2.05h-2.04z"/></clipPath><clipPath id="clipPath13919-4"><path id="path13917-9" d="M298.15 314.5h2.05v-2.04h-2.04z"/></clipPath><clipPath id="clipPath13903-5"><path id="path13901-9" d="M298.15 311.1h2.05v-11.44h-2.04z"/></clipPath><clipPath id="clipPath14563"><path id="path14561" d="M0 612h612V0H0z"/></clipPath><clipPath id="clipPath14655"><path id="path14653" d="M267.5 316.96h7.1v-17.63h-7.1z"/></clipPath><clipPath id="clipPath14671"><path id="path14669" d="M279.4 316.96h7.1v-17.62h-7.1z"/></clipPath><clipPath id="clipPath14655-5"><path id="path14653-6" d="M267.5 316.96h7.1v-17.63h-7.1z"/></clipPath><clipPath id="clipPath14671-8"><path id="path14669-5" d="M279.4 316.96h7.1v-17.62h-7.1z"/></clipPath><clipPath id="clipPath14655-8"><path id="path14653-0" d="M267.5 316.96h7.1v-17.63h-7.1z"/></clipPath><clipPath id="clipPath14671-6"><path id="path14669-57" d="M279.4 316.96h7.1v-17.62h-7.1z"/></clipPath><clipPath id="clipPath3268-3"><path id="path3266-0" d="M321.3 318.73h2.84v-25.46h-2.85z"/></clipPath><clipPath id="clipPath3252-1"><path id="path3250-9" d="M308.16 318.73H311v-25.46h-2.84z"/></clipPath><clipPath id="clipPath16419"><path id="rect16421" fill="#222" d="M529.14 367.26h495.92v141.48h-495.9z"/></clipPath><clipPath id="clipPath17179"/><clipPath id="clipPath17542"><path id="rect17544" fill="#3b3a3f" d="M525.8 371.98h496.52V772.9H525.8z" opacity=".254"/></clipPath><clipPath id="clipPath17804"><path id="path17802" d="M0 0h500v500H0z"/></clipPath><clipPath id="clipPath17820"><path id="path17818" d="M0 500h500V0H0z"/></clipPath><clipPath id="clipPath22868"><path id="path22866" d="M0 500h500V0H0z"/></clipPath><clipPath id="clipPath22900"><path id="path22898" d="M0 500h500V0H0z"/></clipPath><clipPath id="clipPath22932"><path id="path22930" d="M0 500h500V0H0z"/></clipPath><clipPath id="clipPath22964"><path id="path22962" d="M0 500h500V0H0z"/></clipPath><clipPath id="clipPath22994"><path id="path22992" d="M0 500h500V0H0z"/></clipPath><clipPath id="clipPath23002"><path id="path23000" d="M115.55 72.16h13.42V47.82h-13.42z"/></clipPath><clipPath id="clipPath23006"><path id="path23004" d="M115.55 72.16h13.42V47.82h-13.42z"/></clipPath><clipPath id="clipPath23010"><path id="path23008" d="M115.55 72.16h6.07V47.82h-6.07z"/></clipPath><clipPath id="clipPath23014"><path id="path23012" d="M115.55 72.16h13.42z"/></clipPath><clipPath id="clipPath23018"><path id="path23016" d="M121.62 72.16h7.35V47.82h-7.35z"/></clipPath><clipPath id="clipPath23070"><path id="path23068" d="M105.82 72.16h13.4V47.82h-13.4z"/></clipPath><clipPath id="clipPath23074"><path id="path23072" d="M105.82 72.16h13.4V47.82h-13.4z"/></clipPath><clipPath id="clipPath23078"><path id="path23076" d="M105.82 72.16h6.07V47.82h-6.08z"/></clipPath><clipPath id="clipPath23082"><path id="path23080" d="M105.82 72.16h13.4z"/></clipPath><clipPath id="clipPath23086"><path id="path23084" d="M111.9 72.16h7.33V47.82h-7.34z"/></clipPath><clipPath id="clipPath23138"><path id="path23136" d="M96.08 96.5h13.42V47.82H96.08z"/></clipPath><clipPath id="clipPath23142"><path id="path23140" d="M96.08 96.5h13.42V47.82H96.08z"/></clipPath><clipPath id="clipPath23146"><path id="path23144" d="M96.08 96.5h6.07V47.82h-6.07z"/></clipPath><clipPath id="clipPath23150"><path id="path23148" d="M102.15 96.5h7.35V47.82h-7.35z"/></clipPath><clipPath id="clipPath23190"><path id="path23188" d="M86.34 60h13.42V47.8H86.34z"/></clipPath><clipPath id="clipPath23194"><path id="path23192" d="M86.34 60h13.42V47.8H86.34z"/></clipPath><clipPath id="clipPath23198"><path id="path23196" d="M86.34 60h6.07V47.8h-6.06z"/></clipPath><clipPath id="clipPath23202"><path id="path23200" d="M86.34 60h13.42z"/></clipPath><clipPath id="clipPath23206"><path id="path23204" d="M92.4 60h7.36V47.8H92.4z"/></clipPath><clipPath id="clipPath23258"><path id="path23256" d="M27.9 82.08h46.06V47.82H27.9z"/></clipPath><clipPath id="clipPath23262"><path id="path23260" d="M27.9 82.08h46.06V47.82H27.9z"/></clipPath><clipPath id="clipPath23266"><path id="path23264" d="M38 82.08h15.25v-14.4H38z"/></clipPath><clipPath id="clipPath23270"><path id="path23268" d="M50.94 82h2.32V62.24h-2.32z"/></clipPath><clipPath id="clipPath23274"><path id="path23272" d="M38 79.57h12.95V62.24H38z"/></clipPath><clipPath id="clipPath23278"><path id="path23276" d="M27.9 67.7h2.07V56.3H27.9z"/></clipPath><clipPath id="clipPath23282"><path id="path23280" d="M27.9 62.26c0 1.8 0 3.63 0 5.44 0-2 .67-4.02 2.07-5.96V56.3c-1.4 1.93-2.06 3.96-2.07 5.96"/></clipPath><clipPath id="clipPath23286"><path id="path23284" d="M27.9 67.7h2.07V56.3H27.9z"/></clipPath><clipPath id="clipPath23290"><path id="path23288" d="M27.9 67.7h2.07V56.3H27.9z"/></clipPath><clipPath id="clipPath23294"><path id="path23292" d="M27.9 67.7h2.07V56.3H27.9z"/></clipPath><clipPath id="clipPath23298"><path id="path23296" d="M29.97 67.68h20.98V56.3H29.97z"/></clipPath><clipPath id="clipPath23302"><path id="path23300" d="M27.9 79.57h23.04V61.74H27.9z"/></clipPath><clipPath id="clipPath23306"><path id="path23304" d="M50.94 67.68h5.68v-19.4h-5.68z"/></clipPath><clipPath id="clipPath23310"><path id="path23308" d="M50.94 82h23V53.72h-23z"/></clipPath><clipPath id="clipPath23314"><path id="path23312" d="M56.6 67.74h17.36V48.28H56.6z"/></clipPath><clipPath id="clipPath23318"><path id="path23316" d="M73.95 67.74c0-1.82 0-3.63 0-5.44 0-.5-.02-1-.1-1.48-.7-4.38-4.3-8.1-9.75-10.43-2.2-.96-4.72-1.67-7.48-2.12v5.44c2.75.45 5.26 1.16 7.47 2.1 5.45 2.34 9.03 6.06 9.74 10.44.08.5.1 1 .1 1.48"/></clipPath><clipPath id="clipPath23322"><path id="path23320" d="M73.9 67.74h.06v-6.5h-.07z"/></clipPath><clipPath id="clipPath23326"><path id="path23324" d="M73.6 66.67h.3V59.7h-.3z"/></clipPath><clipPath id="clipPath23330"><path id="path23328" d="M73.02 65.14h.58v-7h-.58z"/></clipPath><clipPath id="clipPath23334"><path id="path23332" d="M72.12 63.6h.9v-7.05h-.9z"/></clipPath><clipPath id="clipPath23338"><path id="path23336" d="M70.64 62h1.5V54.7h-1.5z"/></clipPath><clipPath id="clipPath23342"><path id="path23340" d="M60.16 60.16h10.5V49.04h-10.5z"/></clipPath><clipPath id="clipPath23346"><path id="path23344" d="M56.84 54.48h3.33v-6.16h-3.33z"/></clipPath><clipPath id="clipPath23350"><path id="path23348" d="M56.6 53.76h.25v-5.48h-.24z"/></clipPath><clipPath id="clipPath23354"><path id="path23352" d="M56.6 67.74h17.36V48.28H56.6z"/></clipPath><clipPath id="clipPath23358"><path id="path23356" d="M56.6 67.74h17.36V48.28H56.6z"/></clipPath><clipPath id="clipPath23362"><path id="path23360" d="M29.97 67.68H56.6V53.26H29.98z"/></clipPath><clipPath id="clipPath23366"><path id="path23364" d="M29.97 61.74h26.65V47.82H29.97z"/></clipPath><clipPath id="clipPath23370"><path id="path23368" d="M56.6 53.72l.02-5.44c-10.94-1.75-22 1.58-26.65 8.02v5.44c4.64-6.44 15.7-9.77 26.64-8.02"/></clipPath><clipPath id="clipPath23374"><path id="path23372" d="M54.1 53.72h2.52v-5.75H54.1z"/></clipPath><clipPath id="clipPath23378"><path id="path23376" d="M51.63 53.4h2.48v-5.57h-2.47z"/></clipPath><clipPath id="clipPath23382"><path id="path23380" d="M49.3 53.3h2.34V47.8H49.3z"/></clipPath><clipPath id="clipPath23386"><path id="path23384" d="M47 53.46h2.3v-5.6H47z"/></clipPath><clipPath id="clipPath23390"><path id="path23388" d="M44.65 53.8H47V48h-2.35z"/></clipPath><clipPath id="clipPath23394"><path id="path23392" d="M42.15 54.32h2.5v-5.98h-2.5z"/></clipPath><clipPath id="clipPath23398"><path id="path23396" d="M39.25 55.22h2.9v-6.34h-2.9z"/></clipPath><clipPath id="clipPath23402"><path id="path23400" d="M29.97 61.74h9.3V49.78h-9.3z"/></clipPath><clipPath id="clipPath23406"><path id="path23404" d="M29.97 61.74h26.65V47.82H29.97z"/></clipPath><clipPath id="clipPath23410"><path id="path23408" d="M29.97 61.74h26.65V47.82H29.97z"/></clipPath><clipPath id="clipPath23822"><path id="path23820" d="M0 500h500V0H0z"/></clipPath><filter id="filter30860" color-interpolation-filters="sRGB"><feColorMatrix id="feColorMatrix30858" values="0 -0.1 0.67 -0.09 0 0 -0.1 0.67 -0.09 0 0 -0.1 0.67 -0.09 0 0 0 0 1 0"/></filter><clipPath id="clipPath30878"><path id="rect30880" fill="#191932" d="M515.4 1083.05h88.62v87.46H515.4z"/></clipPath><filter id="filter30895" color-interpolation-filters="sRGB"><feColorMatrix id="feColorMatrix30893" values="0 -0.1 0.67 -0.09 0 0 -0.1 0.67 -0.09 0 0 -0.1 0.67 -0.09 0 0 0 0 1 0"/></filter><clipPath id="clipPath30897"><path id="rect30899" fill="#39384d" d="M578.43 1060.33h82.03v80.97h-82.03z"/></clipPath><filter id="filter30914" color-interpolation-filters="sRGB"><feColorMatrix id="feColorMatrix30912" values="0 -0.1 0.67 -0.09 0 0 -0.1 0.67 -0.09 0 0 -0.1 0.67 -0.09 0 0 0 0 1 0"/></filter><clipPath id="clipPath30916"><path id="rect30918" fill="#191932" d="M652.52 1081.88h62.12v61.32h-62.12z"/></clipPath><filter id="filter30933" color-interpolation-filters="sRGB"><feColorMatrix id="feColorMatrix30931" values="0 -0.1 0.67 -0.09 0 0 -0.1 0.67 -0.09 0 0 -0.1 0.67 -0.09 0 0 0 0 1 0"/></filter><clipPath id="clipPath30935"><path id="rect30937" fill="#39384d" d="M687.95 1080.72h160.28v158.2H687.95z"/></clipPath><clipPath id="clipPath30950"><path id="rect30952" fill="#191932" d="M764.36 1069.64h86.92v85.8h-86.92z"/></clipPath><filter id="filter30967" color-interpolation-filters="sRGB"><feColorMatrix id="feColorMatrix30965" values="0 -0.1 0.67 -0.09 0 0 -0.1 0.67 -0.09 0 0 -0.1 0.67 -0.09 0 0 0 0 1 0"/></filter><clipPath id="clipPath30969"><path id="rect30971" fill="#39384d" d="M823.17 1086.36h86.43v85.3h-86.43z"/></clipPath><filter id="filter30994" color-interpolation-filters="sRGB"><feColorMatrix id="feColorMatrix30992" values="0 -0.1 0.67 0.01 0 0 -0.1 0.67 0.01 0 0 -0.1 0.67 0.01 0 0 0 0 1 0"/></filter><clipPath id="clipPath30996"><path id="rect30998" fill="#191932" d="M901 1081.88h62.12v61.32H901z"/></clipPath><filter id="filter31013" color-interpolation-filters="sRGB"><feColorMatrix id="feColorMatrix31011" values="0 -0.1 0.67 0.01 0 0 -0.1 0.67 0.01 0 0 -0.1 0.67 0.01 0 0 0 0 1 0"/></filter><clipPath id="clipPath31015"><path id="rect31017" fill="#39384d" d="M985.08 1083.67h39.4v38.88h-39.4z"/></clipPath><filter id="filter31021" color-interpolation-filters="sRGB"><feColorMatrix id="feColorMatrix31019" values="0 -0.1 0.67 0.01 0 0 -0.1 0.67 0.01 0 0 -0.1 0.67 0.01 0 0 0 0 1 0"/></filter><clipPath id="clipPath5801"><path id="path5799" d="M0 612h612V0H0z"/></clipPath><clipPath id="clipPath5809"><path id="path5807" d="M292.42 295.37h2.28v-7.2h-2.28z"/></clipPath><clipPath id="clipPath5823"><path id="path5821" d="M297.66 303.9h2.28v-11.6h-2.28z"/></clipPath><clipPath id="clipPath5837"><path id="path5835" d="M308.15 312.43h2.28v-15.97h-2.28z"/></clipPath><clipPath id="clipPath5851"><path id="path5849" d="M313.4 320.95h2.28V300.6h-2.28z"/></clipPath><clipPath id="clipPath5809-6"><path id="path5807-3" d="M292.42 295.37h2.28v-7.2h-2.28z"/></clipPath><clipPath id="clipPath5823-0"><path id="path5821-8" d="M297.66 303.9h2.28v-11.6h-2.28z"/></clipPath><clipPath id="clipPath5837-4"><path id="path5835-0" d="M308.15 312.43h2.28v-15.97h-2.28z"/></clipPath><clipPath id="clipPath5851-4"><path id="path5849-6" d="M313.4 320.95h2.28V300.6h-2.28z"/></clipPath><clipPath id="clipPath5809-6-8"><path id="path5807-3-5" d="M292.42 295.37h2.28v-7.2h-2.28z"/></clipPath><clipPath id="clipPath5823-0-5"><path id="path5821-8-5" d="M297.66 303.9h2.28v-11.6h-2.28z"/></clipPath><clipPath id="clipPath5837-4-4"><path id="path5835-0-2" d="M308.15 312.43h2.28v-15.97h-2.28z"/></clipPath><clipPath id="clipPath5851-4-1"><path id="path5849-6-9" d="M313.4 320.95h2.28V300.6h-2.28z"/></clipPath><clipPath id="clipPath8702"><path id="path8704" fill="none" stroke="#000" stroke-width=".267" d="M-112.23 16.18s2.13.93 2.34.98c.2.05.1.2.53.16.4-.06 1.25-.06 1.25-.06s.15.06.47.06c.3 0 .36-.1 1.04 0 .67.1 1.4.36 1.97.52.57.15.37.3 1.4.26 1.05-.05 1.68.05 2.3.15.63.1.84.2 1.36.2.52 0 .68.12 1.35.17.68.05 1.2.3 1.52.26.3-.05.05-.26 1.04-.05 1 .2 1.5.62 2.08.73.58.1 1.15.26 1.52.2.36-.05.47 0 .73-.2s.52-.2.93-.3c.42-.12.42-.17.68-.28.26-.1.37.06.73-.2.38-.26.74-.2 1.26-.47.53-.25 1.67-.67 2.14-.83.47-.15.94-.3 1.3-.3.37 0 2.1.06 2.1.06s-.18.3 0 0c.2-.3-1.3.23.2-.3 1.5-.55 1.98-.76 4.17-.6 2.2.15 2.92.3 4.7.57 1.76.26-.48.62 5.05.62 5.53 0 10.74 1.15 13.3 2.72 2.55 1.56 6.3 3.85 6.3 3.85s7 5.26 7.3 5.36c.32.1 3.08.84 3.08.84s2.84.66 3 .4c.16-.26-.52-1.02.74-.5s2.72.2 4.5 0c1.77-.2 2.55 1.1 9.12-.37 6.57-1.46 9.54-4.07 10.06-5.16.52-1.1.68-6.88-.15-9.02-.84-2.14-6.47-8.03-6.47-8.03l-1.82.26s-9.23 3.02-9.54 3.18c-.32.16-3.7 2.55-6.3 2.7-2.62.17-8.1-.35-8.98-.5-.9-.17-3.4-.64-3.6-.74-.2-.1-4.9-3.8-4.9-3.8s-1.07-.66-1.07-.66 1.2-1.57 1.2-1.57.53.27.37.17c-.15-.1-.78-.6-.78-.6s-.2-1-.2-1-1.3-1.56-.43-1.7c.9-.1.18-.32.23-.74.06-.43.1-.74.1-.74s.27-.23.15-.42c-.13-.2-.62.2-1.5-.2-.9-.42.55-.27-2.5-.9-3.07-.62-7.1-1.18-7.1-1.18s-11.45.3-12.27.23c-.8-.08-16.3-.96-18.43-1.1-2.14-.16-28.24 9.72-27.8 10.3.45.6 4.28 3.92 4.65 4.07.37.15 5.57 3.48 5.57 3.48z"/></clipPath><clipPath id="clipPath8740"/><clipPath id="clipPath20761"/><clipPath id="clipPath4795"><path id="rect4797" fill="#808000" d="M514.02 899.72h388.2v173.05h-388.2z" opacity=".5"/></clipPath><clipPath id="clipPath4795-0"><path id="rect4797-1" fill="#808000" d="M514.02 899.72h388.2v173.05h-388.2z" opacity=".5"/></clipPath><clipPath id="clipPath8740-87"/><clipPath id="clipPath20761-9"/><clipPath id="clipPath8740-0"/><clipPath id="clipPath20761-4"/><clipPath id="clipPath4795-7"><path id="rect4797-93" fill="#808000" d="M514.02 899.72h388.2v173.05h-388.2z" opacity=".5"/></clipPath><clipPath id="clipPath8740-80"/><clipPath id="clipPath20761-90"/><clipPath id="clipPath20761-7"/><clipPath id="clipPath4795-76"><path id="rect4797-0" fill="#808000" d="M514.02 899.72h388.2v173.05h-388.2z" opacity=".5"/></clipPath><clipPath id="clipPath8740-09"/></defs><g id="layer1"><g id="g29950"><path id="path29948" fill="#d1d3d4" d="M105.3 110.55c0-.02-.02-.05-.03-.07 0 0-.02 0-.03 0 0 0-.08-.05-.1-.05 0 0-.03 0-.03 0 0-.02 0-.03 0-.03-.03 0-.06-.02-.1-.02-.03 0-.06 0-.1 0 0 .02 0 .02 0 .03.04 0 .07.02.1.02 0 0 .02.03.03.04.03 0 .05 0 .07.02 0 .02.02.04.02.06.03 0 .05 0 .07.02 0 .03.02.06.03.1 0 0 .02 0 .03 0 0 0 .02 0 .04 0 0-.02.02-.03.03-.04.02 0 .04 0 .06 0 0-.02 0-.04.02-.05-.02 0-.04 0-.06 0-.02 0-.04 0-.06-.02"/></g><path id="path30319-8" fill="#3caeb4" d="M69.27 101.33c-.03-.02-.06-.04-.08-.06-.05-.04-2.1-2.94-2.2-3.1-.5-.74-.6-1.7-.26-2.55.28-.73.9-1.33 1.63-1.6.34-.14.62-.2 1-.2.54 0 1 .14 1.47.43 1.23.75 1.7 2.33 1.06 3.62-.05.1-.1.2-.14.26-.18.27-2.23 3.15-2.27 3.18-.07.05-.17.06-.23.03zm.28-3.77c.37-.07.66-.36.73-.72.03-.15.03-.24 0-.38-.08-.37-.36-.66-.73-.73-.14-.03-.23-.03-.38 0-.36.07-.65.36-.72.73-.03.14-.03.23 0 .37.06.3.24.53.5.66.2.08.4.1.6.06z"/><path id="path30323-5" fill="#ccc" d="M111.84 117.47c-.03 0-.06-.04-.08-.05-.04-.05-2.1-2.94-2.2-3.1-.48-.75-.58-1.7-.25-2.55.3-.73.9-1.34 1.64-1.6.34-.14.62-.2 1-.2.55 0 1 .14 1.47.42 1.24.75 1.7 2.32 1.07 3.62-.04.1-.1.2-.14.26-.18.27-2.23 3.15-2.27 3.17-.05.04-.16.05-.22.02zm.28-3.76c.37-.07.66-.35.73-.72.03-.14.03-.23 0-.37-.07-.36-.36-.65-.73-.72-.14-.03-.23-.03-.37 0-.37.07-.66.36-.73.73-.03.15-.03.24 0 .38.06.3.24.53.5.66.2.1.4.1.6.07z"/><path id="path30321-9" fill="#ccc" d="M123.84 91.45c-.03 0-.06-.03-.08-.05-.04-.04-2.08-2.94-2.2-3.1-.48-.75-.58-1.7-.25-2.55.3-.73.9-1.34 1.64-1.6.34-.14.62-.2 1-.2.55 0 1 .14 1.47.43 1.24.75 1.7 2.33 1.07 3.62-.04.1-.1.2-.14.26-.17.27-2.23 3.15-2.26 3.18-.06.04-.17.05-.23 0zm.28-3.76c.37-.08.66-.37.73-.74.03-.14.03-.23 0-.37-.07-.38-.36-.67-.73-.74-.14-.03-.23-.03-.37 0-.37.07-.65.36-.73.73-.03.13-.03.22 0 .36.06.3.24.53.5.66.2.1.4.1.6.07z"/><path id="path5174-4" fill="#ccc" d="M59.13 101.97c-.03 0-.06-.04-.07-.05-.04-.05-2.1-2.94-2.2-3.1-.5-.75-.6-1.7-.26-2.56.3-.73.9-1.33 1.63-1.6.35-.13.62-.18 1-.18.55 0 1 .13 1.47.4 1.24.77 1.7 2.34 1.06 3.64-.04.1-.1.2-.14.26-.17.27-2.23 3.15-2.26 3.17-.06.04-.17.05-.23.02zm.3-3.76c.35-.07.64-.35.72-.72.02-.14.02-.23 0-.38-.08-.36-.37-.65-.73-.73-.15-.02-.24-.02-.38 0-.37.08-.65.37-.73.73-.02.15-.02.24 0 .38.07.3.26.53.52.66.2.1.4.1.6.07z"/><path id="path9431-3" fill="#ccc" d="M96.36 97.83c-.02 0-.06-.03-.07-.05-.05-.05-2.1-2.94-2.2-3.1-.5-.75-.6-1.7-.26-2.55.28-.73.9-1.34 1.63-1.6.34-.14.6-.2 1-.2.54 0 1 .14 1.47.43 1.23.75 1.7 2.33 1.05 3.62-.05.1-.1.2-.15.26-.17.27-2.22 3.15-2.26 3.17-.07.06-.18.06-.24.03zm.3-3.76c.36-.08.64-.36.72-.73.03-.14.03-.23 0-.37-.08-.37-.37-.66-.73-.73-.15-.03-.24-.03-.38 0-.37.07-.65.36-.73.73-.03.14-.03.23 0 .37.06.3.25.53.52.66.18.1.38.1.6.07z"/><g id="g1868"><path id="rect1809" fill="#3a4250" d="M59.02 120.52h122.42v.1H59.02z"/><path id="rect5301-6-7-0-0-8" fill="#619397" stroke="#619397" stroke-width=".066" d="M181.22 120.04h1.06v1h-1.06z" stroke-linecap="square"/><g id="g1827"><path id="rect1823" fill="#3a4250" d="M59.13 100.38v20.25h-.1v-20.25z"/></g></g><g id="g1878"><g id="g1876"><path id="rect1874" fill="#3a4250" d="M112.06 115.28v11.3h-.1v-11.3z"/></g><path id="rect1870" fill="#3a4250" d="M111.95 126.44h70.9v.1h-70.9z"/><path id="rect1872" fill="#619397" stroke="#619397" stroke-width=".066" d="M182.44 125.98h1.06v.98h-1.06z" stroke-linecap="square"/></g><g id="g1929"><path id="rect1880" fill="#3a4250" d="M96.34 97.44h22.36v.1H96.34z"/><path id="rect1882" fill="#3a4250" d="M118.8 81.75v15.8h-.1v-15.8z"/><path id="rect1884" fill="#3a4250" d="M118.7 81.64h55.85v.1l-55.85.02z"/><path id="rect1886" fill="#619397" stroke="#619397" stroke-width=".066" d="M173.9 81.18h1.05v1h-1.06z" stroke-linecap="square"/></g><g id="g1923"><path id="rect1777" fill="#3a4250" d="M69.7 100.43h46.47v.1H69.7z"/><path id="rect1777-7" fill="#3a4250" d="M116.17 80.3v20.24h-.1V80.3z"/><path id="rect1777-9" fill="#3a4250" d="M116.06 80.2h57.85v.1h-57.84z"/><path id="rect5301-6-7-0-0" fill="#619397" stroke="#619397" stroke-width=".066" d="M173.9 79.75h1.07v1h-1.06z" stroke-linecap="square"/></g><g id="g1934"><path id="rect1900" fill="#3a4250" d="M123.97 77.28v7.62h-.1v-7.62z"/><path id="rect1906" fill="#3a4250" d="M123.86 77.28h52.73v.1h-52.74z"/><path id="rect1904" fill="#619397" stroke="#619397" stroke-width=".066" d="M176.15 76.83h1.06v.98h-1.05z" stroke-linecap="square"/></g></g></svg>