<?xml version="1.0" encoding="UTF-8" standalone="no"?>
<!-- Created with Inkscape (http://www.inkscape.org/) -->

<svg
   xmlns:dc="http://purl.org/dc/elements/1.1/"
   xmlns:cc="http://creativecommons.org/ns#"
   xmlns:rdf="http://www.w3.org/1999/02/22-rdf-syntax-ns#"
   xmlns:svg="http://www.w3.org/2000/svg"
   xmlns="http://www.w3.org/2000/svg"
   xmlns:sodipodi="http://sodipodi.sourceforge.net/DTD/sodipodi-0.dtd"
   xmlns:inkscape="http://www.inkscape.org/namespaces/inkscape"
   width="25mm"
   height="25mm"
   viewBox="0 0 25 25"
   version="1.1"
   id="svg10048"
   inkscape:version="0.92.2 5c3e80d, 2017-08-06"
   sodipodi:docname="actualizacion.svg">
  <defs
     id="defs10042">
    <clipPath
       clipPathUnits="userSpaceOnUse"
       id="clipPath15409">
      <rect
         ry="0"
         y="168.45323"
         x="-507.81848"
         height="105.42503"
         width="91.545845"
         id="rect15411"
         style="opacity:0.68699999;fill:#ffffff;fill-opacity:1;stroke:none;stroke-width:0.96499997;stroke-linecap:round;stroke-linejoin:round;stroke-miterlimit:4;stroke-dasharray:none;stroke-opacity:1" />
    </clipPath>
  </defs>
  <sodipodi:namedview
     id="base"
     pagecolor="#ffffff"
     bordercolor="#666666"
     borderopacity="1.0"
     inkscape:pageopacity="0.0"
     inkscape:pageshadow="2"
     inkscape:zoom="0.49497475"
     inkscape:cx="-71.284153"
     inkscape:cy="339.90219"
     inkscape:document-units="mm"
     inkscape:current-layer="layer1"
     showgrid="false"
     inkscape:window-width="2048"
     inkscape:window-height="1447"
     inkscape:window-x="0"
     inkscape:window-y="1"
     inkscape:window-maximized="0" />
  <metadata
     id="metadata10045">
    <rdf:RDF>
      <cc:Work
         rdf:about="">
        <dc:format>image/svg+xml</dc:format>
        <dc:type
           rdf:resource="http://purl.org/dc/dcmitype/StillImage" />
        <dc:title></dc:title>
      </cc:Work>
    </rdf:RDF>
  </metadata>
  <g
     inkscape:label="Capa 1"
     inkscape:groupmode="layer"
     id="layer1"
     transform="translate(0,-272)">
    <g
       id="g5565"
       transform="matrix(0.03712625,0,0,0.03712625,3.6340554,273.84629)"
       style="fill:#ffffff;stroke-width:9.50200272"
       inkscape:export-filename="/Users/alonso/Documents/Ariel/AIH/AIH GROUP/Website/Recursos/DIVISIONES/ICONOS/blancos/update.png"
       inkscape:export-xdpi="156"
       inkscape:export-ydpi="156">
      <g
         id="g5550"
         style="fill:#ffffff;stroke-width:9.50200272"
         transform="translate(-17.197255,30.955059)">
        <path
           id="path5546"
           d="m 52.972656,256.00391 c -0.01953,53.84765 21.386719,105.49218 59.496094,143.53515 10.40234,10.375 21.88672,19.60938 34.25,27.54297 l 32.42578,-32.42187 c 2.52344,-2.52735 6.32031,-3.28125 9.61719,-1.91407 3.30078,1.36719 5.44922,4.58594 5.44922,8.15625 v 102.27344 c 0,4.875 -3.94922,8.82813 -8.82422,8.82813 H 83.109375 c -3.570313,0 -6.789063,-2.15235 -8.15625,-5.44922 -1.363281,-3.30078 -0.609375,-7.09766 1.914063,-9.6211 L 108.58594,465.21484 C 96.636719,456.75 85.414062,447.30078 75.039062,436.96875 11.21875,373.20703 -14.3125,280.55078 7.84375,193.09766 29.996094,105.64453 96.566406,36.320312 183.04687,10.636719 c 2.66016,-0.742188 5.51172,-0.195313 7.70704,1.480469 2.19531,1.675781 3.47656,4.285156 3.45703,7.046874 v 37.246094 c -0.0195,3.742188 -2.40625,7.0625 -5.94532,8.273438 C 107.23828,93.421875 53.0625,170.03125 52.972656,256.00391 Z m 0,0"
           inkscape:connector-curvature="0"
           style="fill:#ffffff;stroke-width:9.50200272" />
        <path
           id="path5548"
           d="m 512.00391,256.00391 c -0.14063,113.23046 -74.53907,212.96484 -183.03907,245.36718 -2.66015,0.74219 -5.51172,0.19141 -7.70703,-1.48437 -2.19531,-1.67578 -3.47656,-4.28516 -3.45703,-7.04688 v -37.24609 c 0.0195,-3.74219 2.40625,-7.05859 5.94531,-8.26953 65.71094,-23.22656 114.90235,-78.54688 130.28516,-146.51953 15.38672,-67.96875 -5.1875,-139.08203 -54.48828,-188.33985 -10.40235,-10.37109 -21.88672,-19.605465 -34.25,-27.539059 l -32.42578,32.421879 c -2.52344,2.52343 -6.32032,3.28125 -9.61719,1.91406 -3.30078,-1.36719 -5.44922,-4.58594 -5.44922,-8.15625 V 8.832031 c 0,-4.875 3.94922,-8.82812475 8.82422,-8.82812475 h 102.27734 c 3.57032,0 6.78907,2.14843775 8.15235,5.44921875 1.36718,3.296875 0.61328,7.09375 -1.91016,9.621094 l -31.71875,31.714843 c 11.94922,8.464844 23.17188,17.914063 33.54688,28.25 48.07421,47.945308 75.07421,113.066408 75.03125,180.964848 z m 0,0"
           inkscape:connector-curvature="0"
           style="fill:#ffffff;stroke-width:9.50200272" />
      </g>
    </g>
  </g>
</svg>
