<?xml version="1.0" encoding="UTF-8" standalone="no"?>
<!-- Created with Inkscape (http://www.inkscape.org/) -->

<svg
   xmlns:dc="http://purl.org/dc/elements/1.1/"
   xmlns:cc="http://creativecommons.org/ns#"
   xmlns:rdf="http://www.w3.org/1999/02/22-rdf-syntax-ns#"
   xmlns:svg="http://www.w3.org/2000/svg"
   xmlns="http://www.w3.org/2000/svg"
   xmlns:sodipodi="http://sodipodi.sourceforge.net/DTD/sodipodi-0.dtd"
   xmlns:inkscape="http://www.inkscape.org/namespaces/inkscape"
   width="25mm"
   height="25mm"
   viewBox="0 0 25 25"
   version="1.1"
   id="svg10048"
   inkscape:version="0.92.2 5c3e80d, 2017-08-06"
   sodipodi:docname="calidad.svg">
  <defs
     id="defs10042">
    <clipPath
       clipPathUnits="userSpaceOnUse"
       id="clipPath15409">
      <rect
         ry="0"
         y="168.45323"
         x="-507.81848"
         height="105.42503"
         width="91.545845"
         id="rect15411"
         style="opacity:0.68699999;fill:#ffffff;fill-opacity:1;stroke:none;stroke-width:0.96499997;stroke-linecap:round;stroke-linejoin:round;stroke-miterlimit:4;stroke-dasharray:none;stroke-opacity:1" />
    </clipPath>
  </defs>
  <sodipodi:namedview
     id="base"
     pagecolor="#ffffff"
     bordercolor="#666666"
     borderopacity="1.0"
     inkscape:pageopacity="0.0"
     inkscape:pageshadow="2"
     inkscape:zoom="1.979899"
     inkscape:cx="-104.49005"
     inkscape:cy="97.528114"
     inkscape:document-units="mm"
     inkscape:current-layer="layer1"
     showgrid="false"
     inkscape:window-width="2048"
     inkscape:window-height="1447"
     inkscape:window-x="0"
     inkscape:window-y="0"
     inkscape:window-maximized="0" />
  <metadata
     id="metadata10045">
    <rdf:RDF>
      <cc:Work
         rdf:about="">
        <dc:format>image/svg+xml</dc:format>
        <dc:type
           rdf:resource="http://purl.org/dc/dcmitype/StillImage" />
        <dc:title></dc:title>
      </cc:Work>
    </rdf:RDF>
  </metadata>
  <g
     inkscape:label="Capa 1"
     inkscape:groupmode="layer"
     id="layer1"
     transform="translate(0,-272)">
    <path
       style="fill:#ffffff;stroke-width:0.1;stroke:#ffffff;stroke-opacity:1;stroke-miterlimit:4;stroke-dasharray:none"
       d="m 8.9834034,294.84833 c -0.069424,-0.0423 -0.1468145,-0.13603 -0.1719778,-0.20821 -0.032456,-0.0931 -0.045752,-1.01536 -0.045752,-3.17357 v -3.04232 l -0.1509512,-0.0978 c -0.1387607,-0.0899 -0.1802094,-0.16865 -0.5132412,-0.97484 -0.2981586,-0.72176 -0.3806744,-0.88557 -0.4661458,-0.92539 -0.057121,-0.0266 -0.4316257,-0.18409 -0.832233,-0.34996 -0.8517054,-0.35265 -0.8989869,-0.37982 -0.9742845,-0.56004 -0.051102,-0.1223 -0.044418,-0.23143 0.064078,-1.04625 0.066622,-0.50033 0.1211315,-0.92621 0.1211315,-0.94638 0,-0.0202 -0.2552643,-0.37007 -0.5672547,-0.77756 -0.3119898,-0.40749 -0.5786274,-0.78619 -0.5925284,-0.84158 -0.048994,-0.19521 0.052468,-0.37965 0.6068898,-1.10317 l 0.5599046,-0.73067 -0.121263,-0.91847 c -0.066695,-0.50516 -0.1119939,-0.96686 -0.1006658,-1.02601 0.036613,-0.19117 0.2207746,-0.30702 1.0092821,-0.63489 0.4257728,-0.17704 0.8103939,-0.3413 0.8547132,-0.36502 0.053433,-0.0286 0.1942293,-0.31965 0.4179026,-0.86389 0.3829758,-0.93186 0.4877645,-1.08313 0.7514338,-1.08476 0.085685,-4.6e-4 0.5402055,0.048 1.0100444,0.10788 l 0.854253,0.10883 0.680971,-0.52264 c 0.754303,-0.57893 0.882011,-0.66088 1.029848,-0.66088 0.147837,0 0.275545,0.082 1.029849,0.66088 l 0.680971,0.52264 0.854253,-0.10883 c 0.469839,-0.0599 0.924359,-0.1084 1.010044,-0.10788 0.263669,0.002 0.368458,0.1529 0.751434,1.08476 0.223673,0.54424 0.36447,0.8353 0.417902,0.86389 0.04432,0.0238 0.42894,0.18798 0.854713,0.36502 0.788508,0.32787 0.972669,0.44372 1.009282,0.63489 0.01133,0.0592 -0.03397,0.52085 -0.100666,1.02601 l -0.121262,0.91847 0.559905,0.73067 c 0.554422,0.72352 0.655884,0.90796 0.606889,1.10317 -0.0139,0.0554 -0.280539,0.43409 -0.592529,0.84158 -0.31199,0.40749 -0.567254,0.7522 -0.567254,0.76603 0,0.0138 0.05429,0.44023 0.120646,0.94755 0.107569,0.8224 0.114514,0.93707 0.06408,1.05778 -0.07477,0.17894 -0.12288,0.20655 -0.973799,0.55887 -0.400608,0.16587 -0.775112,0.32336 -0.832233,0.34996 -0.08547,0.0398 -0.167987,0.20363 -0.466146,0.92539 -0.333031,0.80619 -0.37448,0.88491 -0.513241,0.97484 l -0.150951,0.0978 v 3.04966 c 0,3.34145 0.0055,3.2626 -0.237595,3.38833 -0.246923,0.12769 -0.283428,0.11025 -1.858906,-0.88756 -0.825808,-0.52301 -1.521231,-0.95093 -1.545384,-0.95093 -0.02415,0 -0.719575,0.42792 -1.545383,0.95093 -1.6016656,1.0144 -1.6279422,1.02662 -1.8787713,0.87367 z m 1.8933216,-1.97083 c 1.348902,-0.85751 1.36117,-0.86443 1.530833,-0.86443 0.169663,0 0.181931,0.007 1.530833,0.86443 0.586015,0.37253 1.091326,0.68724 1.122915,0.69936 0.04924,0.0189 0.05743,-0.35405 0.05743,-2.6138 0,-2.07156 -0.01083,-2.63993 -0.05058,-2.6549 -0.109132,-0.0411 -0.939631,-0.13329 -0.979455,-0.10875 -0.02326,0.0143 -0.307157,0.22963 -0.630876,0.47845 -0.812095,0.62418 -0.874356,0.66352 -1.050268,0.66352 -0.175912,0 -0.238174,-0.0393 -1.050269,-0.66352 -0.323719,-0.24882 -0.607613,-0.46412 -0.630876,-0.47845 -0.03983,-0.0246 -0.8703231,0.0677 -0.9794545,0.10875 -0.039753,0.0149 -0.050582,0.58334 -0.050582,2.6549 0,2.25975 0.00819,2.6327 0.057433,2.6138 0.031589,-0.0121 0.5369005,-0.32683 1.1229145,-0.69936 z m 2.240171,-5.09313 c 0.365985,-0.27771 0.712299,-0.51669 0.769587,-0.53106 0.05729,-0.0144 0.477484,0.0236 0.933769,0.0842 0.456285,0.0607 0.838986,0.101 0.850447,0.0895 0.01146,-0.0114 0.163879,-0.36142 0.338705,-0.77767 0.174827,-0.41626 0.357691,-0.79923 0.406365,-0.85104 0.04978,-0.053 0.422193,-0.23153 0.851253,-0.4081 0.419514,-0.17264 0.770708,-0.33462 0.780431,-0.35996 0.0097,-0.0253 -0.02602,-0.37224 -0.07944,-0.77089 -0.114336,-0.85337 -0.117562,-0.95333 -0.03586,-1.11133 0.03397,-0.0657 0.27244,-0.3931 0.529922,-0.72756 0.257483,-0.33446 0.458969,-0.63203 0.447748,-0.66127 -0.01122,-0.0292 -0.24088,-0.34084 -0.51035,-0.69242 -0.269471,-0.35159 -0.502119,-0.68677 -0.516995,-0.74484 -0.01488,-0.058 0.02058,-0.47887 0.07878,-0.93511 0.08119,-0.63634 0.09471,-0.84017 0.05806,-0.87517 -0.02628,-0.0251 -0.375547,-0.1794 -0.776154,-0.34291 -0.458494,-0.18713 -0.76586,-0.33662 -0.82954,-0.40345 -0.05564,-0.0584 -0.237193,-0.43882 -0.403452,-0.84539 -0.166258,-0.40658 -0.329883,-0.74983 -0.363611,-0.76277 -0.03373,-0.0129 -0.380247,0.0168 -0.770044,0.066 -0.389797,0.0493 -0.783571,0.0893 -0.875053,0.0889 -0.192677,-6.3e-4 -0.255626,-0.0395 -1.001275,-0.6159 -0.286088,-0.22117 -0.541433,-0.4103 -0.567435,-0.42027 -0.026,-0.01 -0.310898,0.18505 -0.633103,0.4334 -0.322206,0.24834 -0.640457,0.48535 -0.707225,0.5267 -0.156645,0.097 -0.296875,0.0954 -1.1538413,-0.0128 -0.3897971,-0.0493 -0.736317,-0.079 -0.7700446,-0.066 -0.033728,0.0129 -0.1973525,0.35618 -0.363611,0.76275 -0.1662585,0.40658 -0.3478118,0.787 -0.4034517,0.8454 -0.06368,0.0668 -0.3710457,0.21632 -0.8295404,0.40345 -0.4006073,0.1635 -0.7498766,0.31781 -0.7761537,0.34291 -0.03665,0.035 -0.023129,0.23882 0.058058,0.87516 0.058208,0.45625 0.093662,0.87705 0.078785,0.93512 -0.014877,0.0581 -0.2475247,0.39325 -0.5169954,0.74484 -0.2694707,0.35158 -0.499128,0.66317 -0.5103496,0.69242 -0.011222,0.0293 0.1902648,0.32681 0.4477472,0.66127 0.2574824,0.33445 0.4959478,0.66186 0.529923,0.72755 0.081704,0.158 0.078479,0.25797 -0.035857,1.11133 -0.053413,0.39866 -0.08916,0.74556 -0.079438,0.7709 0.00972,0.0253 0.3609163,0.18732 0.7804307,0.35996 0.4290598,0.17657 0.8014701,0.35511 0.8512527,0.4081 0.048675,0.0518 0.2315388,0.43478 0.4063655,0.85103 0.1748262,0.41626 0.3271132,0.76608 0.3384157,0.77738 0.011302,0.0113 0.4021959,-0.0298 0.8686539,-0.0913 0.694595,-0.0916 0.869059,-0.10312 0.963877,-0.0636 0.06367,0.0266 0.39802,0.26538 0.742988,0.53074 0.344967,0.26536 0.65075,0.48341 0.679517,0.48455 0.02877,10e-4 0.351747,-0.22513 0.717732,-0.50284 z m -1.579344,-1.22124 c -0.931147,-0.16753 -1.7703785,-0.60158 -2.4742693,-1.27967 -1.1699654,-1.12709 -1.6917001,-2.65486 -1.4512989,-4.24977 0.1307036,-0.86713 0.6057592,-1.91457 0.9403424,-2.07334 0.2851434,-0.13531 0.6174625,0.0832 0.6178404,0.40631 8.09e-5,0.0668 -0.054846,0.22155 -0.1220536,0.34396 -0.3865922,0.70411 -0.5266801,1.1765 -0.5552713,1.87243 -0.047676,1.16048 0.293225,2.09282 1.0592927,2.89711 1.5722266,1.65067 4.1386206,1.65067 5.7108476,0 0.766068,-0.80429 1.106969,-1.73663 1.059293,-2.89711 -0.02549,-0.62044 -0.140104,-1.05372 -0.424284,-1.60395 -0.420671,-0.8145 -1.017842,-1.37991 -1.887857,-1.78747 -0.514142,-0.24084 -0.644054,-0.40283 -0.550475,-0.68638 0.109852,-0.33286 0.39742,-0.38515 0.903326,-0.16429 0.99462,0.43422 1.882127,1.2767 2.378051,2.25738 0.321562,0.63589 0.478187,1.25495 0.509597,2.01415 0.05758,1.39174 -0.467275,2.67725 -1.498799,3.67097 -0.717865,0.69155 -1.551082,1.11682 -2.514736,1.28349 -0.447793,0.0774 -1.257989,0.0756 -1.699546,-0.004 z M 9.3079096,278.6828 c -0.1137956,-0.1138 -0.1375824,-0.16767 -0.1375824,-0.31155 0,-0.15582 0.020495,-0.19316 0.1965664,-0.35811 0.3969088,-0.37186 1.1638124,-0.75743 1.8659224,-0.93812 0.474881,-0.12221 1.098309,-0.1801 1.297342,-0.12047 0.35688,0.10692 0.436821,0.59557 0.13029,0.79642 -0.06002,0.0393 -0.26008,0.0799 -0.509449,0.10339 -0.787808,0.0741 -1.395801,0.29311 -2.049208,0.73808 -0.419169,0.28546 -0.5804257,0.30381 -0.7938814,0.0904 z"
       id="path830"
       inkscape:connector-curvature="0"
       inkscape:export-filename="/Users/alonso/Documents/Ariel/AIH/AIH GROUP/Website/Recursos/DIVISIONES/ICONOS/blancos/calidad.png"
       inkscape:export-xdpi="300"
       inkscape:export-ydpi="300" />
  </g>
</svg>
