<?xml version="1.0" encoding="UTF-8" standalone="no"?>
<!-- Created with Inkscape (http://www.inkscape.org/) -->

<svg
   xmlns:dc="http://purl.org/dc/elements/1.1/"
   xmlns:cc="http://creativecommons.org/ns#"
   xmlns:rdf="http://www.w3.org/1999/02/22-rdf-syntax-ns#"
   xmlns:svg="http://www.w3.org/2000/svg"
   xmlns="http://www.w3.org/2000/svg"
   xmlns:sodipodi="http://sodipodi.sourceforge.net/DTD/sodipodi-0.dtd"
   xmlns:inkscape="http://www.inkscape.org/namespaces/inkscape"
   width="25mm"
   height="25mm"
   viewBox="0 0 25 25"
   version="1.1"
   id="svg10048"
   inkscape:version="0.92.2 5c3e80d, 2017-08-06"
   sodipodi:docname="compromiso.svg">
  <defs
     id="defs10042">
    <clipPath
       clipPathUnits="userSpaceOnUse"
       id="clipPath15409">
      <rect
         ry="0"
         y="168.45323"
         x="-507.81848"
         height="105.42503"
         width="91.545845"
         id="rect15411"
         style="opacity:0.68699999;fill:#ffffff;fill-opacity:1;stroke:none;stroke-width:0.96499997;stroke-linecap:round;stroke-linejoin:round;stroke-miterlimit:4;stroke-dasharray:none;stroke-opacity:1" />
    </clipPath>
  </defs>
  <sodipodi:namedview
     id="base"
     pagecolor="#ffffff"
     bordercolor="#666666"
     borderopacity="1.0"
     inkscape:pageopacity="0.0"
     inkscape:pageshadow="2"
     inkscape:zoom="0.49497475"
     inkscape:cx="-71.284153"
     inkscape:cy="339.90219"
     inkscape:document-units="mm"
     inkscape:current-layer="layer1"
     showgrid="false"
     inkscape:window-width="2048"
     inkscape:window-height="1447"
     inkscape:window-x="0"
     inkscape:window-y="1"
     inkscape:window-maximized="0" />
  <metadata
     id="metadata10045">
    <rdf:RDF>
      <cc:Work
         rdf:about="">
        <dc:format>image/svg+xml</dc:format>
        <dc:type
           rdf:resource="http://purl.org/dc/dcmitype/StillImage" />
        <dc:title></dc:title>
      </cc:Work>
    </rdf:RDF>
  </metadata>
  <g
     inkscape:label="Capa 1"
     inkscape:groupmode="layer"
     id="layer1"
     transform="translate(0,-272)">
    <g
       id="surface1"
       transform="matrix(0.03980981,0,0,0.03980981,4.2263556,274.3087)"
       style="fill:#ffffff;stroke-width:8.8442831"
       inkscape:export-filename="/Users/alonso/Documents/Ariel/AIH/AIH GROUP/Website/Recursos/DIVISIONES/ICONOS/blancos/manita.png"
       inkscape:export-xdpi="156"
       inkscape:export-ydpi="156">
      <path
         id="path5453"
         style="fill:#ffffff;fill-opacity:1;fill-rule:nonzero;stroke:none;stroke-width:8.8442831"
         d="m 399.41406,218.60547 c -13.16797,-10.76563 -31.8164,-14.21094 -47.51562,-8.78125 -4.20703,1.45703 -8.11328,3.5 -11.61328,6.07422 -8.92579,6.5664 -28.74219,26.27734 -44.44532,45.78515 V 111.3125 c 0,-12.78125 -5.2539,-25.273438 -14.41406,-34.277344 -9.09375,-8.9375 -21.03906,-13.757812 -33.57422,-13.523437 -5.6914,0.101562 -11.14453,1.230469 -16.18359,3.203125 v -14.6875 c 0,-13.910156 -5.71875,-27.507813 -15.69531,-37.3125 C 206.08594,4.996094 193.14844,-0.242188 179.46484,0.0078125 152.18359,0.480469 129.91016,22.65625 129.09375,49.765625 123.18359,47.085938 116.76563,45.582031 110.12109,45.382812 96.261719,44.976562 82.535156,50.339844 72.472656,60.109375 62.617188,69.675781 57.1875,82.304688 57.1875,95.632812 L 57.152344,109.875 C 52.898438,108.47656 48.363281,107.71094 43.648438,107.71094 19.855469,107.71094 0.5,127.06641 0.5,150.85547 l 0.015625,218.58594 0.035156,1.03515 c 1.988281,28.6875 7.992188,53.25 17.851563,73.00781 9.242187,18.52344 22.136718,33.4375 38.324218,44.32813 C 88.582031,509.25 127.93359,512 158.65625,512 c 60.33203,0 114.60937,-29.99609 141.75391,-78.30859 3.30078,-5.32032 12,-19 21.39453,-33.75391 9.14843,-14.375 17.66015,-27.62109 25.16406,-39.30859 4.125,-6.42579 7.87891,-12.26954 11.13672,-17.36329 12.13672,-18.98046 25.07031,-37.38281 38.44531,-54.69921 4.96094,-6.42188 6.48828,-8.16407 6.83594,-8.54688 6.26172,-6.83203 10.20703,-15.19531 11.41015,-24.19141 1.89454,-14.11328 -3.71484,-27.68359 -15.38281,-37.22265 z m -14.38281,33.23828 c -0.38672,2.875 -1.69531,5.60156 -3.78516,7.88281 -1.08984,1.19141 -3.03906,3.45703 -8.46093,10.48047 -13.91797,18.01563 -27.3711,37.15234 -39.98438,56.87891 -3.25,5.08203 -6.98828,10.90234 -11.10547,17.3125 -7.51953,11.71093 -16.04297,24.98828 -25.22656,39.41015 -9.61328,15.10157 -18.51172,29.08985 -21.76953,34.35157 l -0.33985,0.57812 c -21.78515,39 -66.11718,63.22656 -115.69921,63.22656 -26.45704,0 -60.050785,-2.16797 -85.164066,-19.0664 -25.625,-17.24219 -39.671875,-47.98438 -42.945313,-93.98438 l -0.01563,-218.05469 c 0,-7.23046 5.882813,-13.11328 13.113282,-13.11328 7.273437,0 13.191406,5.88282 13.191406,13.11328 v 81.80079 c 0,0.24218 0.02734,0.47656 0.03516,0.71875 0.01563,0.26562 0.01563,0.53515 0.04297,0.80078 0.02344,0.23828 0.07031,0.46875 0.105469,0.70312 0.03906,0.26172 0.06641,0.52735 0.117187,0.78906 0.05078,0.23438 0.121094,0.46485 0.179687,0.69532 0.0625,0.24609 0.113282,0.5 0.191407,0.74218 0.07031,0.23438 0.164062,0.46094 0.25,0.6875 0.08203,0.23047 0.15625,0.46485 0.253906,0.69141 0.09375,0.22656 0.207031,0.44141 0.3125,0.66016 0.105469,0.21875 0.203125,0.4414 0.316406,0.65625 0.113281,0.21093 0.25,0.41406 0.375,0.62109 0.125,0.20703 0.242188,0.41797 0.375,0.61719 0.136719,0.19922 0.289063,0.38672 0.433594,0.57812 0.144531,0.19532 0.277344,0.39453 0.429687,0.57813 0.152344,0.18359 0.320313,0.35156 0.476563,0.52734 0.164063,0.17969 0.320313,0.3711 0.492187,0.54297 0.167969,0.16406 0.34375,0.3125 0.519532,0.47266 0.179687,0.16406 0.355468,0.33984 0.546875,0.49609 0.179687,0.14844 0.371093,0.28125 0.558593,0.42188 0.199219,0.14843 0.390626,0.30468 0.59375,0.44531 0.191407,0.1289 0.394532,0.23828 0.589844,0.35547 0.214844,0.13281 0.425782,0.27343 0.648438,0.39843 0.203125,0.10938 0.417968,0.19922 0.625,0.30079 0.226562,0.11328 0.453125,0.23046 0.6875,0.33203 0.214844,0.0937 0.445312,0.16406 0.664062,0.24609 0.238282,0.0859 0.472656,0.18359 0.714844,0.26172 0.230469,0.0703 0.472656,0.12109 0.707031,0.18359 0.246094,0.0625 0.484375,0.13672 0.730469,0.1875 0.25,0.0508 0.5,0.0781 0.75,0.11719 0.25,0.0352 0.492188,0.0859 0.742188,0.11328 0.25,0.0234 0.507812,0.0273 0.761718,0.0391 0.25,0.0117 0.5,0.0391 0.753906,0.0391 0.01172,0 0.02734,0 0.03906,0 0.519531,0 1.03125,-0.0273 1.535156,-0.0781 0.21875,-0.0195 0.433594,-0.0664 0.652344,-0.0977 0.277344,-0.0391 0.5625,-0.0703 0.835937,-0.12891 0.289063,-0.0586 0.566407,-0.14063 0.847657,-0.21484 0.195312,-0.0547 0.398437,-0.0937 0.589843,-0.15235 0.3125,-0.0977 0.617188,-0.21875 0.921876,-0.33594 0.148437,-0.0586 0.308593,-0.10546 0.457031,-0.16796 0.304687,-0.12891 0.59375,-0.28125 0.886719,-0.42579 0.140624,-0.0703 0.285156,-0.1289 0.425781,-0.20312 0.273437,-0.14844 0.53125,-0.32031 0.792969,-0.48438 0.148437,-0.0898 0.300781,-0.17187 0.441406,-0.26953 0.242187,-0.16015 0.472656,-0.34375 0.703125,-0.52343 0.152343,-0.11329 0.308593,-0.21875 0.453125,-0.33985 0.214844,-0.17187 0.410156,-0.36719 0.613281,-0.55469 0.152344,-0.13671 0.308594,-0.26953 0.457031,-0.41015 0.1875,-0.1875 0.355469,-0.39063 0.53125,-0.58594 0.144532,-0.16016 0.300782,-0.31641 0.4375,-0.48047 0.15625,-0.1914 0.296875,-0.39453 0.445313,-0.59375 0.140625,-0.1875 0.289062,-0.36719 0.417969,-0.5625 0.136718,-0.19922 0.25,-0.40625 0.375,-0.61328 0.125,-0.20703 0.261718,-0.41016 0.378906,-0.62109 0.113281,-0.21094 0.207031,-0.42969 0.3125,-0.64453 0.105468,-0.22266 0.222656,-0.44141 0.320312,-0.66797 0.09375,-0.21875 0.164063,-0.44922 0.246094,-0.67188 0.08984,-0.23437 0.183594,-0.46484 0.261719,-0.70703 0.07031,-0.23047 0.121093,-0.46484 0.179687,-0.69922 0.0625,-0.24609 0.136719,-0.48828 0.191406,-0.73828 0.04688,-0.23437 0.07422,-0.48047 0.109376,-0.72266 0.04297,-0.2539 0.08984,-0.50781 0.117187,-0.76562 0.02734,-0.24219 0.02734,-0.49219 0.03906,-0.73828 0.01562,-0.26172 0.04297,-0.51563 0.04297,-0.77735 l 0.34766,-137.031295 c 0,-5.171875 2.191407,-10.148437 6.167969,-14.011719 4.273438,-4.144531 10.054689,-6.433594 15.839849,-6.253906 10.83593,0.324219 19.65234,9.75 19.65234,21.035156 l 0.17187,135.425784 c 0,0.27343 0.0273,0.53906 0.043,0.80468 0.0117,0.23829 0.0117,0.48438 0.0352,0.71875 0.0273,0.28125 0.082,0.55079 0.125,0.82422 0.0352,0.22266 0.0586,0.44922 0.10156,0.66797 0.0625,0.29688 0.14844,0.58594 0.22656,0.875 0.0508,0.1875 0.0898,0.37891 0.14453,0.5625 0.0977,0.3125 0.22266,0.61719 0.33985,0.92188 0.0586,0.15234 0.10156,0.30859 0.16406,0.45703 0.14063,0.32422 0.30078,0.64062 0.46094,0.95312 0.0625,0.11719 0.10937,0.24219 0.17187,0.35547 0.17578,0.32422 0.375,0.63281 0.57032,0.9375 0.0625,0.10156 0.11718,0.20313 0.18359,0.30078 0.20703,0.3086 0.43359,0.59766 0.66016,0.88672 0.0703,0.0898 0.13281,0.1836 0.20312,0.26953 0.25391,0.3086 0.52734,0.59766 0.80469,0.88282 0.0586,0.0625 0.10547,0.125 0.16406,0.18359 0.28516,0.28516 0.58984,0.55078 0.89844,0.8125 0.0586,0.0508 0.10937,0.10547 0.16797,0.15625 0.30859,0.25391 0.6289,0.48437 0.95312,0.71094 0.0703,0.0508 0.13281,0.10547 0.20313,0.15234 0.32812,0.22266 0.67187,0.42188 1.01562,0.61719 0.0742,0.043 0.14453,0.0937 0.22266,0.13672 0.35937,0.1914 0.73047,0.36328 1.10547,0.53125 0.0703,0.0312 0.13672,0.0703 0.20703,0.10156 0.38281,0.16016 0.77734,0.29687 1.17578,0.42969 0.0703,0.0195 0.13281,0.0508 0.20312,0.0742 0.39454,0.12109 0.79688,0.21875 1.19922,0.30859 0.082,0.0156 0.16016,0.043 0.24219,0.0625 0.97656,0.19922 1.98828,0.30469 3.02344,0.30469 0.008,0 0.0156,0 0.0234,0 0.26171,0 0.51953,-0.0273 0.77734,-0.0391 0.25,-0.0156 0.5,-0.0156 0.74609,-0.0391 0.27344,-0.0312 0.53516,-0.082 0.80469,-0.125 0.22656,-0.0352 0.46094,-0.0586 0.6875,-0.10547 0.26953,-0.0547 0.53125,-0.13281 0.79688,-0.20312 0.21484,-0.0586 0.42968,-0.10156 0.64062,-0.16797 0.26953,-0.082 0.52734,-0.1875 0.78906,-0.28906 0.19532,-0.0742 0.39844,-0.13282 0.58985,-0.21485 0.26953,-0.11718 0.53125,-0.2539 0.79297,-0.38281 0.17187,-0.0859 0.35156,-0.16016 0.51953,-0.25 0.25781,-0.14062 0.5039,-0.30469 0.7539,-0.45703 0.16016,-0.10156 0.32813,-0.19141 0.48438,-0.29688 0.23828,-0.16015 0.46094,-0.33984 0.6875,-0.51562 0.15625,-0.11719 0.3164,-0.22656 0.46875,-0.35156 0.21484,-0.17578 0.41797,-0.375 0.625,-0.56641 0.14453,-0.13281 0.29687,-0.26172 0.4414,-0.40234 0.19141,-0.19532 0.3711,-0.40625 0.55469,-0.60938 0.13672,-0.15234 0.28125,-0.29687 0.41406,-0.45703 0.16407,-0.20312 0.3125,-0.41797 0.46485,-0.625 0.13281,-0.17969 0.27344,-0.35156 0.39844,-0.53125 0.14062,-0.20703 0.25781,-0.42578 0.38671,-0.64062 0.1211,-0.19922 0.25391,-0.39454 0.36329,-0.59766 0.11718,-0.21484 0.21093,-0.44141 0.3164,-0.66016 0.10547,-0.21875 0.22266,-0.42968 0.31641,-0.65625 0.0898,-0.21484 0.16406,-0.4414 0.24219,-0.66406 0.0898,-0.23828 0.1875,-0.47266 0.26171,-0.71484 0.0703,-0.23438 0.1211,-0.47266 0.1836,-0.71094 0.0625,-0.24219 0.13672,-0.48047 0.18359,-0.72656 0.0508,-0.2461 0.0781,-0.5 0.11719,-0.7461 0.0352,-0.25 0.0859,-0.49609 0.10937,-0.74609 0.0273,-0.25391 0.0273,-0.51172 0.0391,-0.76953 0.0156,-0.25391 0.0391,-0.5 0.0391,-0.75781 V 51.308594 c 0,-11.53125 9.375,-21.070313 20.89453,-21.269532 5.55859,-0.07812 10.83984,2.070313 14.9375,6.097657 4.26563,4.191406 6.71094,9.984375 6.71094,15.890625 V 232.67578 c 0,0.27344 0.0273,0.53906 0.043,0.80859 0.0117,0.23829 0.0117,0.48047 0.0352,0.71875 0.0273,0.26563 0.082,0.52344 0.1211,0.78516 0.0391,0.23828 0.0625,0.47656 0.10937,0.70703 0.0547,0.26172 0.13281,0.51563 0.19922,0.77344 0.0586,0.22266 0.10156,0.44531 0.17188,0.66406 0.0859,0.27735 0.19531,0.54688 0.29687,0.81641 0.0703,0.1875 0.12891,0.3789 0.20703,0.5625 0.1211,0.28125 0.26172,0.55078 0.39844,0.82422 0.0781,0.16015 0.14844,0.32812 0.23437,0.48828 0.14844,0.27734 0.32032,0.53906 0.48829,0.80469 0.0898,0.14062 0.16796,0.29296 0.26562,0.43359 0.17969,0.26562 0.37891,0.51953 0.57813,0.77344 0.0977,0.125 0.18359,0.25781 0.28515,0.3789 0.21875,0.26953 0.46094,0.51953 0.69922,0.77344 0.0937,0.0937 0.17578,0.19922 0.26953,0.29297 0.2461,0.25 0.51172,0.47656 0.77735,0.70703 0.0977,0.0859 0.1875,0.17969 0.28906,0.26172 0.29687,0.24609 0.60937,0.46875 0.92187,0.69141 0.0781,0.0547 0.15235,0.11718 0.23438,0.17578 0.33594,0.22656 0.6875,0.43359 1.04297,0.63281 0.0664,0.0352 0.125,0.082 0.1914,0.11719 0.39063,0.21093 0.78907,0.39843 1.19922,0.57812 0.0391,0.0156 0.0742,0.0391 0.11328,0.0547 0.42578,0.17969 0.86328,0.33594 1.3086,0.47656 0.0234,0.0117 0.0469,0.0195 0.0742,0.0273 0.93359,0.29296 1.90625,0.49218 2.91015,0.59765 0.008,0 0.0117,0 0.0195,0 0.50391,0.0508 1.01563,0.0781 1.53516,0.0781 0.004,0 0.008,0 0.0156,0 0.26563,0 0.52735,-0.0273 0.79297,-0.0391 0.2461,-0.0156 0.49219,-0.0156 0.73438,-0.0391 0.27734,-0.0273 0.54687,-0.082 0.82031,-0.125 0.22266,-0.0352 0.44922,-0.0586 0.67188,-0.10547 0.29296,-0.0586 0.57421,-0.14453 0.85937,-0.21875 0.19141,-0.0508 0.39063,-0.0898 0.57813,-0.14843 0.30468,-0.0977 0.59765,-0.21485 0.89453,-0.32813 0.16015,-0.0625 0.32422,-0.11328 0.48437,-0.17969 0.30078,-0.1289 0.58985,-0.27734 0.88281,-0.42578 0.14063,-0.0703 0.28907,-0.1289 0.42969,-0.20703 0.28516,-0.15625 0.5586,-0.33203 0.83594,-0.50781 0.13281,-0.082 0.26953,-0.15625 0.40234,-0.2461 0.28125,-0.1875 0.54297,-0.39843 0.8086,-0.60546 0.11328,-0.0859 0.23437,-0.16797 0.34765,-0.25782 0.26172,-0.21875 0.50782,-0.45703 0.75782,-0.6914 0.10156,-0.0937 0.21093,-0.17969 0.30468,-0.27735 0.24219,-0.24218 0.46875,-0.5 0.69141,-0.76172 0.0937,-0.10156 0.19141,-0.19921 0.28125,-0.30468 0.21484,-0.26172 0.41016,-0.53907 0.60547,-0.8125 0.082,-0.11719 0.17578,-0.22657 0.25781,-0.34375 0.18359,-0.27344 0.34766,-0.5586 0.51172,-0.84375 0.0781,-0.13282 0.16797,-0.25782 0.24219,-0.39453 0.15625,-0.28907 0.28906,-0.58985 0.42578,-0.89063 0.0664,-0.14062 0.14453,-0.27734 0.20312,-0.42187 0.125,-0.29297 0.22657,-0.59766 0.33203,-0.89844 0.0547,-0.16016 0.125,-0.31641 0.17579,-0.48438 0.0859,-0.28515 0.15234,-0.58593 0.22656,-0.8789 0.043,-0.1875 0.10156,-0.3711 0.14062,-0.5586 0.0586,-0.28906 0.0937,-0.58984 0.13672,-0.88281 0.0273,-0.20312 0.0703,-0.40234 0.0898,-0.60937 0.0312,-0.27344 0.0312,-0.55469 0.043,-0.83594 0.0117,-0.23047 0.0352,-0.45703 0.0352,-0.69531 V 108.70703 c 0.97656,-8.3789 8.08984,-15.015624 16.70313,-15.164061 4.42578,-0.07422 8.69921,1.667969 12,4.914062 3.45312,3.390629 5.43359,8.078129 5.43359,12.855469 v 177.26172 l 0.008,0.67187 c 0.082,9.73047 6.47266,17.95313 15.89844,20.46094 9.36328,2.48828 18.92969,-1.44531 23.85156,-9.875 l 0.0937,-0.16797 c 11.77344,-20.57031 43.24219,-52.8125 52.42969,-59.57031 1.0625,-0.78516 2.28516,-1.41406 3.63281,-1.88281 5.98438,-2.06641 13.48828,-0.60157 18.6836,3.64843 2.44531,2.00391 5.23828,5.36329 4.62109,9.98438 z m 0,0"
         inkscape:connector-curvature="0" />
    </g>
  </g>
</svg>
