<?xml version="1.0" encoding="UTF-8" standalone="no"?>
<!-- Created with Inkscape (http://www.inkscape.org/) -->

<svg
   xmlns:dc="http://purl.org/dc/elements/1.1/"
   xmlns:cc="http://creativecommons.org/ns#"
   xmlns:rdf="http://www.w3.org/1999/02/22-rdf-syntax-ns#"
   xmlns:svg="http://www.w3.org/2000/svg"
   xmlns="http://www.w3.org/2000/svg"
   xmlns:sodipodi="http://sodipodi.sourceforge.net/DTD/sodipodi-0.dtd"
   xmlns:inkscape="http://www.inkscape.org/namespaces/inkscape"
   width="25mm"
   height="25mm"
   viewBox="0 0 25 25"
   version="1.1"
   id="svg10048"
   inkscape:version="0.92.2 5c3e80d, 2017-08-06"
   sodipodi:docname="seguimiento.svg">
  <defs
     id="defs10042">
    <clipPath
       clipPathUnits="userSpaceOnUse"
       id="clipPath15409">
      <rect
         ry="0"
         y="168.45323"
         x="-507.81848"
         height="105.42503"
         width="91.545845"
         id="rect15411"
         style="opacity:0.68699999;fill:#ffffff;fill-opacity:1;stroke:none;stroke-width:0.96499997;stroke-linecap:round;stroke-linejoin:round;stroke-miterlimit:4;stroke-dasharray:none;stroke-opacity:1" />
    </clipPath>
  </defs>
  <sodipodi:namedview
     id="base"
     pagecolor="#ffffff"
     bordercolor="#666666"
     borderopacity="1.0"
     inkscape:pageopacity="0.0"
     inkscape:pageshadow="2"
     inkscape:zoom="0.7"
     inkscape:cx="6.4840716"
     inkscape:cy="214.40517"
     inkscape:document-units="mm"
     inkscape:current-layer="layer1"
     showgrid="false"
     inkscape:window-width="2048"
     inkscape:window-height="1447"
     inkscape:window-x="0"
     inkscape:window-y="1"
     inkscape:window-maximized="0" />
  <metadata
     id="metadata10045">
    <rdf:RDF>
      <cc:Work
         rdf:about="">
        <dc:format>image/svg+xml</dc:format>
        <dc:type
           rdf:resource="http://purl.org/dc/dcmitype/StillImage" />
        <dc:title></dc:title>
      </cc:Work>
    </rdf:RDF>
  </metadata>
  <g
     inkscape:label="Capa 1"
     inkscape:groupmode="layer"
     id="layer1"
     transform="translate(0,-272)">
    <path
       style="fill:#ffffff;stroke-width:0.99999994"
       d="m 11.229986,294.07596 c -0.5334,-0.10538 -0.87785,-0.28311 -1.19394,-0.61616 -0.0871,-0.0919 -0.1836395,-0.20297 -0.2144595,-0.24706 -0.0977,-0.1398 -0.23699,-0.43874 -0.27829,-0.59747 -0.022,-0.0844 -0.0459,-0.15929 -0.0534,-0.16667 -0.007,-0.007 -0.076,-0.018 -0.15256,-0.0236 -0.3232,-0.0238 -0.41208,-0.0388 -0.59183,-0.0999 -0.28941,-0.0984 -0.49114,-0.21766 -0.70298,-0.41551 -0.30489,-0.28472 -0.55034,-0.70688 -0.60321,-1.03748 -0.01,-0.0594 -0.0306,-0.11835 -0.0467,-0.13104 -0.0163,-0.0123 -0.1148,-0.0307 -0.21897,-0.04 -0.4302704,-0.0382 -0.8372904,-0.23658 -1.1606304,-0.56576 -0.32729,-0.3332 -0.49907,-0.69901 -0.55597,-1.18391 l -0.0302,-0.25701 -0.1847,-0.0561 c -0.78282,-0.23779 -1.31373,-0.87832 -1.40737,-1.69797 -0.0456,-0.39973 0.0553,-0.86622 0.26567,-1.22801 0.0965,-0.16588 1.08685,-1.16761 1.43426,-1.45068 0.20877,-0.17013 0.48102,-0.31099 0.74199,-0.38391 0.26558,-0.0743 0.7857504,-0.0642 1.0632704,0.0207 0.7098,0.21686 1.23296,0.80014 1.38244,1.54134 0.0187,0.0928 0.0509,0.17718 0.0714,0.18745 0.0205,0.0109 0.13173,0.0385 0.24707,0.0628 0.69781,0.14712 1.3177895,0.75555 1.4696795,1.4422 0.0728,0.3291 0.0575,0.30784 0.24753,0.34342 0.62731,0.11754 1.14164,0.50711 1.4153,1.07223 0.14153,0.29225 0.18513,0.4744 0.20222,0.84458 l 0.0147,0.32026 0.0949,0.0303 c 0.29873,0.0954 0.74441,0.40162 0.93598,0.64288 0.29062,0.36603 0.45649,0.83046 0.45649,1.27823 0,0.19734 -0.0504,0.51808 -0.10265,0.65396 -0.0377,0.0977 -0.007,0.15163 0.14888,0.25864 0.21894,0.15062 0.53604,0.13337 0.73351,-0.0401 0.12081,-0.10607 0.1891,-0.25891 0.1891,-0.42346 0,-0.12872 -0.0702,-0.33006 -0.12722,-0.36534 -0.016,-0.01 -0.0288,-0.0319 -0.0288,-0.0491 1.8e-4,-0.0322 0.87417,-0.99483 0.91653,-1.00939 0.0137,-0.004 0.0893,0.0452 0.16926,0.1103 0.19269,0.15695 0.37004,0.21105 0.56157,0.17128 0.4364,-0.0906 0.54974,-0.63482 0.20971,-1.00687 -0.0699,-0.0764 -0.12708,-0.15545 -0.12708,-0.17559 0,-0.0202 0.21172,-0.24713 0.47048,-0.50444 l 0.47047,-0.46785 0.16526,0.15095 c 0.20058,0.18322 0.33288,0.24809 0.50605,0.24809 0.43177,0 0.70968,-0.45498 0.52147,-0.8537 -0.0265,-0.0561 -0.13487,-0.1867 -0.24087,-0.2902 -0.16102,-0.15723 -0.18841,-0.19604 -0.16654,-0.23595 0.0314,-0.0573 0.90396,-0.92598 0.93013,-0.92598 0.01,0 0.0827,0.0524 0.16136,0.11658 0.28772,0.23435 0.58592,0.22952 0.82994,-0.0136 0.23498,-0.23399 0.23491,-0.56331 -1.5e-4,-0.81032 -0.0669,-0.0703 -1.28162,-1.11368 -2.69943,-2.31871 -2.1068,-1.79061 -2.59152,-2.19096 -2.6527,-2.19096 -0.0631,0 -0.18966,0.1148 -0.80398,0.72931 -0.42683,0.42693 -0.79428,0.77165 -0.88628,0.83146 -0.69485,0.45162 -1.52076,0.46763 -2.25338,0.0437 -0.0872,-0.0505 -0.26467,-0.19903 -0.39454,-0.33035 -0.26541,-0.26837 -0.4156995,-0.51955 -0.5112795,-0.85463 -0.0711,-0.24943 -0.0965,-0.68798 -0.0539,-0.93241 0.0451,-0.25845 0.17995,-0.59936 0.3215695,-0.81238 0.067,-0.10074 0.41168,-0.49456 0.76602,-0.87518 0.35434,-0.38061 0.64427,-0.70817 0.64427,-0.72791 0,-0.0534 -0.43591,-0.32758 -0.8414,-0.52944 -0.59861,-0.29798 -1.3287495,-0.51024 -1.9876895,-0.57786 -0.1604,-0.0165 -1.17843,-0.0274 -2.5846004,-0.028 l -2.31994,-9e-4 v -0.68106 -0.68105 h 2.51991 c 2.7258704,0 2.7065304,-9.1e-4 3.3711604,0.14668 0.9461495,0.21002 1.8569395,0.61766 2.6551495,1.18836 0.12245,0.0875 0.2411,0.15925 0.26356,0.15925 0.0224,0 0.0928,-0.0384 0.15642,-0.0852 0.29144,-0.21477 0.70269,-0.45978 1.08751,-0.64793 0.58177,-0.28445 1.09045,-0.46307 1.69091,-0.59376 0.71083,-0.15473 0.60858,-0.14998 3.45393,-0.16037 l 2.62811,-0.01 v 0.69491 0.6949 l -2.56257,0.01 c -2.8175,0.01 -2.72866,0.005 -3.42771,0.17865 -0.93535,0.2321 -1.91236,0.7607 -2.57964,1.39565 -0.35479,0.33761 -1.72785,1.81933 -1.79837,1.94069 -0.0697,0.11999 -0.0786,0.15916 -0.0782,0.34509 3.5e-4,0.1639 0.0123,0.23303 0.0571,0.31636 0.12859,0.24218 0.42486,0.4036 0.67091,0.36555 0.26251,-0.0407 0.25849,-0.0374 1.2133,-0.98702 l 0.91934,-0.91443 1.29588,0.007 1.29588,0.007 0.0136,0.57251 0.0137,0.57253 0.0663,0.0571 c 0.0365,0.0314 1.01749,0.86773 2.18006,1.85866 1.16258,0.99093 2.17362,1.86883 2.24676,1.95091 0.16408,0.18408 0.32186,0.48223 0.40079,0.75735 0.0766,0.26684 0.0835,0.74683 0.0145,1.00783 -0.18011,0.68176 -0.77027,1.27551 -1.42174,1.43039 -0.12341,0.0293 -0.13555,0.0508 -0.15405,0.27264 -0.0637,0.76463 -0.61951,1.47221 -1.34024,1.70644 -0.0576,0.0187 -0.19915,0.0527 -0.31437,0.0752 l -0.2095,0.0412 -0.0173,0.12245 c -0.0534,0.37579 -0.24007,0.75988 -0.50439,1.03818 -0.314,0.33058 -0.6807,0.51493 -1.15572,0.581 -0.11439,0.0158 -0.21569,0.0415 -0.22516,0.0568 -0.01,0.0153 -0.0319,0.0947 -0.05,0.17649 -0.10539,0.47806 -0.49067,0.98515 -0.94462,1.24307 -0.41811,0.23754 -0.97469,0.30946 -1.45384,0.18786 -0.21635,-0.0549 -0.60316,-0.24696 -0.75769,-0.3762 -0.07,-0.0587 -0.13337,-0.10648 -0.14059,-0.10648 -0.007,0 -0.0856,0.0549 -0.1741,0.1219 -0.18685,0.14163 -0.51244,0.30115 -0.73764,0.36142 -0.15942,0.0427 -0.62711,0.0744 -0.74715,0.0506 z m 0.52035,-1.44375 c 0.14422,-0.0672 0.59814,-0.54406 0.67793,-0.71222 0.16604,-0.35 -0.0455,-0.76284 -0.44595,-0.87069 -0.17013,-0.0459 -0.36113,0.0109 -0.53721,0.15794 -0.22345,0.18729 -0.46287,0.44721 -0.52611,0.57117 -0.0614,0.12026 -0.0738,0.32191 -0.0298,0.48066 0.0351,0.12627 0.18416,0.29476 0.32058,0.36231 0.14149,0.07 0.40226,0.0752 0.54054,0.0109 z m -2.1560495,-1.64577 c 0.12176,-0.0509 1.2260995,-1.1173 1.3171895,-1.27198 0.14944,-0.25383 0.0642,-0.61523 -0.18409,-0.77945 -0.12586,-0.0833 -0.37623,-0.11071 -0.53688,-0.0588 -0.1474,0.0477 -1.3014295,1.19442 -1.3622395,1.35367 -0.0647,0.16965 -0.0405,0.39891 0.0573,0.53992 0.14881,0.2147 0.47488,0.31439 0.70875,0.21668 z m -1.94275,-1.72824 c 0.0968,-0.0461 0.30385,-0.23317 0.79077,-0.71413 0.55325,-0.54648 0.6669,-0.67153 0.70442,-0.77503 0.12818,-0.35356 -0.16335,-0.73756 -0.55957,-0.73719 -0.0919,8e-5 -0.18382,0.0182 -0.2395,0.047 -0.0497,0.0258 -0.38232,0.32933 -0.73913,0.67453 -0.7137504,0.69051 -0.7654604,0.75909 -0.7650804,1.01491 5.5e-4,0.42302 0.4178504,0.67594 0.8080904,0.48987 z m -1.5854204,-1.99524 c 0.12613,-0.0652 1.1470904,-1.056 1.2253204,-1.18914 0.13623,-0.23185 0.0627,-0.5796 -0.15651,-0.73829 -0.15646,-0.1133 -0.3434604,-0.1468 -0.5252004,-0.0939 -0.13487,0.0392 -0.18945,0.0838 -0.69266,0.56596 -0.30045,0.28786 -0.57221,0.56092 -0.60392,0.60675 -0.12818,0.18542 -0.12559,0.45748 0.007,0.65829 0.15215,0.23145 0.49702,0.31941 0.74652,0.19039 z"
       id="path9873"
       inkscape:connector-curvature="0"
       inkscape:export-filename="/Users/alonso/Documents/Ariel/AIH/AIH GROUP/Website/Recursos/DIVISIONES/ICONOS/blancos/confianza.png"
       inkscape:export-xdpi="156"
       inkscape:export-ydpi="156" />
  </g>
</svg>
