<?xml version="1.0" encoding="UTF-8" standalone="no"?>
<!-- Created with Inkscape (http://www.inkscape.org/) -->

<svg
   xmlns:dc="http://purl.org/dc/elements/1.1/"
   xmlns:cc="http://creativecommons.org/ns#"
   xmlns:rdf="http://www.w3.org/1999/02/22-rdf-syntax-ns#"
   xmlns:svg="http://www.w3.org/2000/svg"
   xmlns="http://www.w3.org/2000/svg"
   xmlns:sodipodi="http://sodipodi.sourceforge.net/DTD/sodipodi-0.dtd"
   xmlns:inkscape="http://www.inkscape.org/namespaces/inkscape"
   width="25mm"
   height="25mm"
   viewBox="0 0 25 25"
   version="1.1"
   id="svg10048"
   inkscape:version="0.92.2 5c3e80d, 2017-08-06"
   sodipodi:docname="creatividas.svg">
  <defs
     id="defs10042">
    <clipPath
       clipPathUnits="userSpaceOnUse"
       id="clipPath15409">
      <rect
         ry="0"
         y="168.45323"
         x="-507.81848"
         height="105.42503"
         width="91.545845"
         id="rect15411"
         style="opacity:0.68699999;fill:#ffffff;fill-opacity:1;stroke:none;stroke-width:0.96499997;stroke-linecap:round;stroke-linejoin:round;stroke-miterlimit:4;stroke-dasharray:none;stroke-opacity:1" />
    </clipPath>
  </defs>
  <sodipodi:namedview
     id="base"
     pagecolor="#ffffff"
     bordercolor="#666666"
     borderopacity="1.0"
     inkscape:pageopacity="0.0"
     inkscape:pageshadow="2"
     inkscape:zoom="0.35"
     inkscape:cx="-553.19857"
     inkscape:cy="483.48175"
     inkscape:document-units="mm"
     inkscape:current-layer="layer1"
     showgrid="false"
     inkscape:window-width="2048"
     inkscape:window-height="1447"
     inkscape:window-x="0"
     inkscape:window-y="1"
     inkscape:window-maximized="0" />
  <metadata
     id="metadata10045">
    <rdf:RDF>
      <cc:Work
         rdf:about="">
        <dc:format>image/svg+xml</dc:format>
        <dc:type
           rdf:resource="http://purl.org/dc/dcmitype/StillImage" />
        <dc:title></dc:title>
      </cc:Work>
    </rdf:RDF>
  </metadata>
  <g
     inkscape:label="Capa 1"
     inkscape:groupmode="layer"
     id="layer1"
     transform="translate(0,-272)">
    <path
       inkscape:export-ydpi="156"
       inkscape:export-xdpi="156"
       inkscape:export-filename="/Users/alonso/Documents/Ariel/AIH/AIH GROUP/Website/Recursos/DIVISIONES/ICONOS/blancos/creatividad.png"
       style="fill:#ffffff;stroke:#ffffff;stroke-width:0.40000004;stroke-miterlimit:4;stroke-dasharray:none;stroke-opacity:1"
       inkscape:connector-curvature="0"
       d="m 12.475209,275.31195 c -3.3361995,0 -5.7461895,2.48642 -6.1283695,5.15718 -0.2383,1.7805 0.33722,3.51605 1.53322,4.82896 1.05212,1.12405 1.62764,2.6258 1.62764,4.1725 l -0.005,2.43696 c 0,0.98467 0.8138195,1.78051 1.8209795,1.78051 h 2.34703 c 1.00716,0 1.82098,-0.79584 1.82098,-1.78051 l 0.004,-2.43696 c 0,-1.59167 0.52606,-3.04845 1.53322,-4.07808 1.10158,-1.12406 1.6771,-2.57635 1.6771,-4.07809 -0.004,-3.33171 -2.83263,-6.00247 -6.23179,-6.00247 z m 2.10424,16.59561 c 0,0.4676 -0.38218,0.84529 -0.86328,0.84529 h -2.34703 c -0.4811,0 -0.86328,-0.37319 -0.86328,-0.84529 v -1.0791 h 4.0691 v 1.0791 z m 1.78051,-7.1715 c -1.196,1.21848 -1.82097,2.90457 -1.82097,4.73454 v 0.42264 h -4.0691 v -0.42264 c 0,-1.73555 -0.7193995,-3.4666 -1.9153895,-4.7795 -1.05212,-1.12406 -1.48376,-2.57635 -1.29492,-4.07809 0.33722,-2.24812 2.42797,-4.36135 5.2201295,-4.36135 2.92255,0 5.26959,2.29758 5.26959,5.06276 0,1.26345 -0.4811,2.48193 -1.38934,3.42164 z"
       id="path9694" />
  </g>
</svg>
