<?xml version="1.0" encoding="UTF-8" standalone="no"?>
<!-- Created with Inkscape (http://www.inkscape.org/) -->

<svg
   xmlns:dc="http://purl.org/dc/elements/1.1/"
   xmlns:cc="http://creativecommons.org/ns#"
   xmlns:rdf="http://www.w3.org/1999/02/22-rdf-syntax-ns#"
   xmlns:svg="http://www.w3.org/2000/svg"
   xmlns="http://www.w3.org/2000/svg"
   xmlns:sodipodi="http://sodipodi.sourceforge.net/DTD/sodipodi-0.dtd"
   xmlns:inkscape="http://www.inkscape.org/namespaces/inkscape"
   width="25mm"
   height="25mm"
   viewBox="0 0 25 25"
   version="1.1"
   id="svg10048"
   inkscape:version="0.92.2 5c3e80d, 2017-08-06"
   sodipodi:docname="pasion.svg">
  <defs
     id="defs10042">
    <clipPath
       clipPathUnits="userSpaceOnUse"
       id="clipPath15409">
      <rect
         ry="0"
         y="168.45323"
         x="-507.81848"
         height="105.42503"
         width="91.545845"
         id="rect15411"
         style="opacity:0.68699999;fill:#ffffff;fill-opacity:1;stroke:none;stroke-width:0.96499997;stroke-linecap:round;stroke-linejoin:round;stroke-miterlimit:4;stroke-dasharray:none;stroke-opacity:1" />
    </clipPath>
  </defs>
  <sodipodi:namedview
     id="base"
     pagecolor="#ffffff"
     bordercolor="#666666"
     borderopacity="1.0"
     inkscape:pageopacity="0.0"
     inkscape:pageshadow="2"
     inkscape:zoom="0.35"
     inkscape:cx="-392.39482"
     inkscape:cy="483.04081"
     inkscape:document-units="mm"
     inkscape:current-layer="layer1"
     showgrid="false"
     inkscape:window-width="2048"
     inkscape:window-height="1447"
     inkscape:window-x="0"
     inkscape:window-y="1"
     inkscape:window-maximized="0" />
  <metadata
     id="metadata10045">
    <rdf:RDF>
      <cc:Work
         rdf:about="">
        <dc:format>image/svg+xml</dc:format>
        <dc:type
           rdf:resource="http://purl.org/dc/dcmitype/StillImage" />
        <dc:title></dc:title>
      </cc:Work>
    </rdf:RDF>
  </metadata>
  <g
     inkscape:label="Capa 1"
     inkscape:groupmode="layer"
     id="layer1"
     transform="translate(0,-272)">
    <g
       inkscape:export-ydpi="156"
       inkscape:export-xdpi="156"
       inkscape:export-filename="/Users/alonso/Documents/Ariel/AIH/AIH GROUP/Website/Recursos/DIVISIONES/ICONOS/blancos/pasion.png"
       style="fill:#ffffff;stroke:#ffffff;stroke-width:18.4040966;stroke-miterlimit:4;stroke-dasharray:none;stroke-opacity:1"
       transform="matrix(0.03844419,0,0,0.03763019,3.4328993,275.62488)"
       id="g9860">
      <g
         style="stroke:#ffffff;stroke-width:18.4040966;stroke-miterlimit:4;stroke-dasharray:none;stroke-opacity:1"
         id="g9804">
        <path
           style="stroke:#ffffff;stroke-width:18.4040966;stroke-miterlimit:4;stroke-dasharray:none;stroke-opacity:1"
           inkscape:connector-curvature="0"
           d="m 433.601,67.001 c -24.7,-24.7 -57.4,-38.2 -92.3,-38.2 -34.9,0 -67.7,13.6 -92.4,38.3 l -12.9,12.9 -13.1,-13.1 c -24.7,-24.7 -57.6,-38.4 -92.5,-38.4 -34.8,0 -67.6,13.6 -92.2,38.2 -24.7,24.7 -38.3,57.5 -38.2,92.4 0,34.9 13.7,67.6 38.4,92.3 l 187.8,187.8 c 2.6,2.6 6.1,4 9.5,4 3.4,0 6.9,-1.3 9.5,-3.9 l 188.2,-187.5 c 24.7,-24.7 38.3,-57.5 38.3,-92.4 0.1,-34.9 -13.4,-67.7 -38.1,-92.4 z m -19.2,165.7 -178.7,178 -178.3,-178.3 c -19.6,-19.6 -30.4,-45.6 -30.4,-73.3 0,-27.7 10.7,-53.7 30.3,-73.2 19.5,-19.5 45.5,-30.3 73.1,-30.3 27.7,0 53.8,10.8 73.4,30.4 l 22.6,22.6 c 5.3,5.3 13.8,5.3 19.1,0 l 22.4,-22.4 c 19.6,-19.6 45.7,-30.4 73.3,-30.4 27.6,0 53.6,10.8 73.2,30.3 19.6,19.6 30.3,45.6 30.3,73.3 0.1,27.7 -10.7,53.7 -30.3,73.3 z"
           id="path9802" />
      </g>
      <g
         style="stroke:#ffffff;stroke-width:18.4040966;stroke-miterlimit:4;stroke-dasharray:none;stroke-opacity:1"
         id="g9806" />
      <g
         style="stroke:#ffffff;stroke-width:18.4040966;stroke-miterlimit:4;stroke-dasharray:none;stroke-opacity:1"
         id="g9808" />
      <g
         style="stroke:#ffffff;stroke-width:18.4040966;stroke-miterlimit:4;stroke-dasharray:none;stroke-opacity:1"
         id="g9810" />
      <g
         style="stroke:#ffffff;stroke-width:18.4040966;stroke-miterlimit:4;stroke-dasharray:none;stroke-opacity:1"
         id="g9812" />
      <g
         style="stroke:#ffffff;stroke-width:18.4040966;stroke-miterlimit:4;stroke-dasharray:none;stroke-opacity:1"
         id="g9814" />
      <g
         style="stroke:#ffffff;stroke-width:18.4040966;stroke-miterlimit:4;stroke-dasharray:none;stroke-opacity:1"
         id="g9816" />
      <g
         style="stroke:#ffffff;stroke-width:18.4040966;stroke-miterlimit:4;stroke-dasharray:none;stroke-opacity:1"
         id="g9818" />
      <g
         style="stroke:#ffffff;stroke-width:18.4040966;stroke-miterlimit:4;stroke-dasharray:none;stroke-opacity:1"
         id="g9820" />
      <g
         style="stroke:#ffffff;stroke-width:18.4040966;stroke-miterlimit:4;stroke-dasharray:none;stroke-opacity:1"
         id="g9822" />
      <g
         style="stroke:#ffffff;stroke-width:18.4040966;stroke-miterlimit:4;stroke-dasharray:none;stroke-opacity:1"
         id="g9824" />
      <g
         style="stroke:#ffffff;stroke-width:18.4040966;stroke-miterlimit:4;stroke-dasharray:none;stroke-opacity:1"
         id="g9826" />
      <g
         style="stroke:#ffffff;stroke-width:18.4040966;stroke-miterlimit:4;stroke-dasharray:none;stroke-opacity:1"
         id="g9828" />
      <g
         style="stroke:#ffffff;stroke-width:18.4040966;stroke-miterlimit:4;stroke-dasharray:none;stroke-opacity:1"
         id="g9830" />
      <g
         style="stroke:#ffffff;stroke-width:18.4040966;stroke-miterlimit:4;stroke-dasharray:none;stroke-opacity:1"
         id="g9832" />
      <g
         style="stroke:#ffffff;stroke-width:18.4040966;stroke-miterlimit:4;stroke-dasharray:none;stroke-opacity:1"
         id="g9834" />
    </g>
  </g>
</svg>
