<?xml version="1.0" encoding="UTF-8" standalone="no"?>
<!-- Created with Inkscape (http://www.inkscape.org/) -->

<svg
   xmlns:dc="http://purl.org/dc/elements/1.1/"
   xmlns:cc="http://creativecommons.org/ns#"
   xmlns:rdf="http://www.w3.org/1999/02/22-rdf-syntax-ns#"
   xmlns:svg="http://www.w3.org/2000/svg"
   xmlns="http://www.w3.org/2000/svg"
   xmlns:sodipodi="http://sodipodi.sourceforge.net/DTD/sodipodi-0.dtd"
   xmlns:inkscape="http://www.inkscape.org/namespaces/inkscape"
   width="25mm"
   height="25mm"
   viewBox="0 0 25 25"
   version="1.1"
   id="svg10048"
   inkscape:version="0.92.2 5c3e80d, 2017-08-06"
   sodipodi:docname="proyectos-personalizados.svg">
  <defs
     id="defs10042">
    <clipPath
       clipPathUnits="userSpaceOnUse"
       id="clipPath15409">
      <rect
         ry="0"
         y="168.45323"
         x="-507.81848"
         height="105.42503"
         width="91.545845"
         id="rect15411"
         style="opacity:0.68699999;fill:#ffffff;fill-opacity:1;stroke:none;stroke-width:0.96499997;stroke-linecap:round;stroke-linejoin:round;stroke-miterlimit:4;stroke-dasharray:none;stroke-opacity:1" />
    </clipPath>
  </defs>
  <sodipodi:namedview
     id="base"
     pagecolor="#ffffff"
     bordercolor="#666666"
     borderopacity="1.0"
     inkscape:pageopacity="0.0"
     inkscape:pageshadow="2"
     inkscape:zoom="5.6"
     inkscape:cx="20.532199"
     inkscape:cy="43.56938"
     inkscape:document-units="mm"
     inkscape:current-layer="layer1"
     showgrid="false"
     inkscape:window-width="2048"
     inkscape:window-height="1447"
     inkscape:window-x="569"
     inkscape:window-y="18"
     inkscape:window-maximized="0" />
  <metadata
     id="metadata10045">
    <rdf:RDF>
      <cc:Work
         rdf:about="">
        <dc:format>image/svg+xml</dc:format>
        <dc:type
           rdf:resource="http://purl.org/dc/dcmitype/StillImage" />
        <dc:title></dc:title>
      </cc:Work>
    </rdf:RDF>
  </metadata>
  <g
     inkscape:label="Capa 1"
     inkscape:groupmode="layer"
     id="layer1"
     transform="translate(0,-272)">
    <path
       id="path966"
       style="fill:#ffffff;stroke:#ffffff;stroke-width:0.30000001;stroke-miterlimit:4;stroke-dasharray:none;stroke-opacity:1;fill-opacity:1"
       d="m 19.215455,277.21595 c -0.27349,-0.0231 -0.80693,0.16857 -1.67879,0.6003 -2.0044,0.99252 -4.212175,2.53838 -5.716502,4.00281 -1.059841,1.03172 -1.729541,1.89809 -2.1949609,2.8399 -0.2109899,0.42694 -0.3274838,0.74528 -0.4225219,1.15417 -0.025191,0.10843 -0.04967,0.20102 -0.05413,0.20549 -0.0046,0.004 -0.08083,2.6e-4 -0.16906,-0.01 -0.2092889,-0.0238 -0.3238151,-0.0224 -0.5182119,0.005 -0.4598802,0.0658 -0.8278941,0.25057 -1.1572551,0.58106 -0.325612,0.32675 -0.649724,0.82349 -1.015901,1.5567 -0.4732081,0.94752 -0.771002,1.80669 -0.8735211,2.51999 -0.02711,0.1885 -0.03054,0.45003 -0.0067,0.51335 0.02224,0.059 0.106451,0.14681 0.166494,0.17367 0.02952,0.0132 0.108873,0.0216 0.207285,0.0218 0.8717971,0.003 2.6351892,-0.67132 3.8198902,-1.45792 0.298378,-0.19811 0.4630987,-0.32922 0.6226227,-0.49666 0.394181,-0.41374 0.594438,-0.99651 0.541301,-1.57413 -0.0097,-0.10647 -0.01903,-0.19984 -0.02053,-0.20754 -0.0049,-0.0237 0.03786,-0.0388 0.236274,-0.0837 0.733688,-0.1658 1.54304,-0.57433 2.376858,-1.19958 1.748179,-1.31093 3.672869,-3.68183 5.194939,-6.39941 0.27515,-0.49125 0.68215,-1.30449 0.68215,-1.363 0,-0.0153 0.0105,-0.0468 0.0226,-0.07 0.0513,-0.0958 0.10489,-0.21741 0.10489,-0.23807 0,-0.0121 0.0251,-0.0745 0.0559,-0.13827 0.0307,-0.0638 0.0559,-0.13345 0.0559,-0.1547 0,-0.0213 0.009,-0.0527 0.0219,-0.07 0.0603,-0.0867 0.0771,-0.38581 0.0279,-0.49409 -0.0335,-0.0737 -0.126332,-0.16102 -0.207542,-0.19497 -0.0287,-0.012 -0.0623,-0.0195 -0.10133,-0.0228 z m -0.43253,0.75218 c 0.0345,0 0.0213,0.0463 -0.0751,0.26244 -0.0432,0.0969 -0.0787,0.19144 -0.0787,0.2101 0,0.0186 -0.0105,0.0425 -0.0226,0.0529 -0.0118,0.0104 -0.094,0.15998 -0.18112,0.33273 -0.660821,1.3093 -1.67285,2.87893 -2.692391,4.17597 -0.65872,0.838 -1.4383,1.6871 -2.04104,2.22318 -0.11357,0.10104 -0.219365,0.19395 -0.235249,0.20626 -0.02645,0.0206 -0.117519,-0.0661 -1.096706,-1.04489 -0.587216,-0.58697 -1.067467,-1.07197 -1.067467,-1.07773 0,-0.0292 0.403149,-0.46634 0.756796,-0.82041 0.504449,-0.50507 0.975858,-0.92355 1.571826,-1.39584 1.262481,-1.00048 2.868171,-2.02846 4.242411,-2.716 0.38626,-0.19325 0.87093,-0.40866 0.91944,-0.40866 z m -7.912475,5.87939 c 0.01,-0.004 0.472885,0.44744 1.028471,1.00307 0.852511,0.8526 1.006927,1.01406 0.990247,1.03412 -0.01092,0.0132 -0.117967,0.0918 -0.23807,0.1747 -0.581108,0.40113 -1.138283,0.6788 -1.667514,0.83145 v 2.6e-4 c -0.07774,0.0224 -0.153074,0.0405 -0.16752,0.0405 -0.01442,0 -0.241364,-0.21483 -0.504103,-0.47768 l -0.4776778,-0.47793 0.02027,-0.10031 c 0.06623,-0.32778 0.2958398,-0.8802 0.5528428,-1.3299 0.113203,-0.19807 0.438781,-0.68897 0.463057,-0.6983 z m -2.0554037,2.80168 c 0.3364868,0.0153 0.6354678,0.14726 0.8876319,0.39199 0.1806281,0.1753 0.29552,0.36694 0.3714688,0.61955 0.03594,0.11962 0.04264,0.17208 0.04413,0.35557 0.0021,0.2513 -0.02417,0.38161 -0.117756,0.58413 -0.08621,0.18661 -0.1687549,0.2998 -0.3301668,0.45306 -0.5580401,0.52984 -2.1492971,1.30544 -3.2347211,1.57669 -0.105267,0.0263 -0.230167,0.053 -0.2775761,0.0592 l -0.0862,0.0105 0.01026,-0.0859 c 0.01694,-0.14207 0.115572,-0.5052 0.2190871,-0.8071 0.05353,-0.15613 0.10099,-0.30897 0.105952,-0.33964 0.0047,-0.0307 0.02173,-0.0744 0.03772,-0.097 0.03426,-0.0486 0.09441,-0.19657 0.09441,-0.23217 0,-0.0137 0.01445,-0.0451 0.03207,-0.0697 0.01762,-0.0247 0.03656,-0.069 0.04207,-0.0983 0.0055,-0.0292 0.01899,-0.0638 0.03002,-0.077 0.01105,-0.0132 0.08838,-0.16398 0.171882,-0.33504 0.276278,-0.56594 0.571307,-1.05917 0.814516,-1.36172 0.273403,-0.34011 0.6257319,-0.52555 1.0387341,-0.54694 0.04957,-0.002 0.09841,-0.003 0.1464828,-0.001 z"
       inkscape:connector-curvature="0"
       inkscape:export-filename="/Users/alonso/Documents/Ariel/AIH/AIH GROUP/Website/Recursos/DIVISIONES/ICONOS/blancos/proyectos-perosnalizados.png"
       inkscape:export-xdpi="162"
       inkscape:export-ydpi="162" />
  </g>
</svg>
