<?xml version="1.0" encoding="UTF-8" standalone="no"?>
<!-- Created with Inkscape (http://www.inkscape.org/) -->

<svg
   xmlns:dc="http://purl.org/dc/elements/1.1/"
   xmlns:cc="http://creativecommons.org/ns#"
   xmlns:rdf="http://www.w3.org/1999/02/22-rdf-syntax-ns#"
   xmlns:svg="http://www.w3.org/2000/svg"
   xmlns="http://www.w3.org/2000/svg"
   xmlns:sodipodi="http://sodipodi.sourceforge.net/DTD/sodipodi-0.dtd"
   xmlns:inkscape="http://www.inkscape.org/namespaces/inkscape"
   width="25mm"
   height="25mm"
   viewBox="0 0 25 25"
   version="1.1"
   id="svg10048"
   inkscape:version="0.92.2 5c3e80d, 2017-08-06"
   sodipodi:docname="seguimiento.svg">
  <defs
     id="defs10042">
    <clipPath
       clipPathUnits="userSpaceOnUse"
       id="clipPath15409">
      <rect
         ry="0"
         y="168.45323"
         x="-507.81848"
         height="105.42503"
         width="91.545845"
         id="rect15411"
         style="opacity:0.68699999;fill:#ffffff;fill-opacity:1;stroke:none;stroke-width:0.96499997;stroke-linecap:round;stroke-linejoin:round;stroke-miterlimit:4;stroke-dasharray:none;stroke-opacity:1" />
    </clipPath>
  </defs>
  <sodipodi:namedview
     id="base"
     pagecolor="#ffffff"
     bordercolor="#666666"
     borderopacity="1.0"
     inkscape:pageopacity="0.0"
     inkscape:pageshadow="2"
     inkscape:zoom="0.7"
     inkscape:cx="26.583566"
     inkscape:cy="214.40517"
     inkscape:document-units="mm"
     inkscape:current-layer="layer1"
     showgrid="false"
     inkscape:window-width="2048"
     inkscape:window-height="1447"
     inkscape:window-x="0"
     inkscape:window-y="1"
     inkscape:window-maximized="0" />
  <metadata
     id="metadata10045">
    <rdf:RDF>
      <cc:Work
         rdf:about="">
        <dc:format>image/svg+xml</dc:format>
        <dc:type
           rdf:resource="http://purl.org/dc/dcmitype/StillImage" />
        <dc:title></dc:title>
      </cc:Work>
    </rdf:RDF>
  </metadata>
  <g
     inkscape:label="Capa 1"
     inkscape:groupmode="layer"
     id="layer1"
     transform="translate(0,-272)">
    <path
       id="path9886"
       style="fill:#ffffff;stroke-width:1"
       d="m 9.875452,275.74226 c -0.65588,0 -0.95546,0.0351 -1.5186603,0.17607 -1.76416,0.44177 -3.34544,1.77174 -4.07655,3.42936 -0.34984,0.79316 -0.49444,1.42997 -0.52228,2.3009 -0.0238,0.74128 0.0343,1.24876 0.21476,1.87797 0.30114,1.0501 0.80882,1.90254 1.60311,2.69173 0.42017,0.41749 0.76617,0.68321 1.25456,0.96426 1.99472,1.14778 4.5138103,1.06828 6.4107803,-0.20284 0.1424,-0.0954 0.2745,-0.17406 0.29327,-0.1743 0.0455,-6.1e-4 0.94997,0.90335 0.94997,0.94939 0,0.0198 -0.0927,0.12777 -0.20581,0.23972 -0.22869,0.22632 -0.27092,0.33577 -0.19688,0.50742 0.0306,0.0707 0.89225,0.95398 2.21998,2.27532 2.33466,2.3235 2.32482,2.31463 2.79644,2.42881 0.58899,0.14256 1.1675,-0.0123 1.618,-0.43425 0.61334,-0.57376 0.70585,-1.51126 0.22247,-2.25571 -0.0874,-0.13473 -0.88023,-0.95275 -2.2676,-2.33896 l -2.13373,-2.13137 h -0.14933 c -0.13528,0 -0.16898,0.0191 -0.36463,0.207 -0.11862,0.11385 -0.23817,0.20703 -0.26592,0.20703 -0.0277,0 -0.25824,-0.20935 -0.51158,-0.46519 -0.45272,-0.45719 -0.45962,-0.46645 -0.4045,-0.54369 0.31887,-0.44672 0.58177,-0.93639 0.76143,-1.41755 0.86098,-2.30586 0.31538,-4.81807 -1.41695,-6.52201 -0.51117,-0.50281 -0.97016,-0.83533 -1.56507,-1.13321 -0.90049,-0.45092 -1.69964,-0.6359 -2.74528,-0.6359 z m -0.0281,1.74471 c 0.45909,-0.003 0.91789,0.061 1.33549,0.19274 1.3388,0.4222 2.40427,1.47103 2.85292,2.80771 0.27359,0.81525 0.27905,1.85317 0.0142,2.69828 -0.46873,1.49228 -1.75416,2.64939 -3.28957,2.9624 -1.14639,0.23338 -2.3156503,0.01 -3.2913303,-0.62995 -0.39947,-0.2619 -0.98414,-0.83938 -1.23075,-1.21591 -0.49544,-0.75645 -0.73017,-1.53724 -0.72989,-2.42997 2.1e-4,-0.71429 0.11808,-1.25212 0.41222,-1.8863 0.49163,-1.05978 1.46491,-1.91965 2.5912,-2.28901 0.4176503,-0.13697 0.8769703,-0.20708 1.3360503,-0.20999 z"
       inkscape:connector-curvature="0"
       inkscape:export-filename="/Users/alonso/Documents/Ariel/AIH/AIH GROUP/Website/Recursos/DIVISIONES/ICONOS/blancos/liupa.png"
       inkscape:export-xdpi="156"
       inkscape:export-ydpi="156" />
  </g>
</svg>
