<?xml version="1.0" encoding="UTF-8" standalone="no"?>
<!-- Created with Inkscape (http://www.inkscape.org/) -->

<svg
   xmlns:dc="http://purl.org/dc/elements/1.1/"
   xmlns:cc="http://creativecommons.org/ns#"
   xmlns:rdf="http://www.w3.org/1999/02/22-rdf-syntax-ns#"
   xmlns:svg="http://www.w3.org/2000/svg"
   xmlns="http://www.w3.org/2000/svg"
   xmlns:sodipodi="http://sodipodi.sourceforge.net/DTD/sodipodi-0.dtd"
   xmlns:inkscape="http://www.inkscape.org/namespaces/inkscape"
   width="25mm"
   height="25mm"
   viewBox="0 0 25 25"
   version="1.1"
   id="svg10048"
   inkscape:version="0.92.2 5c3e80d, 2017-08-06"
   sodipodi:docname="seguridad.svg">
  <defs
     id="defs10042">
    <clipPath
       clipPathUnits="userSpaceOnUse"
       id="clipPath15409">
      <rect
         ry="0"
         y="168.45323"
         x="-507.81848"
         height="105.42503"
         width="91.545845"
         id="rect15411"
         style="opacity:0.68699999;fill:#ffffff;fill-opacity:1;stroke:none;stroke-width:0.96499997;stroke-linecap:round;stroke-linejoin:round;stroke-miterlimit:4;stroke-dasharray:none;stroke-opacity:1" />
    </clipPath>
  </defs>
  <sodipodi:namedview
     id="base"
     pagecolor="#ffffff"
     bordercolor="#666666"
     borderopacity="1.0"
     inkscape:pageopacity="0.0"
     inkscape:pageshadow="2"
     inkscape:zoom="0.49497475"
     inkscape:cx="-71.284153"
     inkscape:cy="339.90219"
     inkscape:document-units="mm"
     inkscape:current-layer="layer1"
     showgrid="false"
     inkscape:window-width="2048"
     inkscape:window-height="1447"
     inkscape:window-x="0"
     inkscape:window-y="1"
     inkscape:window-maximized="0" />
  <metadata
     id="metadata10045">
    <rdf:RDF>
      <cc:Work
         rdf:about="">
        <dc:format>image/svg+xml</dc:format>
        <dc:type
           rdf:resource="http://purl.org/dc/dcmitype/StillImage" />
        <dc:title></dc:title>
      </cc:Work>
    </rdf:RDF>
  </metadata>
  <g
     inkscape:label="Capa 1"
     inkscape:groupmode="layer"
     id="layer1"
     transform="translate(0,-272)">
    <g
       id="g5099"
       transform="matrix(0.0376222,0,0,0.0376222,2.8687168,274.86872)"
       style="fill:#ffffff;stroke-width:7.03263903"
       inkscape:export-filename="/Users/alonso/Documents/Ariel/AIH/AIH GROUP/Website/Recursos/DIVISIONES/ICONOS/blancos/candado.png"
       inkscape:export-xdpi="156"
       inkscape:export-ydpi="156">
      <g
         id="g5033"
         style="fill:#ffffff;stroke-width:7.03263903">
        <g
           id="g5031"
           style="fill:#ffffff;stroke-width:7.03263903">
          <path
             id="path5029"
             d="M 400,188 H 363.963 V 105.77 C 363.963,47.448 315.514,0 255.963,0 c -59.551,0 -108,47.448 -108,105.77 V 188 H 112 c -33.084,0 -60,26.916 -60,60 v 204 c 0,33.084 26.916,60 60,60 h 288 c 33.084,0 60,-26.916 60,-60 V 248 c 0,-33.084 -26.916,-60 -60,-60 z M 187.963,105.77 c 0,-36.266 30.505,-65.77 68,-65.77 37.495,0 68,29.504 68,65.77 V 188 h -136 V 105.77 Z M 420,452 c 0,11.028 -8.972,20 -20,20 H 112 c -11.028,0 -20,-8.972 -20,-20 V 248 c 0,-11.028 8.972,-20 20,-20 h 288 c 11.028,0 20,8.972 20,20 z"
             inkscape:connector-curvature="0"
             style="fill:#ffffff;stroke-width:7.03263903" />
        </g>
      </g>
      <g
         id="g5039"
         style="fill:#ffffff;stroke-width:7.03263903">
        <g
           id="g5037"
           style="fill:#ffffff;stroke-width:7.03263903">
          <path
             id="path5035"
             d="m 256,286 c -20.435,0 -37,16.565 -37,37 0,13.048 6.76,24.51 16.963,31.098 V 398 c 0,11.045 8.954,20 20,20 11.045,0 20,-8.955 20,-20 V 354.145 C 286.207,347.565 293,336.08 293,323 c 0,-20.435 -16.565,-37 -37,-37 z"
             inkscape:connector-curvature="0"
             style="fill:#ffffff;stroke-width:7.03263903" />
        </g>
      </g>
      <g
         id="g5041"
         style="fill:#ffffff;stroke-width:7.03263903" />
      <g
         id="g5043"
         style="fill:#ffffff;stroke-width:7.03263903" />
      <g
         id="g5045"
         style="fill:#ffffff;stroke-width:7.03263903" />
      <g
         id="g5047"
         style="fill:#ffffff;stroke-width:7.03263903" />
      <g
         id="g5049"
         style="fill:#ffffff;stroke-width:7.03263903" />
      <g
         id="g5051"
         style="fill:#ffffff;stroke-width:7.03263903" />
      <g
         id="g5053"
         style="fill:#ffffff;stroke-width:7.03263903" />
      <g
         id="g5055"
         style="fill:#ffffff;stroke-width:7.03263903" />
      <g
         id="g5057"
         style="fill:#ffffff;stroke-width:7.03263903" />
      <g
         id="g5059"
         style="fill:#ffffff;stroke-width:7.03263903" />
      <g
         id="g5061"
         style="fill:#ffffff;stroke-width:7.03263903" />
      <g
         id="g5063"
         style="fill:#ffffff;stroke-width:7.03263903" />
      <g
         id="g5065"
         style="fill:#ffffff;stroke-width:7.03263903" />
      <g
         id="g5067"
         style="fill:#ffffff;stroke-width:7.03263903" />
      <g
         id="g5069"
         style="fill:#ffffff;stroke-width:7.03263903" />
    </g>
  </g>
</svg>
