<?xml version="1.0" encoding="UTF-8" standalone="no"?>
<!-- Created with Inkscape (http://www.inkscape.org/) -->

<svg
   xmlns:dc="http://purl.org/dc/elements/1.1/"
   xmlns:cc="http://creativecommons.org/ns#"
   xmlns:rdf="http://www.w3.org/1999/02/22-rdf-syntax-ns#"
   xmlns:svg="http://www.w3.org/2000/svg"
   xmlns="http://www.w3.org/2000/svg"
   xmlns:sodipodi="http://sodipodi.sourceforge.net/DTD/sodipodi-0.dtd"
   xmlns:inkscape="http://www.inkscape.org/namespaces/inkscape"
   width="25mm"
   height="25mm"
   viewBox="0 0 25 25"
   version="1.1"
   id="svg10048"
   inkscape:version="0.92.2 5c3e80d, 2017-08-06"
   sodipodi:docname="vision.svg">
  <defs
     id="defs10042">
    <clipPath
       clipPathUnits="userSpaceOnUse"
       id="clipPath15409">
      <rect
         ry="0"
         y="168.45323"
         x="-507.81848"
         height="105.42503"
         width="91.545845"
         id="rect15411"
         style="opacity:0.68699999;fill:#ffffff;fill-opacity:1;stroke:none;stroke-width:0.96499997;stroke-linecap:round;stroke-linejoin:round;stroke-miterlimit:4;stroke-dasharray:none;stroke-opacity:1" />
    </clipPath>
  </defs>
  <sodipodi:namedview
     id="base"
     pagecolor="#ffffff"
     bordercolor="#666666"
     borderopacity="1.0"
     inkscape:pageopacity="0.0"
     inkscape:pageshadow="2"
     inkscape:zoom="0.35"
     inkscape:cx="-302.48892"
     inkscape:cy="502.45207"
     inkscape:document-units="mm"
     inkscape:current-layer="layer1"
     showgrid="false"
     inkscape:window-width="2048"
     inkscape:window-height="1447"
     inkscape:window-x="0"
     inkscape:window-y="1"
     inkscape:window-maximized="0" />
  <metadata
     id="metadata10045">
    <rdf:RDF>
      <cc:Work
         rdf:about="">
        <dc:format>image/svg+xml</dc:format>
        <dc:type
           rdf:resource="http://purl.org/dc/dcmitype/StillImage" />
        <dc:title></dc:title>
      </cc:Work>
    </rdf:RDF>
  </metadata>
  <g
     inkscape:label="Capa 1"
     inkscape:groupmode="layer"
     id="layer1"
     transform="translate(0,-272)">
    <path
       inkscape:connector-curvature="0"
       d="m 12.46502,277.85323 c -0.11262,7.1e-4 -0.224,0 -0.33541,0.0109 -3.1057898,0.14271 -6.2813598,1.66806 -9.3393098,4.48602 -0.81387,0.74992 -1.96902,2.01561 -1.96902,2.15732 0,0.0833 0.64348,0.81054 1.34851,1.52483 3.03206,3.07152 6.47833,4.87368 9.7622798,5.10505 0.44334,0.0314 1.46871,-0.0179 2.02471,-0.0979 2.59332,-0.37147 5.30362,-1.75525 7.86475,-4.01537 1.05495,-0.93087 2.35719,-2.32368 2.35719,-2.52092 0,-0.11016 -0.39,-0.58451 -1.00767,-1.22646 -3.3704,-3.50331 -7.22815,-5.45222 -10.70603,-5.42163 z m 0.12217,1.32776 c 0.35071,0 0.69907,0.0259 1.04483,0.0709 1.16177,0.15215 2.26985,0.5097 3.53471,1.14087 1.63449,0.81536 3.33552,2.07532 4.80748,3.56076 0.39473,0.39836 0.48048,0.51061 0.45404,0.59394 -0.0405,0.12682 -1.17797,1.22328 -1.78036,1.71567 -0.24447,0.19985 -0.52877,0.43593 -0.63189,0.52454 -0.10361,0.0887 -0.43646,0.33535 -0.74082,0.54804 -1.90372,1.33136 -3.61777,2.083 -5.41097,2.37283 -0.59169,0.0956 -1.58766,0.13159 -2.14774,0.0777 -1.35997,-0.13091 -2.9763398,-0.66692 -4.3972098,-1.45823 -0.61421,-0.34211 -1.67389,-1.04077 -1.9797,-1.30517 -0.12504,-0.10797 -0.2762,-0.22268 -0.33585,-0.25451 -0.19879,-0.10579 -1.38531,-1.15919 -1.92848,-1.71217 l -0.53609,-0.54569 0.24907,-0.28579 c 0.13708,-0.15722 0.53385,-0.54601 0.88175,-0.86407 3.0485,-2.78702 6.0617596,-4.19723 8.9172298,-4.1799 z m -0.0755,1.18472 c -1.93883,7.2e-4 -3.7142398,1.4471 -4.0592098,3.42336 -0.0934,0.5342 -0.0945,0.85877 0,1.43292 0.082,0.52465 0.15183,0.72923 0.3963,1.1585 0.6502096,1.14177 1.5194598,1.82959 2.6835898,2.1237 0.30817,0.0777 0.51505,0.0934 1.09594,0.0809 0.65595,-0.0139 0.75477,-0.0281 1.17775,-0.17251 1.00994,-0.3455 1.81211,-1.01108 2.32163,-1.92632 0.42803,-0.76893 0.513,-1.11454 0.50714,-2.06341 -0.0123,-1.98694 -1.50762,-3.69428 -3.51266,-4.01042 -0.20271,-0.0314 -0.40507,-0.0472 -0.60564,-0.0472 z m 0.0968,0.98475 c 0.24559,0 0.47881,0.0249 0.6572,0.0698 1.48131,0.38036 2.49845,1.75649 2.40549,3.25443 -0.0303,0.48686 -0.15477,0.88138 -0.46384,1.46992 -0.3344,0.63666 -1.23021,1.27839 -2.01717,1.44497 -0.70549,0.14935 -1.47265,0.0506 -2.1079,-0.27239 -0.37749,-0.19165 -0.97437,-0.72418 -1.2110702,-1.08047 -0.0991,-0.14991 -0.24738,-0.46179 -0.32842,-0.69312 -0.13487,-0.3852 -0.14744,-0.47674 -0.1489,-1.08688 -0.001,-0.6009 0.0109,-0.69863 0.12627,-0.99868 0.3631,-0.94281 1.0257002,-1.60367 1.9558302,-1.9505 0.28025,-0.10456 0.72337,-0.16016 1.13251,-0.15735 z m -0.0642,0.73744 c -0.20947,0 -0.42264,0.0213 -0.63515,0.0764 -0.42331,0.11016 -0.75253,0.30355 -1.0886,0.63938 -0.54104,0.54062 -0.75062,1.1097 -0.69604,1.89044 0.0382,0.54995 0.14048,0.83978 0.42151,1.19754 0.40238,0.51239 0.77989,0.77882 1.35401,0.95585 0.58168,0.17949 1.39713,0.0202 2.0129,-0.39228 0.73588,-0.4934 1.1342,-1.44216 0.98247,-2.34065 -0.19876,-1.17808 -1.21984,-2.00864 -2.3511,-2.02675 z m -0.0551,1.33294 c 0.17085,-7.2e-4 0.35025,0.0405 0.52832,0.13364 0.5435,0.28544 0.73102,0.90961 0.44221,1.47117 -0.10579,0.20569 -0.17681,0.2717 -0.43637,0.40598 -0.40463,0.20942 -0.62522,0.20909 -1.01747,-10e-4 -0.25009,-0.13419 -0.31797,-0.20132 -0.43558,-0.43041 -0.39901,-0.77725 0.17885,-1.57475 0.91889,-1.57902 z"
       style="fill:#ffffff;fill-opacity:0.96078431;stroke:#ffffff;stroke-width:0.10000002;stroke-miterlimit:4;stroke-dasharray:none;stroke-opacity:1"
       id="path9339-0-8"
       inkscape:export-filename="/Users/alonso/Documents/Ariel/AIH/AIH GROUP/Website/Recursos/DIVISIONES/ICONOS/blancos/seguimiento.png"
       inkscape:export-xdpi="156"
       inkscape:export-ydpi="156" />
  </g>
</svg>
